<?xml version="1.0" encoding="UTF-8" standalone="no"?>
<!-- Created with Inkscape (http://www.inkscape.org/) -->

<svg
   width="1024.0px"
   height="768.0px"
   viewBox="0 0 1024.0 768.0"
   version="1.1"
   id="SVGRoot"
   sodipodi:docname="bothsides.svg"
   inkscape:version="1.2 (1:1.2.1+202207142221+cd75a1ee6d)"
   xml:space="preserve"
   xmlns:inkscape="http://www.inkscape.org/namespaces/inkscape"
   xmlns:sodipodi="http://sodipodi.sourceforge.net/DTD/sodipodi-0.dtd"
   xmlns="http://www.w3.org/2000/svg"
   xmlns:svg="http://www.w3.org/2000/svg"><sodipodi:namedview
     id="namedview2909"
     pagecolor="#ffffff"
     bordercolor="#666666"
     borderopacity="1.0"
     inkscape:showpageshadow="2"
     inkscape:pageopacity="0.0"
     inkscape:pagecheckerboard="0"
     inkscape:deskcolor="#d1d1d1"
     inkscape:document-units="px"
     showgrid="false"
     inkscape:zoom="0.5946522"
     inkscape:cx="859.32584"
     inkscape:cy="514.58651"
     inkscape:window-width="1600"
     inkscape:window-height="1129"
     inkscape:window-x="0"
     inkscape:window-y="34"
     inkscape:window-maximized="1"
     inkscape:current-layer="layer5" /><defs
     id="defs2904"><marker
       style="overflow:visible"
       id="TriangleStart"
       refX="0"
       refY="0"
       orient="auto-start-reverse"
       inkscape:stockid="TriangleStart"
       markerWidth="5.3244081"
       markerHeight="6.155385"
       viewBox="0 0 5.3244081 6.1553851"
       inkscape:isstock="true"
       inkscape:collect="always"
       preserveAspectRatio="xMidYMid"><path
         transform="scale(0.5)"
         style="fill:context-stroke;fill-rule:evenodd;stroke:context-stroke;stroke-width:1pt"
         d="M 5.77,0 -2.88,5 V -5 Z"
         id="path135" /></marker></defs><g
     inkscape:label="Layer 1"
     inkscape:groupmode="layer"
     id="layer1"><g
       inkscape:groupmode="layer"
       id="layer4"
       inkscape:label="Layer 2"
       style="display:inline"
       transform="matrix(1.4467856,0,0,1.4467856,-203.57544,-474.3629)"><path
         sodipodi:type="star"
         style="color:#000000;overflow:visible;fill:none;stroke:#038bb4;stroke-width:8.91546;stroke-dasharray:none;stroke-opacity:1;stop-color:#000000"
         id="path16762"
         inkscape:flatsided="true"
         sodipodi:sides="6"
         sodipodi:cx="595.31805"
         sodipodi:cy="301.539"
         sodipodi:r1="52.589668"
         sodipodi:r2="45.543991"
         sodipodi:arg1="1.0471976"
         sodipodi:arg2="1.5707963"
         inkscape:rounded="0"
         inkscape:randomized="0"
         d="m 621.61289,347.08299 -52.58967,0 -26.29483,-45.54399 26.29483,-45.54399 52.58967,0 26.29483,45.54399 z"
         transform="matrix(0.33919001,0,0,0.33919001,112.24113,498.70096)" /><path
         sodipodi:type="star"
         style="color:#000000;overflow:visible;fill:none;stroke:#038bb4;stroke-width:8.91546;stroke-dasharray:none;stroke-opacity:1;stop-color:#000000"
         id="path16762-3"
         inkscape:flatsided="true"
         sodipodi:sides="6"
         sodipodi:cx="595.31805"
         sodipodi:cy="301.539"
         sodipodi:r1="52.589668"
         sodipodi:r2="45.543991"
         sodipodi:arg1="1.0471976"
         sodipodi:arg2="1.5707963"
         inkscape:rounded="0"
         inkscape:randomized="0"
         d="m 621.61289,347.08299 -52.58967,0 -26.29483,-45.54399 26.29483,-45.54399 52.58967,0 26.29483,45.54399 z"
         transform="matrix(0.33919001,0,0,0.33919001,112.31395,533.8037)" /><path
         sodipodi:type="star"
         style="color:#000000;overflow:visible;fill:none;stroke:#038bb4;stroke-width:8.91546;stroke-dasharray:none;stroke-opacity:1;stop-color:#000000"
         id="path16762-2"
         inkscape:flatsided="true"
         sodipodi:sides="6"
         sodipodi:cx="595.31805"
         sodipodi:cy="301.539"
         sodipodi:r1="52.589668"
         sodipodi:r2="45.543991"
         sodipodi:arg1="1.0471976"
         sodipodi:arg2="1.5707963"
         inkscape:rounded="0"
         inkscape:randomized="0"
         d="m 621.61289,347.08299 -52.58967,0 -26.29483,-45.54399 26.29483,-45.54399 52.58967,0 26.29483,45.54399 z"
         transform="matrix(0.33919001,0,0,0.33919001,142.16236,516.36346)" /><path
         sodipodi:type="star"
         style="color:#000000;overflow:visible;fill:none;stroke:#038bb4;stroke-width:8.91546;stroke-dasharray:none;stroke-opacity:1;stop-color:#000000"
         id="path16762-3-8"
         inkscape:flatsided="true"
         sodipodi:sides="6"
         sodipodi:cx="595.31805"
         sodipodi:cy="301.539"
         sodipodi:r1="52.589668"
         sodipodi:r2="45.543991"
         sodipodi:arg1="1.0471976"
         sodipodi:arg2="1.5707963"
         inkscape:rounded="0"
         inkscape:randomized="0"
         d="m 621.61289,347.08299 -52.58967,0 -26.29483,-45.54399 26.29483,-45.54399 52.58967,0 26.29483,45.54399 z"
         transform="matrix(0.33919001,0,0,0.33919001,142.23518,551.4662)" /><path
         sodipodi:type="star"
         style="color:#000000;overflow:visible;fill:#000000;fill-opacity:0;stroke:#000000;stroke-width:8.91546;stroke-dasharray:none;stroke-opacity:1;stop-color:#000000"
         id="path16762-36"
         inkscape:flatsided="true"
         sodipodi:sides="6"
         sodipodi:cx="595.31805"
         sodipodi:cy="301.539"
         sodipodi:r1="52.589668"
         sodipodi:r2="45.543991"
         sodipodi:arg1="1.0471976"
         sodipodi:arg2="1.5707963"
         inkscape:rounded="0"
         inkscape:randomized="0"
         d="m 621.61289,347.08299 -52.58967,0 -26.29483,-45.54399 26.29483,-45.54399 52.58967,0 26.29483,45.54399 z"
         transform="matrix(0.33919001,0,0,0.33919001,391.20391,479.74896)" /><path
         sodipodi:type="star"
         style="color:#000000;overflow:visible;fill:#000000;fill-opacity:0;stroke:#000000;stroke-width:8.91546;stroke-dasharray:none;stroke-opacity:1;stop-color:#000000"
         id="path16762-3-1"
         inkscape:flatsided="true"
         sodipodi:sides="6"
         sodipodi:cx="595.31805"
         sodipodi:cy="301.539"
         sodipodi:r1="52.589668"
         sodipodi:r2="45.543991"
         sodipodi:arg1="1.0471976"
         sodipodi:arg2="1.5707963"
         inkscape:rounded="0"
         inkscape:randomized="0"
         d="m 621.61289,347.08299 -52.58967,0 -26.29483,-45.54399 26.29483,-45.54399 52.58967,0 26.29483,45.54399 z"
         transform="matrix(0.33919001,0,0,0.33919001,391.27673,514.85169)" /><path
         sodipodi:type="star"
         style="color:#000000;overflow:visible;fill:#000000;fill-opacity:0;stroke:#000000;stroke-width:8.91546;stroke-dasharray:none;stroke-opacity:1;stop-color:#000000"
         id="path16762-2-2"
         inkscape:flatsided="true"
         sodipodi:sides="6"
         sodipodi:cx="595.31805"
         sodipodi:cy="301.539"
         sodipodi:r1="52.589668"
         sodipodi:r2="45.543991"
         sodipodi:arg1="1.0471976"
         sodipodi:arg2="1.5707963"
         inkscape:rounded="0"
         inkscape:randomized="0"
         d="m 621.61289,347.08299 -52.58967,0 -26.29483,-45.54399 26.29483,-45.54399 52.58967,0 26.29483,45.54399 z"
         transform="matrix(0.33919001,0,0,0.33919001,421.12514,497.41145)" /><path
         sodipodi:type="star"
         style="color:#000000;overflow:visible;fill:#000000;fill-opacity:0;stroke:#000000;stroke-width:8.91546;stroke-dasharray:none;stroke-opacity:1;stop-color:#000000"
         id="path16762-3-8-9"
         inkscape:flatsided="true"
         sodipodi:sides="6"
         sodipodi:cx="595.31805"
         sodipodi:cy="301.539"
         sodipodi:r1="52.589668"
         sodipodi:r2="45.543991"
         sodipodi:arg1="1.0471976"
         sodipodi:arg2="1.5707963"
         inkscape:rounded="0"
         inkscape:randomized="0"
         d="m 621.61289,347.08299 -52.58967,0 -26.29483,-45.54399 26.29483,-45.54399 52.58967,0 26.29483,45.54399 z"
         transform="matrix(0.33919001,0,0,0.33919001,421.19795,532.51419)" /><text
         xml:space="preserve"
         style="font-style:normal;font-variant:normal;font-weight:normal;font-stretch:normal;font-size:22.4656px;line-height:125%;font-family:Raleway-v4020;-inkscape-font-specification:Raleway-v4020;letter-spacing:0px;word-spacing:0px;fill:#038bb4;fill-opacity:1;stroke:none;stroke-width:0.802342px;stroke-linecap:butt;stroke-linejoin:miter;stroke-opacity:1"
         x="259.33704"
         y="708.81989"
         id="text22159"><tspan
           sodipodi:role="line"
           id="tspan22157"
           x="259.33704"
           y="708.81989"
           style="fill:#038bb4;fill-opacity:1;stroke-width:0.802342px">Login nodes</tspan></text><text
         xml:space="preserve"
         style="font-style:normal;font-variant:normal;font-weight:normal;font-stretch:normal;font-size:22.4656px;line-height:125%;font-family:Raleway-v4020;-inkscape-font-specification:Raleway-v4020;letter-spacing:0px;word-spacing:0px;fill:#000000;fill-opacity:1;stroke:none;stroke-width:0.802342px;stroke-linecap:butt;stroke-linejoin:miter;stroke-opacity:1"
         x="546.49323"
         y="780.28571"
         id="text22159-3"><tspan
           sodipodi:role="line"
           id="tspan22157-1"
           x="546.49323"
           y="780.28571"
           style="stroke-width:0.802342px">Compute nodes</tspan></text><text
         xml:space="preserve"
         style="font-style:normal;font-variant:normal;font-weight:normal;font-stretch:normal;font-size:22.4656px;line-height:125%;font-family:Raleway-v4020;-inkscape-font-specification:Raleway-v4020;letter-spacing:0px;word-spacing:0px;fill:#3e721d;fill-opacity:1;stroke:none;stroke-width:0.802342px;stroke-linecap:butt;stroke-linejoin:miter;stroke-opacity:1"
         x="393.05859"
         y="743.20441"
         id="text22159-9"><tspan
           sodipodi:role="line"
           id="tspan22157-7"
           x="393.05859"
           y="743.20441"
           style="fill:#3e721d;fill-opacity:1;stroke-width:0.802342px">System scheduler</tspan></text><path
         fill="#3e721d"
         d="m 457.90703,672.34775 c 2.18218,-23.38356 -15.39732,-26.29082 -22.36916,-21.20486 -3.82406,2.78874 -4.71645,8.0978 -1.66976,5.30209 5.37529,-4.93606 7.26117,-1.30722 3.1966,1.30722 -4.0646,2.61444 -4.79315,7.4773 -0.28934,4.14127 4.50381,-3.33951 5.73782,-1.1643 2.25191,3.11991 -2.10898,2.59352 0.14641,5.01274 4.06807,-0.21613 3.26979,-4.36089 11.15494,-4.51079 9.27952,10.4229 -0.77387,6.12128 5.06505,2.11944 5.53216,-2.8724 z m 27.68169,-73.28103 c -2.03229,-12.20073 -3.92165,-18.29412 -16.12238,-20.32989 -12.20072,-2.03578 -22.36916,6.10036 -22.36916,6.10036 0,0 2.0323,-12.20073 8.13266,-16.2688 2.39135,-1.59655 4.06806,6.10036 6.10036,6.10036 2.0323,0 4.06807,-6.10036 10.16843,-6.10036 2.03229,0 2.03229,6.10036 4.06807,6.10036 2.03229,0 7.81892,-2.01137 8.13266,0 0.43923,2.83057 -0.58215,6.02716 1.01789,7.33439 1.60003,1.30721 5.41362,-0.51592 6.62674,1.7046 1.21657,2.21705 -2.12641,5.41364 -1.83361,6.86727 0.29283,1.45363 2.50638,2.03229 1.83361,4.79314 -0.67279,2.76085 -2.26585,2.90378 -2.41227,4.93955 -0.14641,2.03578 3.08504,3.76828 2.41227,5.87727 -0.6693,2.11246 -2.26934,2.39832 -2.99441,5.08596 -0.72508,2.68764 1.88587,2.26236 1.1608,5.01624 -0.72507,2.75387 -3.33951,3.45454 -4.21099,6.15613 -0.87148,2.69811 2.32163,3.28025 0.72508,5.8947 -1.59656,2.61444 -4.50033,3.05018 -4.64674,4.64672 -0.14641,1.59656 0.72856,2.85149 0.14641,5.42061 -0.58215,2.56565 -3.92515,1.2619 -4.21448,3.2942 -0.28934,2.03229 0.72856,3.05018 0.72856,5.51821 0,2.46804 -2.47152,2.90726 -2.1787,5.37529 0.29282,2.46804 2.61445,0.58215 4.06807,3.48593 1.45362,2.90377 -0.86799,5.51821 0.72855,7.26117 1.59656,1.74296 3.77526,-2.32511 5.95396,-0.87148 2.1787,1.45363 2.35997,4.3574 4.73737,4.79315 2.3774,0.43573 3.10596,-4.50383 4.84891,-4.35741 1.74296,0.14641 5.66463,2.47152 7.69692,1.45363 2.03229,-1.01789 1.88588,-5.08595 3.48592,-6.82892 1.60004,-1.74296 3.63233,-0.14292 5.08247,-2.0323 1.45015,-1.88936 -0.50546,-4.09595 -0.21612,-6.8568 0.28932,-2.76086 2.97697,-4.32603 2.83056,-6.50473 -0.1464,-2.17871 -2.32511,-2.17871 -3.19658,-4.50381 -0.87149,-2.32511 1.59655,-4.3574 0.72507,-6.5361 -0.87149,-2.1787 -4.64325,-2.90378 -4.50033,-5.08248 0.14293,-2.1787 1.60004,-4.64673 0.87148,-7.11825 -0.72855,-2.47151 -3.77873,-4.06458 -3.63233,-5.95046 0.1464,-1.88588 1.73948,-4.35741 2.03229,-5.73783 0.29282,-1.38043 -2.61095,-2.83057 -2.32162,-5.15568 0.28933,-2.32511 2.17522,-2.16476 2.90028,-4.26328 0.72507,-2.09852 -2.61095,-3.14082 -0.86799,-5.82846 1.74296,-2.68764 2.61793,-0.9412 4.06807,-2.39831 1.45015,-1.45363 -0.003,-4.65023 1.45015,-5.3753 1.45362,-0.72506 4.3574,-0.1464 5.81102,-1.16081 1.45364,-1.0144 1.45364,-2.46802 3.05019,-3.05017 1.59655,-0.58216 3.63232,1.88937 4.93954,1.88937 1.30722,0 3.62885,-2.46804 5.37182,-1.88937 1.74295,0.58215 5.52169,4.64672 3.19658,5.88424 -2.32511,1.23749 -20.04754,2.10898 -20.19046,10.24162 -0.14292,8.13266 9.73618,45.02765 6.82892,54.32111 -2.90725,9.29348 -14.95808,29.05167 -28.75884,25.27294 -13.80077,-3.77875 -30.21248,-12.20421 -26.29082,-25.13001 3.92167,-12.92928 16.55464,-39.37697 19.02615,-51.49751 z"
         id="path23266"
         style="stroke-width:3.48593" /><path
         fill="#77b255"
         d="m 487.76743,595.88058 c 0,13.867 -8.30346,28.38934 -20.33337,26.37449 -18.55557,-3.10248 -19.54209,-9.01809 -22.36917,-5.38925 -10.16842,13.0478 -16.18861,-1.69066 -18.49978,-4.13429 -0.58215,-0.61352 -12.00203,-3.97745 -12.00203,-10.41245 0,-4.17264 6.10037,-8.42896 10.16844,-4.29116 6.00276,-0.14991 28.46952,-21.45934 42.70254,-21.45934 14.23301,-0.003 20.33337,10.72966 20.33337,19.312 z"
         id="path23268"
         style="stroke-width:3.48593" /><path
         fill="#292f33"
         d="m 465.39827,592.96984 c 0,2.24494 -1.82314,4.06807 -4.06807,4.06807 -2.24493,0 -4.06807,-1.82313 -4.06807,-4.06807 0,-2.24494 1.82314,-4.06808 4.06807,-4.06808 2.24842,0.003 4.06807,1.82314 4.06807,4.06808 z"
         id="path23270"
         style="stroke-width:3.48593" /><path
         fill="#3e721d"
         d="m 424.73152,604.15616 c 0,1.6837 -1.36649,1.01789 -3.05018,1.01789 -1.68371,0 -3.05019,0.66581 -3.05019,-1.01789 0,-1.6837 1.36648,-3.05018 3.05019,-3.05018 1.68369,0 3.05018,1.36648 3.05018,3.05018 z"
         id="path23272"
         style="stroke-width:3.48593" /><path
         fill="#ffffff"
         d="m 453.19755,607.19937 c 0,2.24842 -1.36649,2.03229 -3.05018,2.03229 -1.68371,0 -3.05019,0.21264 -3.05019,-2.03229 0,-2.24493 1.36648,-8.13265 3.05019,-8.13265 1.68369,0 3.05018,5.88772 3.05018,8.13265 z m -8.13266,2.03229 c 0,2.24842 -1.36648,2.03229 -3.05018,2.03229 -1.68369,0.003 -3.05018,0.21613 -3.05018,-2.03229 0,-2.24493 1.36649,-8.13266 3.05018,-8.13266 1.6837,0 3.05018,5.88773 3.05018,8.13266 z"
         id="path23274"
         style="stroke-width:3.48593" /><path
         fill="#3e721d"
         d="m 452.9117,607.22725 c -10.78892,1.54079 -21.665,4.26678 -26.34659,5.50428 0.58215,0.617 1.40483,2.01835 2.47151,3.55912 5.13129,-1.32464 14.82562,-3.66371 24.45375,-5.03366 1.112,-0.16036 1.8824,-1.1922 1.72553,-2.30421 -0.16384,-1.11549 -1.19916,-1.88936 -2.3042,-1.72553 z"
         id="path23276"
         style="stroke-width:3.48593" /><path
         fill="#77b255"
         d="m 487.57918,599.50594 c 0,15.2509 -5.97486,28.58804 -10.26952,38.93774 -4.64673,11.19678 -3.48592,31.3733 13.94368,31.3733 17.42961,0 22.69684,-11.12358 24.40146,-17.42961 4.73387,-17.50282 -6.97185,-27.88737 -6.97185,-45.31699 0,-31.37328 27.88737,-24.40143 27.88737,-20.91552 0,3.48593 -24.17138,4.78966 -10.45775,31.37329 13.71361,26.58364 13.94368,76.31728 -34.85923,76.31728 -48.80289,0 -48.80289,-31.00029 -41.83105,-44.94399 4.93606,-9.87213 13.94368,-24.77444 1.74297,-31.53016 -7.95488,-4.40271 36.41392,-17.86534 36.41392,-17.86534 z"
         id="path23278"
         style="stroke-width:3.48593" /><path
         fill="#3e721d"
         d="m 454.076,595.44136 c -0.89239,0 -1.7848,-0.34163 -2.46455,-1.02138 -1.36299,-1.36299 -1.36299,-3.56609 0,-4.92908 0.28933,-0.28934 7.25421,-7.12175 18.73335,-7.12175 1.92422,0 3.48591,1.5617 3.48591,3.48592 0,1.92423 -1.56169,3.48592 -3.48591,3.48592 -8.48822,0 -13.75197,5.02671 -13.80425,5.07899 -0.67977,0.67975 -1.57215,1.02138 -2.46455,1.02138 z"
         id="path23280"
         style="stroke-width:3.48593" /><path
         fill="#5c913b"
         d="m 451.89032,656.66111 c 2.18568,-23.38356 -18.88323,-26.29083 -25.85507,-21.20486 -3.82405,2.78873 -4.71646,8.09779 -1.66976,5.30208 5.37529,-4.93607 7.26118,-1.30722 3.19659,1.30722 -4.06807,2.61444 -4.79314,7.48079 -0.28934,4.14128 4.50382,-3.33952 5.73784,-1.16429 2.25191,3.11989 -2.10898,2.59353 0.14642,5.01276 4.06807,-0.21612 3.2698,-4.36089 14.64088,-4.51078 12.76545,10.42291 -0.77388,6.12128 5.06852,2.11943 5.53215,-2.8724 z"
         id="path23282"
         style="stroke-width:3.48593" /><path
         sodipodi:type="star"
         style="color:#000000;overflow:visible;fill:#000000;fill-opacity:0;stroke:#000000;stroke-width:8.91546;stroke-dasharray:none;stroke-opacity:1;stop-color:#000000"
         id="path24518"
         inkscape:flatsided="true"
         sodipodi:sides="6"
         sodipodi:cx="595.31805"
         sodipodi:cy="301.539"
         sodipodi:r1="52.589668"
         sodipodi:r2="45.543991"
         sodipodi:arg1="1.0471976"
         sodipodi:arg2="1.5707963"
         inkscape:rounded="0"
         inkscape:randomized="0"
         d="m 621.61289,347.08299 -52.58967,0 -26.29483,-45.54399 26.29483,-45.54399 52.58967,0 26.29483,45.54399 z"
         transform="matrix(0.33919001,0,0,0.33919001,391.20391,550.12344)" /><path
         sodipodi:type="star"
         style="color:#000000;overflow:visible;fill:#000000;fill-opacity:0;stroke:#000000;stroke-width:8.91546;stroke-dasharray:none;stroke-opacity:1;stop-color:#000000"
         id="path24520"
         inkscape:flatsided="true"
         sodipodi:sides="6"
         sodipodi:cx="595.31805"
         sodipodi:cy="301.539"
         sodipodi:r1="52.589668"
         sodipodi:r2="45.543991"
         sodipodi:arg1="1.0471976"
         sodipodi:arg2="1.5707963"
         inkscape:rounded="0"
         inkscape:randomized="0"
         d="m 621.61289,347.08299 -52.58967,0 -26.29483,-45.54399 26.29483,-45.54399 52.58967,0 26.29483,45.54399 z"
         transform="matrix(0.33919001,0,0,0.33919001,391.27673,585.22618)" /><path
         sodipodi:type="star"
         style="color:#000000;overflow:visible;fill:#000000;fill-opacity:0;stroke:#000000;stroke-width:8.91546;stroke-dasharray:none;stroke-opacity:1;stop-color:#000000"
         id="path24522"
         inkscape:flatsided="true"
         sodipodi:sides="6"
         sodipodi:cx="595.31805"
         sodipodi:cy="301.539"
         sodipodi:r1="52.589668"
         sodipodi:r2="45.543991"
         sodipodi:arg1="1.0471976"
         sodipodi:arg2="1.5707963"
         inkscape:rounded="0"
         inkscape:randomized="0"
         d="m 621.61289,347.08299 -52.58967,0 -26.29483,-45.54399 26.29483,-45.54399 52.58967,0 26.29483,45.54399 z"
         transform="matrix(0.33919001,0,0,0.33919001,421.12514,567.78594)" /><path
         sodipodi:type="star"
         style="color:#000000;overflow:visible;fill:#000000;fill-opacity:0;stroke:#000000;stroke-width:8.91546;stroke-dasharray:none;stroke-opacity:1;stop-color:#000000"
         id="path24524"
         inkscape:flatsided="true"
         sodipodi:sides="6"
         sodipodi:cx="595.31805"
         sodipodi:cy="301.539"
         sodipodi:r1="52.589668"
         sodipodi:r2="45.543991"
         sodipodi:arg1="1.0471976"
         sodipodi:arg2="1.5707963"
         inkscape:rounded="0"
         inkscape:randomized="0"
         d="m 621.61289,347.08299 -52.58967,0 -26.29483,-45.54399 26.29483,-45.54399 52.58967,0 26.29483,45.54399 z"
         transform="matrix(0.33919001,0,0,0.33919001,421.19795,602.88868)" /><path
         sodipodi:type="star"
         style="color:#000000;overflow:visible;fill:#000000;fill-opacity:0;stroke:#000000;stroke-width:8.91546;stroke-dasharray:none;stroke-opacity:1;stop-color:#000000"
         id="path24526"
         inkscape:flatsided="true"
         sodipodi:sides="6"
         sodipodi:cx="595.31805"
         sodipodi:cy="301.539"
         sodipodi:r1="52.589668"
         sodipodi:r2="45.543991"
         sodipodi:arg1="1.0471976"
         sodipodi:arg2="1.5707963"
         inkscape:rounded="0"
         inkscape:randomized="0"
         d="m 621.61289,347.08299 -52.58967,0 -26.29483,-45.54399 26.29483,-45.54399 52.58967,0 26.29483,45.54399 z"
         transform="matrix(0.33919001,0,0,0.33919001,451.81793,479.69625)" /><path
         sodipodi:type="star"
         style="color:#000000;overflow:visible;fill:#000000;fill-opacity:0;stroke:#000000;stroke-width:8.91546;stroke-dasharray:none;stroke-opacity:1;stop-color:#000000"
         id="path24528"
         inkscape:flatsided="true"
         sodipodi:sides="6"
         sodipodi:cx="595.31805"
         sodipodi:cy="301.539"
         sodipodi:r1="52.589668"
         sodipodi:r2="45.543991"
         sodipodi:arg1="1.0471976"
         sodipodi:arg2="1.5707963"
         inkscape:rounded="0"
         inkscape:randomized="0"
         d="m 621.61289,347.08299 -52.58967,0 -26.29483,-45.54399 26.29483,-45.54399 52.58967,0 26.29483,45.54399 z"
         transform="matrix(0.33919001,0,0,0.33919001,451.89075,514.79899)" /><path
         sodipodi:type="star"
         style="color:#000000;overflow:visible;fill:#000000;fill-opacity:0;stroke:#000000;stroke-width:8.91546;stroke-dasharray:none;stroke-opacity:1;stop-color:#000000"
         id="path24530"
         inkscape:flatsided="true"
         sodipodi:sides="6"
         sodipodi:cx="595.31805"
         sodipodi:cy="301.539"
         sodipodi:r1="52.589668"
         sodipodi:r2="45.543991"
         sodipodi:arg1="1.0471976"
         sodipodi:arg2="1.5707963"
         inkscape:rounded="0"
         inkscape:randomized="0"
         d="m 621.61289,347.08299 -52.58967,0 -26.29483,-45.54399 26.29483,-45.54399 52.58967,0 26.29483,45.54399 z"
         transform="matrix(0.33919001,0,0,0.33919001,481.73916,497.35875)" /><path
         sodipodi:type="star"
         style="color:#000000;overflow:visible;fill:#000000;fill-opacity:0;stroke:#000000;stroke-width:8.91546;stroke-dasharray:none;stroke-opacity:1;stop-color:#000000"
         id="path24532"
         inkscape:flatsided="true"
         sodipodi:sides="6"
         sodipodi:cx="595.31805"
         sodipodi:cy="301.539"
         sodipodi:r1="52.589668"
         sodipodi:r2="45.543991"
         sodipodi:arg1="1.0471976"
         sodipodi:arg2="1.5707963"
         inkscape:rounded="0"
         inkscape:randomized="0"
         d="m 621.61289,347.08299 -52.58967,0 -26.29483,-45.54399 26.29483,-45.54399 52.58967,0 26.29483,45.54399 z"
         transform="matrix(0.33919001,0,0,0.33919001,481.81198,532.46148)" /><path
         sodipodi:type="star"
         style="color:#000000;overflow:visible;fill:#000000;fill-opacity:0;stroke:#000000;stroke-width:8.91546;stroke-dasharray:none;stroke-opacity:1;stop-color:#000000"
         id="path24534"
         inkscape:flatsided="true"
         sodipodi:sides="6"
         sodipodi:cx="595.31805"
         sodipodi:cy="301.539"
         sodipodi:r1="52.589668"
         sodipodi:r2="45.543991"
         sodipodi:arg1="1.0471976"
         sodipodi:arg2="1.5707963"
         inkscape:rounded="0"
         inkscape:randomized="0"
         d="m 621.61289,347.08299 -52.58967,0 -26.29483,-45.54399 26.29483,-45.54399 52.58967,0 26.29483,45.54399 z"
         transform="matrix(0.33919001,0,0,0.33919001,451.81793,550.07074)" /><path
         sodipodi:type="star"
         style="color:#000000;overflow:visible;fill:#000000;fill-opacity:0;stroke:#000000;stroke-width:8.91546;stroke-dasharray:none;stroke-opacity:1;stop-color:#000000"
         id="path24536"
         inkscape:flatsided="true"
         sodipodi:sides="6"
         sodipodi:cx="595.31805"
         sodipodi:cy="301.539"
         sodipodi:r1="52.589668"
         sodipodi:r2="45.543991"
         sodipodi:arg1="1.0471976"
         sodipodi:arg2="1.5707963"
         inkscape:rounded="0"
         inkscape:randomized="0"
         d="m 621.61289,347.08299 -52.58967,0 -26.29483,-45.54399 26.29483,-45.54399 52.58967,0 26.29483,45.54399 z"
         transform="matrix(0.33919001,0,0,0.33919001,451.89075,585.17347)" /><path
         sodipodi:type="star"
         style="color:#000000;overflow:visible;fill:#000000;fill-opacity:0;stroke:#000000;stroke-width:8.91546;stroke-dasharray:none;stroke-opacity:1;stop-color:#000000"
         id="path24538"
         inkscape:flatsided="true"
         sodipodi:sides="6"
         sodipodi:cx="595.31805"
         sodipodi:cy="301.539"
         sodipodi:r1="52.589668"
         sodipodi:r2="45.543991"
         sodipodi:arg1="1.0471976"
         sodipodi:arg2="1.5707963"
         inkscape:rounded="0"
         inkscape:randomized="0"
         d="m 621.61289,347.08299 -52.58967,0 -26.29483,-45.54399 26.29483,-45.54399 52.58967,0 26.29483,45.54399 z"
         transform="matrix(0.33919001,0,0,0.33919001,481.73916,567.73323)" /><path
         sodipodi:type="star"
         style="color:#000000;overflow:visible;fill:#000000;fill-opacity:0;stroke:#000000;stroke-width:8.91546;stroke-dasharray:none;stroke-opacity:1;stop-color:#000000"
         id="path24540"
         inkscape:flatsided="true"
         sodipodi:sides="6"
         sodipodi:cx="595.31805"
         sodipodi:cy="301.539"
         sodipodi:r1="52.589668"
         sodipodi:r2="45.543991"
         sodipodi:arg1="1.0471976"
         sodipodi:arg2="1.5707963"
         inkscape:rounded="0"
         inkscape:randomized="0"
         d="m 621.61289,347.08299 -52.58967,0 -26.29483,-45.54399 26.29483,-45.54399 52.58967,0 26.29483,45.54399 z"
         transform="matrix(0.33919001,0,0,0.33919001,481.81198,602.83597)" /></g></g><g
     inkscape:groupmode="layer"
     id="layer2"
     inkscape:label="Layer 2 **2"><path
       style="fill:none;fill-rule:evenodd;stroke:#000000;stroke-width:10;stroke-linecap:butt;stroke-linejoin:miter;stroke-dasharray:none;stroke-opacity:1;marker-end:url(#TriangleStart)"
       d="M 275.45072,153.07357 V 275.3118"
       id="path5410" /></g><g
     inkscape:groupmode="layer"
     id="g5926"
     inkscape:label="Layer 2 **3"
     transform="translate(463.72569)"><path
       style="fill:none;fill-rule:evenodd;stroke:#000000;stroke-width:10;stroke-linecap:butt;stroke-linejoin:miter;stroke-dasharray:none;stroke-opacity:1;marker-end:url(#TriangleStart)"
       d="M 275.45072,153.07357 V 275.3118"
       id="path5924" /></g><g
     inkscape:groupmode="layer"
     id="layer5"
     inkscape:label="Layer 2 **4"><path
       style="fill:none;fill-rule:evenodd;stroke:#000000;stroke-width:10;stroke-linecap:butt;stroke-linejoin:miter;stroke-dasharray:none;stroke-opacity:1;marker-end:url(#TriangleStart)"
       d="M 275.45072,153.07357 V 275.3118"
       id="path6019" /><path
       style="fill:none;fill-rule:evenodd;stroke:#000000;stroke-width:10;stroke-linecap:butt;stroke-linejoin:miter;stroke-dasharray:none;stroke-opacity:1;marker-end:url(#TriangleStart)"
       d="M 739.17641,153.07357 V 275.3118"
       id="path6021" /><path
       style="fill:none;fill-rule:evenodd;stroke:#000000;stroke-width:10;stroke-linecap:butt;stroke-linejoin:miter;stroke-dasharray:none;stroke-opacity:1"
       d="M 276.4546,157.56511 H 740.6477"
       id="path6025" /><text
       xml:space="preserve"
       style="font-style:normal;font-variant:normal;font-weight:normal;font-stretch:normal;font-size:74.9767px;line-height:125%;font-family:Raleway-v4020;-inkscape-font-specification:Raleway-v4020;letter-spacing:0px;word-spacing:0px;display:inline;fill:#2569a7;fill-opacity:1;stroke:none;stroke-width:2.67774px;stroke-linecap:butt;stroke-linejoin:miter;stroke-opacity:1"
       x="280.23898"
       y="132.72382"
       id="text2050"><tspan
         sodipodi:role="line"
         id="tspan2048"
         x="280.23898"
         y="132.72382"
         style="fill:#2569a7;fill-opacity:1;stroke-width:2.67774px"><tspan
           style="font-weight:bold;fill:#2569a7;fill-opacity:1;stroke-width:2.67774px"
           id="tspan2052">Hyper</tspan><tspan
           style="fill:#4d4d4d;stroke-width:2.67774px"
           id="tspan2058">Queue</tspan></tspan></text></g></svg>
