<?xml version="1.0" encoding="UTF-8" standalone="no"?>
<!-- Created with Inkscape (http://www.inkscape.org/) -->

<svg
   width="218.23222mm"
   height="174.78374mm"
   viewBox="0 0 218.23222 174.78374"
   version="1.1"
   id="svg138"
   inkscape:version="1.2 (1:1.2.1+202207142221+cd75a1ee6d)"
   sodipodi:docname="cpus.svg"
   xml:space="preserve"
   xmlns:inkscape="http://www.inkscape.org/namespaces/inkscape"
   xmlns:sodipodi="http://sodipodi.sourceforge.net/DTD/sodipodi-0.dtd"
   xmlns="http://www.w3.org/2000/svg"
   xmlns:svg="http://www.w3.org/2000/svg"><sodipodi:namedview
     id="namedview140"
     pagecolor="#ffffff"
     bordercolor="#666666"
     borderopacity="1.0"
     inkscape:showpageshadow="2"
     inkscape:pageopacity="0.0"
     inkscape:pagecheckerboard="0"
     inkscape:deskcolor="#d1d1d1"
     inkscape:document-units="mm"
     showgrid="false"
     inkscape:zoom="0.84096521"
     inkscape:cx="650.44308"
     inkscape:cy="154.58428"
     inkscape:window-width="1600"
     inkscape:window-height="1129"
     inkscape:window-x="0"
     inkscape:window-y="34"
     inkscape:window-maximized="1"
     inkscape:current-layer="layer1" /><defs
     id="defs135" /><g
     inkscape:groupmode="layer"
     id="layer3"
     inkscape:label="Layer 3"
     transform="translate(18.751408,-20.835328)"
     style="display:inline"><path
       fill="#5dadec"
       d="m 199.48081,190.0253 c 0,3.09214 -2.49047,5.59376 -5.57153,5.59376 H -13.179869 c -3.075484,0 -5.571539,-2.50162 -5.571539,-5.59376 v -75.24606 c 0,-3.0922 2.496055,-5.59381 5.571539,-5.59381 H 193.90928 c 3.08106,0 5.57153,2.50716 5.57153,5.59381 z"
       id="path6-3"
       style="display:inline;fill:#333333;stroke-width:5.57152"
       sodipodi:nodetypes="sssssssss" /><text
       xml:space="preserve"
       style="font-style:normal;font-variant:normal;font-weight:normal;font-stretch:normal;font-size:7.40833px;line-height:125%;font-family:Raleway-v4020;-inkscape-font-specification:Raleway-v4020;letter-spacing:0px;word-spacing:0px;display:inline;fill:#000000;fill-opacity:1;stroke:none;stroke-width:0.264583px;stroke-linecap:butt;stroke-linejoin:miter;stroke-opacity:1"
       x="4.3386126"
       y="66.02182"
       id="text1372"><tspan
         sodipodi:role="line"
         id="tspan1370"
         style="stroke-width:0.264583px"
         x="0"
         y="0" /></text><path
       style="display:inline;fill:none;fill-rule:evenodd;stroke:#000000;stroke-width:0.264583px;stroke-linecap:butt;stroke-linejoin:miter;stroke-opacity:1"
       d="m 153.7346,52.257158 24.84601,0"
       id="path5717"
       transform="translate(-18.751408,20.835328)"
       sodipodi:nodetypes="cc" /><path
       sodipodi:type="star"
       style="color:#000000;display:inline;overflow:visible;fill:#000000;fill-opacity:0;stroke:#000000;stroke-width:3.40402;stroke-dasharray:none;stroke-opacity:1;stop-color:#000000"
       id="path16762-36-3"
       inkscape:flatsided="true"
       sodipodi:sides="6"
       sodipodi:cx="595.31805"
       sodipodi:cy="301.539"
       sodipodi:r1="52.589668"
       sodipodi:r2="45.543991"
       sodipodi:arg1="1.0471976"
       sodipodi:arg2="1.5707963"
       inkscape:rounded="0"
       inkscape:randomized="0"
       d="m 621.61289,347.08299 -52.58967,0 -26.29483,-45.54399 26.29483,-45.54399 52.58967,0 26.29483,45.54399 z"
       transform="matrix(0.58754068,0,0,0.58754068,-203.80495,-114.1818)" /><rect
       style="color:#000000;overflow:visible;fill:none;stroke:#241f1c;stroke-width:2;stroke-dasharray:none;stroke-dashoffset:0;stop-color:#000000"
       id="rect5709"
       width="25.140881"
       height="39.830612"
       x="153.84705"
       y="23.365339"
       transform="translate(-18.751408,20.835328)" /><path
       style="display:inline;fill:none;fill-rule:evenodd;stroke:#000000;stroke-width:0.264583px;stroke-linecap:butt;stroke-linejoin:miter;stroke-opacity:1"
       d="m 166.3428,23.181688 0,39.450779"
       id="path5711"
       sodipodi:nodetypes="cc"
       transform="translate(-18.751408,20.835328)" /><path
       style="fill:none;fill-rule:evenodd;stroke:#000000;stroke-width:0.264583px;stroke-linecap:butt;stroke-linejoin:miter;stroke-opacity:1"
       d="m 153.7346,33.492686 24.55181,0"
       id="path5713"
       sodipodi:nodetypes="cc"
       transform="translate(-18.751408,20.835328)" /><path
       style="display:inline;fill:none;fill-rule:evenodd;stroke:#000000;stroke-width:0.264583px;stroke-linecap:butt;stroke-linejoin:miter;stroke-opacity:1"
       d="m 153.7346,42.874922 h 25.78782"
       id="path5715"
       sodipodi:nodetypes="cc"
       transform="translate(-18.751408,20.835328)" /></g><g
     inkscape:groupmode="layer"
     id="layer1"
     inkscape:label="**5-9"
     style="display:inline"><path
       fill="#66757f"
       d="m 32.100106,29.750555 h -1.378892 c -0.13285,-0.561483 -0.354359,-1.087282 -0.648841,-1.564275 l 0.975731,-0.975725 c 0.32032,-0.32032 0.32032,-0.839967 0,-1.160288 l -0.57994,-0.57994 c -0.320318,-0.320321 -0.839568,-0.320321 -1.159889,0 l -0.97572,0.975725 c -0.47739,-0.294481 -1.002799,-0.515546 -1.564269,-0.648433 v -1.378892 c 0,-0.452794 -0.36749,-0.820282 -0.82029,-0.820282 h -0.820272 c -0.4528,0 -0.820291,0.367488 -0.820291,0.820282 v 1.378892 c -0.561469,0.132887 -1.087278,0.354362 -1.564269,0.648843 l -0.975321,-0.975725 c -0.320317,-0.32032 -0.83997,-0.32032 -1.159869,0 l -0.580359,0.57994 c -0.32032,0.320318 -0.32032,0.839968 -5.29e-4,1.160288 l 0.97572,0.975725 c -0.294481,0.476994 -0.515551,1.002792 -0.64843,1.563865 h -1.378892 c -0.4528,0 -0.820288,0.367485 -0.820288,0.820282 v 0.82028 c 0,0.452797 0.367488,0.820282 0.820288,0.820282 h 1.378892 c 0.13285,0.561073 0.35437,1.086874 0.64884,1.563868 l -0.97573,0.975725 c -0.3199,0.319908 -0.3199,0.839967 5.29e-4,1.160288 l 0.57994,0.579937 c 0.3199,0.319911 0.839552,0.319911 1.15987,0 l 0.97572,-0.975725 c 0.476991,0.294892 1.002802,0.515959 1.56428,0.648843 v 1.378892 c 0,0.452797 0.36749,0.820283 0.820282,0.820283 h 0.820288 c 0.452792,0 0.820272,-0.367486 0.820272,-0.820283 v -1.378892 c 0.56107,-0.132884 1.086879,-0.354361 1.56387,-0.648843 l 0.97572,0.975725 c 0.32032,0.320321 0.83957,0.320321 1.159888,0 l 0.57994,-0.579937 c 0.320321,-0.320321 0.320321,-0.839968 0,-1.160288 l -0.97573,-0.975725 c 0.294891,-0.476994 0.515961,-1.002795 0.64884,-1.564278 h 1.378892 c 0.4528,0 0.820288,-0.367485 0.820288,-0.820279 v -0.820283 c 0,-0.452387 -0.367488,-0.819872 -0.820288,-0.819872 z m -6.562241,4.511548 c -1.81201,0 -3.28114,-1.469123 -3.28114,-3.281125 0,-1.812001 1.46913,-3.281126 3.28114,-3.281126 1.811999,0 3.28113,1.469125 3.28113,3.281126 0,1.812002 -1.469131,3.281125 -3.28113,3.281125 z"
       id="path4456-3"
       style="display:inline;fill:#ff6600;stroke-width:0.410141" /><text
       xml:space="preserve"
       style="font-style:normal;font-variant:normal;font-weight:normal;font-stretch:normal;font-size:7.40833px;line-height:125%;font-family:Raleway-v4020;-inkscape-font-specification:Raleway-v4020;letter-spacing:0px;word-spacing:0px;fill:#000000;fill-opacity:1;stroke:none;stroke-width:0.264583px;stroke-linecap:butt;stroke-linejoin:miter;stroke-opacity:1"
       x="13.777678"
       y="20.489679"
       id="text5865"><tspan
         sodipodi:role="line"
         id="tspan5863"
         style="stroke-width:0.264583px"
         x="13.777678"
         y="20.489679">cpus=4</tspan></text><text
       xml:space="preserve"
       style="font-style:normal;font-variant:normal;font-weight:normal;font-stretch:normal;font-size:7.40833px;line-height:125%;font-family:Raleway-v4020;-inkscape-font-specification:Raleway-v4020;letter-spacing:0px;word-spacing:0px;fill:#000000;fill-opacity:1;stroke:none;stroke-width:0.264583px;stroke-linecap:butt;stroke-linejoin:miter;stroke-opacity:1"
       x="23.313375"
       y="33.27375"
       id="text5972"><tspan
         sodipodi:role="line"
         id="tspan5970"
         style="stroke-width:0.264583px"
         x="23.313375"
         y="33.27375">A</tspan></text></g><g
     inkscape:groupmode="layer"
     id="layer2"
     inkscape:label="**6-9"
     style="display:inline"><rect
       style="color:#000000;overflow:visible;fill:#fc6500;fill-opacity:1;stroke:#000000;stroke-width:0.5;stroke-dasharray:1, 1;stroke-dashoffset:0;stroke-opacity:1;stop-color:#000000"
       id="rect5968"
       width="19.39049"
       height="14.808781"
       x="156.02034"
       y="26.207586" /><text
       xml:space="preserve"
       style="font-style:normal;font-variant:normal;font-weight:normal;font-stretch:normal;font-size:7.40833px;line-height:125%;font-family:Raleway-v4020;-inkscape-font-specification:Raleway-v4020;letter-spacing:0px;word-spacing:0px;display:inline;fill:#000000;fill-opacity:1;stroke:none;stroke-width:0.264583px;stroke-linecap:butt;stroke-linejoin:miter;stroke-opacity:1"
       x="163.97812"
       y="36.288509"
       id="text1793"><tspan
         sodipodi:role="line"
         id="tspan1791"
         style="stroke-width:0.264583px"
         x="163.97812"
         y="36.288509">A</tspan></text></g><g
     inkscape:groupmode="layer"
     id="layer4"
     inkscape:label="**8+"
     style="display:inline"><path
       fill="#66757f"
       d="m 33.053067,61.436164 h -1.378892 c -0.13285,-0.561483 -0.354359,-1.087282 -0.648841,-1.564275 l 0.975731,-0.975725 c 0.32032,-0.32032 0.32032,-0.839967 0,-1.160288 l -0.57994,-0.57994 c -0.320318,-0.320321 -0.839568,-0.320321 -1.159889,0 l -0.97572,0.975725 c -0.47739,-0.294481 -1.002799,-0.515546 -1.564269,-0.648433 v -1.378892 c 0,-0.452794 -0.36749,-0.820282 -0.82029,-0.820282 h -0.820272 c -0.4528,0 -0.820291,0.367488 -0.820291,0.820282 v 1.378892 c -0.561469,0.132887 -1.087278,0.354362 -1.564269,0.648843 l -0.975321,-0.975725 c -0.320317,-0.32032 -0.83997,-0.32032 -1.159869,0 l -0.580359,0.57994 c -0.32032,0.320318 -0.32032,0.839968 -5.29e-4,1.160288 l 0.97572,0.975725 c -0.294481,0.476994 -0.515551,1.002792 -0.64843,1.563865 h -1.378892 c -0.4528,0 -0.820288,0.367485 -0.820288,0.820282 v 0.82028 c 0,0.452797 0.367488,0.820282 0.820288,0.820282 h 1.378892 c 0.13285,0.561073 0.35437,1.086874 0.64884,1.563868 l -0.97573,0.975725 c -0.3199,0.319908 -0.3199,0.839967 5.29e-4,1.160288 l 0.57994,0.579937 c 0.3199,0.319911 0.839552,0.319911 1.15987,0 l 0.97572,-0.975725 c 0.476991,0.294892 1.002802,0.515959 1.56428,0.648843 v 1.378892 c 0,0.452797 0.36749,0.820283 0.820282,0.820283 h 0.820288 c 0.452792,0 0.820272,-0.367486 0.820272,-0.820283 v -1.378892 c 0.56107,-0.132884 1.086879,-0.354361 1.56387,-0.648843 l 0.97572,0.975725 c 0.32032,0.320321 0.83957,0.320321 1.159888,0 l 0.57994,-0.579937 c 0.320321,-0.320321 0.320321,-0.839968 0,-1.160288 l -0.97573,-0.975725 c 0.294891,-0.476994 0.515961,-1.002795 0.64884,-1.564278 h 1.378892 c 0.4528,0 0.820288,-0.367485 0.820288,-0.820279 v -0.820283 c 0,-0.452387 -0.367488,-0.819872 -0.820288,-0.819872 z m -6.562241,4.511548 c -1.81201,0 -3.28114,-1.469123 -3.28114,-3.281125 0,-1.812001 1.46913,-3.281126 3.28114,-3.281126 1.811999,0 3.28113,1.469125 3.28113,3.281126 0,1.812002 -1.469131,3.281125 -3.28113,3.281125 z"
       id="path5861"
       style="display:inline;fill:#008080;stroke-width:0.410141" /><text
       xml:space="preserve"
       style="font-style:normal;font-variant:normal;font-weight:normal;font-stretch:normal;font-size:7.40833px;line-height:125%;font-family:Raleway-v4020;-inkscape-font-specification:Raleway-v4020;letter-spacing:0px;word-spacing:0px;fill:#000000;fill-opacity:1;stroke:none;stroke-width:0.264583px;stroke-linecap:butt;stroke-linejoin:miter;stroke-opacity:1"
       x="14.771344"
       y="52.69709"
       id="text5865-1"><tspan
         sodipodi:role="line"
         id="tspan5863-5"
         style="stroke-width:0.264583px"
         x="14.771344"
         y="52.69709">cpus=2</tspan></text><path
       fill="#66757f"
       d="m 60.795908,61.436164 h -1.378892 c -0.13285,-0.561483 -0.354359,-1.087282 -0.648841,-1.564275 l 0.975731,-0.975725 c 0.32032,-0.32032 0.32032,-0.839967 0,-1.160288 l -0.57994,-0.57994 c -0.320318,-0.320321 -0.839568,-0.320321 -1.159889,0 l -0.97572,0.975725 c -0.47739,-0.294481 -1.002799,-0.515546 -1.564269,-0.648433 v -1.378892 c 0,-0.452794 -0.36749,-0.820282 -0.82029,-0.820282 h -0.820272 c -0.4528,0 -0.820291,0.367488 -0.820291,0.820282 v 1.378892 c -0.561469,0.132887 -1.087278,0.354362 -1.564269,0.648843 l -0.975321,-0.975725 c -0.320317,-0.32032 -0.83997,-0.32032 -1.159869,0 l -0.580359,0.57994 c -0.32032,0.320318 -0.32032,0.839968 -5.29e-4,1.160288 l 0.97572,0.975725 c -0.294481,0.476994 -0.515551,1.002792 -0.64843,1.563865 h -1.378892 c -0.4528,0 -0.820288,0.367485 -0.820288,0.820282 v 0.82028 c 0,0.452797 0.367488,0.820282 0.820288,0.820282 h 1.378892 c 0.13285,0.561073 0.35437,1.086874 0.64884,1.563868 l -0.97573,0.975725 c -0.3199,0.319908 -0.3199,0.839967 5.29e-4,1.160288 l 0.57994,0.579937 c 0.3199,0.319911 0.839552,0.319911 1.15987,0 l 0.97572,-0.975725 c 0.476991,0.294892 1.002802,0.515959 1.56428,0.648843 v 1.378892 c 0,0.452797 0.36749,0.820283 0.820282,0.820283 h 0.820288 c 0.452792,0 0.820272,-0.367486 0.820272,-0.820283 v -1.378892 c 0.56107,-0.132884 1.086879,-0.354361 1.56387,-0.648843 l 0.97572,0.975725 c 0.32032,0.320321 0.83957,0.320321 1.159888,0 l 0.57994,-0.579937 c 0.320321,-0.320321 0.320321,-0.839968 0,-1.160288 l -0.97573,-0.975725 c 0.294891,-0.476994 0.515961,-1.002795 0.64884,-1.564278 h 1.378892 c 0.4528,0 0.820288,-0.367485 0.820288,-0.820279 v -0.820283 c 0,-0.452387 -0.367488,-0.819872 -0.820288,-0.819872 z m -6.562241,4.511548 c -1.81201,0 -3.28114,-1.469123 -3.28114,-3.281125 0,-1.812001 1.46913,-3.281126 3.28114,-3.281126 1.811999,0 3.28113,1.469125 3.28113,3.281126 0,1.812002 -1.469131,3.281125 -3.28113,3.281125 z"
       id="path5894"
       style="display:inline;fill:#008080;stroke-width:0.410141" /><text
       xml:space="preserve"
       style="font-style:normal;font-variant:normal;font-weight:normal;font-stretch:normal;font-size:7.40833px;line-height:125%;font-family:Raleway-v4020;-inkscape-font-specification:Raleway-v4020;letter-spacing:0px;word-spacing:0px;fill:#000000;fill-opacity:1;stroke:none;stroke-width:0.264583px;stroke-linecap:butt;stroke-linejoin:miter;stroke-opacity:1"
       x="42.514183"
       y="52.69709"
       id="text5898"><tspan
         sodipodi:role="line"
         id="tspan5896"
         style="stroke-width:0.264583px"
         x="42.514183"
         y="52.69709">cpus=2</tspan></text><path
       fill="#66757f"
       d="m 89.244047,61.436164 h -1.378892 c -0.13285,-0.561483 -0.354359,-1.087282 -0.648841,-1.564275 l 0.975731,-0.975725 c 0.32032,-0.32032 0.32032,-0.839967 0,-1.160288 l -0.57994,-0.57994 c -0.320318,-0.320321 -0.839568,-0.320321 -1.159889,0 l -0.97572,0.975725 c -0.47739,-0.294481 -1.002799,-0.515546 -1.564269,-0.648433 v -1.378892 c 0,-0.452794 -0.36749,-0.820282 -0.82029,-0.820282 h -0.820272 c -0.4528,0 -0.820291,0.367488 -0.820291,0.820282 v 1.378892 c -0.561469,0.132887 -1.087278,0.354362 -1.564269,0.648843 l -0.975321,-0.975725 c -0.320317,-0.32032 -0.83997,-0.32032 -1.159869,0 l -0.580359,0.57994 c -0.32032,0.320318 -0.32032,0.839968 -5.29e-4,1.160288 l 0.97572,0.975725 c -0.294481,0.476994 -0.515551,1.002792 -0.64843,1.563865 h -1.378892 c -0.4528,0 -0.820288,0.367485 -0.820288,0.820282 v 0.82028 c 0,0.452797 0.367488,0.820282 0.820288,0.820282 h 1.378892 c 0.13285,0.561073 0.35437,1.086874 0.64884,1.563868 l -0.97573,0.975725 c -0.3199,0.319908 -0.3199,0.839967 5.29e-4,1.160288 l 0.57994,0.579937 c 0.3199,0.319911 0.839552,0.319911 1.15987,0 l 0.97572,-0.975725 c 0.476991,0.294892 1.002802,0.515959 1.56428,0.648843 v 1.378892 c 0,0.452797 0.36749,0.820283 0.820282,0.820283 h 0.820288 c 0.452792,0 0.820272,-0.367486 0.820272,-0.820283 v -1.378892 c 0.56107,-0.132884 1.086879,-0.354361 1.56387,-0.648843 l 0.97572,0.975725 c 0.32032,0.320321 0.83957,0.320321 1.159888,0 l 0.57994,-0.579937 c 0.320321,-0.320321 0.320321,-0.839968 0,-1.160288 l -0.97573,-0.975725 c 0.294891,-0.476994 0.515961,-1.002795 0.64884,-1.564278 h 1.378892 c 0.4528,0 0.820288,-0.367485 0.820288,-0.820279 v -0.820283 c 0,-0.452387 -0.367488,-0.819872 -0.820288,-0.819872 z m -6.562241,4.511548 c -1.81201,0 -3.28114,-1.469123 -3.28114,-3.281125 0,-1.812001 1.46913,-3.281126 3.28114,-3.281126 1.811999,0 3.28113,1.469125 3.28113,3.281126 0,1.812002 -1.469131,3.281125 -3.28113,3.281125 z"
       id="path5900"
       style="display:inline;fill:#008080;stroke-width:0.410141" /><text
       xml:space="preserve"
       style="font-style:normal;font-variant:normal;font-weight:normal;font-stretch:normal;font-size:7.40833px;line-height:125%;font-family:Raleway-v4020;-inkscape-font-specification:Raleway-v4020;letter-spacing:0px;word-spacing:0px;fill:#000000;fill-opacity:1;stroke:none;stroke-width:0.264583px;stroke-linecap:butt;stroke-linejoin:miter;stroke-opacity:1"
       x="70.962318"
       y="52.69709"
       id="text5904"><tspan
         sodipodi:role="line"
         id="tspan5902"
         style="stroke-width:0.264583px"
         x="70.962318"
         y="52.69709">cpus=2</tspan></text><path
       fill="#66757f"
       d="m 117.74614,61.436164 h -1.37889 c -0.13285,-0.561483 -0.35436,-1.087282 -0.64884,-1.564275 l 0.97573,-0.975725 c 0.32032,-0.32032 0.32032,-0.839967 0,-1.160288 l -0.57994,-0.57994 c -0.32032,-0.320321 -0.83957,-0.320321 -1.15989,0 l -0.97572,0.975725 c -0.47739,-0.294481 -1.0028,-0.515546 -1.56427,-0.648433 v -1.378892 c 0,-0.452794 -0.36749,-0.820282 -0.82029,-0.820282 h -0.82027 c -0.4528,0 -0.82029,0.367488 -0.82029,0.820282 v 1.378892 c -0.56147,0.132887 -1.08728,0.354362 -1.56427,0.648843 l -0.97532,-0.975725 c -0.32032,-0.32032 -0.83997,-0.32032 -1.15987,0 l -0.58036,0.57994 c -0.32032,0.320318 -0.32032,0.839968 -5.3e-4,1.160288 l 0.97572,0.975725 c -0.29448,0.476994 -0.51555,1.002792 -0.64843,1.563865 h -1.37889 c -0.4528,0 -0.82029,0.367485 -0.82029,0.820282 v 0.82028 c 0,0.452797 0.36749,0.820282 0.82029,0.820282 h 1.37889 c 0.13285,0.561073 0.35437,1.086874 0.64884,1.563868 l -0.97573,0.975725 c -0.3199,0.319908 -0.3199,0.839967 5.3e-4,1.160288 l 0.57994,0.579937 c 0.3199,0.319911 0.83955,0.319911 1.15987,0 l 0.97572,-0.975725 c 0.47699,0.294892 1.0028,0.515959 1.56428,0.648843 v 1.378892 c 0,0.452797 0.36749,0.820283 0.82028,0.820283 h 0.82029 c 0.45279,0 0.82027,-0.367486 0.82027,-0.820283 v -1.378892 c 0.56107,-0.132884 1.08688,-0.354361 1.56387,-0.648843 l 0.97572,0.975725 c 0.32032,0.320321 0.83957,0.320321 1.15989,0 l 0.57994,-0.579937 c 0.32032,-0.320321 0.32032,-0.839968 0,-1.160288 l -0.97573,-0.975725 c 0.29489,-0.476994 0.51596,-1.002795 0.64884,-1.564278 h 1.37889 c 0.4528,0 0.82029,-0.367485 0.82029,-0.820279 v -0.820283 c 0,-0.452387 -0.36749,-0.819872 -0.82029,-0.819872 z m -6.56224,4.511548 c -1.81201,0 -3.28114,-1.469123 -3.28114,-3.281125 0,-1.812001 1.46913,-3.281126 3.28114,-3.281126 1.812,0 3.28113,1.469125 3.28113,3.281126 0,1.812002 -1.46913,3.281125 -3.28113,3.281125 z"
       id="path5906"
       style="display:inline;fill:#008080;stroke-width:0.410141" /><text
       xml:space="preserve"
       style="font-style:normal;font-variant:normal;font-weight:normal;font-stretch:normal;font-size:7.40833px;line-height:125%;font-family:Raleway-v4020;-inkscape-font-specification:Raleway-v4020;letter-spacing:0px;word-spacing:0px;fill:#000000;fill-opacity:1;stroke:none;stroke-width:0.264583px;stroke-linecap:butt;stroke-linejoin:miter;stroke-opacity:1"
       x="99.464409"
       y="52.69709"
       id="text5910"><tspan
         sodipodi:role="line"
         id="tspan5908"
         style="stroke-width:0.264583px"
         x="99.464409"
         y="52.69709">cpus=2</tspan></text><text
       xml:space="preserve"
       style="font-style:normal;font-variant:normal;font-weight:normal;font-stretch:normal;font-size:7.40833px;line-height:125%;font-family:Raleway-v4020;-inkscape-font-specification:Raleway-v4020;letter-spacing:0px;word-spacing:0px;fill:#000000;fill-opacity:1;stroke:none;stroke-width:0.264583px;stroke-linecap:butt;stroke-linejoin:miter;stroke-opacity:1"
       x="24.1278"
       y="65.090721"
       id="text5976"><tspan
         sodipodi:role="line"
         id="tspan5974"
         style="stroke-width:0.264583px"
         x="24.1278"
         y="65.090721">B</tspan></text><text
       xml:space="preserve"
       style="font-style:normal;font-variant:normal;font-weight:normal;font-stretch:normal;font-size:7.40833px;line-height:125%;font-family:Raleway-v4020;-inkscape-font-specification:Raleway-v4020;letter-spacing:0px;word-spacing:0px;fill:#000000;fill-opacity:1;stroke:none;stroke-width:0.264583px;stroke-linecap:butt;stroke-linejoin:miter;stroke-opacity:1"
       x="51.544834"
       y="65.090721"
       id="text5980"><tspan
         sodipodi:role="line"
         id="tspan5978"
         style="stroke-width:0.264583px"
         x="51.544834"
         y="65.090721">C</tspan></text><text
       xml:space="preserve"
       style="font-style:normal;font-variant:normal;font-weight:normal;font-stretch:normal;font-size:7.40833px;line-height:125%;font-family:Raleway-v4020;-inkscape-font-specification:Raleway-v4020;letter-spacing:0px;word-spacing:0px;display:inline;fill:#000000;fill-opacity:1;stroke:none;stroke-width:0.264583px;stroke-linecap:butt;stroke-linejoin:miter;stroke-opacity:1"
       x="80.168625"
       y="65.090721"
       id="text5984"><tspan
         sodipodi:role="line"
         id="tspan5982"
         style="stroke-width:0.264583px"
         x="0"
         y="0">D</tspan></text><text
       xml:space="preserve"
       style="font-style:normal;font-variant:normal;font-weight:normal;font-stretch:normal;font-size:7.40833px;line-height:125%;font-family:Raleway-v4020;-inkscape-font-specification:Raleway-v4020;letter-spacing:0px;word-spacing:0px;display:inline;fill:#000000;fill-opacity:1;stroke:none;stroke-width:0.264583px;stroke-linecap:butt;stroke-linejoin:miter;stroke-opacity:1"
       x="108.56597"
       y="65.090721"
       id="text5988"><tspan
         sodipodi:role="line"
         id="tspan5986"
         style="stroke-width:0.264583px"
         x="0"
         y="0">E</tspan></text></g><g
     inkscape:groupmode="layer"
     id="layer5"
     inkscape:label="**9+"
     style="display:inline"><rect
       style="color:#000000;display:inline;overflow:visible;fill:#008080;fill-opacity:1;stroke:#000000;stroke-width:0.5;stroke-dasharray:1, 1;stroke-dashoffset:0;stroke-opacity:1;stop-color:#000000"
       id="rect1795"
       width="10.288053"
       height="14.808781"
       x="155.27667"
       y="44.498737" /><text
       xml:space="preserve"
       style="font-style:normal;font-variant:normal;font-weight:normal;font-stretch:normal;font-size:7.40833px;line-height:125%;font-family:Raleway-v4020;-inkscape-font-specification:Raleway-v4020;letter-spacing:0px;word-spacing:0px;fill:#000000;fill-opacity:1;stroke:none;stroke-width:0.264583px;stroke-linecap:butt;stroke-linejoin:miter;stroke-opacity:1"
       x="157.88945"
       y="54.397545"
       id="text1799"><tspan
         sodipodi:role="line"
         id="tspan1797"
         style="stroke-width:0.264583px"
         x="157.88945"
         y="54.397545">B</tspan></text><rect
       style="color:#000000;overflow:visible;fill:#008080;fill-opacity:1;stroke:#000000;stroke-width:0.5;stroke-dasharray:1, 1;stroke-dashoffset:0;stroke-opacity:1;stop-color:#000000"
       id="rect1939"
       width="10.288053"
       height="14.808781"
       x="166.98289"
       y="44.498737" /><text
       xml:space="preserve"
       style="font-style:normal;font-variant:normal;font-weight:normal;font-stretch:normal;font-size:7.40833px;line-height:125%;font-family:Raleway-v4020;-inkscape-font-specification:Raleway-v4020;letter-spacing:0px;word-spacing:0px;fill:#000000;fill-opacity:1;stroke:none;stroke-width:0.264583px;stroke-linecap:butt;stroke-linejoin:miter;stroke-opacity:1"
       x="169.59567"
       y="54.397545"
       id="text1943"><tspan
         sodipodi:role="line"
         id="tspan1941"
         style="stroke-width:0.264583px"
         x="169.59567"
         y="54.397545">C</tspan></text></g><g
     inkscape:groupmode="layer"
     id="g648"
     inkscape:label="**11+"
     style="display:inline"
     transform="translate(0,-17.555923)"><rect
       style="color:#000000;display:inline;overflow:visible;fill:#008080;fill-opacity:1;stroke:#000000;stroke-width:0.5;stroke-dasharray:1, 1;stroke-dashoffset:0;stroke-opacity:1;stop-color:#000000"
       id="rect636"
       width="10.288053"
       height="14.808781"
       x="155.27667"
       y="44.498737" /><text
       xml:space="preserve"
       style="font-style:normal;font-variant:normal;font-weight:normal;font-stretch:normal;font-size:7.40833px;line-height:125%;font-family:Raleway-v4020;-inkscape-font-specification:Raleway-v4020;letter-spacing:0px;word-spacing:0px;fill:#000000;fill-opacity:1;stroke:none;stroke-width:0.264583px;stroke-linecap:butt;stroke-linejoin:miter;stroke-opacity:1"
       x="157.88945"
       y="54.397545"
       id="text640"><tspan
         sodipodi:role="line"
         id="tspan638"
         style="stroke-width:0.264583px"
         x="157.88945"
         y="54.397545">D</tspan></text><rect
       style="color:#000000;overflow:visible;fill:#008080;fill-opacity:1;stroke:#000000;stroke-width:0.5;stroke-dasharray:1, 1;stroke-dashoffset:0;stroke-opacity:1;stop-color:#000000"
       id="rect642"
       width="10.288053"
       height="14.808781"
       x="166.98289"
       y="44.498737" /><text
       xml:space="preserve"
       style="font-style:normal;font-variant:normal;font-weight:normal;font-stretch:normal;font-size:7.40833px;line-height:125%;font-family:Raleway-v4020;-inkscape-font-specification:Raleway-v4020;letter-spacing:0px;word-spacing:0px;fill:#000000;fill-opacity:1;stroke:none;stroke-width:0.264583px;stroke-linecap:butt;stroke-linejoin:miter;stroke-opacity:1"
       x="169.59567"
       y="54.397545"
       id="text646"><tspan
         sodipodi:role="line"
         id="tspan644"
         style="stroke-width:0.264583px"
         x="169.59567"
         y="54.397545">E</tspan></text></g></svg>
