<?xml version="1.0" encoding="UTF-8" standalone="no"?>
<!-- Created with Inkscape (http://www.inkscape.org/) -->

<svg
   width="662.72083"
   height="150.80521"
   viewBox="0 0 662.72083 150.80521"
   version="1.1"
   id="SVGRoot"
   sodipodi:docname="icons.svg"
   inkscape:version="1.2 (1:1.2.1+202207142221+cd75a1ee6d)"
   xmlns:inkscape="http://www.inkscape.org/namespaces/inkscape"
   xmlns:sodipodi="http://sodipodi.sourceforge.net/DTD/sodipodi-0.dtd"
   xmlns="http://www.w3.org/2000/svg"
   xmlns:svg="http://www.w3.org/2000/svg">
  <sodipodi:namedview
     id="namedview173"
     pagecolor="#ffffff"
     bordercolor="#666666"
     borderopacity="1.0"
     inkscape:showpageshadow="2"
     inkscape:pageopacity="0.0"
     inkscape:pagecheckerboard="0"
     inkscape:deskcolor="#d1d1d1"
     inkscape:document-units="px"
     showgrid="false"
     inkscape:zoom="0.84096521"
     inkscape:cx="367.43494"
     inkscape:cy="-189.06846"
     inkscape:window-width="1600"
     inkscape:window-height="1129"
     inkscape:window-x="0"
     inkscape:window-y="34"
     inkscape:window-maximized="1"
     inkscape:current-layer="layer1" />
  <defs
     id="defs168" />
  <g
     inkscape:label="Layer 1"
     inkscape:groupmode="layer"
     id="layer1"
     transform="translate(-289.53456,-583.96113)">
    <path
       fill="#abdfff"
       d="m 493.76718,662.74564 c -20.87305,27.88416 -25.99284,58.04429 -11.43483,67.36343 14.55801,9.31914 43.2802,-5.73345 64.14864,-33.6176 20.87301,-27.88415 12.60259,-77.98312 11.43487,-76.16051 -8.1377,12.70334 -43.27562,14.53053 -64.14868,42.41468 z"
       id="path225"
       style="stroke-width:4.57943" />
    <path
       fill="#abdfff"
       d="m 468.51621,662.74564 c 20.87304,27.88416 25.99285,58.04429 11.43942,67.36343 -14.55803,9.31914 -43.2802,-5.73345 -64.15325,-33.6176 -20.87304,-27.88415 -13.00558,-77.70835 -11.43484,-76.16051 17.18661,16.93931 43.28019,14.53053 64.14867,42.41468 z"
       id="path227"
       style="stroke-width:4.57943" />
    <path
       fill="#55acee"
       d="m 419.71322,651.55352 c 4.39625,7.3454 7.26297,14.41147 19.46715,25.915 4.71682,4.44662 4.30925,10.28081 -0.81971,6.40204 -12.1996,-9.22755 -19.71901,-23.90921 -22.20107,-33.2833 -1.74933,-6.59896 1.33722,-2.73392 3.55364,0.96626 z m 122.74705,0 c -4.39628,7.3454 -7.26299,14.41147 -19.46715,25.915 -4.71683,4.44662 -4.30924,10.28081 0.8197,6.40204 12.19961,-9.22755 19.71903,-23.90921 22.20106,-33.2833 1.74938,-6.59896 -1.33722,-2.73392 -3.55361,0.96626 z"
       id="path229"
       style="stroke-width:4.57943" />
    <path
       fill="#ffdc5d"
       d="m 540.6193,734.76634 v -16.028 c 0,-15.17623 -16.87516,-25.18686 -32.05599,-25.18686 h -54.95315 c -15.17166,0 -32.05601,10.01063 -32.05601,25.18686 v 16.028 z"
       id="path231"
       style="stroke-width:4.57943" />
    <path
       fill="#ffac33"
       d="m 480.83488,583.96113 c 18.79855,0 50.13101,18.56043 50.13101,59.28988 0,40.73861 0,50.1356 -9.40155,50.1356 -9.40158,0 -21.93548,-9.40156 -40.73405,-9.40156 -18.79855,0 -31.07144,9.40156 -40.73402,9.40156 -10.47317,0 -9.40158,-37.60169 -9.40158,-50.1356 0.005,-40.72945 31.34162,-59.28988 50.14019,-59.28988"
       id="path233"
       style="stroke-width:4.57943" />
    <path
       fill="#ffdc5d"
       d="m 464.27107,693.63391 c 6.71345,4.87709 13.57343,4.48784 16.81568,4.48784 3.24223,0 10.04727,0.38927 16.76071,-4.48784 v -14.66792 h -33.57639 z"
       id="path235"
       style="stroke-width:4.57943" />
    <path
       fill="#f9ca55"
       d="m 464.24359,685.21233 c 4.68019,5.28925 10.4869,6.7226 16.79736,6.7226 6.31504,0 12.12175,-1.42877 16.80651,-6.7226 v -13.44521 h -33.60387 z"
       id="path237"
       style="stroke-width:4.57943" />
    <path
       fill="#ffdc5d"
       d="m 443.23316,641.88634 c 0,-26.7164 16.83399,-57.53596 37.60172,-57.53596 20.75856,0 37.59252,30.81499 37.59252,57.53596 0,26.71181 -16.83396,47.09944 -37.59252,47.09944 -20.76773,0 -37.60172,-20.38763 -37.60172,-47.09944"
       id="path239"
       style="stroke-width:4.57943" />
    <path
       fill="#df1f32"
       d="m 480.83488,677.72039 c -7.35457,0 -11.20588,-3.63607 -11.61802,-4.0528 -1.22732,-1.22272 -1.22732,-3.2056 0,-4.42831 1.21814,-1.21356 3.16897,-1.22271 4.40084,-0.0321 0.16097,0.14665 2.52326,2.2485 7.21718,2.2485 4.75344,0 7.12101,-2.16607 7.21717,-2.25308 1.25017,-1.17232 3.21934,-1.1357 4.41,0.0915 1.19062,1.23187 1.19062,3.16439 -0.0189,4.37335 -0.40763,0.41674 -4.25429,4.0528 -11.60886,4.0528"
       id="path241"
       style="stroke-width:4.57943" />
    <path
       fill="#ffac33"
       d="m 434.03309,656.91604 c -0.0969,-4.57944 -0.20145,-1.02581 -0.20145,-2.12945 0,-15.67081 9.40156,2.26225 9.40156,-8.89783 0,-11.16923 6.26466,-12.28661 12.52932,-18.55127 3.13691,-3.13691 9.40158,-9.27792 9.40158,-9.27792 0,0 15.66622,9.46568 28.20013,9.46568 12.52932,0 25.0678,6.29671 25.0678,18.83061 0,12.52933 9.40158,-7.25381 9.40158,8.41242 0,1.11737 -0.10549,-2.43168 -0.18319,2.14776 h 3.29262 c 0.0276,-9.15887 0.0276,-8.81083 0.0276,-14.66334 0,-40.73404 -22.40714,-58.29157 -50.13558,-58.29157 -27.22471,0 -50.13559,17.30566 -50.13559,58.0397 0,3.63149 -0.0917,5.75634 0.0367,14.91521 z"
       id="path243"
       style="stroke-width:4.57943" />
    <path
       fill="#ffdc5d"
       d="m 517.72218,638.59831 -2.15232,0.59074 c 0,0 -5.4587,15.57465 0,18.30399 12.1996,6.09521 15.89062,-17.37436 15.89062,-23.47416 0,-4.57943 -13.7383,4.57943 -13.7383,4.57943 z m -73.27089,0 2.15234,0.59074 c 0,0 5.45868,15.57465 0,18.30399 -12.19961,6.09521 -15.89063,-17.37436 -15.89063,-23.47416 0,-4.57943 13.73829,4.57943 13.73829,4.57943 z"
       id="path245"
       style="stroke-width:4.57943" />
    <path
       fill="#662113"
       d="m 465.5533,651.81913 c -2.12942,0 -3.87418,-1.74477 -3.87418,-3.87878 v -3.86963 c 0,-2.12943 1.74476,-3.87419 3.87418,-3.87419 2.13403,0 3.87879,1.74476 3.87879,3.87419 v 3.86963 c 0,2.13401 -1.74476,3.87878 -3.87879,3.87878 m 30.97987,0 c -2.12945,0 -3.87421,-1.74477 -3.87421,-3.87878 v -3.86963 c 0,-2.12943 1.74476,-3.87419 3.87421,-3.87419 2.12943,0 3.87419,1.74476 3.87419,3.87419 v 3.86963 c 0,2.13401 -1.74476,3.87878 -3.87419,3.87878"
       id="path247"
       style="stroke-width:4.57943" />
    <path
       fill="#c1694f"
       d="m 484.91515,663.78518 h -7.73924 c -1.06704,0 -1.9371,-0.8701 -1.9371,-1.9371 v -0.70065 c 0,-1.06701 0.86557,-1.94169 1.9371,-1.94169 h 7.73924 c 1.06705,0 1.94167,0.8701 1.94167,1.94169 v 0.70065 c 0,1.06701 -0.87457,1.9371 -1.94167,1.9371"
       id="path249"
       style="stroke-width:4.57943" />
    <path
       fill="#77b255"
       d="m 439.87186,734.76634 h 82.42975 V 711.8692 l -11.44858,9.15886 -9.15887,-9.15886 -10.16173,9.15886 -10.44568,-9.15886 -10.23045,9.15886 -10.30373,-9.15886 -9.23213,9.15886 -11.44858,-9.15886 z"
       id="path251"
       style="stroke-width:4.57943" />
    <text
       xml:space="preserve"
       style="font-style:normal;font-variant:normal;font-weight:normal;font-stretch:normal;font-size:28px;line-height:125%;font-family:Raleway-v4020;-inkscape-font-specification:Raleway-v4020;letter-spacing:0px;word-spacing:0px;fill:#000000;fill-opacity:1;stroke:none;stroke-width:1px;stroke-linecap:butt;stroke-linejoin:miter;stroke-opacity:1"
       x="587.78027"
       y="652.85632"
       id="text378"><tspan
         sodipodi:role="line"
         id="tspan376"
         x="587.78027"
         y="652.85632">Icons in slides:</tspan><tspan
         sodipodi:role="line"
         x="587.78027"
         y="687.85632"
         id="tspan380">https://twemoji.twitter.com</tspan></text>
    <path
       fill="#ef9645"
       d="m 300.84442,642.10667 c 2.18704,-1.52863 5.4839,-1.23547 7.4476,0.38618 l -2.2522,-3.27358 c -1.81245,-2.5849 -1.16333,-5.38154 1.42391,-7.19633 2.58724,-1.80781 9.91851,3.05257 9.91851,3.05257 -1.82875,-2.61051 -1.48672,-5.91901 1.12377,-7.75007 2.6105,-1.8241 6.21216,-1.19358 8.04091,1.42157 l 24.2437,34.2483 -3.0898,29.95563 -25.78627,-9.40434 -22.49173,-33.34787 c -1.84503,-2.62677 -1.20753,-6.24937 1.4216,-8.09206 z"
       id="path861"
       style="display:inline;stroke-width:2.32664" />
    <path
       fill="#ffdc5d"
       d="m 295.80488,661.15959 c 0,0 -2.63376,-3.83897 1.20754,-6.47042 3.83665,-2.63143 6.46808,1.20522 6.46808,1.20522 l 12.21725,17.81748 c 0.42113,-0.7026 0.88181,-1.39598 1.396,-2.08002 l -16.95664,-24.72531 c 0,0 -2.63145,-3.83665 1.20754,-6.4681 3.83665,-2.63143 6.46808,1.20522 6.46808,1.20522 l 15.94919,23.25951 c 0.5933,-0.48395 1.20055,-0.97021 1.82641,-1.44718 L 307.09844,636.4878 c 0,0 -2.63143,-3.83665 1.20754,-6.4681 3.83665,-2.63143 6.46808,1.20522 6.46808,1.20522 l 18.48991,26.96355 c 0.67938,-0.41648 1.35177,-0.77709 2.0265,-1.15869 l -17.28235,-25.20225 c 0,0 -2.63145,-3.83665 1.2052,-6.4681 3.83664,-2.63145 6.46808,1.2052 6.46808,1.2052 l 18.27352,26.64945 2.77802,4.05302 c -11.51227,7.89667 -12.60811,22.75232 -6.03068,32.3451 1.31456,1.91949 3.23404,0.60489 3.23404,0.60489 -7.89433,-11.51458 -5.48391,-24.45308 6.03068,-32.34741 l -3.39457,-16.98921 c 0,0 -1.26803,-4.47647 3.20611,-5.74682 4.47648,-1.26803 5.74682,3.20845 5.74682,3.20845 l 3.92042,11.64256 c 1.5542,4.61606 3.20845,9.21586 5.39782,13.5667 6.18191,12.28471 2.48952,27.55218 -9.16699,35.54889 -12.71515,8.71795 -30.09757,5.47694 -38.81783,-7.23588 z"
       id="path863"
       style="display:inline;stroke-width:2.32664" />
    <g
       fill="#5dadec"
       id="g871"
       transform="matrix(2.3266504,0,0,2.3266504,289.53456,620.82479)"
       style="display:inline">
      <path
         d="M 12,32.042 C 8,32.042 3.958,28 3.958,24 3.958,23.447 3.553,23 3,23 2.447,23 1.958,23.447 1.958,24 1.958,30 6,34.042 12,34.042 c 0.553,0 1,-0.489 1,-1.042 0,-0.553 -0.447,-0.958 -1,-0.958 z"
         id="path865" />
      <path
         d="M 7,34 C 4,34 2,32 2,29 2,28.447 1.553,28 1,28 0.447,28 0,28.447 0,29 0,33 3,36 7,36 7.553,36 8,35.553 8,35 8,34.447 7.553,34 7,34 Z M 24,2 c -0.552,0 -1,0.448 -1,1 0,0.552 0.448,1 1,1 4,0 8,3.589 8,8 0,0.552 0.448,1 1,1 0.552,0 1,-0.448 1,-1 C 34,6.486 30,2 24,2 Z"
         id="path867" />
      <path
         d="m 29,0.042 c -0.552,0 -1,0.406 -1,0.958 0,0.552 0.448,1.042 1,1.042 3,0 4.958,2.225 4.958,4.958 0,0.552 0.489,1 1.042,1 0.553,0 0.958,-0.448 0.958,-1 C 35.958,3.163 33,0.042 29,0.042 Z"
         id="path869" />
    </g>
  </g>
</svg>
