<?xml version="1.0" encoding="UTF-8" standalone="no"?>
<!-- Created with Inkscape (http://www.inkscape.org/) -->

<svg
   width="193.56947mm"
   height="156.64409mm"
   viewBox="0 0 193.56947 156.64409"
   version="1.1"
   id="svg138"
   inkscape:version="1.2 (1:1.2.1+202207142221+cd75a1ee6d)"
   sodipodi:docname="laptop.svg"
   xml:space="preserve"
   xmlns:inkscape="http://www.inkscape.org/namespaces/inkscape"
   xmlns:sodipodi="http://sodipodi.sourceforge.net/DTD/sodipodi-0.dtd"
   xmlns="http://www.w3.org/2000/svg"
   xmlns:svg="http://www.w3.org/2000/svg"><sodipodi:namedview
     id="namedview140"
     pagecolor="#ffffff"
     bordercolor="#666666"
     borderopacity="1.0"
     inkscape:showpageshadow="2"
     inkscape:pageopacity="0.0"
     inkscape:pagecheckerboard="0"
     inkscape:deskcolor="#d1d1d1"
     inkscape:document-units="mm"
     showgrid="false"
     inkscape:zoom="0.84096521"
     inkscape:cx="235.44375"
     inkscape:cy="417.37755"
     inkscape:window-width="1600"
     inkscape:window-height="1129"
     inkscape:window-x="0"
     inkscape:window-y="34"
     inkscape:window-maximized="1"
     inkscape:current-layer="layer4" /><defs
     id="defs135"><marker
       style="overflow:visible"
       id="marker2967"
       refX="0"
       refY="0"
       orient="auto-start-reverse"
       inkscape:stockid="TriangleStart"
       markerWidth="5.5385952"
       markerHeight="6.4029999"
       viewBox="0 0 5.3244081 6.1553851"
       inkscape:isstock="true"
       inkscape:collect="always"
       preserveAspectRatio="xMidYMid"><path
         transform="scale(0.5)"
         style="fill:context-stroke;fill-rule:evenodd;stroke:context-stroke;stroke-width:1pt"
         d="M 5.77,0 -2.88,5 V -5 Z"
         id="path2965" /></marker></defs><g
     inkscape:label="Layer 1"
     inkscape:groupmode="layer"
     id="layer1"
     transform="translate(4.6156328,-20.365918)"><path
       fill="#abdfff"
       d="m 82.042073,41.210987 c -5.52266,7.377683 -6.877273,15.35755 -3.025464,17.823239 3.851805,2.46569 11.451218,-1.516975 16.97266,-8.894656 5.522651,-7.377682 3.334436,-20.633033 3.025476,-20.1508 -2.1531,3.361091 -11.450009,3.844536 -16.972672,11.222217 z"
       id="path225"
       style="stroke-width:1.21164" /><path
       fill="#abdfff"
       d="m 75.361088,41.210987 c 5.522659,7.377683 6.877274,15.35755 3.026678,17.823239 -3.85181,2.46569 -11.451218,-1.516975 -16.973878,-8.894656 -5.522661,-7.377682 -3.441062,-20.560334 -3.02547,-20.1508 4.547291,4.481859 11.451217,3.844536 16.97267,11.222217 z"
       id="path227"
       style="stroke-width:1.21164" /><path
       fill="#55acee"
       d="m 62.448629,38.249738 c 1.163174,1.943471 1.921661,3.813035 5.150685,6.856676 1.247992,1.176503 1.140155,2.720133 -0.216882,1.693874 -3.227811,-2.441456 -5.217321,-6.325978 -5.874034,-8.806207 -0.462843,-1.745974 0.353807,-0.72335 0.940234,0.255656 z m 32.476823,0 c -1.163181,1.943471 -1.921664,3.813035 -5.150683,6.856676 -1.247995,1.176503 -1.140153,2.720133 0.21688,1.693874 3.227813,-2.441456 5.217325,-6.325978 5.87403,-8.806207 0.462856,-1.745974 -0.353805,-0.72335 -0.940227,0.255657 z"
       id="path229"
       style="stroke-width:1.21164" /><path
       fill="#ffdc5d"
       d="m 94.438364,60.266463 v -4.240741 c 0,-4.015378 -4.464886,-6.664025 -8.481481,-6.664025 H 71.417195 c -4.014169,0 -8.481486,2.648647 -8.481486,6.664025 v 4.240741 z"
       id="path231"
       style="stroke-width:1.21164" /><path
       fill="#ffac33"
       d="m 78.620401,20.365918 c 4.973784,0 13.26383,4.910781 13.26383,15.687115 0,10.778757 0,13.265044 -2.487492,13.265044 -2.487501,0 -5.803764,-2.487498 -10.777552,-2.487498 -4.973782,0 -8.220984,2.487498 -10.777542,2.487498 -2.771027,0 -2.487501,-9.948782 -2.487501,-13.265044 0.0013,-10.776334 8.292469,-15.687115 13.266257,-15.687115"
       id="path233"
       style="stroke-width:1.21164" /><path
       fill="#ffdc5d"
       d="m 74.237895,49.383507 c 1.776265,1.290397 3.591303,1.187407 4.449147,1.187407 0.857841,0 2.65834,0.102995 4.434605,-1.187407 V 45.50262 h -8.883752 z"
       id="path235"
       style="stroke-width:1.21164" /><path
       fill="#f9ca55"
       d="m 74.230623,47.155298 c 1.238301,1.399446 2.77466,1.778689 4.444301,1.778689 1.670855,0 3.207213,-0.378031 4.446723,-1.778689 V 43.59792 h -8.891024 z"
       id="path237"
       style="stroke-width:1.21164" /><path
       fill="#ffdc5d"
       d="m 68.671615,35.691963 c 0,-7.068713 4.453991,-15.223055 9.948786,-15.223055 5.492371,0 9.946356,8.153131 9.946356,15.223055 0,7.067501 -4.453985,12.461727 -9.946356,12.461727 -5.494795,0 -9.948786,-5.394226 -9.948786,-12.461727"
       id="path239"
       style="stroke-width:1.21164" /><path
       fill="#df1f32"
       d="m 78.620401,45.173055 c -1.945896,0 -2.964888,-0.962044 -3.073933,-1.072302 -0.324728,-0.323511 -0.324728,-0.84815 0,-1.171658 0.322299,-0.321087 0.838457,-0.323509 1.164388,-0.0085 0.04259,0.0388 0.667612,0.594915 1.909545,0.594915 1.257681,0 1.884101,-0.573105 1.909545,-0.596127 0.330773,-0.310178 0.851782,-0.300488 1.166811,0.02422 0.315019,0.325931 0.315019,0.837244 -0.005,1.157116 -0.107851,0.110261 -1.125615,1.072303 -3.071512,1.072303"
       id="path241"
       style="stroke-width:1.21164" /><path
       fill="#ffac33"
       d="m 66.237429,39.66857 c -0.02564,-1.211641 -0.0533,-0.27141 -0.0533,-0.563415 0,-4.146235 2.487495,0.598552 2.487495,-2.354217 0,-2.955192 1.657525,-3.250833 3.31505,-4.908357 0.829975,-0.829974 2.4875,-2.454784 2.4875,-2.454784 0,0 4.145023,2.504461 7.461285,2.504461 3.315049,0 6.632522,1.666006 6.632522,4.982266 0,3.315051 2.487502,-1.919238 2.487502,2.225787 0,0.295637 -0.02791,-0.643382 -0.04847,0.568259 h 0.871172 c 0.0073,-2.423282 0.0073,-2.331198 0.0073,-3.879675 0,-10.777546 -5.928555,-15.422977 -13.265037,-15.422977 -7.203205,0 -13.265043,4.57879 -13.265043,15.356337 0,0.960831 -0.02427,1.523033 0.0097,3.946315 z"
       id="path243"
       style="stroke-width:1.21164" /><path
       fill="#ffdc5d"
       d="m 88.380166,34.822006 -0.569468,0.1563 c 0,0 -1.44428,4.120791 0,4.842929 3.227813,1.612693 4.204393,-4.596966 4.204393,-6.210871 0,-1.211641 -3.634925,1.211641 -3.634925,1.211642 z m -19.386254,0 0.569471,0.1563 c 0,0 1.444278,4.120791 0,4.842929 -3.227812,1.612693 -4.204394,-4.596966 -4.204394,-6.210871 0,-1.211641 3.634923,1.211641 3.634923,1.211642 z"
       id="path245"
       style="stroke-width:1.21164" /><path
       fill="#662113"
       d="m 74.577152,38.320013 c -0.563411,0 -1.025045,-0.461635 -1.025045,-1.02626 v -1.023838 c 0,-0.563412 0.461634,-1.025047 1.025045,-1.025047 0.564627,0 1.026261,0.461635 1.026261,1.025047 v 1.023838 c 0,0.564625 -0.461634,1.02626 -1.026261,1.02626 m 8.196756,0 c -0.563417,0 -1.025051,-0.461635 -1.025051,-1.02626 v -1.023838 c 0,-0.563412 0.461634,-1.025047 1.025051,-1.025047 0.563411,0 1.025045,0.461635 1.025045,1.025047 v 1.023838 c 0,0.564625 -0.461634,1.02626 -1.025045,1.02626"
       id="path247"
       style="stroke-width:1.21164" /><path
       fill="#c1694f"
       d="M 79.699974,41.486031 H 77.6523 c -0.282322,0 -0.512525,-0.230213 -0.512525,-0.512524 v -0.185381 c 0,-0.282312 0.229017,-0.513737 0.512525,-0.513737 h 2.047674 c 0.282322,0 0.513734,0.230213 0.513734,0.513737 v 0.185381 c 0,0.282312 -0.231398,0.512524 -0.513734,0.512524"
       id="path249"
       style="stroke-width:1.21164" /><path
       fill="#77b255"
       d="m 67.782271,60.266463 h 21.809537 v -6.058202 l -3.029104,2.423282 -2.423283,-2.423282 -2.688626,2.423282 -2.763753,-2.423282 -2.706807,2.423282 -2.726193,-2.423282 -2.442669,2.423282 -3.029102,-2.423282 z"
       id="path251"
       style="stroke-width:1.21164" /></g><g
     inkscape:groupmode="layer"
     id="layer4"
     inkscape:label="Layer 2"
     transform="translate(39.844175)"
     style="display:inline"><text
       xml:space="preserve"
       style="font-style:normal;font-variant:normal;font-weight:normal;font-stretch:normal;font-size:7.40833px;line-height:125%;font-family:Raleway-v4020;-inkscape-font-specification:Raleway-v4020;letter-spacing:0px;word-spacing:0px;fill:#ffac33;fill-opacity:1;stroke:none;stroke-width:0.264583px;stroke-linecap:butt;stroke-linejoin:miter;stroke-opacity:1"
       x="-22.024647"
       y="8.899641"
       id="text847"><tspan
         sodipodi:role="line"
         id="tspan845"
         style="fill:#ffac33;fill-opacity:1;stroke-width:0.264583px"
         x="-22.024647"
         y="8.899641">Fairy</tspan></text><path
       fill="#ef9645"
       d="m -2.3373956,3.2759319 c 0.3170171,-0.221576 0.7949035,-0.179082 1.0795457,0.05598 L -1.584311,2.8573999 c -0.2627193,-0.374688 -0.1686268,-0.780065 0.2063987,-1.043122 0.3750255,-0.262047 1.43770869,0.442475 1.43770869,0.442475 -0.2650813,-0.378398 -0.2155048,-0.857971 0.1628934,-1.123389 C 0.60108669,0.86895693 1.123154,0.96035393 1.3882353,1.3394249 L 4.9024081,6.3037859 4.4545361,10.645914 0.71676429,9.2827379 -2.5434578,4.4488959 c -0.2674407,-0.380759 -0.1750345,-0.905861 0.2060622,-1.172964 z"
       id="path861"
       style="stroke-width:0.337252" /><path
       fill="#ffdc5d"
       d="m -3.0678857,6.0376949 c 0,0 -0.3817697,-0.556468 0.1750345,-0.937901 0.5561299,-0.381432 0.9375618,0.174698 0.9375618,0.174698 l 1.77091529,2.582681 c 0.0610432,-0.101845 0.1278186,-0.202351 0.2023516,-0.301504 L -2.4399213,3.9716839 c 0,0 -0.3814332,-0.55613 0.1750345,-0.937563 0.5561299,-0.381432 0.937563,0.174698 0.937563,0.174698 l 2.31186659,3.371515 c 0.086001,-0.07015 0.17402241,-0.140634 0.26474351,-0.209772 l -2.6801466,-3.909096 c 0,0 -0.3814331,-0.55613 0.1750333,-0.937563 0.55612979,-0.381432 0.93756299,0.174697 0.93756299,0.174697 l 2.68014781,3.908423 c 0.09848,-0.06037 0.195944,-0.112641 0.2937471,-0.167953 l -2.50511341,-3.65312 c 0,0 -0.3814331,-0.55613 0.1746967,-0.93756297 0.5561299,-0.381434 0.93756311,0.17469597 0.93756311,0.17469597 l 2.6487823,3.862894 0.4026805,0.587494 c -1.6687275,1.144636 -1.8275725,3.297994 -0.8741592,4.6884871 0.1905471,0.278233 0.4687803,0.08768 0.4687803,0.08768 C 2.764563,8.5805739 3.1139576,6.7051119 4.7830201,5.5608139 l -0.492051,-2.46262 c 0,0 -0.1838033,-0.648874 0.464734,-0.833015 0.648874,-0.183802 0.833014,0.465072 0.833014,0.465072 l 0.568271,1.687613 c 0.225286,0.669109 0.465071,1.335857 0.782426,1.96652 0.896081,1.780695 0.36086,3.9937471 -1.328775,5.1528851 -1.8430863,1.263686 -4.3627014,0.793893 -5.62672421,-1.048856 z"
       id="path863"
       style="stroke-width:0.337252" /><g
       fill="#5dadec"
       id="g871"
       transform="matrix(0.33725273,0,0,0.33725273,-3.9767817,0.19108093)"><path
         d="M 12,32.042 C 8,32.042 3.958,28 3.958,24 3.958,23.447 3.553,23 3,23 2.447,23 1.958,23.447 1.958,24 1.958,30 6,34.042 12,34.042 c 0.553,0 1,-0.489 1,-1.042 0,-0.553 -0.447,-0.958 -1,-0.958 z"
         id="path865" /><path
         d="M 7,34 C 4,34 2,32 2,29 2,28.447 1.553,28 1,28 0.447,28 0,28.447 0,29 0,33 3,36 7,36 7.553,36 8,35.553 8,35 8,34.447 7.553,34 7,34 Z M 24,2 c -0.552,0 -1,0.448 -1,1 0,0.552 0.448,1 1,1 4,0 8,3.589 8,8 0,0.552 0.448,1 1,1 0.552,0 1,-0.448 1,-1 C 34,6.486 30,2 24,2 Z"
         id="path867" /><path
         d="m 29,0.042 c -0.552,0 -1,0.406 -1,0.958 0,0.552 0.448,1.042 1,1.042 3,0 4.958,2.225 4.958,4.958 0,0.552 0.489,1 1.042,1 0.553,0 0.958,-0.448 0.958,-1 C 35.958,3.163 33,0.042 29,0.042 Z"
         id="path869" /></g><path
       style="fill:none;fill-rule:evenodd;stroke:#000000;stroke-width:0.865;stroke-linecap:butt;stroke-linejoin:miter;stroke-dasharray:none;stroke-opacity:1;marker-end:url(#marker2967)"
       d="M -23.726328,13.47781 H 8.7855964 l 7.2391176,4.309934"
       id="path2746"
       sodipodi:nodetypes="ccc" /></g><g
     inkscape:groupmode="layer"
     id="layer2"
     inkscape:label="Layer 2 **2+"
     transform="translate(4.6156328,-20.365918)"
     style="display:inline"><path
       fill="#ccd6dd"
       d="m 149.30374,52.074957 c -0.47501,-1.096961 -1.02064,-2.287331 -2.27822,-2.287331 h -1.13911 c 1.25757,0 2.27821,-1.024055 2.27821,-2.287327 V 28.053453 c 0,-1.263272 -1.02064,-2.287327 -2.27821,-2.287327 h -29.6168 c -1.25757,0 -2.27822,1.024055 -2.27822,2.287327 v 19.446846 c 0,1.263272 1.02065,2.287327 2.27822,2.287327 h -1.13911 c -1.25757,0 -1.8989,1.143666 -2.27822,2.287331 l -2.2782,5.57593 c 0,1.264406 1.02063,2.288467 2.2782,2.288467 h 36.45146 c 1.25757,0 2.27821,-1.024061 2.27821,-2.287326 z"
       id="path2"
       style="stroke-width:1.1391" /><path
       fill="#9aaab4"
       d="m 110.58318,57.746571 0.006,0.06492 0.19365,0.788263 c 0.35996,0.788265 1.14822,1.339591 2.06862,1.339591 h 36.45145 c 1.22567,0 2.21784,-0.973938 2.2691,-2.192782 z"
       id="path4"
       style="stroke-width:1.1391" /><path
       fill="#5dadec"
       d="m 145.88641,46.355497 c 0,0.632202 -0.50918,1.143661 -1.1391,1.143661 h -27.33859 c -0.62879,0 -1.13911,-0.511459 -1.13911,-1.143661 V 29.198258 c 0,-0.632205 0.51032,-1.143665 1.13911,-1.143665 h 27.33859 c 0.62992,0 1.1391,0.512596 1.1391,1.143665 z"
       id="path6"
       style="fill:#808080;stroke-width:1.1391" /><path
       fill="#aebbc1"
       d="M 148.05755,54.291661 147.19182,51.8141 c -0.27224,-0.523989 -0.72333,-0.953433 -1.35325,-0.953433 h -29.44365 c -0.62879,0 -1.03204,0.464757 -1.31682,1.180114 l -0.7837,2.252016 c -0.24944,0.678909 0.51031,1.143665 1.1391,1.143665 h 8.63217 c 0,0 1.06734,-0.05356 1.25643,-0.692579 0.21871,-0.738143 0.47273,-1.849909 0.5274,-2.045835 0.0843,-0.300724 0.44198,-0.604866 0.97507,-0.604866 h 9.77128 c 0.56955,0 0.84976,0.288196 0.92381,0.644734 0.0478,0.232399 0.35541,1.299722 0.49893,2.029892 0.12645,0.650429 1.39085,0.667514 1.39085,0.667514 h 7.51127 c 0.62766,0 1.38631,-0.536518 1.13684,-1.143661 z"
       id="path8"
       style="stroke-width:1.1391" /><path
       fill="#9aaab4"
       d="m 136.0616,56.650752 h -8.86339 c -0.42718,0 -0.61284,-0.390707 -0.55133,-0.768899 0.0616,-0.377057 0.40891,-2.042422 0.43629,-2.236069 0.0262,-0.194771 0.31212,-0.42717 0.59688,-0.42717 h 7.99084 c 0.33831,0 0.55817,0.185687 0.62651,0.557023 0.0671,0.372493 0.34399,1.869278 0.36564,2.21101 0.0215,0.342873 -0.19253,0.664099 -0.60144,0.664099 z"
       id="path10"
       style="stroke-width:1.1391" /></g><g
     inkscape:groupmode="layer"
     id="layer3"
     inkscape:label="Layer 3 **3+"
     transform="translate(4.6156328,-20.365918)"
     style="display:inline"><path
       fill="#5dadec"
       d="m 188.95384,171.41625 c 0,3.09214 -2.49047,5.59376 -5.57153,5.59376 H 0.95590623 c -3.07548403,0 -5.57153903,-2.50162 -5.57153903,-5.59376 V 87.497959 c 0,-3.0922 2.496055,-5.593811 5.57153903,-5.593811 H 183.38231 c 3.08106,0 5.57153,2.507168 5.57153,5.593811 z"
       id="path6-3"
       style="fill:#333333;stroke-width:5.57152"
       sodipodi:nodetypes="sssssssss" /></g></svg>
