<?xml version="1.0" encoding="UTF-8" standalone="no"?>
<!-- Created with Inkscape (http://www.inkscape.org/) -->

<svg
   width="1024.0px"
   height="768.0px"
   viewBox="0 0 1024.0 768.0"
   version="1.1"
   id="SVGRoot"
   sodipodi:docname="loginnodes.svg"
   inkscape:version="1.2 (1:1.2.1+202207142221+cd75a1ee6d)"
   xml:space="preserve"
   xmlns:inkscape="http://www.inkscape.org/namespaces/inkscape"
   xmlns:sodipodi="http://sodipodi.sourceforge.net/DTD/sodipodi-0.dtd"
   xmlns="http://www.w3.org/2000/svg"
   xmlns:svg="http://www.w3.org/2000/svg"><sodipodi:namedview
     id="namedview2909"
     pagecolor="#ffffff"
     bordercolor="#666666"
     borderopacity="1.0"
     inkscape:showpageshadow="2"
     inkscape:pageopacity="0.0"
     inkscape:pagecheckerboard="0"
     inkscape:deskcolor="#d1d1d1"
     inkscape:document-units="px"
     showgrid="false"
     inkscape:zoom="1.1893044"
     inkscape:cx="343.8985"
     inkscape:cy="447.3203"
     inkscape:window-width="1600"
     inkscape:window-height="1129"
     inkscape:window-x="0"
     inkscape:window-y="34"
     inkscape:window-maximized="1"
     inkscape:current-layer="layer2" /><defs
     id="defs2904" /><g
     inkscape:label="Layer 1"
     inkscape:groupmode="layer"
     id="layer1"><g
       inkscape:groupmode="layer"
       id="layer4"
       inkscape:label="Layer 2"
       style="display:inline"
       transform="matrix(1.4467856,0,0,1.4467856,-203.57544,-474.3629)"><path
         sodipodi:type="star"
         style="color:#000000;overflow:visible;fill:none;stroke:#038bb4;stroke-width:8.91546;stroke-dasharray:none;stroke-opacity:1;stop-color:#000000"
         id="path16762"
         inkscape:flatsided="true"
         sodipodi:sides="6"
         sodipodi:cx="595.31805"
         sodipodi:cy="301.539"
         sodipodi:r1="52.589668"
         sodipodi:r2="45.543991"
         sodipodi:arg1="1.0471976"
         sodipodi:arg2="1.5707963"
         inkscape:rounded="0"
         inkscape:randomized="0"
         d="m 621.61289,347.08299 -52.58967,0 -26.29483,-45.54399 26.29483,-45.54399 52.58967,0 26.29483,45.54399 z"
         transform="matrix(0.33919001,0,0,0.33919001,112.24113,388.20434)" /><path
         sodipodi:type="star"
         style="color:#000000;overflow:visible;fill:none;stroke:#038bb4;stroke-width:8.91546;stroke-dasharray:none;stroke-opacity:1;stop-color:#000000"
         id="path16762-3"
         inkscape:flatsided="true"
         sodipodi:sides="6"
         sodipodi:cx="595.31805"
         sodipodi:cy="301.539"
         sodipodi:r1="52.589668"
         sodipodi:r2="45.543991"
         sodipodi:arg1="1.0471976"
         sodipodi:arg2="1.5707963"
         inkscape:rounded="0"
         inkscape:randomized="0"
         d="m 621.61289,347.08299 -52.58967,0 -26.29483,-45.54399 26.29483,-45.54399 52.58967,0 26.29483,45.54399 z"
         transform="matrix(0.33919001,0,0,0.33919001,112.31395,423.30708)" /><path
         sodipodi:type="star"
         style="color:#000000;overflow:visible;fill:none;stroke:#038bb4;stroke-width:8.91546;stroke-dasharray:none;stroke-opacity:1;stop-color:#000000"
         id="path16762-2"
         inkscape:flatsided="true"
         sodipodi:sides="6"
         sodipodi:cx="595.31805"
         sodipodi:cy="301.539"
         sodipodi:r1="52.589668"
         sodipodi:r2="45.543991"
         sodipodi:arg1="1.0471976"
         sodipodi:arg2="1.5707963"
         inkscape:rounded="0"
         inkscape:randomized="0"
         d="m 621.61289,347.08299 -52.58967,0 -26.29483,-45.54399 26.29483,-45.54399 52.58967,0 26.29483,45.54399 z"
         transform="matrix(0.33919001,0,0,0.33919001,142.16236,405.86684)" /><path
         sodipodi:type="star"
         style="color:#000000;overflow:visible;fill:none;stroke:#038bb4;stroke-width:8.91546;stroke-dasharray:none;stroke-opacity:1;stop-color:#000000"
         id="path16762-3-8"
         inkscape:flatsided="true"
         sodipodi:sides="6"
         sodipodi:cx="595.31805"
         sodipodi:cy="301.539"
         sodipodi:r1="52.589668"
         sodipodi:r2="45.543991"
         sodipodi:arg1="1.0471976"
         sodipodi:arg2="1.5707963"
         inkscape:rounded="0"
         inkscape:randomized="0"
         d="m 621.61289,347.08299 -52.58967,0 -26.29483,-45.54399 26.29483,-45.54399 52.58967,0 26.29483,45.54399 z"
         transform="matrix(0.33919001,0,0,0.33919001,142.23518,440.96958)" /><path
         sodipodi:type="star"
         style="color:#000000;overflow:visible;fill:#000000;fill-opacity:0;stroke:#000000;stroke-width:8.91546;stroke-dasharray:none;stroke-opacity:1;stop-color:#000000"
         id="path16762-36"
         inkscape:flatsided="true"
         sodipodi:sides="6"
         sodipodi:cx="595.31805"
         sodipodi:cy="301.539"
         sodipodi:r1="52.589668"
         sodipodi:r2="45.543991"
         sodipodi:arg1="1.0471976"
         sodipodi:arg2="1.5707963"
         inkscape:rounded="0"
         inkscape:randomized="0"
         d="m 621.61289,347.08299 -52.58967,0 -26.29483,-45.54399 26.29483,-45.54399 52.58967,0 26.29483,45.54399 z"
         transform="matrix(0.33919001,0,0,0.33919001,391.20391,369.25234)" /><path
         sodipodi:type="star"
         style="color:#000000;overflow:visible;fill:#000000;fill-opacity:0;stroke:#000000;stroke-width:8.91546;stroke-dasharray:none;stroke-opacity:1;stop-color:#000000"
         id="path16762-3-1"
         inkscape:flatsided="true"
         sodipodi:sides="6"
         sodipodi:cx="595.31805"
         sodipodi:cy="301.539"
         sodipodi:r1="52.589668"
         sodipodi:r2="45.543991"
         sodipodi:arg1="1.0471976"
         sodipodi:arg2="1.5707963"
         inkscape:rounded="0"
         inkscape:randomized="0"
         d="m 621.61289,347.08299 -52.58967,0 -26.29483,-45.54399 26.29483,-45.54399 52.58967,0 26.29483,45.54399 z"
         transform="matrix(0.33919001,0,0,0.33919001,391.27673,404.35507)" /><path
         sodipodi:type="star"
         style="color:#000000;overflow:visible;fill:#000000;fill-opacity:0;stroke:#000000;stroke-width:8.91546;stroke-dasharray:none;stroke-opacity:1;stop-color:#000000"
         id="path16762-2-2"
         inkscape:flatsided="true"
         sodipodi:sides="6"
         sodipodi:cx="595.31805"
         sodipodi:cy="301.539"
         sodipodi:r1="52.589668"
         sodipodi:r2="45.543991"
         sodipodi:arg1="1.0471976"
         sodipodi:arg2="1.5707963"
         inkscape:rounded="0"
         inkscape:randomized="0"
         d="m 621.61289,347.08299 -52.58967,0 -26.29483,-45.54399 26.29483,-45.54399 52.58967,0 26.29483,45.54399 z"
         transform="matrix(0.33919001,0,0,0.33919001,421.12514,386.91483)" /><path
         sodipodi:type="star"
         style="color:#000000;overflow:visible;fill:#000000;fill-opacity:0;stroke:#000000;stroke-width:8.91546;stroke-dasharray:none;stroke-opacity:1;stop-color:#000000"
         id="path16762-3-8-9"
         inkscape:flatsided="true"
         sodipodi:sides="6"
         sodipodi:cx="595.31805"
         sodipodi:cy="301.539"
         sodipodi:r1="52.589668"
         sodipodi:r2="45.543991"
         sodipodi:arg1="1.0471976"
         sodipodi:arg2="1.5707963"
         inkscape:rounded="0"
         inkscape:randomized="0"
         d="m 621.61289,347.08299 -52.58967,0 -26.29483,-45.54399 26.29483,-45.54399 52.58967,0 26.29483,45.54399 z"
         transform="matrix(0.33919001,0,0,0.33919001,421.19795,422.01757)" /><text
         xml:space="preserve"
         style="font-style:normal;font-variant:normal;font-weight:normal;font-stretch:normal;font-size:22.4656px;line-height:125%;font-family:Raleway-v4020;-inkscape-font-specification:Raleway-v4020;letter-spacing:0px;word-spacing:0px;fill:#038bb4;fill-opacity:1;stroke:none;stroke-width:0.802342px;stroke-linecap:butt;stroke-linejoin:miter;stroke-opacity:1"
         x="259.33704"
         y="598.32324"
         id="text22159"><tspan
           sodipodi:role="line"
           id="tspan22157"
           x="259.33704"
           y="598.32324"
           style="fill:#038bb4;fill-opacity:1;stroke-width:0.802342px">Login nodes</tspan></text><text
         xml:space="preserve"
         style="font-style:normal;font-variant:normal;font-weight:normal;font-stretch:normal;font-size:22.4656px;line-height:125%;font-family:Raleway-v4020;-inkscape-font-specification:Raleway-v4020;letter-spacing:0px;word-spacing:0px;fill:#000000;fill-opacity:1;stroke:none;stroke-width:0.802342px;stroke-linecap:butt;stroke-linejoin:miter;stroke-opacity:1"
         x="546.49323"
         y="669.78906"
         id="text22159-3"><tspan
           sodipodi:role="line"
           id="tspan22157-1"
           x="546.49323"
           y="669.78906"
           style="stroke-width:0.802342px">Compute nodes</tspan></text><text
         xml:space="preserve"
         style="font-style:normal;font-variant:normal;font-weight:normal;font-stretch:normal;font-size:22.4656px;line-height:125%;font-family:Raleway-v4020;-inkscape-font-specification:Raleway-v4020;letter-spacing:0px;word-spacing:0px;fill:#3e721d;fill-opacity:1;stroke:none;stroke-width:0.802342px;stroke-linecap:butt;stroke-linejoin:miter;stroke-opacity:1"
         x="393.05859"
         y="632.70776"
         id="text22159-9"><tspan
           sodipodi:role="line"
           id="tspan22157-7"
           x="393.05859"
           y="632.70776"
           style="fill:#3e721d;fill-opacity:1;stroke-width:0.802342px">System scheduler</tspan></text><path
         fill="#3e721d"
         d="m 457.90703,561.85113 c 2.18218,-23.38356 -15.39732,-26.29082 -22.36916,-21.20486 -3.82406,2.78874 -4.71645,8.0978 -1.66976,5.30209 5.37529,-4.93606 7.26117,-1.30722 3.1966,1.30722 -4.0646,2.61444 -4.79315,7.4773 -0.28934,4.14127 4.50381,-3.33951 5.73782,-1.1643 2.25191,3.11991 -2.10898,2.59352 0.14641,5.01274 4.06807,-0.21613 3.26979,-4.36089 11.15494,-4.51079 9.27952,10.4229 -0.77387,6.12128 5.06505,2.11944 5.53216,-2.8724 z m 27.68169,-73.28103 c -2.03229,-12.20073 -3.92165,-18.29412 -16.12238,-20.32989 -12.20072,-2.03578 -22.36916,6.10036 -22.36916,6.10036 0,0 2.0323,-12.20073 8.13266,-16.2688 2.39135,-1.59655 4.06806,6.10036 6.10036,6.10036 2.0323,0 4.06807,-6.10036 10.16843,-6.10036 2.03229,0 2.03229,6.10036 4.06807,6.10036 2.03229,0 7.81892,-2.01137 8.13266,0 0.43923,2.83057 -0.58215,6.02716 1.01789,7.33439 1.60003,1.30721 5.41362,-0.51592 6.62674,1.7046 1.21657,2.21705 -2.12641,5.41364 -1.83361,6.86727 0.29283,1.45363 2.50638,2.03229 1.83361,4.79314 -0.67279,2.76085 -2.26585,2.90378 -2.41227,4.93955 -0.14641,2.03578 3.08504,3.76828 2.41227,5.87727 -0.6693,2.11246 -2.26934,2.39832 -2.99441,5.08596 -0.72508,2.68764 1.88587,2.26236 1.1608,5.01624 -0.72507,2.75387 -3.33951,3.45454 -4.21099,6.15613 -0.87148,2.69811 2.32163,3.28025 0.72508,5.8947 -1.59656,2.61444 -4.50033,3.05018 -4.64674,4.64672 -0.14641,1.59656 0.72856,2.85149 0.14641,5.42061 -0.58215,2.56565 -3.92515,1.2619 -4.21448,3.2942 -0.28934,2.03229 0.72856,3.05018 0.72856,5.51821 0,2.46804 -2.47152,2.90726 -2.1787,5.37529 0.29282,2.46804 2.61445,0.58215 4.06807,3.48593 1.45362,2.90377 -0.86799,5.51821 0.72855,7.26117 1.59656,1.74296 3.77526,-2.32511 5.95396,-0.87148 2.1787,1.45363 2.35997,4.3574 4.73737,4.79315 2.3774,0.43573 3.10596,-4.50383 4.84891,-4.35741 1.74296,0.14641 5.66463,2.47152 7.69692,1.45363 2.03229,-1.01789 1.88588,-5.08595 3.48592,-6.82892 1.60004,-1.74296 3.63233,-0.14292 5.08247,-2.0323 1.45015,-1.88936 -0.50546,-4.09595 -0.21612,-6.8568 0.28932,-2.76086 2.97697,-4.32603 2.83056,-6.50473 -0.1464,-2.17871 -2.32511,-2.17871 -3.19658,-4.50381 -0.87149,-2.32511 1.59655,-4.3574 0.72507,-6.5361 -0.87149,-2.1787 -4.64325,-2.90378 -4.50033,-5.08248 0.14293,-2.1787 1.60004,-4.64673 0.87148,-7.11825 -0.72855,-2.47151 -3.77873,-4.06458 -3.63233,-5.95046 0.1464,-1.88588 1.73948,-4.35741 2.03229,-5.73783 0.29282,-1.38043 -2.61095,-2.83057 -2.32162,-5.15568 0.28933,-2.32511 2.17522,-2.16476 2.90028,-4.26328 0.72507,-2.09852 -2.61095,-3.14082 -0.86799,-5.82846 1.74296,-2.68764 2.61793,-0.9412 4.06807,-2.39831 1.45015,-1.45363 -0.003,-4.65023 1.45015,-5.3753 1.45362,-0.72506 4.3574,-0.1464 5.81102,-1.16081 1.45364,-1.0144 1.45364,-2.46802 3.05019,-3.05017 1.59655,-0.58216 3.63232,1.88937 4.93954,1.88937 1.30722,0 3.62885,-2.46804 5.37182,-1.88937 1.74295,0.58215 5.52169,4.64672 3.19658,5.88424 -2.32511,1.23749 -20.04754,2.10898 -20.19046,10.24162 -0.14292,8.13266 9.73618,45.02765 6.82892,54.32111 -2.90725,9.29348 -14.95808,29.05167 -28.75884,25.27294 -13.80077,-3.77875 -30.21248,-12.20421 -26.29082,-25.13001 3.92167,-12.92928 16.55464,-39.37697 19.02615,-51.49751 z"
         id="path23266"
         style="stroke-width:3.48593" /><path
         fill="#77b255"
         d="m 487.76743,485.38396 c 0,13.867 -8.30346,28.38934 -20.33337,26.37449 -18.55557,-3.10248 -19.54209,-9.01809 -22.36917,-5.38925 -10.16842,13.0478 -16.18861,-1.69066 -18.49978,-4.13429 -0.58215,-0.61352 -12.00203,-3.97745 -12.00203,-10.41245 0,-4.17264 6.10037,-8.42896 10.16844,-4.29116 6.00276,-0.14991 28.46952,-21.45934 42.70254,-21.45934 14.23301,-0.003 20.33337,10.72966 20.33337,19.312 z"
         id="path23268"
         style="stroke-width:3.48593" /><path
         fill="#292f33"
         d="m 465.39827,482.47322 c 0,2.24494 -1.82314,4.06807 -4.06807,4.06807 -2.24493,0 -4.06807,-1.82313 -4.06807,-4.06807 0,-2.24494 1.82314,-4.06808 4.06807,-4.06808 2.24842,0.003 4.06807,1.82314 4.06807,4.06808 z"
         id="path23270"
         style="stroke-width:3.48593" /><path
         fill="#3e721d"
         d="m 424.73152,493.65954 c 0,1.6837 -1.36649,1.01789 -3.05018,1.01789 -1.68371,0 -3.05019,0.66581 -3.05019,-1.01789 0,-1.6837 1.36648,-3.05018 3.05019,-3.05018 1.68369,0 3.05018,1.36648 3.05018,3.05018 z"
         id="path23272"
         style="stroke-width:3.48593" /><path
         fill="#ffffff"
         d="m 453.19755,496.70275 c 0,2.24842 -1.36649,2.03229 -3.05018,2.03229 -1.68371,0 -3.05019,0.21264 -3.05019,-2.03229 0,-2.24493 1.36648,-8.13265 3.05019,-8.13265 1.68369,0 3.05018,5.88772 3.05018,8.13265 z m -8.13266,2.03229 c 0,2.24842 -1.36648,2.03229 -3.05018,2.03229 -1.68369,0.003 -3.05018,0.21613 -3.05018,-2.03229 0,-2.24493 1.36649,-8.13266 3.05018,-8.13266 1.6837,0 3.05018,5.88773 3.05018,8.13266 z"
         id="path23274"
         style="stroke-width:3.48593" /><path
         fill="#3e721d"
         d="m 452.9117,496.73063 c -10.78892,1.54079 -21.665,4.26678 -26.34659,5.50428 0.58215,0.617 1.40483,2.01835 2.47151,3.55912 5.13129,-1.32464 14.82562,-3.66371 24.45375,-5.03366 1.112,-0.16036 1.8824,-1.1922 1.72553,-2.30421 -0.16384,-1.11549 -1.19916,-1.88936 -2.3042,-1.72553 z"
         id="path23276"
         style="stroke-width:3.48593" /><path
         fill="#77b255"
         d="m 487.57918,489.00932 c 0,15.2509 -5.97486,28.58804 -10.26952,38.93774 -4.64673,11.19678 -3.48592,31.3733 13.94368,31.3733 17.42961,0 22.69684,-11.12358 24.40146,-17.42961 4.73387,-17.50282 -6.97185,-27.88737 -6.97185,-45.31699 0,-31.37328 27.88737,-24.40143 27.88737,-20.91552 0,3.48593 -24.17138,4.78966 -10.45775,31.37329 13.71361,26.58364 13.94368,76.31728 -34.85923,76.31728 -48.80289,0 -48.80289,-31.00029 -41.83105,-44.94399 4.93606,-9.87213 13.94368,-24.77444 1.74297,-31.53016 -7.95488,-4.40271 36.41392,-17.86534 36.41392,-17.86534 z"
         id="path23278"
         style="stroke-width:3.48593" /><path
         fill="#3e721d"
         d="m 454.076,484.94474 c -0.89239,0 -1.7848,-0.34163 -2.46455,-1.02138 -1.36299,-1.36299 -1.36299,-3.56609 0,-4.92908 0.28933,-0.28934 7.25421,-7.12175 18.73335,-7.12175 1.92422,0 3.48591,1.5617 3.48591,3.48592 0,1.92423 -1.56169,3.48592 -3.48591,3.48592 -8.48822,0 -13.75197,5.02671 -13.80425,5.07899 -0.67977,0.67975 -1.57215,1.02138 -2.46455,1.02138 z"
         id="path23280"
         style="stroke-width:3.48593" /><path
         fill="#5c913b"
         d="m 451.89032,546.16449 c 2.18568,-23.38356 -18.88323,-26.29083 -25.85507,-21.20486 -3.82405,2.78873 -4.71646,8.09779 -1.66976,5.30208 5.37529,-4.93607 7.26118,-1.30722 3.19659,1.30722 -4.06807,2.61444 -4.79314,7.48079 -0.28934,4.14128 4.50382,-3.33952 5.73784,-1.16429 2.25191,3.11989 -2.10898,2.59353 0.14642,5.01276 4.06807,-0.21612 3.2698,-4.36089 14.64088,-4.51078 12.76545,10.42291 -0.77388,6.12128 5.06852,2.11943 5.53215,-2.8724 z"
         id="path23282"
         style="stroke-width:3.48593" /><path
         sodipodi:type="star"
         style="color:#000000;overflow:visible;fill:#000000;fill-opacity:0;stroke:#000000;stroke-width:8.91546;stroke-dasharray:none;stroke-opacity:1;stop-color:#000000"
         id="path24518"
         inkscape:flatsided="true"
         sodipodi:sides="6"
         sodipodi:cx="595.31805"
         sodipodi:cy="301.539"
         sodipodi:r1="52.589668"
         sodipodi:r2="45.543991"
         sodipodi:arg1="1.0471976"
         sodipodi:arg2="1.5707963"
         inkscape:rounded="0"
         inkscape:randomized="0"
         d="m 621.61289,347.08299 -52.58967,0 -26.29483,-45.54399 26.29483,-45.54399 52.58967,0 26.29483,45.54399 z"
         transform="matrix(0.33919001,0,0,0.33919001,391.20391,439.62682)" /><path
         sodipodi:type="star"
         style="color:#000000;overflow:visible;fill:#000000;fill-opacity:0;stroke:#000000;stroke-width:8.91546;stroke-dasharray:none;stroke-opacity:1;stop-color:#000000"
         id="path24520"
         inkscape:flatsided="true"
         sodipodi:sides="6"
         sodipodi:cx="595.31805"
         sodipodi:cy="301.539"
         sodipodi:r1="52.589668"
         sodipodi:r2="45.543991"
         sodipodi:arg1="1.0471976"
         sodipodi:arg2="1.5707963"
         inkscape:rounded="0"
         inkscape:randomized="0"
         d="m 621.61289,347.08299 -52.58967,0 -26.29483,-45.54399 26.29483,-45.54399 52.58967,0 26.29483,45.54399 z"
         transform="matrix(0.33919001,0,0,0.33919001,391.27673,474.72956)" /><path
         sodipodi:type="star"
         style="color:#000000;overflow:visible;fill:#000000;fill-opacity:0;stroke:#000000;stroke-width:8.91546;stroke-dasharray:none;stroke-opacity:1;stop-color:#000000"
         id="path24522"
         inkscape:flatsided="true"
         sodipodi:sides="6"
         sodipodi:cx="595.31805"
         sodipodi:cy="301.539"
         sodipodi:r1="52.589668"
         sodipodi:r2="45.543991"
         sodipodi:arg1="1.0471976"
         sodipodi:arg2="1.5707963"
         inkscape:rounded="0"
         inkscape:randomized="0"
         d="m 621.61289,347.08299 -52.58967,0 -26.29483,-45.54399 26.29483,-45.54399 52.58967,0 26.29483,45.54399 z"
         transform="matrix(0.33919001,0,0,0.33919001,421.12514,457.28932)" /><path
         sodipodi:type="star"
         style="color:#000000;overflow:visible;fill:#000000;fill-opacity:0;stroke:#000000;stroke-width:8.91546;stroke-dasharray:none;stroke-opacity:1;stop-color:#000000"
         id="path24524"
         inkscape:flatsided="true"
         sodipodi:sides="6"
         sodipodi:cx="595.31805"
         sodipodi:cy="301.539"
         sodipodi:r1="52.589668"
         sodipodi:r2="45.543991"
         sodipodi:arg1="1.0471976"
         sodipodi:arg2="1.5707963"
         inkscape:rounded="0"
         inkscape:randomized="0"
         d="m 621.61289,347.08299 -52.58967,0 -26.29483,-45.54399 26.29483,-45.54399 52.58967,0 26.29483,45.54399 z"
         transform="matrix(0.33919001,0,0,0.33919001,421.19795,492.39206)" /><path
         sodipodi:type="star"
         style="color:#000000;overflow:visible;fill:#000000;fill-opacity:0;stroke:#000000;stroke-width:8.91546;stroke-dasharray:none;stroke-opacity:1;stop-color:#000000"
         id="path24526"
         inkscape:flatsided="true"
         sodipodi:sides="6"
         sodipodi:cx="595.31805"
         sodipodi:cy="301.539"
         sodipodi:r1="52.589668"
         sodipodi:r2="45.543991"
         sodipodi:arg1="1.0471976"
         sodipodi:arg2="1.5707963"
         inkscape:rounded="0"
         inkscape:randomized="0"
         d="m 621.61289,347.08299 -52.58967,0 -26.29483,-45.54399 26.29483,-45.54399 52.58967,0 26.29483,45.54399 z"
         transform="matrix(0.33919001,0,0,0.33919001,451.81793,369.19963)" /><path
         sodipodi:type="star"
         style="color:#000000;overflow:visible;fill:#000000;fill-opacity:0;stroke:#000000;stroke-width:8.91546;stroke-dasharray:none;stroke-opacity:1;stop-color:#000000"
         id="path24528"
         inkscape:flatsided="true"
         sodipodi:sides="6"
         sodipodi:cx="595.31805"
         sodipodi:cy="301.539"
         sodipodi:r1="52.589668"
         sodipodi:r2="45.543991"
         sodipodi:arg1="1.0471976"
         sodipodi:arg2="1.5707963"
         inkscape:rounded="0"
         inkscape:randomized="0"
         d="m 621.61289,347.08299 -52.58967,0 -26.29483,-45.54399 26.29483,-45.54399 52.58967,0 26.29483,45.54399 z"
         transform="matrix(0.33919001,0,0,0.33919001,451.89075,404.30237)" /><path
         sodipodi:type="star"
         style="color:#000000;overflow:visible;fill:#000000;fill-opacity:0;stroke:#000000;stroke-width:8.91546;stroke-dasharray:none;stroke-opacity:1;stop-color:#000000"
         id="path24530"
         inkscape:flatsided="true"
         sodipodi:sides="6"
         sodipodi:cx="595.31805"
         sodipodi:cy="301.539"
         sodipodi:r1="52.589668"
         sodipodi:r2="45.543991"
         sodipodi:arg1="1.0471976"
         sodipodi:arg2="1.5707963"
         inkscape:rounded="0"
         inkscape:randomized="0"
         d="m 621.61289,347.08299 -52.58967,0 -26.29483,-45.54399 26.29483,-45.54399 52.58967,0 26.29483,45.54399 z"
         transform="matrix(0.33919001,0,0,0.33919001,481.73916,386.86213)" /><path
         sodipodi:type="star"
         style="color:#000000;overflow:visible;fill:#000000;fill-opacity:0;stroke:#000000;stroke-width:8.91546;stroke-dasharray:none;stroke-opacity:1;stop-color:#000000"
         id="path24532"
         inkscape:flatsided="true"
         sodipodi:sides="6"
         sodipodi:cx="595.31805"
         sodipodi:cy="301.539"
         sodipodi:r1="52.589668"
         sodipodi:r2="45.543991"
         sodipodi:arg1="1.0471976"
         sodipodi:arg2="1.5707963"
         inkscape:rounded="0"
         inkscape:randomized="0"
         d="m 621.61289,347.08299 -52.58967,0 -26.29483,-45.54399 26.29483,-45.54399 52.58967,0 26.29483,45.54399 z"
         transform="matrix(0.33919001,0,0,0.33919001,481.81198,421.96486)" /><path
         sodipodi:type="star"
         style="color:#000000;overflow:visible;fill:#000000;fill-opacity:0;stroke:#000000;stroke-width:8.91546;stroke-dasharray:none;stroke-opacity:1;stop-color:#000000"
         id="path24534"
         inkscape:flatsided="true"
         sodipodi:sides="6"
         sodipodi:cx="595.31805"
         sodipodi:cy="301.539"
         sodipodi:r1="52.589668"
         sodipodi:r2="45.543991"
         sodipodi:arg1="1.0471976"
         sodipodi:arg2="1.5707963"
         inkscape:rounded="0"
         inkscape:randomized="0"
         d="m 621.61289,347.08299 -52.58967,0 -26.29483,-45.54399 26.29483,-45.54399 52.58967,0 26.29483,45.54399 z"
         transform="matrix(0.33919001,0,0,0.33919001,451.81793,439.57412)" /><path
         sodipodi:type="star"
         style="color:#000000;overflow:visible;fill:#000000;fill-opacity:0;stroke:#000000;stroke-width:8.91546;stroke-dasharray:none;stroke-opacity:1;stop-color:#000000"
         id="path24536"
         inkscape:flatsided="true"
         sodipodi:sides="6"
         sodipodi:cx="595.31805"
         sodipodi:cy="301.539"
         sodipodi:r1="52.589668"
         sodipodi:r2="45.543991"
         sodipodi:arg1="1.0471976"
         sodipodi:arg2="1.5707963"
         inkscape:rounded="0"
         inkscape:randomized="0"
         d="m 621.61289,347.08299 -52.58967,0 -26.29483,-45.54399 26.29483,-45.54399 52.58967,0 26.29483,45.54399 z"
         transform="matrix(0.33919001,0,0,0.33919001,451.89075,474.67685)" /><path
         sodipodi:type="star"
         style="color:#000000;overflow:visible;fill:#000000;fill-opacity:0;stroke:#000000;stroke-width:8.91546;stroke-dasharray:none;stroke-opacity:1;stop-color:#000000"
         id="path24538"
         inkscape:flatsided="true"
         sodipodi:sides="6"
         sodipodi:cx="595.31805"
         sodipodi:cy="301.539"
         sodipodi:r1="52.589668"
         sodipodi:r2="45.543991"
         sodipodi:arg1="1.0471976"
         sodipodi:arg2="1.5707963"
         inkscape:rounded="0"
         inkscape:randomized="0"
         d="m 621.61289,347.08299 -52.58967,0 -26.29483,-45.54399 26.29483,-45.54399 52.58967,0 26.29483,45.54399 z"
         transform="matrix(0.33919001,0,0,0.33919001,481.73916,457.23661)" /><path
         sodipodi:type="star"
         style="color:#000000;overflow:visible;fill:#000000;fill-opacity:0;stroke:#000000;stroke-width:8.91546;stroke-dasharray:none;stroke-opacity:1;stop-color:#000000"
         id="path24540"
         inkscape:flatsided="true"
         sodipodi:sides="6"
         sodipodi:cx="595.31805"
         sodipodi:cy="301.539"
         sodipodi:r1="52.589668"
         sodipodi:r2="45.543991"
         sodipodi:arg1="1.0471976"
         sodipodi:arg2="1.5707963"
         inkscape:rounded="0"
         inkscape:randomized="0"
         d="m 621.61289,347.08299 -52.58967,0 -26.29483,-45.54399 26.29483,-45.54399 52.58967,0 26.29483,45.54399 z"
         transform="matrix(0.33919001,0,0,0.33919001,481.81198,492.33935)" /></g></g><g
     inkscape:groupmode="layer"
     id="layer2"
     inkscape:label="Layer 2 **2+"><path
       fill="#3e721d"
       d="m 386.96751,801.24023 c 1.24877,-13.38146 -8.81126,-15.04517 -12.80097,-12.13468 -2.18835,1.59588 -2.69903,4.63404 -0.95553,3.03417 3.07606,-2.82471 4.15527,-0.74807 1.82928,0.74807 -2.32601,1.49614 -2.74292,4.27896 -0.16558,2.36988 2.57735,-1.91107 3.28353,-0.66628 1.28868,1.7854 -1.20688,1.48417 0.0838,2.86859 2.32799,-0.12368 1.87117,-2.49556 6.38353,-2.58135 5.3103,5.9646 -0.44286,3.50296 2.89852,1.21288 3.16583,-1.64376 z m 15.84112,-41.93577 c -1.163,-6.98199 -2.24421,-10.46899 -9.22619,-11.63397 -6.98198,-1.165 -12.80097,3.49099 -12.80097,3.49099 0,0 1.163,-6.98199 4.65399,-9.30998 1.36848,-0.91364 2.32799,3.49099 3.49099,3.49099 1.16301,0 2.328,-3.49099 5.81899,-3.49099 1.16299,0 1.16299,3.49099 2.32799,3.49099 1.163,0 4.47445,-1.15103 4.65399,0 0.25136,1.61982 -0.33314,3.4491 0.5825,4.19717 0.91563,0.74807 3.098,-0.29524 3.79221,0.97548 0.6962,1.26872 -1.21685,3.098 -1.0493,3.92986 0.16758,0.83185 1.4343,1.163 1.0493,2.74292 -0.38501,1.57992 -1.29665,1.66172 -1.38044,2.8267 -0.0838,1.165 1.76544,2.15644 1.38044,3.36333 -0.38301,1.20887 -1.29865,1.37246 -1.71358,2.91049 -0.41493,1.53803 1.07921,1.29466 0.66428,2.87059 -0.41492,1.57593 -1.91106,1.97689 -2.40978,3.52291 -0.49871,1.54402 1.32858,1.87715 0.41494,3.37329 -0.91365,1.49614 -2.57536,1.7455 -2.65914,2.65914 -0.0838,0.91364 0.41692,1.63179 0.0838,3.10199 -0.33314,1.46822 -2.2462,0.72213 -2.41178,1.88514 -0.16557,1.163 0.41693,1.74549 0.41693,3.15785 0,1.41235 -1.41435,1.6637 -1.24678,3.07605 0.16757,1.41236 1.49614,0.33315 2.32799,1.99487 0.83185,1.66171 -0.49672,3.15784 0.41692,4.15527 0.91365,0.99743 2.16043,-1.33056 3.40721,-0.49872 1.24678,0.83186 1.35052,2.49357 2.71101,2.74293 1.36049,0.24935 1.77741,-2.57736 2.77483,-2.49356 0.99743,0.0838 3.24164,1.41435 4.40464,0.83184 1.163,-0.58249 1.07921,-2.91048 1.99485,-3.90791 0.91564,-0.99743 2.07864,-0.0818 2.90849,-1.163 0.82987,-1.08121 -0.28925,-2.34395 -0.12367,-3.92387 0.16556,-1.57993 1.7036,-2.47561 1.61981,-3.7224 -0.0838,-1.24679 -1.33056,-1.24679 -1.82927,-2.57735 -0.49872,-1.33057 0.91364,-2.49356 0.41493,-3.74034 -0.49872,-1.24679 -2.65715,-1.66172 -2.57536,-2.9085 0.0818,-1.24679 0.91564,-2.65914 0.49871,-4.07349 -0.41692,-1.41435 -2.16241,-2.326 -2.07863,-3.40521 0.0838,-1.07921 0.99543,-2.49357 1.16299,-3.28353 0.16757,-0.78996 -1.49414,-1.61982 -1.32857,-2.95039 0.16558,-1.33056 1.24479,-1.2388 1.65972,-2.4397 0.41493,-1.2009 -1.49414,-1.79736 -0.49672,-3.33539 0.99743,-1.53803 1.49814,-0.53861 2.32799,-1.37246 0.82987,-0.83185 -0.002,-2.66114 0.82987,-3.07607 0.83184,-0.41492 2.49356,-0.0838 3.32541,-0.66428 0.83186,-0.5805 0.83186,-1.41235 1.7455,-1.74549 0.91364,-0.33315 2.07863,1.08121 2.8267,1.08121 0.74807,0 2.07664,-1.41236 3.07407,-1.08121 0.99742,0.33314 3.15985,2.65913 1.82928,3.36731 -1.33057,0.70817 -11.4724,1.20689 -11.55419,5.86087 -0.0818,4.65399 5.57163,25.76751 3.90792,31.08578 -1.6637,5.31829 -8.55991,16.6251 -16.45753,14.46269 -7.89762,-2.16243 -17.28938,-6.98398 -15.04517,-14.3809 2.24421,-7.3989 9.47355,-22.53385 10.8879,-29.46994 z"
       id="path23266-3"
       style="display:inline;stroke-width:1.99486"
       transform="matrix(1.4467856,0,0,1.4467856,-203.57544,-474.3629)" /><path
       fill="#77b255"
       d="m 404.05541,757.48116 c 0,7.93553 -4.75173,16.24607 -11.63596,15.09306 -10.61861,-1.77542 -11.18315,-5.1607 -12.80098,-3.08406 -5.81897,7.46674 -9.26409,-0.96749 -10.58668,-2.36588 -0.33314,-0.3511 -6.86827,-2.27613 -6.86827,-5.95863 0,-2.38783 3.49099,-4.82355 5.81898,-2.45566 3.43514,-0.0858 16.29196,-12.28031 24.43695,-12.28031 8.14497,-0.002 11.63596,6.14016 11.63596,11.05148 z"
       id="path23268-6"
       style="display:inline;stroke-width:1.99486"
       transform="matrix(1.4467856,0,0,1.4467856,-203.57544,-474.3629)" /><path
       fill="#292f33"
       d="m 391.25445,755.81546 c 0,1.28469 -1.04331,2.32799 -2.328,2.32799 -1.28468,0 -2.32799,-1.0433 -2.32799,-2.32799 0,-1.28469 1.04331,-2.328 2.32799,-2.328 1.28668,0.002 2.328,1.04331 2.328,2.328 z"
       id="path23270-7"
       style="display:inline;stroke-width:1.99486"
       transform="matrix(1.4467856,0,0,1.4467856,-203.57544,-474.3629)" /><path
       fill="#3e721d"
       d="m 367.9825,762.21694 c 0,0.96352 -0.78198,0.5825 -1.74549,0.5825 -0.96352,0 -1.7455,0.38102 -1.7455,-0.5825 0,-0.96351 0.78198,-1.74549 1.7455,-1.74549 0.96351,0 1.74549,0.78198 1.74549,1.74549 z"
       id="path23272-5"
       style="display:inline;stroke-width:1.99486"
       transform="matrix(1.4467856,0,0,1.4467856,-203.57544,-474.3629)" /><path
       fill="#ffffff"
       d="m 384.27247,763.95845 c 0,1.28668 -0.78199,1.163 -1.7455,1.163 -0.96352,0 -1.7455,0.12168 -1.7455,-1.163 0,-1.28469 0.78198,-4.65399 1.7455,-4.65399 0.96351,0 1.7455,3.3693 1.7455,4.65399 z m -4.654,1.163 c 0,1.28668 -0.78198,1.16299 -1.74549,1.16299 -0.96351,0.002 -1.7455,0.12369 -1.7455,-1.16299 0,-1.28469 0.78199,-4.654 1.7455,-4.654 0.96351,0 1.74549,3.36931 1.74549,4.654 z"
       id="path23274-3"
       style="display:inline;stroke-width:1.99486"
       transform="matrix(1.4467856,0,0,1.4467856,-203.57544,-474.3629)" /><path
       fill="#3e721d"
       d="m 384.10889,763.9744 c -6.17407,0.88174 -12.39801,2.44171 -15.0771,3.14988 0.33314,0.35309 0.80393,1.15502 1.41435,2.03674 2.93643,-0.75804 8.4841,-2.09659 13.99389,-2.88056 0.63636,-0.0918 1.07723,-0.68225 0.98746,-1.3186 -0.0938,-0.63835 -0.68624,-1.08121 -1.3186,-0.98746 z"
       id="path23276-5"
       style="display:inline;stroke-width:1.99486"
       transform="matrix(1.4467856,0,0,1.4467856,-203.57544,-474.3629)" /><path
       fill="#77b255"
       d="m 403.94769,759.5558 c 0,8.72748 -3.41918,16.35979 -5.87684,22.2825 -2.65913,6.40747 -1.99485,17.95368 7.97941,17.95368 9.97426,0 12.98849,-6.36558 13.96397,-9.97427 2.709,-10.01615 -3.98971,-15.95881 -3.98971,-25.93308 0,-17.95367 15.95882,-13.96396 15.95882,-11.96911 0,1.99486 -13.83231,2.74093 -5.98455,17.95367 7.84775,15.21274 7.97941,43.6733 -19.94853,43.6733 -27.92793,0 -27.92793,-17.74022 -23.93822,-25.71963 2.8247,-5.64943 7.9794,-14.17742 0.99743,-18.04344 -4.55226,-2.5195 20.83822,-10.22362 20.83822,-10.22362 z"
       id="path23278-6"
       style="display:inline;stroke-width:1.99486"
       transform="matrix(1.4467856,0,0,1.4467856,-203.57544,-474.3629)" /><path
       fill="#3e721d"
       d="m 384.77517,757.22981 c -0.51068,0 -1.02137,-0.1955 -1.41037,-0.5845 -0.77998,-0.77997 -0.77998,-2.04072 0,-2.82071 0.16558,-0.16557 4.1513,-4.07549 10.72035,-4.07549 1.10115,0 1.99484,0.8937 1.99484,1.99486 0,1.10116 -0.89369,1.99485 -1.99484,1.99485 -4.85747,0 -7.8697,2.87658 -7.89962,2.90649 -0.38901,0.389 -0.89968,0.5845 -1.41036,0.5845 z"
       id="path23280-2"
       style="display:inline;stroke-width:1.99486"
       transform="matrix(1.4467856,0,0,1.4467856,-203.57544,-474.3629)" /><path
       fill="#5c913b"
       d="m 383.52439,792.2634 c 1.25078,-13.38147 -10.80611,-15.04518 -14.79581,-12.13468 -2.18835,1.59587 -2.69904,4.63404 -0.95554,3.03416 3.07606,-2.82471 4.15528,-0.74807 1.82928,0.74808 -2.32799,1.49613 -2.74292,4.28095 -0.16558,2.36989 2.57736,-1.91108 3.28354,-0.66628 1.28868,1.78538 -1.20688,1.48418 0.0838,2.8686 2.32799,-0.12367 1.87118,-2.49557 8.37839,-2.58134 7.30515,5.96461 -0.44286,3.50296 2.90051,1.21286 3.16583,-1.64377 z"
       id="path23282-9"
       style="display:inline;stroke-width:1.99486"
       transform="matrix(1.4467856,0,0,1.4467856,-203.57544,-474.3629)" /><text
       xml:space="preserve"
       style="display:inline;font-style:normal;font-variant:normal;font-weight:normal;font-stretch:normal;font-size:19.3532px;line-height:125%;font-family:Raleway-v4020;-inkscape-font-specification:Raleway-v4020;letter-spacing:0px;word-spacing:0px;fill:#3e721c;fill-opacity:0.984314;stroke:none;stroke-width:0.691187px;stroke-linecap:butt;stroke-linejoin:miter;stroke-opacity:1"
       x="-137.25349"
       y="823.36896"
       id="text316"
       transform="matrix(1.1994228,-0.80905721,0.80905721,1.1994228,-203.57544,-474.3629)"><tspan
         sodipodi:role="line"
         id="tspan314"
         style="fill:#3e721c;fill-opacity:0.984314;stroke-width:0.691187px"
         x="-137.25349"
         y="823.36896">PBS</tspan></text><path
       fill="#3e721d"
       d="m 552.35611,802.88309 c 1.24877,-13.38146 -8.81126,-15.04517 -12.80097,-12.13468 -2.18835,1.59588 -2.69903,4.63404 -0.95553,3.03417 3.07606,-2.82471 4.15527,-0.74807 1.82928,0.74807 -2.32601,1.49614 -2.74292,4.27896 -0.16558,2.36988 2.57735,-1.91107 3.28353,-0.66628 1.28868,1.7854 -1.20688,1.48417 0.0838,2.86859 2.32799,-0.12368 1.87117,-2.49556 6.38353,-2.58135 5.3103,5.9646 -0.44286,3.50296 2.89852,1.21288 3.16583,-1.64376 z m 15.84112,-41.93577 c -1.163,-6.98199 -2.24421,-10.46899 -9.22619,-11.63397 -6.98198,-1.165 -12.80097,3.49099 -12.80097,3.49099 0,0 1.163,-6.98199 4.65399,-9.30998 1.36848,-0.91364 2.32799,3.49099 3.49099,3.49099 1.16301,0 2.328,-3.49099 5.81899,-3.49099 1.16299,0 1.16299,3.49099 2.32799,3.49099 1.163,0 4.47445,-1.15103 4.65399,0 0.25136,1.61982 -0.33314,3.4491 0.5825,4.19717 0.91563,0.74807 3.098,-0.29524 3.79221,0.97548 0.6962,1.26872 -1.21685,3.098 -1.0493,3.92986 0.16758,0.83185 1.4343,1.163 1.0493,2.74292 -0.38501,1.57992 -1.29665,1.66172 -1.38044,2.8267 -0.0838,1.165 1.76544,2.15644 1.38044,3.36333 -0.38301,1.20887 -1.29865,1.37246 -1.71358,2.91049 -0.41493,1.53803 1.07921,1.29466 0.66428,2.87059 -0.41492,1.57593 -1.91106,1.97689 -2.40978,3.52291 -0.49871,1.54402 1.32858,1.87715 0.41494,3.37329 -0.91365,1.49614 -2.57536,1.7455 -2.65914,2.65914 -0.0838,0.91364 0.41692,1.63179 0.0838,3.10199 -0.33314,1.46822 -2.2462,0.72213 -2.41178,1.88514 -0.16557,1.163 0.41693,1.74549 0.41693,3.15785 0,1.41235 -1.41435,1.6637 -1.24678,3.07605 0.16757,1.41236 1.49614,0.33315 2.32799,1.99487 0.83185,1.66171 -0.49672,3.15784 0.41692,4.15527 0.91365,0.99743 2.16043,-1.33056 3.40721,-0.49872 1.24678,0.83186 1.35052,2.49357 2.71101,2.74293 1.36049,0.24935 1.77741,-2.57736 2.77483,-2.49356 0.99743,0.0838 3.24164,1.41435 4.40464,0.83184 1.163,-0.58249 1.07921,-2.91048 1.99485,-3.90791 0.91564,-0.99743 2.07864,-0.0818 2.90849,-1.163 0.82987,-1.08121 -0.28925,-2.34395 -0.12367,-3.92387 0.16556,-1.57993 1.7036,-2.47561 1.61981,-3.7224 -0.0838,-1.24679 -1.33056,-1.24679 -1.82927,-2.57735 -0.49872,-1.33057 0.91364,-2.49356 0.41493,-3.74034 -0.49872,-1.24679 -2.65715,-1.66172 -2.57536,-2.9085 0.0818,-1.24679 0.91564,-2.65914 0.49871,-4.07349 -0.41692,-1.41435 -2.16241,-2.326 -2.07863,-3.40521 0.0838,-1.07921 0.99543,-2.49357 1.16299,-3.28353 0.16757,-0.78996 -1.49414,-1.61982 -1.32857,-2.95039 0.16558,-1.33056 1.24479,-1.2388 1.65972,-2.4397 0.41493,-1.2009 -1.49414,-1.79736 -0.49672,-3.33539 0.99743,-1.53803 1.49814,-0.53861 2.32799,-1.37246 0.82987,-0.83185 -0.002,-2.66114 0.82987,-3.07607 0.83184,-0.41492 2.49356,-0.0838 3.32541,-0.66428 0.83186,-0.5805 0.83186,-1.41235 1.7455,-1.74549 0.91364,-0.33315 2.07863,1.08121 2.8267,1.08121 0.74807,0 2.07664,-1.41236 3.07407,-1.08121 0.99742,0.33314 3.15985,2.65913 1.82928,3.36731 -1.33057,0.70817 -11.4724,1.20689 -11.55419,5.86087 -0.0818,4.65399 5.57163,25.76751 3.90792,31.08578 -1.6637,5.31829 -8.55991,16.6251 -16.45753,14.46269 -7.89762,-2.16243 -17.28938,-6.98398 -15.04517,-14.3809 2.24421,-7.3989 9.47355,-22.53385 10.8879,-29.46994 z"
       id="path23266-3-1"
       style="display:inline;stroke-width:1.99486"
       transform="matrix(1.4467856,0,0,1.4467856,-203.57544,-474.3629)" /><path
       fill="#77b255"
       d="m 569.44401,759.12402 c 0,7.93553 -4.75173,16.24607 -11.63596,15.09306 -10.61861,-1.77542 -11.18315,-5.1607 -12.80098,-3.08406 -5.81897,7.46674 -9.26409,-0.96749 -10.58668,-2.36588 -0.33314,-0.3511 -6.86827,-2.27613 -6.86827,-5.95863 0,-2.38783 3.49099,-4.82355 5.81898,-2.45566 3.43514,-0.0858 16.29196,-12.28031 24.43695,-12.28031 8.14497,-0.002 11.63596,6.14016 11.63596,11.05148 z"
       id="path23268-6-2"
       style="display:inline;stroke-width:1.99486"
       transform="matrix(1.4467856,0,0,1.4467856,-203.57544,-474.3629)" /><path
       fill="#292f33"
       d="m 556.64305,757.45832 c 0,1.28469 -1.04331,2.32799 -2.328,2.32799 -1.28468,0 -2.32799,-1.0433 -2.32799,-2.32799 0,-1.28469 1.04331,-2.328 2.32799,-2.328 1.28668,0.002 2.328,1.04331 2.328,2.328 z"
       id="path23270-7-7"
       style="display:inline;stroke-width:1.99486"
       transform="matrix(1.4467856,0,0,1.4467856,-203.57544,-474.3629)" /><path
       fill="#3e721d"
       d="m 533.3711,763.8598 c 0,0.96352 -0.78198,0.5825 -1.74549,0.5825 -0.96352,0 -1.7455,0.38102 -1.7455,-0.5825 0,-0.96351 0.78198,-1.74549 1.7455,-1.74549 0.96351,0 1.74549,0.78198 1.74549,1.74549 z"
       id="path23272-5-0"
       style="display:inline;stroke-width:1.99486"
       transform="matrix(1.4467856,0,0,1.4467856,-203.57544,-474.3629)" /><path
       fill="#ffffff"
       d="m 549.66107,765.60131 c 0,1.28668 -0.78199,1.163 -1.7455,1.163 -0.96352,0 -1.7455,0.12168 -1.7455,-1.163 0,-1.28469 0.78198,-4.65399 1.7455,-4.65399 0.96351,0 1.7455,3.3693 1.7455,4.65399 z m -4.654,1.163 c 0,1.28668 -0.78198,1.16299 -1.74549,1.16299 -0.96351,0.002 -1.7455,0.12369 -1.7455,-1.16299 0,-1.28469 0.78199,-4.654 1.7455,-4.654 0.96351,0 1.74549,3.36931 1.74549,4.654 z"
       id="path23274-3-9"
       style="display:inline;stroke-width:1.99486"
       transform="matrix(1.4467856,0,0,1.4467856,-203.57544,-474.3629)" /><path
       fill="#3e721d"
       d="m 549.49749,765.61726 c -6.17407,0.88174 -12.39801,2.44171 -15.0771,3.14988 0.33314,0.35309 0.80393,1.15502 1.41435,2.03674 2.93643,-0.75804 8.4841,-2.09659 13.99389,-2.88056 0.63636,-0.0918 1.07723,-0.68225 0.98746,-1.3186 -0.0938,-0.63835 -0.68624,-1.08121 -1.3186,-0.98746 z"
       id="path23276-5-3"
       style="display:inline;stroke-width:1.99486"
       transform="matrix(1.4467856,0,0,1.4467856,-203.57544,-474.3629)" /><path
       fill="#77b255"
       d="m 569.33629,761.19866 c 0,8.72748 -3.41918,16.35979 -5.87684,22.2825 -2.65913,6.40747 -1.99485,17.95368 7.97941,17.95368 9.97426,0 12.98849,-6.36558 13.96397,-9.97427 2.709,-10.01615 -3.98971,-15.95881 -3.98971,-25.93308 0,-17.95367 15.95882,-13.96396 15.95882,-11.96911 0,1.99486 -13.83231,2.74093 -5.98455,17.95367 7.84775,15.21274 7.97941,43.6733 -19.94853,43.6733 -27.92793,0 -27.92793,-17.74022 -23.93822,-25.71963 2.8247,-5.64943 7.9794,-14.17742 0.99743,-18.04344 -4.55226,-2.5195 20.83822,-10.22362 20.83822,-10.22362 z"
       id="path23278-6-6"
       style="display:inline;stroke-width:1.99486"
       transform="matrix(1.4467856,0,0,1.4467856,-203.57544,-474.3629)" /><path
       fill="#3e721d"
       d="m 550.16377,758.87267 c -0.51068,0 -1.02137,-0.1955 -1.41037,-0.5845 -0.77998,-0.77997 -0.77998,-2.04072 0,-2.82071 0.16558,-0.16557 4.1513,-4.07549 10.72035,-4.07549 1.10115,0 1.99484,0.8937 1.99484,1.99486 0,1.10116 -0.89369,1.99485 -1.99484,1.99485 -4.85747,0 -7.8697,2.87658 -7.89962,2.90649 -0.38901,0.389 -0.89968,0.5845 -1.41036,0.5845 z"
       id="path23280-2-0"
       style="display:inline;stroke-width:1.99486"
       transform="matrix(1.4467856,0,0,1.4467856,-203.57544,-474.3629)" /><path
       fill="#5c913b"
       d="m 548.91299,793.90626 c 1.25078,-13.38147 -10.80611,-15.04518 -14.79581,-12.13468 -2.18835,1.59587 -2.69904,4.63404 -0.95554,3.03416 3.07606,-2.82471 4.15528,-0.74807 1.82928,0.74808 -2.32799,1.49613 -2.74292,4.28095 -0.16558,2.36989 2.57736,-1.91108 3.28354,-0.66628 1.28868,1.78538 -1.20688,1.48418 0.0838,2.8686 2.32799,-0.12367 1.87118,-2.49557 8.37839,-2.58134 7.30515,5.96461 -0.44286,3.50296 2.90051,1.21286 3.16583,-1.64377 z"
       id="path23282-9-6"
       style="display:inline;stroke-width:1.99486"
       transform="matrix(1.4467856,0,0,1.4467856,-203.57544,-474.3629)" /><text
       xml:space="preserve"
       style="display:inline;font-style:normal;font-variant:normal;font-weight:normal;font-stretch:normal;font-size:19.3532px;line-height:125%;font-family:Raleway-v4020;-inkscape-font-specification:Raleway-v4020;letter-spacing:0px;word-spacing:0px;fill:#3e721d;fill-opacity:0.984314;stroke:none;stroke-width:0.691187px;stroke-linecap:butt;stroke-linejoin:miter;stroke-opacity:1"
       x="56.059956"
       y="914.37762"
       id="text316-2"
       transform="matrix(1.2529531,-0.7233928,0.7233928,1.2529531,-203.57544,-474.3629)"><tspan
         sodipodi:role="line"
         id="tspan314-6"
         style="fill:#3e721d;fill-opacity:0.984314;stroke-width:0.691187px"
         x="56.059956"
         y="914.37762">SLURM</tspan></text></g></svg>
