<?xml version="1.0" encoding="UTF-8" standalone="no"?>
<!-- Created with Inkscape (http://www.inkscape.org/) -->

<svg
   width="1024.0px"
   height="768.0px"
   viewBox="0 0 1024.0 768.0"
   version="1.1"
   id="SVGRoot"
   sodipodi:docname="map.svg"
   inkscape:version="1.2 (1:1.2.1+202207142221+cd75a1ee6d)"
   xmlns:inkscape="http://www.inkscape.org/namespaces/inkscape"
   xmlns:sodipodi="http://sodipodi.sourceforge.net/DTD/sodipodi-0.dtd"
   xmlns="http://www.w3.org/2000/svg"
   xmlns:svg="http://www.w3.org/2000/svg">
  <sodipodi:namedview
     id="namedview2410"
     pagecolor="#ffffff"
     bordercolor="#666666"
     borderopacity="1.0"
     inkscape:showpageshadow="2"
     inkscape:pageopacity="0.0"
     inkscape:pagecheckerboard="0"
     inkscape:deskcolor="#d1d1d1"
     inkscape:document-units="px"
     showgrid="false"
     inkscape:zoom="0.84096521"
     inkscape:cx="533.31576"
     inkscape:cy="183.12291"
     inkscape:window-width="1600"
     inkscape:window-height="1129"
     inkscape:window-x="0"
     inkscape:window-y="34"
     inkscape:window-maximized="1"
     inkscape:current-layer="layer1" />
  <defs
     id="defs2405">
    <marker
       style="overflow:visible"
       id="marker15137"
       refX="0"
       refY="0"
       orient="auto-start-reverse"
       inkscape:stockid="TriangleStart"
       markerWidth="5.3244081"
       markerHeight="6.155385"
       viewBox="0 0 5.3244081 6.1553851"
       inkscape:isstock="true"
       inkscape:collect="always"
       preserveAspectRatio="xMidYMid">
      <path
         transform="scale(0.5)"
         style="fill:context-stroke;fill-rule:evenodd;stroke:context-stroke;stroke-width:1pt"
         d="M 5.77,0 -2.88,5 V -5 Z"
         id="path15135" />
    </marker>
    <marker
       style="overflow:visible"
       id="TriangleStart"
       refX="0"
       refY="0"
       orient="auto-start-reverse"
       inkscape:stockid="TriangleStart"
       markerWidth="5.3244081"
       markerHeight="6.155385"
       viewBox="0 0 5.3244081 6.1553851"
       inkscape:isstock="true"
       inkscape:collect="always"
       preserveAspectRatio="xMidYMid">
      <path
         transform="scale(0.5)"
         style="fill:context-stroke;fill-rule:evenodd;stroke:context-stroke;stroke-width:1pt"
         d="M 5.77,0 -2.88,5 V -5 Z"
         id="path135" />
    </marker>
  </defs>
  <g
     inkscape:label="Layer 1"
     inkscape:groupmode="layer"
     id="layer1">
    <path
       fill="#66757f"
       d="m 154.06289,240.71318 h -5.21156 c -0.50211,-2.12214 -1.33931,-4.10941 -2.45231,-5.91222 l 3.6878,-3.68778 c 1.21066,-1.21066 1.21066,-3.17468 0,-4.38534 l -2.1919,-2.1919 c -1.21065,-1.21066 -3.17317,-1.21066 -4.38383,0 l -3.68776,3.68778 c -1.80431,-1.113 -3.79011,-1.94852 -5.9122,-2.45077 v -5.21156 c 0,-1.71135 -1.38894,-3.10028 -3.10031,-3.10028 h -3.10024 c -1.71137,0 -3.10031,1.38893 -3.10031,3.10028 v 5.21156 c -2.12209,0.50225 -4.1094,1.33932 -5.9122,2.45232 l -3.68625,-3.68778 c -1.21065,-1.21066 -3.17469,-1.21066 -4.38376,0 l -2.19349,2.1919 c -1.21066,1.21065 -1.21066,3.17468 -0.002,4.38534 l 3.68777,3.68778 c -1.113,1.80281 -1.94855,3.79008 -2.45077,5.91067 h -5.21156 c -1.71137,0 -3.1003,1.38892 -3.1003,3.10028 v 3.10027 c 0,1.71136 1.38893,3.10028 3.1003,3.10028 h 5.21156 c 0.50211,2.12059 1.33936,4.10787 2.45232,5.91068 l -3.68781,3.68778 c -1.20907,1.2091 -1.20907,3.17468 0.002,4.38534 l 2.19191,2.19189 c 1.20907,1.20911 3.17311,1.20911 4.38376,0 l 3.68776,-3.68778 c 1.8028,1.11455 3.79012,1.95008 5.91224,2.45232 v 5.21156 c 0,1.71136 1.38894,3.10028 3.10028,3.10028 h 3.1003 c 1.71134,0 3.10024,-1.38892 3.10024,-3.10028 v -5.21156 c 2.12058,-0.50224 4.10789,-1.33932 5.91069,-2.45232 l 3.68776,3.68778 c 1.21066,1.21066 3.17318,1.21066 4.38383,0 l 2.1919,-2.19189 c 1.21066,-1.21066 1.21066,-3.17468 0,-4.38534 l -3.6878,-3.68778 c 1.11455,-1.80281 1.95009,-3.79009 2.45231,-5.91223 h 5.21156 c 1.71137,0 3.1003,-1.38892 3.1003,-3.10027 v -3.10028 c 0,-1.70981 -1.38893,-3.09873 -3.1003,-3.09873 z m -24.80217,17.05152 c -6.84854,0 -12.40116,-5.55259 -12.40116,-12.4011 0,-6.84851 5.55262,-12.40111 12.40116,-12.40111 6.8485,0 12.40112,5.5526 12.40112,12.40111 0,6.84851 -5.55262,12.4011 -12.40112,12.4011 z"
       id="path4456-3"
       style="display:inline;stroke-width:1.55014" />
    <path
       fill="#66757f"
       d="m 211.46374,318.83845 h -7.51554 c -0.72409,-3.06032 -1.93141,-5.92614 -3.53646,-8.52596 l 5.31815,-5.31812 c 1.74588,-1.74588 1.74588,-4.57818 0,-6.32406 l -3.16093,-3.16093 c -1.74586,-1.74588 -4.576,-1.74588 -6.32188,0 l -5.31809,5.31812 c -2.60198,-1.60505 -5.46569,-2.80994 -8.52594,-3.53423 v -7.51555 c 0,-2.46793 -2.00298,-4.47089 -4.47093,-4.47089 h -4.47083 c -2.46795,0 -4.47093,2.00296 -4.47093,4.47089 v 7.51555 c -3.06025,0.72429 -5.92614,1.93142 -8.52594,3.53647 l -5.31591,-5.31812 c -1.74587,-1.74588 -4.5782,-1.74588 -6.32179,0 l -3.1632,3.16092 c -1.74588,1.74587 -1.74588,4.57818 -0.003,6.32406 l 5.31809,5.31812 c -1.60505,2.59982 -2.80998,5.46565 -3.53422,8.52373 h -7.51555 c -2.46796,0 -4.47092,2.00295 -4.47092,4.47089 v 4.47088 c 0,2.46794 2.00296,4.47089 4.47092,4.47089 h 7.51555 c 0.72409,3.05808 1.93146,5.92392 3.53645,8.52374 l -5.31814,5.31812 c -1.74359,1.74363 -1.74359,4.57818 0.003,6.32406 l 3.16092,3.16091 c 1.74359,1.74365 4.57592,1.74365 6.32179,0 l 5.31809,-5.31812 c 2.5998,1.60728 5.4657,2.8122 8.52599,3.53647 v 7.51555 c 0,2.46794 2.00298,4.47089 4.47089,4.47089 h 4.47092 c 2.46791,0 4.47083,-2.00295 4.47083,-4.47089 v -7.51555 c 3.05807,-0.72427 5.92395,-1.93142 8.52376,-3.53647 l 5.31809,5.31812 c 1.74588,1.74588 4.57601,1.74588 6.32188,0 l 3.16093,-3.16091 c 1.74588,-1.74588 1.74588,-4.57818 0,-6.32406 l -5.31815,-5.31812 c 1.60728,-2.59982 2.81221,-5.46566 3.53645,-8.52598 h 7.51555 c 2.46796,0 4.47092,-2.00295 4.47092,-4.47087 v -4.47089 c 0,-2.46571 -2.00296,-4.46866 -4.47092,-4.46866 z m -35.76701,24.58986 c -9.87622,0 -17.88361,-8.00734 -17.88361,-17.88352 0,-9.87619 8.00739,-17.88355 17.88361,-17.88355 9.87617,0 17.88356,8.00736 17.88356,17.88355 0,9.87618 -8.00739,17.88352 -17.88356,17.88352 z"
       id="path2433"
       style="display:inline;stroke-width:2.23544" />
    <path
       fill="#66757f"
       d="M 290.28618,200.95815 H 278.0783 c -1.17617,-4.97104 -3.13728,-9.62613 -5.74445,-13.84915 l 8.63854,-8.6385 c 2.83593,-2.83592 2.83593,-7.43657 0,-10.27249 l -5.13446,-5.13446 c -2.83588,-2.83592 -7.43302,-2.83592 -10.26895,0 l -8.63844,8.6385 c -4.22653,-2.60717 -8.8782,-4.56433 -13.84912,-5.74083 v -12.20789 c 0,-4.00879 -3.25354,-7.2623 -7.26236,-7.2623 h -7.26219 c -4.00882,0 -7.26236,3.25351 -7.26236,7.2623 v 12.20789 c -4.97092,1.1765 -9.62613,3.1373 -13.84912,5.74446 l -8.6349,-8.63849 c -2.83591,-2.83592 -7.43661,-2.83592 -10.26881,0 l -5.13815,5.13444 c -2.83592,2.83591 -2.83592,7.43657 -0.005,10.2725 l 8.63844,8.63849 c -2.60716,4.22302 -4.56439,8.87813 -5.74081,13.84553 h -12.20789 c -4.00883,0 -7.26233,3.25349 -7.26233,7.26229 v 7.26228 c 0,4.0088 3.2535,7.26229 7.26233,7.26229 h 12.20789 c 1.17618,4.9674 3.13737,9.62253 5.74444,13.84555 l -8.63853,8.63849 c -2.8322,2.83227 -2.8322,7.43657 0.005,10.27249 l 5.13445,5.13443 c 2.8322,2.8323 7.4329,2.8323 10.2688,0 l 8.63845,-8.63849 c 4.22298,2.61078 8.87821,4.568 13.8492,5.74447 v 12.20789 c 0,4.0088 3.25354,7.26229 7.26229,7.26229 h 7.26234 c 4.00875,0 7.2622,-3.25349 7.2622,-7.26229 v -12.20789 c 4.96738,-1.17647 9.62257,-3.13731 13.84558,-5.74447 l 8.63844,8.63849 c 2.83592,2.83592 7.43305,2.83592 10.26895,0 l 5.13446,-5.13443 c 2.83592,-2.83592 2.83592,-7.43657 0,-10.27249 l -8.63854,-8.63849 c 2.61079,-4.22302 4.56802,-8.87815 5.74444,-13.84918 h 12.20789 c 4.00883,0 7.26234,-3.2535 7.26234,-7.26227 v -7.26229 c 0,-4.00518 -3.25351,-7.25867 -7.26234,-7.25867 z M 232.188,240.90071 c -16.04244,0 -29.04925,-13.00673 -29.04925,-29.04911 0,-16.0424 13.00681,-29.04916 29.04925,-29.04916 16.04237,0 29.04918,13.00676 29.04918,29.04916 0,16.04238 -13.00681,29.04911 -29.04918,29.04911 z"
       id="path2435"
       style="display:inline;stroke-width:3.63114" />
    <path
       fill="#66757f"
       d="m 188.19216,409.61566 h -5.21156 c -0.50211,-2.12214 -1.33931,-4.10941 -2.45231,-5.91222 l 3.6878,-3.68778 c 1.21066,-1.21066 1.21066,-3.17468 0,-4.38534 l -2.1919,-2.1919 c -1.21065,-1.21066 -3.17317,-1.21066 -4.38383,0 l -3.68776,3.68778 c -1.80431,-1.113 -3.79011,-1.94852 -5.9122,-2.45077 v -5.21156 c 0,-1.71135 -1.38894,-3.10028 -3.10031,-3.10028 h -3.10024 c -1.71137,0 -3.10031,1.38893 -3.10031,3.10028 v 5.21156 c -2.12209,0.50225 -4.1094,1.33932 -5.9122,2.45232 l -3.68625,-3.68778 c -1.21065,-1.21066 -3.17469,-1.21066 -4.38376,0 l -2.19349,2.1919 c -1.21066,1.21065 -1.21066,3.17468 -0.002,4.38534 l 3.68777,3.68778 c -1.113,1.80281 -1.94855,3.79008 -2.45077,5.91067 h -5.21156 c -1.71137,0 -3.1003,1.38892 -3.1003,3.10028 v 3.10027 c 0,1.71136 1.38893,3.10028 3.1003,3.10028 h 5.21156 c 0.50211,2.12059 1.33936,4.10787 2.45232,5.91068 l -3.68781,3.68778 c -1.20907,1.2091 -1.20907,3.17468 0.002,4.38534 l 2.19191,2.19189 c 1.20907,1.20911 3.17311,1.20911 4.38376,0 l 3.68776,-3.68778 c 1.8028,1.11455 3.79012,1.95008 5.91224,2.45232 v 5.21156 c 0,1.71136 1.38894,3.10028 3.10028,3.10028 h 3.1003 c 1.71134,0 3.10024,-1.38892 3.10024,-3.10028 v -5.21156 c 2.12058,-0.50224 4.10789,-1.33932 5.91069,-2.45232 l 3.68776,3.68778 c 1.21066,1.21066 3.17318,1.21066 4.38383,0 l 2.1919,-2.19189 c 1.21066,-1.21066 1.21066,-3.17468 0,-4.38534 l -3.6878,-3.68778 c 1.11455,-1.80281 1.95009,-3.79009 2.45231,-5.91223 h 5.21156 c 1.71137,0 3.1003,-1.38892 3.1003,-3.10027 v -3.10028 c 0,-1.70981 -1.38893,-3.09873 -3.1003,-3.09873 z m -24.80217,17.05152 c -6.84854,0 -12.40116,-5.55259 -12.40116,-12.4011 0,-6.84851 5.55262,-12.40111 12.40116,-12.40111 6.8485,0 12.40112,5.5526 12.40112,12.40111 0,6.84851 -5.55262,12.4011 -12.40112,12.4011 z"
       id="path2437"
       style="display:inline;stroke-width:1.55014;fill:#89a02c" />
    <path
       fill="#66757f"
       d="m 269.17724,408.37433 h -5.21156 c -0.50211,-2.12214 -1.33931,-4.10941 -2.45231,-5.91222 l 3.6878,-3.68778 c 1.21066,-1.21066 1.21066,-3.17468 0,-4.38534 l -2.1919,-2.1919 c -1.21065,-1.21066 -3.17317,-1.21066 -4.38383,0 l -3.68776,3.68778 c -1.80431,-1.113 -3.79011,-1.94852 -5.9122,-2.45077 v -5.21156 c 0,-1.71135 -1.38894,-3.10028 -3.10031,-3.10028 h -3.10024 c -1.71137,0 -3.10031,1.38893 -3.10031,3.10028 v 5.21156 c -2.12209,0.50225 -4.1094,1.33932 -5.9122,2.45232 l -3.68625,-3.68778 c -1.21065,-1.21066 -3.17469,-1.21066 -4.38376,0 l -2.19349,2.1919 c -1.21066,1.21065 -1.21066,3.17468 -0.002,4.38534 l 3.68777,3.68778 c -1.113,1.80281 -1.94855,3.79008 -2.45077,5.91067 h -5.21156 c -1.71137,0 -3.1003,1.38892 -3.1003,3.10028 v 3.10027 c 0,1.71136 1.38893,3.10028 3.1003,3.10028 h 5.21156 c 0.50211,2.12059 1.33936,4.10787 2.45232,5.91068 l -3.68781,3.68778 c -1.20907,1.2091 -1.20907,3.17468 0.002,4.38534 l 2.19191,2.19189 c 1.20907,1.20911 3.17311,1.20911 4.38376,0 l 3.68776,-3.68778 c 1.8028,1.11455 3.79012,1.95008 5.91224,2.45232 v 5.21156 c 0,1.71136 1.38894,3.10028 3.10028,3.10028 h 3.1003 c 1.71134,0 3.10024,-1.38892 3.10024,-3.10028 v -5.21156 c 2.12058,-0.50224 4.10789,-1.33932 5.91069,-2.45232 l 3.68776,3.68778 c 1.21066,1.21066 3.17318,1.21066 4.38383,0 l 2.1919,-2.19189 c 1.21066,-1.21066 1.21066,-3.17468 0,-4.38534 l -3.6878,-3.68778 c 1.11455,-1.80281 1.95009,-3.79009 2.45231,-5.91223 h 5.21156 c 1.71137,0 3.1003,-1.38892 3.1003,-3.10027 v -3.10028 c 0,-1.70981 -1.38893,-3.09873 -3.1003,-3.09873 z m -24.80217,17.05152 c -6.84854,0 -12.40116,-5.55259 -12.40116,-12.4011 0,-6.84851 5.55262,-12.40111 12.40116,-12.40111 6.8485,0 12.40112,5.5526 12.40112,12.40111 0,6.84851 -5.55262,12.4011 -12.40112,12.4011 z"
       id="path2439"
       style="display:inline;stroke-width:1.55014;fill:#89a02c" />
    <path
       fill="#66757f"
       d="m 213.94691,478.79159 h -5.21156 c -0.50211,-2.12214 -1.33931,-4.10941 -2.45231,-5.91222 l 3.6878,-3.68778 c 1.21066,-1.21066 1.21066,-3.17468 0,-4.38534 l -2.1919,-2.1919 c -1.21065,-1.21066 -3.17317,-1.21066 -4.38383,0 l -3.68776,3.68778 c -1.80431,-1.113 -3.79011,-1.94852 -5.9122,-2.45077 v -5.21156 c 0,-1.71135 -1.38894,-3.10028 -3.10031,-3.10028 h -3.10024 c -1.71137,0 -3.10031,1.38893 -3.10031,3.10028 v 5.21156 c -2.12209,0.50225 -4.1094,1.33932 -5.9122,2.45232 l -3.68625,-3.68778 c -1.21065,-1.21066 -3.17469,-1.21066 -4.38376,0 l -2.19349,2.1919 c -1.21066,1.21065 -1.21066,3.17468 -0.002,4.38534 l 3.68777,3.68778 c -1.113,1.80281 -1.94855,3.79008 -2.45077,5.91067 h -5.21156 c -1.71137,0 -3.1003,1.38892 -3.1003,3.10028 v 3.10027 c 0,1.71136 1.38893,3.10028 3.1003,3.10028 h 5.21156 c 0.50211,2.12059 1.33936,4.10787 2.45232,5.91068 l -3.68781,3.68778 c -1.20907,1.2091 -1.20907,3.17468 0.002,4.38534 l 2.19191,2.19189 c 1.20907,1.20911 3.17311,1.20911 4.38376,0 l 3.68776,-3.68778 c 1.8028,1.11455 3.79012,1.95008 5.91224,2.45232 v 5.21156 c 0,1.71136 1.38894,3.10028 3.10028,3.10028 h 3.1003 c 1.71134,0 3.10024,-1.38892 3.10024,-3.10028 v -5.21156 c 2.12058,-0.50224 4.10789,-1.33932 5.91069,-2.45232 l 3.68776,3.68778 c 1.21066,1.21066 3.17318,1.21066 4.38383,0 l 2.1919,-2.19189 c 1.21066,-1.21066 1.21066,-3.17468 0,-4.38534 l -3.6878,-3.68778 c 1.11455,-1.80281 1.95009,-3.79009 2.45231,-5.91223 h 5.21156 c 1.71137,0 3.1003,-1.38892 3.1003,-3.10027 v -3.10028 c 0,-1.70981 -1.38893,-3.09873 -3.1003,-3.09873 z m -24.80217,17.05152 c -6.84854,0 -12.40116,-5.55259 -12.40116,-12.4011 0,-6.84851 5.55262,-12.40111 12.40116,-12.40111 6.8485,0 12.40112,5.5526 12.40112,12.40111 0,6.84851 -5.55262,12.4011 -12.40112,12.4011 z"
       id="path2441"
       style="display:inline;stroke-width:1.55014;fill:#89a02c" />
    <path
       fill="#66757f"
       d="m 296.58217,533.5678 h -4.5398 c -0.43739,-1.8486 -1.16668,-3.57972 -2.13621,-5.15015 l 3.21245,-3.21244 c 1.05461,-1.05461 1.05461,-2.76547 0,-3.82008 l -1.90937,-1.90937 c -1.0546,-1.05461 -2.76416,-1.05461 -3.81877,0 l -3.21241,3.21244 c -1.57174,-0.96954 -3.30158,-1.69736 -5.15014,-2.13488 v -4.5398 c 0,-1.49076 -1.20991,-2.70066 -2.70068,-2.70066 h -2.70063 c -1.49078,0 -2.70069,1.2099 -2.70069,2.70066 v 4.5398 c -1.84856,0.43752 -3.57971,1.16669 -5.15013,2.13623 l -3.2111,-3.21244 c -1.0546,-1.05461 -2.76548,-1.05461 -3.81871,0 l -1.91075,1.90937 c -1.05461,1.0546 -1.05461,2.76547 -0.002,3.82008 l 3.21242,3.21244 c -0.96954,1.57043 -1.69739,3.30155 -2.13487,5.1488 h -4.5398 c -1.49078,0 -2.70068,1.20989 -2.70068,2.70066 v 2.70065 c 0,1.49077 1.2099,2.70066 2.70068,2.70066 h 4.5398 c 0.43739,1.84725 1.16672,3.57838 2.13622,5.14881 l -3.21246,3.21244 c -1.05322,1.05325 -1.05322,2.76547 0.002,3.82008 l 1.90938,1.90936 c 1.05323,1.05326 2.76411,1.05326 3.81871,0 l 3.21241,-3.21244 c 1.57043,0.97089 3.30159,1.69872 5.15017,2.13623 v 4.5398 c 0,1.49077 1.20991,2.70066 2.70066,2.70066 h 2.70068 c 1.49075,0 2.70063,-1.20989 2.70063,-2.70066 v -4.5398 c 1.84724,-0.43751 3.57839,-1.16669 5.14881,-2.13623 l 3.21242,3.21244 c 1.05461,1.05461 2.76417,1.05461 3.81877,0 l 1.90937,-1.90936 c 1.05461,-1.05461 1.05461,-2.76548 0,-3.82008 l -3.21246,-3.21244 c 0.97089,-1.57043 1.69873,-3.30156 2.13622,-5.15016 h 4.5398 c 1.49078,0 2.70068,-1.20989 2.70068,-2.70065 v -2.70066 c 0,-1.48942 -1.2099,-2.69931 -2.70068,-2.69931 z m -21.60523,14.85362 c -5.96578,0 -10.80268,-4.83688 -10.80268,-10.80263 0,-5.96575 4.8369,-10.80264 10.80268,-10.80264 5.96574,0 10.80265,4.83689 10.80265,10.80264 0,5.96575 -4.83691,10.80263 -10.80265,10.80263 z"
       id="path2443"
       style="display:inline;stroke-width:1.35033" />
    <path
       fill="#66757f"
       d="m 180.54896,572.85 h -8.28264 c -0.798,-3.37268 -2.12855,-6.53101 -3.89743,-9.39619 l 5.86097,-5.86094 c 1.92408,-1.92408 1.92408,-5.04547 0,-6.96955 l -3.48356,-3.48356 c -1.92406,-1.92408 -5.04307,-1.92408 -6.96715,0 l -5.8609,5.86093 c -2.86757,-1.76887 -6.02357,-3.09675 -9.39618,-3.89496 v -8.28266 c 0,-2.71983 -2.20742,-4.92723 -4.92727,-4.92723 h -4.92717 c -2.71985,0 -4.92727,2.2074 -4.92727,4.92723 v 8.28266 c -3.37261,0.79821 -6.53102,2.12855 -9.39618,3.89743 l -5.8585,-5.86094 c -1.92407,-1.92408 -5.04549,-1.92408 -6.96705,0 l -3.48607,3.48356 c -1.92408,1.92407 -1.92408,5.04547 -0.003,6.96955 l 5.86091,5.86093 c -1.76887,2.86519 -3.09679,6.02353 -3.89496,9.39374 h -8.28266 c -2.71986,0 -4.92726,2.20739 -4.92726,4.92723 v 4.92722 c 0,2.71984 2.2074,4.92723 4.92726,4.92723 h 8.28266 c 0.79801,3.37022 2.12861,6.52857 3.89742,9.39375 l -5.86097,5.86094 c -1.92155,1.9216 -1.92155,5.04547 0.003,6.96955 l 3.48356,3.48354 c 1.92156,1.92163 5.04298,1.92163 6.96705,0 l 5.86091,-5.86093 c 2.86515,1.77133 6.02357,3.09924 9.39623,3.89743 v 8.28266 c 0,2.71984 2.20742,4.92723 4.92723,4.92723 h 4.92726 c 2.71981,0 4.92716,-2.20739 4.92716,-4.92723 v -8.28266 c 3.37021,-0.79819 6.52861,-2.12856 9.39378,-3.89743 l 5.8609,5.86093 c 1.92408,1.92408 5.04308,1.92408 6.96715,0 l 3.48356,-3.48354 c 1.92408,-1.92408 1.92408,-5.04547 0,-6.96955 l -5.86097,-5.86094 c 1.77134,-2.86518 3.09925,-6.02353 3.89741,-9.39621 h 8.28266 c 2.71986,0 4.92726,-2.20739 4.92726,-4.92721 v -4.92723 c 0,-2.71739 -2.2074,-4.92478 -4.92726,-4.92478 z m -39.41772,27.09973 c -10.88428,0 -19.70897,-8.82464 -19.70897,-19.70887 0,-10.88425 8.82469,-19.70891 19.70897,-19.70891 10.88422,0 19.70892,8.82466 19.70892,19.70891 0,10.88423 -8.8247,19.70887 -19.70892,19.70887 z"
       id="path2445"
       style="display:inline;stroke-width:2.46361" />
    <path
       sodipodi:type="star"
       style="color:#000000;display:inline;overflow:visible;fill:#a02c2c;fill-opacity:1;stroke:#a02c2c;stroke-width:8.91546;stroke-dasharray:none;stroke-opacity:1;stop-color:#000000"
       id="path5021"
       inkscape:flatsided="true"
       sodipodi:sides="6"
       sodipodi:cx="595.31805"
       sodipodi:cy="301.539"
       sodipodi:r1="52.589668"
       sodipodi:r2="45.543991"
       sodipodi:arg1="1.0471976"
       sodipodi:arg2="1.5707963"
       inkscape:rounded="0"
       inkscape:randomized="0"
       d="m 621.61289,347.08299 -52.58967,0 -26.29483,-45.54399 26.29483,-45.54399 52.58967,0 26.29483,45.54399 z"
       transform="matrix(0.84203199,0,0,0.84203199,312.52318,10.522688)" />
    <path
       sodipodi:type="star"
       style="color:#000000;display:inline;overflow:visible;fill:#a02c2c;fill-opacity:1;stroke:#a02c2c;stroke-width:8.91546;stroke-dasharray:none;stroke-opacity:1;stop-color:#000000"
       id="path3154"
       inkscape:flatsided="true"
       sodipodi:sides="6"
       sodipodi:cx="595.31805"
       sodipodi:cy="301.539"
       sodipodi:r1="52.589668"
       sodipodi:r2="45.543991"
       sodipodi:arg1="1.0471976"
       sodipodi:arg2="1.5707963"
       inkscape:rounded="0"
       inkscape:randomized="0"
       d="m 621.61289,347.08299 -52.58967,0 -26.29483,-45.54399 26.29483,-45.54399 52.58967,0 26.29483,45.54399 z"
       transform="matrix(0.84203199,0,0,0.84203199,274.35979,142.26327)" />
    <path
       sodipodi:type="star"
       style="color:#000000;display:inline;overflow:visible;fill:#c0cbd4;fill-opacity:1;stroke:#d99e82;stroke-width:8.91546;stroke-dasharray:none;stroke-opacity:1;stop-color:#000000"
       id="path3156"
       inkscape:flatsided="true"
       sodipodi:sides="6"
       sodipodi:cx="595.31805"
       sodipodi:cy="301.539"
       sodipodi:r1="52.589668"
       sodipodi:r2="45.543991"
       sodipodi:arg1="1.0471976"
       sodipodi:arg2="1.5707963"
       inkscape:rounded="0"
       inkscape:randomized="0"
       d="m 621.61289,347.08299 -52.58967,0 -26.29483,-45.54399 26.29483,-45.54399 52.58967,0 26.29483,45.54399 z"
       transform="matrix(1.0464625,0,0,1.0464625,253.57579,170.63686)" />
    <path
       sodipodi:type="star"
       style="color:#000000;display:inline;overflow:visible;fill:#008000;fill-opacity:1;stroke:#008000;stroke-width:8.91546;stroke-dasharray:none;stroke-opacity:1;stop-color:#000000"
       id="path3158"
       inkscape:flatsided="true"
       sodipodi:sides="6"
       sodipodi:cx="595.31805"
       sodipodi:cy="301.539"
       sodipodi:r1="52.589668"
       sodipodi:r2="45.543991"
       sodipodi:arg1="1.0471976"
       sodipodi:arg2="1.5707963"
       inkscape:rounded="0"
       inkscape:randomized="0"
       d="m 621.61289,347.08299 -52.58967,0 -26.29483,-45.54399 26.29483,-45.54399 52.58967,0 26.29483,45.54399 z"
       transform="matrix(1.0464625,0,0,1.0464625,154.88083,241.9178)" />
    <path
       sodipodi:type="star"
       style="color:#000000;display:inline;overflow:visible;fill:#008000;fill-opacity:1;stroke:#008000;stroke-width:8.91546;stroke-dasharray:none;stroke-opacity:1;stop-color:#000000"
       id="path3160"
       inkscape:flatsided="true"
       sodipodi:sides="6"
       sodipodi:cx="595.31805"
       sodipodi:cy="301.539"
       sodipodi:r1="52.589668"
       sodipodi:r2="45.543991"
       sodipodi:arg1="1.0471976"
       sodipodi:arg2="1.5707963"
       inkscape:rounded="0"
       inkscape:randomized="0"
       d="m 621.61289,347.08299 -52.58967,0 -26.29483,-45.54399 26.29483,-45.54399 52.58967,0 26.29483,45.54399 z"
       transform="matrix(1.0464625,0,0,1.0464625,264.32422,293.31889)" />
    <path
       sodipodi:type="star"
       style="color:#000000;display:inline;overflow:visible;fill:#c8ab37;fill-opacity:0;stroke:#c8ab37;stroke-width:8.91546;stroke-dasharray:26.7463789,8.91545964;stroke-opacity:1;stop-color:#000000;stroke-dashoffset:0"
       id="path3162"
       inkscape:flatsided="true"
       sodipodi:sides="6"
       sodipodi:cx="595.31805"
       sodipodi:cy="301.539"
       sodipodi:r1="52.589668"
       sodipodi:r2="45.543991"
       sodipodi:arg1="1.0471976"
       sodipodi:arg2="1.5707963"
       inkscape:rounded="0"
       inkscape:randomized="0"
       d="m 621.61289,347.08299 -52.58967,0 -26.29483,-45.54399 26.29483,-45.54399 52.58967,0 26.29483,45.54399 z"
       transform="matrix(0.75700456,0,0,0.75700456,474.12639,93.814876)" />
    <path
       sodipodi:type="star"
       style="color:#000000;display:inline;overflow:visible;fill:#c8ab37;fill-opacity:0.97647059;stroke:#c8ab37;stroke-width:8.91546;stroke-dasharray:none;stroke-opacity:1;stop-color:#000000"
       id="path3164"
       inkscape:flatsided="true"
       sodipodi:sides="6"
       sodipodi:cx="595.31805"
       sodipodi:cy="301.539"
       sodipodi:r1="52.589668"
       sodipodi:r2="45.543991"
       sodipodi:arg1="1.0471976"
       sodipodi:arg2="1.5707963"
       inkscape:rounded="0"
       inkscape:randomized="0"
       d="m 621.61289,347.08299 -52.58967,0 -26.29483,-45.54399 26.29483,-45.54399 52.58967,0 26.29483,45.54399 z"
       transform="matrix(0.75700456,0,0,0.75700456,388.63074,-78.67166)" />
    <path
       style="fill:none;fill-rule:evenodd;stroke:#000000;stroke-width:10;stroke-linecap:butt;stroke-linejoin:miter;stroke-dasharray:none;stroke-opacity:1;marker-end:url(#TriangleStart)"
       d="M 343.81322,439.9951 H 663.2573"
       id="path3166" />
    <path
       fill="#abdfff"
       d="m 517.92407,349.15668 c -20.87304,27.88418 -25.99283,58.04428 -11.43481,67.36342 14.55799,9.31915 43.28017,-5.73343 64.1486,-33.61757 20.87305,-27.88418 12.60261,-77.98314 11.43489,-76.16053 -8.1377,12.70334 -43.27563,14.53053 -64.14868,42.41468 z"
       id="path225-6"
       style="stroke-width:4.57943" />
    <path
       fill="#abdfff"
       d="m 486.56643,349.15668 c 20.87305,27.88418 25.99287,58.04428 11.43942,67.36342 -14.55802,9.31915 -43.28022,-5.73343 -64.15326,-33.61757 -20.87305,-27.88418 -13.00559,-77.70837 -11.43485,-76.16053 17.18662,16.93931 43.28022,14.53053 64.14869,42.41468 z"
       id="path227-7"
       style="stroke-width:4.57943" />
    <path
       fill="#55acee"
       d="m 443.8701,337.96455 c 4.39624,7.34544 7.26297,14.41149 19.46716,25.91501 4.71682,4.44662 4.30923,10.28081 -0.8197,6.40203 -12.19962,-9.22753 -19.71903,-23.90918 -22.20109,-33.28328 -1.74933,-6.59898 1.33722,-2.73392 3.55364,0.96624 z m 122.74706,0 c -4.39627,7.34544 -7.263,14.41149 -19.46713,25.91501 -4.71685,4.44662 -4.30927,10.28081 0.8197,6.40203 12.1996,-9.22753 19.71901,-23.90918 22.20106,-33.28328 1.74935,-6.59898 -1.33724,-2.73392 -3.55363,0.96624 z"
       id="path229"
       style="stroke-width:4.57943" />
    <path
       fill="#ffac33"
       d="m 505.42344,250.19771 c -8.2947,0 -16.11251,1.95684 -23.10108,5.35477 -1.89434,-0.32772 -3.83184,-0.53501 -5.8176,-0.53501 -18.6333,0 -33.73844,15.10519 -33.73844,33.73848 v 57.83738 h 0.0911 c 0.88168,31.16953 26.36911,56.17939 57.75068,56.17939 31.38157,0 56.86863,-25.00986 57.75066,-56.17939 h 0.0911 V 303.2153 c 0,-29.28018 -23.73736,-53.01761 -53.01766,-53.01761 z"
       id="path8423"
       style="stroke-width:4.81977" />
    <path
       fill="#9268ca"
       d="m 543.98176,351.41313 h -86.75607 c -10.64681,0 -19.27906,8.63221 -19.27906,19.27911 v 53.01762 h 125.3142 v -53.01762 c 0,-10.6469 -8.63225,-19.27911 -19.27907,-19.27911 z"
       id="path8425"
       style="stroke-width:4.81977" />
    <path
       fill="#ffdc5d"
       d="m 481.32464,274.29662 c 0,0 -0.0151,25.5834 -24.09895,28.61022 v 29.22715 c 0,23.95914 19.41895,43.37805 43.37802,43.37805 23.95907,0 43.37805,-19.41891 43.37805,-43.37805 v -24.19047 c -53.54778,-1.81218 -62.65712,-33.6469 -62.65712,-33.6469 z"
       id="path8427"
       style="stroke-width:4.81977" />
    <path
       fill="#7450a8"
       d="m 462.04538,380.33181 h 4.81992 v 43.37805 h -4.81992 z"
       id="path8429"
       style="stroke-width:4.81977" />
    <path
       fill="#fcab40"
       d="m 436.51026,377.89783 -1.36445,-0.28422 h -2.46285 c 0,-0.27969 0.10922,-0.53976 0.16403,-0.81445 -1.67774,-1.03635 -2.63157,-3.01236 -2.20747,-5.05115 0.53918,-2.6123 3.09917,-4.28958 5.7163,-3.75458 l 10.07812,2.08694 h 8.0779 c 4.15956,0 7.52852,3.37387 7.52852,7.53815 v 7.53332 h -18.05964 c 0,0 -7.13813,-3.22443 -7.47549,-7.25378 z"
       id="path8431"
       style="stroke-width:4.81977" />
    <path
       fill="#ffdc5d"
       d="m 413.84764,373.8492 c 0,-2.08214 1.68684,-3.76906 3.76426,-3.76906 l 22.60486,3.76906 h 18.05964 c 2.08214,0 3.76426,1.69175 3.76426,3.76426 v 7.53815 h -24.09403 l -20.33473,-7.53335 c 0,0 -3.76426,-1.68684 -3.76426,-3.76906 z"
       id="path8433"
       style="stroke-width:4.81977" />
    <path
       fill="#9268ca"
       d="m 433.12671,423.70986 h 28.91867 v -38.55825 h -24.09875 z"
       id="path8435"
       style="stroke-width:4.81977" />
    <path
       fill="#7450a8"
       d="m 534.34212,380.33181 h 4.81991 v 43.37805 h -4.81991 z"
       id="path8437"
       style="stroke-width:4.81977" />
    <path
       fill="#fcab40"
       d="m 564.6972,377.89783 1.36441,-0.28422 h 2.46285 c 0,-0.27969 -0.10922,-0.53976 -0.16403,-0.81445 1.67777,-1.03635 2.63158,-3.01236 2.20751,-5.05115 -0.53922,-2.6123 -3.09445,-4.28958 -5.71143,-3.75458 l -10.07826,2.08694 h -8.07795 c -4.15956,0 -7.52852,3.37387 -7.52852,7.53815 v 7.53332 h 18.05968 c -0.004,0 7.13337,-3.22443 7.47077,-7.25378 z"
       id="path8439"
       style="stroke-width:4.81977" />
    <path
       fill="#ffdc5d"
       d="m 587.35978,373.8492 c 0,-2.08214 -1.68684,-3.76906 -3.76426,-3.76906 l -22.60959,3.76906 h -18.05964 c -2.08214,0 -3.76426,1.69175 -3.76426,3.76426 v 7.53815 h 24.0988 l 20.33469,-7.53335 c 0,0 3.76426,-1.68684 3.76426,-3.76906 z"
       id="path8441"
       style="stroke-width:4.81977" />
    <path
       fill="#9268ca"
       d="m 568.08071,423.70986 h -28.91868 v -38.55825 h 24.0988 z"
       id="path8443"
       style="stroke-width:4.81977" />
    <path
       fill="#bf6952"
       d="m 505.42344,344.18346 h -9.63946 c -1.32979,0 -2.41002,-1.0797 -2.41002,-2.4099 0,-1.33017 1.08023,-2.40987 2.41002,-2.40987 h 9.63946 c 1.32979,0 2.40986,1.07966 2.40986,2.40987 0,1.33035 -1.08022,2.4099 -2.40986,2.4099 z"
       id="path8445"
       style="stroke-width:4.81977" />
    <path
       fill="#df1f32"
       d="m 512.65318,361.0527 h -2.40982 c -1.32983,0 -2.41006,-1.0797 -2.41006,-2.4099 0,-1.33036 1.08023,-2.4099 2.41006,-2.4099 h 2.40982 c 1.32983,0 2.40987,1.07969 2.40987,2.4099 0,1.33036 -1.08023,2.4099 -2.40987,2.4099 z"
       id="path8447"
       style="stroke-width:4.81977" />
    <path
       fill="#662113"
       d="m 481.32464,327.31422 c -2.66052,0 -4.81988,-2.15926 -4.81988,-4.81978 v -4.81978 c 0,-2.66052 2.15936,-4.81979 4.81988,-4.81979 2.66052,0 4.81973,2.15927 4.81973,4.81979 v 4.81978 c 0,2.66052 -2.15921,4.81978 -4.81973,4.81978 z m 38.55814,0 c -2.66525,0 -4.81973,-2.15926 -4.81973,-4.81978 v -4.81978 c 0,-2.66052 2.15448,-4.81979 4.81973,-4.81979 2.66543,0 4.81991,2.15927 4.81991,4.81979 v 4.81978 c 0,2.66052 -2.15448,4.81978 -4.81991,4.81978 z"
       id="path8449"
       style="stroke-width:4.81977" />
    <text
       xml:space="preserve"
       style="font-style:normal;font-variant:normal;font-weight:normal;font-stretch:normal;font-size:28px;line-height:125%;font-family:Raleway-v4020;-inkscape-font-specification:Raleway-v4020;letter-spacing:0px;word-spacing:0px;fill:#000000;fill-opacity:1;stroke:none;stroke-width:1px;stroke-linecap:butt;stroke-linejoin:miter;stroke-opacity:1"
       x="205.84605"
       y="719.03528"
       id="text5909"><tspan
         sodipodi:role="line"
         id="tspan5907"
         x="205.84605"
         y="719.03528" /></text>
    <path
       fill="#3e721d"
       d="m 607.11187,610.13264 c 1.85955,-19.92661 -13.12104,-22.40407 -19.06219,-18.07001 -3.25869,2.37647 -4.01915,6.90066 -1.42287,4.51824 4.5806,-4.20631 6.18768,-1.11395 2.72398,1.11398 -3.46369,2.22793 -4.0845,6.37188 -0.24668,3.52903 3.83798,-2.8458 4.88957,-0.99216 1.91899,2.65867 -1.79716,2.2101 0.12463,4.27168 3.46667,-0.18417 2.78639,-3.71619 9.5058,-3.84392 7.90766,8.88201 -0.65943,5.21632 4.31626,1.80611 4.71431,-2.44774 z m 23.58932,-62.44739 c -1.73184,-10.397 -3.34189,-15.58956 -13.73889,-17.32438 -10.39701,-1.7348 -19.06219,5.19851 -19.06219,5.19851 0,0 1.73185,-10.39701 6.93036,-13.86368 2.03782,-1.36051 3.46664,5.19851 5.19851,5.19851 1.73185,0 3.46666,-5.19851 8.66518,-5.19851 1.73184,0 1.73184,5.19851 3.46666,5.19851 1.73181,0 6.66294,-1.71402 6.93032,0 0.37429,2.41211 -0.49608,5.13613 0.86738,6.2501 1.3635,1.11396 4.61331,-0.43965 5.6471,1.4526 1.03673,1.88928 -1.81205,4.6133 -1.56253,5.85202 0.24961,1.23874 2.13582,1.73185 1.56253,4.08454 -0.57335,2.35269 -1.93088,2.4745 -2.05567,4.20931 -0.12464,1.73481 2.62896,3.21118 2.05567,5.00839 -0.57036,1.80016 -1.93385,2.04375 -2.55177,4.33406 -0.61784,2.29031 1.60709,1.9279 0.98924,4.27465 -0.6179,2.34675 -2.84581,2.94384 -3.58849,5.24604 -0.7426,2.29923 1.97841,2.7953 0.61792,5.02323 -1.36052,2.22794 -3.83502,2.59926 -3.95978,3.95977 -0.12464,1.36054 0.62085,2.42993 0.12463,4.61924 -0.49611,2.18635 -3.34491,1.07536 -3.59146,2.8072 -0.24668,1.73183 0.62089,2.59925 0.62089,4.70241 0,2.10317 -2.10615,2.47747 -1.85661,4.58062 0.24959,2.10317 2.22789,0.49609 3.46662,2.97058 1.23877,2.47449 -0.73967,4.70242 0.62086,6.1877 1.36052,1.48529 3.21713,-1.98136 5.07375,-0.74264 1.8566,1.23873 2.01108,3.71321 4.03701,4.08455 2.02596,0.37132 2.64678,-3.838 4.13207,-3.71323 1.48526,0.12476 4.82715,2.10614 6.55903,1.23873 1.73184,-0.86741 1.60705,-4.33406 2.97054,-5.81935 1.36351,-1.48528 3.09535,-0.12182 4.33111,-1.73185 1.2358,-1.61004 -0.43073,-3.49042 -0.18406,-5.84311 0.2467,-2.35271 2.53688,-3.68649 2.41209,-5.54309 -0.12464,-1.85662 -1.98138,-1.85662 -2.72399,-3.83798 -0.74268,-1.98137 1.36052,-3.71321 0.61789,-5.56982 -0.74269,-1.85661 -3.95685,-2.47449 -3.83506,-4.3311 0.12173,-1.85662 1.36354,-3.95977 0.74266,-6.06591 -0.62083,-2.10613 -3.22012,-3.46368 -3.09535,-5.07076 0.12463,-1.60709 1.48235,-3.71323 1.73185,-4.88957 0.24958,-1.17635 -2.22493,-2.4121 -1.97838,-4.39348 0.24669,-1.98138 1.85361,-1.84472 2.47152,-3.633 0.61788,-1.78829 -2.22499,-2.67649 -0.73967,-4.96681 1.48525,-2.2903 2.23091,-0.80205 3.46667,-2.04374 1.23576,-1.23873 -0.002,-3.96276 1.23576,-4.58063 1.23873,-0.61788 3.71319,-0.12477 4.95192,-0.9892 1.23872,-0.86445 1.23872,-2.10316 2.59925,-2.59925 1.36052,-0.4961 3.09534,1.61005 4.20927,1.61005 1.114,0 3.09241,-2.10318 4.57769,-1.61005 1.48529,0.49609 4.70537,3.95976 2.72403,5.01433 -1.98142,1.05454 -17.08379,1.79719 -17.20559,8.72754 -0.12172,6.93034 8.29683,38.37088 5.81936,46.29042 -2.47746,7.91956 -12.74672,24.75677 -24.50723,21.53667 -11.76048,-3.22012 -25.74596,-10.39998 -22.40402,-21.41487 3.34186,-11.01785 14.10724,-33.55559 16.21337,-43.88427 z"
       id="path23266"
       style="display:inline;stroke-width:2.97058" />
    <path
       fill="#77b255"
       d="m 632.5578,544.97015 c 0,11.81694 -7.0759,24.19234 -17.32733,22.47536 -15.81242,-2.64382 -16.65306,-7.68488 -19.0622,-4.59252 -8.66514,11.11885 -13.79532,-1.44071 -15.76482,-3.52308 -0.49609,-0.52282 -10.2277,-3.38944 -10.2277,-8.8731 0,-3.55578 5.19854,-7.18286 8.66518,-3.65678 5.11533,-0.12774 24.26067,-18.28685 36.38954,-18.28685 12.12883,-0.002 17.32733,9.14341 17.32733,16.45697 z"
       id="path23268"
       style="display:inline;stroke-width:2.97058" />
    <path
       fill="#292f33"
       d="m 613.49564,542.48972 c 0,1.91305 -1.55363,3.46666 -3.46666,3.46666 -1.91304,0 -3.46667,-1.55361 -3.46667,-3.46666 0,-1.91305 1.55363,-3.46666 3.46667,-3.46666 1.91602,0.002 3.46666,1.55361 3.46666,3.46666 z"
       id="path23270"
       style="display:inline;stroke-width:2.97058" />
    <path
       fill="#3e721d"
       d="m 578.84093,552.02229 c 0,1.43479 -1.16447,0.86741 -2.59923,0.86741 -1.43482,0 -2.59929,0.56738 -2.59929,-0.86741 0,-1.43479 1.16447,-2.59924 2.59929,-2.59924 1.43476,0 2.59923,1.16445 2.59923,2.59924 z"
       id="path23272"
       style="display:inline;stroke-width:2.97058" />
    <path
       fill="#ffffff"
       d="m 603.09862,554.61561 c 0,1.91601 -1.16447,1.73183 -2.59928,1.73183 -1.43476,0 -2.59923,0.18121 -2.59923,-1.73183 0,-1.91306 1.16447,-6.93036 2.59923,-6.93036 1.43481,0 2.59928,5.0173 2.59928,6.93036 z m -6.93035,1.73183 c 0,1.91602 -1.16443,1.73185 -2.59925,1.73185 -1.43479,0.002 -2.59926,0.18417 -2.59926,-1.73185 0,-1.91304 1.16447,-6.93034 2.59926,-6.93034 1.43482,0 2.59925,5.0173 2.59925,6.93034 z"
       id="path23274"
       style="display:inline;stroke-width:2.97058" />
    <path
       fill="#3e721d"
       d="m 602.85504,554.63936 c -9.19394,1.313 -18.46214,3.636 -22.45159,4.69055 0.49612,0.52578 1.19714,1.71996 2.10614,3.03295 4.37269,-1.12882 12.6338,-3.12208 20.83857,-4.28951 0.94761,-0.13661 1.6041,-1.01595 1.47043,-1.96356 -0.13948,-0.95057 -1.02188,-1.61004 -1.96355,-1.47043 z"
       id="path23276"
       style="display:inline;stroke-width:2.97058" />
    <path
       fill="#77b255"
       d="m 628.26601,548.05954 c 0,12.99626 -5.09157,24.36168 -8.75132,33.18131 -3.95974,9.54147 -2.97058,26.73516 11.88227,26.73516 14.85286,0 19.3414,-9.4791 20.79401,-14.85288 4.03405,-14.91524 -5.94115,-23.76457 -5.94115,-38.61745 0,-26.73515 23.76461,-20.794 23.76461,-17.82343 0,2.97059 -20.59794,4.08157 -8.91172,26.73516 11.68625,22.65359 11.88234,65.03475 -29.70575,65.03475 -41.58801,0 -41.58801,-26.4173 -35.64685,-38.2996 4.20633,-8.41265 11.88227,-21.11186 1.48531,-26.86883 -6.77888,-3.75183 31.03059,-15.22419 31.03059,-15.22419 z"
       id="path23278"
       style="display:inline;stroke-width:2.97058" />
    <path
       fill="#3e721d"
       d="m 603.84717,544.59586 c -0.76043,0 -1.52089,-0.29111 -2.10016,-0.87038 -1.16149,-1.1615 -1.16149,-3.03889 0,-4.20039 0.24669,-0.24655 6.18175,-6.06889 15.96388,-6.06889 1.63974,0 2.97055,1.33084 2.97055,2.97058 0,1.63976 -1.33081,2.97058 -2.97055,2.97058 -7.23339,0 -11.71892,4.28357 -11.76348,4.32812 -0.57926,0.57926 -1.33974,0.87038 -2.10024,0.87038 z"
       id="path23280"
       style="display:inline;stroke-width:2.97058" />
    <path
       fill="#5c913b"
       d="m 601.98467,596.76506 c 1.8625,-19.9266 -16.0916,-22.40407 -22.03272,-18.06999 -3.25872,2.37645 -4.01923,6.90063 -1.42294,4.51824 4.58064,-4.20634 6.18771,-1.11396 2.72402,1.11397 -3.46665,2.22792 -4.08455,6.37483 -0.24669,3.52904 3.83796,-2.84581 4.88958,-0.99217 1.91897,2.65865 -1.7972,2.2101 0.12463,4.27168 3.46665,-0.18418 2.78642,-3.71619 12.47643,-3.84392 10.87826,8.88202 -0.65947,5.21632 4.31922,1.8061 4.71431,-2.44775 z"
       id="path23282"
       style="display:inline;stroke-width:2.97058" />
    <path
       fill="#662113"
       d="m 849.46366,472.07808 v 23.71287 c 0,3.91286 2.09439,4.75981 2.09439,4.75981 l 22.178,17.43543 c 3.4913,2.74398 2.55428,-3.03333 2.55428,-3.03333 v -21.79668 z"
       id="path10457"
       style="stroke-width:1.91619" />
    <path
       fill="#c1694f"
       d="m 903.11701,472.07808 v 23.71287 c 0,3.91286 -2.03691,4.75981 -2.03691,4.75981 0,0 -18.71544,14.69144 -22.20483,17.43543 -3.49321,2.74398 -2.58494,-3.03333 -2.58494,-3.03333 v -21.79668 z"
       id="path10459"
       style="stroke-width:1.91619" />
    <path
       fill="#d99e82"
       d="m 878.7603,451.95808 c -1.44289,-1.16888 -3.80939,-1.16888 -5.25419,0 l -22.9598,18.25938 c -1.44481,1.16888 -1.44481,3.07932 0,4.24628 l 23.03836,18.48358 c 1.44481,1.16696 3.8113,1.16696 5.25611,0 l 23.19358,-18.64454 c 1.44481,-1.16696 1.44481,-3.0774 0,-4.24628 z"
       id="path10461"
       style="stroke-width:1.91619" />
    <path
       fill="#d99e82"
       d="m 876.29033,519.50381 c -1.05774,0 -1.91619,-0.9236 -1.91619,-2.06565 v -24.77061 c 0,-1.14205 0.85845,-2.06565 1.91619,-2.06565 1.05966,0 1.91619,0.9236 1.91619,2.06565 v 24.77061 c 0,1.14205 -0.85653,2.06565 -1.91619,2.06565 z"
       id="path10463"
       style="stroke-width:1.91619" />
    <path
       fill="#99aab5"
       d="m 895.45224,487.09336 c 0,2.11547 0.19929,3.15405 -1.91619,4.67933 l -4.73107,3.59861 c -2.11548,1.5272 -2.93369,0.21653 -2.93369,-1.90086 v -5.67384 c 0,-0.36983 -0.0498,-0.76648 -0.5327,-1.16505 -4.93994,-4.0719 -24.12102,-19.30754 -27.61615,-22.12051 l 8.86238,-7.04775 c 2.4259,1.7744 20.60481,15.81241 28.21017,21.80051 0.37749,0.29892 0.65725,0.62851 0.65725,0.98875 z"
       id="path10465"
       style="stroke-width:1.91619" />
    <path
       fill="#ccd6dd"
       d="m 894.79307,479.2638 c -7.60344,-5.9881 -25.78235,-20.02611 -28.20825,-21.80051 l -3.29776,2.62135 -5.56462,4.4264 c 3.49705,2.81297 22.67621,18.04861 27.61615,22.12051 0.28934,0.23953 0.41581,0.47905 0.47521,0.71091 l 9.45257,-7.59961 c -0.11497,-0.16671 -0.27976,-0.32767 -0.4733,-0.47905 z"
       id="path10467"
       style="stroke-width:1.91619" />
    <path
       fill="#ccd6dd"
       d="m 895.45224,487.09336 v -6.84081 c 0,-0.36024 -0.27976,-0.68791 -0.65917,-0.98875 -7.60344,-5.9881 -25.78235,-20.02611 -28.20825,-21.80051 l -3.97226,3.1598 c 6.50164,5.11432 23.91598,18.55065 28.4746,22.17608 0.49054,0.3909 0.5327,0.79522 0.5327,1.16505 v 9.26669 l 1.91619,-1.45822 c 2.11548,-1.5272 1.91619,-2.56386 1.91619,-4.67933 z"
       id="path10469"
       style="stroke-width:1.91619" />
    <path
       fill="#e1e8ed"
       d="m 894.79307,479.2638 c -7.60344,-5.9881 -25.78235,-20.02611 -28.20825,-21.80051 l -3.97226,3.1598 c 6.50164,5.11432 23.91598,18.55065 28.4746,22.17608 0.0709,0.0556 0.11497,0.11306 0.16671,0.16863 l 4.0125,-3.22495 c -0.11497,-0.16671 -0.27976,-0.32767 -0.4733,-0.47905 z"
       id="path10471"
       style="stroke-width:1.91619" />
    <path
       style="fill:none;fill-rule:evenodd;stroke:#000000;stroke-width:2;stroke-linecap:butt;stroke-linejoin:miter;stroke-opacity:1;stroke-dasharray:none;marker-end:url(#marker15137)"
       d="m 153.42525,448.4548 -10.08101,75.51109"
       id="path15133" />
    <path
       style="fill:none;fill-rule:evenodd;stroke:#000000;stroke-width:2;stroke-linecap:butt;stroke-linejoin:miter;stroke-dasharray:none;stroke-opacity:1;marker-end:url(#marker15137)"
       d="m 241.82291,544.66651 -49.89735,19.10545"
       id="path15183"
       sodipodi:nodetypes="cc" />
    <path
       fill="#bb1a34"
       d="m 115.18336,188.42297 -7.03352,14.11626 -8.791887,-8.82354 v 12.35085 l -17.58378,-3.52731 14.06703,14.11626 -19.34217,10.58544 h 21.10054 l -10.55026,21.17438 21.100527,-14.11625 19.34216,17.64532 -5.27513,-24.70345 h 17.58378 l -14.06703,-10.5872 14.06703,-15.87991 -21.10054,5.29272 z"
       id="path16005"
       style="stroke-width:1.75838" />
    <path
       fill="#fcab40"
       d="m 116.79051,211.14824 3.27059,-0.82115 9.18928,-2.30524 -5.94508,6.70997 -2.3193,2.61999 2.79583,2.10126 5.14325,3.87195 H 118.519 l 0.83171,3.90008 2.72725,12.76582 -10.27772,-9.37567 -1.85685,-1.69507 -2.08896,1.39791 -9.213897,6.16487 4.230657,-8.48945 2.32458,-4.66849 H 93.316173 l 6.60974,-3.6205 3.771717,-2.06082 -3.03672,-3.05079 -5.352497,-5.36833 5.663727,1.13591 3.84382,0.77193 v -7.43618 l 2.54965,2.55844 3.15453,3.16332 1.99224,-4.00207 2.23842,-4.49441"
       id="path16007"
       style="stroke-width:1.75838" />
    <path
       fill="#f5f8fa"
       d="m 114.32527,213.56953 1.34867,-0.33937 3.79458,-0.95128 -2.45469,2.77121 -0.95832,1.0814 1.1535,0.86688 2.12412,1.59837 h -4.29572 l 0.34289,1.61067 1.12712,5.26986 -4.24297,-3.87019 -0.76841,-0.69983 -0.86161,0.57674 -3.80337,2.54614 1.74607,-3.50621 0.96007,-1.92718 h -4.90411 l 2.73076,-1.49462 1.55616,-0.85106 -1.25372,-1.259 -2.21028,-2.21731 2.33688,0.46948 1.58782,0.31827 v -3.06837 l 1.05327,1.05503 1.3012,1.30647 0.82291,-1.65111 0.92316,-1.85685"
       id="path16009"
       style="stroke-width:1.75838" />
  </g>
</svg>
