<?xml version="1.0" encoding="UTF-8" standalone="no"?>
<!-- Created with Inkscape (http://www.inkscape.org/) -->

<svg
   width="218.23222mm"
   height="174.78374mm"
   viewBox="0 0 218.23222 174.78374"
   version="1.1"
   id="svg138"
   inkscape:version="1.2 (1:1.2.1+202207142221+cd75a1ee6d)"
   sodipodi:docname="multinodetasks.svg"
   xml:space="preserve"
   xmlns:inkscape="http://www.inkscape.org/namespaces/inkscape"
   xmlns:sodipodi="http://sodipodi.sourceforge.net/DTD/sodipodi-0.dtd"
   xmlns="http://www.w3.org/2000/svg"
   xmlns:svg="http://www.w3.org/2000/svg"><sodipodi:namedview
     id="namedview140"
     pagecolor="#ffffff"
     bordercolor="#666666"
     borderopacity="1.0"
     inkscape:showpageshadow="2"
     inkscape:pageopacity="0.0"
     inkscape:pagecheckerboard="0"
     inkscape:deskcolor="#d1d1d1"
     inkscape:document-units="mm"
     showgrid="false"
     inkscape:zoom="0.8409652"
     inkscape:cx="553.53063"
     inkscape:cy="198.58134"
     inkscape:window-width="1600"
     inkscape:window-height="1129"
     inkscape:window-x="0"
     inkscape:window-y="34"
     inkscape:window-maximized="1"
     inkscape:current-layer="svg138" /><defs
     id="defs135" /><g
     inkscape:groupmode="layer"
     id="layer3"
     inkscape:label="Layer 3"
     transform="translate(18.751408,-20.835328)"
     style="display:inline"><path
       fill="#5dadec"
       d="m 199.48081,190.0253 c 0,3.09214 -2.49047,5.59376 -5.57153,5.59376 H -13.179869 c -3.075484,0 -5.571539,-2.50162 -5.571539,-5.59376 v -75.24606 c 0,-3.0922 2.496055,-5.59381 5.571539,-5.59381 H 193.90928 c 3.08106,0 5.57153,2.50716 5.57153,5.59381 z"
       id="path6-3"
       style="fill:#333333;stroke-width:5.57152"
       sodipodi:nodetypes="sssssssss" /><text
       xml:space="preserve"
       style="font-style:normal;font-variant:normal;font-weight:normal;font-stretch:normal;font-size:7.40833px;line-height:125%;font-family:Raleway-v4020;-inkscape-font-specification:Raleway-v4020;letter-spacing:0px;word-spacing:0px;fill:#000000;fill-opacity:1;stroke:none;stroke-width:0.264583px;stroke-linecap:butt;stroke-linejoin:miter;stroke-opacity:1"
       x="4.3386126"
       y="66.02182"
       id="text1372"><tspan
         sodipodi:role="line"
         id="tspan1370"
         style="stroke-width:0.264583px"
         x="4.3386126"
         y="66.02182" /></text></g><path
     sodipodi:type="star"
     style="color:#000000;display:inline;overflow:visible;fill:#000000;fill-opacity:0;stroke:#000000;stroke-width:8.91546;stroke-dasharray:none;stroke-opacity:1;stop-color:#000000"
     id="path16762-36-3"
     inkscape:flatsided="true"
     sodipodi:sides="6"
     sodipodi:cx="595.31805"
     sodipodi:cy="301.539"
     sodipodi:r1="52.589668"
     sodipodi:r2="45.543991"
     sodipodi:arg1="1.0471976"
     sodipodi:arg2="1.5707963"
     inkscape:rounded="0"
     inkscape:randomized="0"
     d="m 621.61289,347.08299 -52.58967,0 -26.29483,-45.54399 26.29483,-45.54399 52.58967,0 26.29483,45.54399 z"
     transform="matrix(0.12048574,0,0,0.12048574,21.973446,-10.396581)" /><path
     sodipodi:type="star"
     style="color:#000000;display:inline;overflow:visible;fill:#000000;fill-opacity:0;stroke:#000000;stroke-width:8.91546;stroke-dasharray:none;stroke-opacity:1;stop-color:#000000"
     id="path16762-3-1-5"
     inkscape:flatsided="true"
     sodipodi:sides="6"
     sodipodi:cx="595.31805"
     sodipodi:cy="301.539"
     sodipodi:r1="52.589668"
     sodipodi:r2="45.543991"
     sodipodi:arg1="1.0471976"
     sodipodi:arg2="1.5707963"
     inkscape:rounded="0"
     inkscape:randomized="0"
     d="m 621.61289,347.08299 -52.58967,0 -26.29483,-45.54399 26.29483,-45.54399 52.58967,0 26.29483,45.54399 z"
     transform="matrix(0.12048574,0,0,0.12048574,21.999311,2.0724713)" /><path
     sodipodi:type="star"
     style="color:#000000;display:inline;overflow:visible;fill:#000000;fill-opacity:0;stroke:#000000;stroke-width:8.91546;stroke-dasharray:none;stroke-opacity:1;stop-color:#000000"
     id="path16762-2-2-6"
     inkscape:flatsided="true"
     sodipodi:sides="6"
     sodipodi:cx="595.31805"
     sodipodi:cy="301.539"
     sodipodi:r1="52.589668"
     sodipodi:r2="45.543991"
     sodipodi:arg1="1.0471976"
     sodipodi:arg2="1.5707963"
     inkscape:rounded="0"
     inkscape:randomized="0"
     d="m 621.61289,347.08299 -52.58967,0 -26.29483,-45.54399 26.29483,-45.54399 52.58967,0 26.29483,45.54399 z"
     transform="matrix(0.12048574,0,0,0.12048574,32.601944,-4.1225787)" /><path
     sodipodi:type="star"
     style="color:#000000;display:inline;overflow:visible;fill:#000000;fill-opacity:0;stroke:#000000;stroke-width:8.91546;stroke-dasharray:none;stroke-opacity:1;stop-color:#000000"
     id="path16762-3-8-9-2"
     inkscape:flatsided="true"
     sodipodi:sides="6"
     sodipodi:cx="595.31805"
     sodipodi:cy="301.539"
     sodipodi:r1="52.589668"
     sodipodi:r2="45.543991"
     sodipodi:arg1="1.0471976"
     sodipodi:arg2="1.5707963"
     inkscape:rounded="0"
     inkscape:randomized="0"
     d="m 621.61289,347.08299 -52.58967,0 -26.29483,-45.54399 26.29483,-45.54399 52.58967,0 26.29483,45.54399 z"
     transform="matrix(0.12048574,0,0,0.12048574,32.627811,8.3464743)" /><path
     sodipodi:type="star"
     style="color:#000000;display:inline;overflow:visible;fill:#000000;fill-opacity:0;stroke:#000000;stroke-width:8.91546;stroke-dasharray:none;stroke-opacity:1;stop-color:#000000"
     id="path24518-9"
     inkscape:flatsided="true"
     sodipodi:sides="6"
     sodipodi:cx="595.31805"
     sodipodi:cy="301.539"
     sodipodi:r1="52.589668"
     sodipodi:r2="45.543991"
     sodipodi:arg1="1.0471976"
     sodipodi:arg2="1.5707963"
     inkscape:rounded="0"
     inkscape:randomized="0"
     d="m 621.61289,347.08299 -52.58967,0 -26.29483,-45.54399 26.29483,-45.54399 52.58967,0 26.29483,45.54399 z"
     transform="matrix(0.12048574,0,0,0.12048574,21.973446,14.601564)" /><path
     sodipodi:type="star"
     style="color:#000000;display:inline;overflow:visible;fill:#000000;fill-opacity:0;stroke:#000000;stroke-width:8.91546;stroke-dasharray:none;stroke-opacity:1;stop-color:#000000"
     id="path24520-1"
     inkscape:flatsided="true"
     sodipodi:sides="6"
     sodipodi:cx="595.31805"
     sodipodi:cy="301.539"
     sodipodi:r1="52.589668"
     sodipodi:r2="45.543991"
     sodipodi:arg1="1.0471976"
     sodipodi:arg2="1.5707963"
     inkscape:rounded="0"
     inkscape:randomized="0"
     d="m 621.61289,347.08299 -52.58967,0 -26.29483,-45.54399 26.29483,-45.54399 52.58967,0 26.29483,45.54399 z"
     transform="matrix(0.12048574,0,0,0.12048574,21.999311,27.07062)" /><path
     sodipodi:type="star"
     style="color:#000000;display:inline;overflow:visible;fill:#000000;fill-opacity:0;stroke:#000000;stroke-width:8.91546;stroke-dasharray:none;stroke-opacity:1;stop-color:#000000"
     id="path24522-2"
     inkscape:flatsided="true"
     sodipodi:sides="6"
     sodipodi:cx="595.31805"
     sodipodi:cy="301.539"
     sodipodi:r1="52.589668"
     sodipodi:r2="45.543991"
     sodipodi:arg1="1.0471976"
     sodipodi:arg2="1.5707963"
     inkscape:rounded="0"
     inkscape:randomized="0"
     d="m 621.61289,347.08299 -52.58967,0 -26.29483,-45.54399 26.29483,-45.54399 52.58967,0 26.29483,45.54399 z"
     transform="matrix(0.12048574,0,0,0.12048574,32.601944,20.875566)" /><path
     sodipodi:type="star"
     style="color:#000000;display:inline;overflow:visible;fill:#000000;fill-opacity:0;stroke:#000000;stroke-width:8.91546;stroke-dasharray:none;stroke-opacity:1;stop-color:#000000"
     id="path24524-7"
     inkscape:flatsided="true"
     sodipodi:sides="6"
     sodipodi:cx="595.31805"
     sodipodi:cy="301.539"
     sodipodi:r1="52.589668"
     sodipodi:r2="45.543991"
     sodipodi:arg1="1.0471976"
     sodipodi:arg2="1.5707963"
     inkscape:rounded="0"
     inkscape:randomized="0"
     d="m 621.61289,347.08299 -52.58967,0 -26.29483,-45.54399 26.29483,-45.54399 52.58967,0 26.29483,45.54399 z"
     transform="matrix(0.12048574,0,0,0.12048574,32.627811,33.344624)" /><path
     sodipodi:type="star"
     style="color:#000000;display:inline;overflow:visible;fill:#000000;fill-opacity:0;stroke:#000000;stroke-width:8.91546;stroke-dasharray:none;stroke-opacity:1;stop-color:#000000"
     id="path24526-0"
     inkscape:flatsided="true"
     sodipodi:sides="6"
     sodipodi:cx="595.31805"
     sodipodi:cy="301.539"
     sodipodi:r1="52.589668"
     sodipodi:r2="45.543991"
     sodipodi:arg1="1.0471976"
     sodipodi:arg2="1.5707963"
     inkscape:rounded="0"
     inkscape:randomized="0"
     d="m 621.61289,347.08299 -52.58967,0 -26.29483,-45.54399 26.29483,-45.54399 52.58967,0 26.29483,45.54399 z"
     transform="matrix(0.12048574,0,0,0.12048574,43.504521,-10.415307)" /><path
     sodipodi:type="star"
     style="color:#000000;display:inline;overflow:visible;fill:#000000;fill-opacity:0;stroke:#000000;stroke-width:8.91546;stroke-dasharray:none;stroke-opacity:1;stop-color:#000000"
     id="path24528-9"
     inkscape:flatsided="true"
     sodipodi:sides="6"
     sodipodi:cx="595.31805"
     sodipodi:cy="301.539"
     sodipodi:r1="52.589668"
     sodipodi:r2="45.543991"
     sodipodi:arg1="1.0471976"
     sodipodi:arg2="1.5707963"
     inkscape:rounded="0"
     inkscape:randomized="0"
     d="m 621.61289,347.08299 -52.58967,0 -26.29483,-45.54399 26.29483,-45.54399 52.58967,0 26.29483,45.54399 z"
     transform="matrix(0.12048574,0,0,0.12048574,43.530391,2.0537503)" /><path
     sodipodi:type="star"
     style="color:#000000;display:inline;overflow:visible;fill:#000000;fill-opacity:0;stroke:#000000;stroke-width:8.91546;stroke-dasharray:none;stroke-opacity:1;stop-color:#000000"
     id="path24530-3"
     inkscape:flatsided="true"
     sodipodi:sides="6"
     sodipodi:cx="595.31805"
     sodipodi:cy="301.539"
     sodipodi:r1="52.589668"
     sodipodi:r2="45.543991"
     sodipodi:arg1="1.0471976"
     sodipodi:arg2="1.5707963"
     inkscape:rounded="0"
     inkscape:randomized="0"
     d="m 621.61289,347.08299 -52.58967,0 -26.29483,-45.54399 26.29483,-45.54399 52.58967,0 26.29483,45.54399 z"
     transform="matrix(0.12048574,0,0,0.12048574,54.133021,-4.1413037)" /><path
     sodipodi:type="star"
     style="color:#000000;display:inline;overflow:visible;fill:#000000;fill-opacity:0;stroke:#000000;stroke-width:8.91546;stroke-dasharray:none;stroke-opacity:1;stop-color:#000000"
     id="path24532-6"
     inkscape:flatsided="true"
     sodipodi:sides="6"
     sodipodi:cx="595.31805"
     sodipodi:cy="301.539"
     sodipodi:r1="52.589668"
     sodipodi:r2="45.543991"
     sodipodi:arg1="1.0471976"
     sodipodi:arg2="1.5707963"
     inkscape:rounded="0"
     inkscape:randomized="0"
     d="m 621.61289,347.08299 -52.58967,0 -26.29483,-45.54399 26.29483,-45.54399 52.58967,0 26.29483,45.54399 z"
     transform="matrix(0.12048574,0,0,0.12048574,54.158881,8.3277523)" /><path
     sodipodi:type="star"
     style="color:#000000;display:inline;overflow:visible;fill:#000000;fill-opacity:0;stroke:#000000;stroke-width:8.91546;stroke-dasharray:none;stroke-opacity:1;stop-color:#000000"
     id="path24534-0"
     inkscape:flatsided="true"
     sodipodi:sides="6"
     sodipodi:cx="595.31805"
     sodipodi:cy="301.539"
     sodipodi:r1="52.589668"
     sodipodi:r2="45.543991"
     sodipodi:arg1="1.0471976"
     sodipodi:arg2="1.5707963"
     inkscape:rounded="0"
     inkscape:randomized="0"
     d="m 621.61289,347.08299 -52.58967,0 -26.29483,-45.54399 26.29483,-45.54399 52.58967,0 26.29483,45.54399 z"
     transform="matrix(0.12048574,0,0,0.12048574,43.504521,14.582841)" /><path
     sodipodi:type="star"
     style="color:#000000;display:inline;overflow:visible;fill:#000000;fill-opacity:0;stroke:#000000;stroke-width:8.91546;stroke-dasharray:none;stroke-opacity:1;stop-color:#000000"
     id="path24536-6"
     inkscape:flatsided="true"
     sodipodi:sides="6"
     sodipodi:cx="595.31805"
     sodipodi:cy="301.539"
     sodipodi:r1="52.589668"
     sodipodi:r2="45.543991"
     sodipodi:arg1="1.0471976"
     sodipodi:arg2="1.5707963"
     inkscape:rounded="0"
     inkscape:randomized="0"
     d="m 621.61289,347.08299 -52.58967,0 -26.29483,-45.54399 26.29483,-45.54399 52.58967,0 26.29483,45.54399 z"
     transform="matrix(0.12048574,0,0,0.12048574,43.530391,27.051896)" /><path
     sodipodi:type="star"
     style="color:#000000;display:inline;overflow:visible;fill:#000000;fill-opacity:0;stroke:#000000;stroke-width:8.91546;stroke-dasharray:none;stroke-opacity:1;stop-color:#000000"
     id="path24538-2"
     inkscape:flatsided="true"
     sodipodi:sides="6"
     sodipodi:cx="595.31805"
     sodipodi:cy="301.539"
     sodipodi:r1="52.589668"
     sodipodi:r2="45.543991"
     sodipodi:arg1="1.0471976"
     sodipodi:arg2="1.5707963"
     inkscape:rounded="0"
     inkscape:randomized="0"
     d="m 621.61289,347.08299 -52.58967,0 -26.29483,-45.54399 26.29483,-45.54399 52.58967,0 26.29483,45.54399 z"
     transform="matrix(0.12048574,0,0,0.12048574,54.133021,20.856843)" /><path
     sodipodi:type="star"
     style="color:#000000;display:inline;overflow:visible;fill:#000000;fill-opacity:0;stroke:#000000;stroke-width:8.91546;stroke-dasharray:none;stroke-opacity:1;stop-color:#000000"
     id="path24540-6"
     inkscape:flatsided="true"
     sodipodi:sides="6"
     sodipodi:cx="595.31805"
     sodipodi:cy="301.539"
     sodipodi:r1="52.589668"
     sodipodi:r2="45.543991"
     sodipodi:arg1="1.0471976"
     sodipodi:arg2="1.5707963"
     inkscape:rounded="0"
     inkscape:randomized="0"
     d="m 621.61289,347.08299 -52.58967,0 -26.29483,-45.54399 26.29483,-45.54399 52.58967,0 26.29483,45.54399 z"
     transform="matrix(0.12048574,0,0,0.12048574,54.158881,33.325899)" /><path
     fill="#66757f"
     d="m 97.328707,25.301039 h -0.74572 c -0.0719,-0.303656 -0.19164,-0.588013 -0.3509,-0.845975 l 0.52768,-0.527682 c 0.17324,-0.173233 0.17324,-0.454263 0,-0.627495 l -0.31363,-0.313638 c -0.17324,-0.173232 -0.45405,-0.173232 -0.62728,0 l -0.52768,0.527682 c -0.25818,-0.159258 -0.54233,-0.278812 -0.84597,-0.350679 v -0.745718 c 0,-0.244876 -0.19875,-0.443617 -0.44363,-0.443617 h -0.44361 c -0.24487,0 -0.44362,0.198741 -0.44362,0.443617 v 0.745718 c -0.30364,0.07187 -0.58801,0.191643 -0.84597,0.350901 l -0.52746,-0.527682 c -0.17323,-0.173233 -0.45427,-0.173233 -0.62727,0 l -0.31387,0.313637 c -0.17323,0.173232 -0.17323,0.454263 -2.8e-4,0.627496 l 0.52768,0.527681 c -0.15926,0.257963 -0.27882,0.54232 -0.35068,0.845754 h -0.74572 c -0.24488,0 -0.44362,0.198739 -0.44362,0.443616 v 0.443616 c 0,0.244877 0.19874,0.443616 0.44362,0.443616 h 0.74572 c 0.0719,0.303434 0.19165,0.587792 0.3509,0.845756 l -0.52769,0.527681 c -0.173,0.173009 -0.173,0.454263 2.9e-4,0.627495 l 0.31364,0.313636 c 0.173,0.173011 0.45404,0.173011 0.62727,0 l 0.52768,-0.527682 c 0.25796,0.15948 0.54233,0.279036 0.84597,0.350901 v 0.745718 c 0,0.244877 0.19875,0.443617 0.44363,0.443617 h 0.44361 c 0.24488,0 0.44362,-0.19874 0.44362,-0.443617 v -0.745718 c 0.30343,-0.07187 0.58779,-0.191643 0.84575,-0.350901 l 0.52768,0.527682 c 0.17323,0.173233 0.45405,0.173233 0.62728,0 l 0.31363,-0.313636 c 0.17324,-0.173232 0.17324,-0.454263 0,-0.627495 l -0.52768,-0.527681 c 0.15948,-0.257964 0.27904,-0.542322 0.3509,-0.845977 h 0.74572 c 0.24488,0 0.44362,-0.19874 0.44362,-0.443616 v -0.443616 c 0,-0.244656 -0.19874,-0.443395 -0.44362,-0.443395 z m -3.54893,2.439889 c -0.97995,0 -1.77447,-0.794516 -1.77447,-1.774464 0,-0.979948 0.79452,-1.774466 1.77447,-1.774466 0.97995,0 1.77447,0.794518 1.77447,1.774466 0,0.979948 -0.79452,1.774464 -1.77447,1.774464 z"
     id="path4456"
     style="display:inline;stroke-width:0.221808" /><path
     fill="#66757f"
     d="m 97.223497,50.356154 h -0.74572 c -0.0719,-0.303655 -0.19164,-0.588012 -0.3509,-0.845975 l 0.52768,-0.527682 c 0.17324,-0.173232 0.17324,-0.454263 0,-0.627495 l -0.31363,-0.313637 c -0.17323,-0.173233 -0.45404,-0.173233 -0.62728,0 l -0.52768,0.527682 c -0.25817,-0.159259 -0.54232,-0.278813 -0.84597,-0.350679 v -0.745719 c 0,-0.244876 -0.19874,-0.443616 -0.44362,-0.443616 h -0.44361 c -0.24488,0 -0.44363,0.19874 -0.44363,0.443616 v 0.745719 c -0.30364,0.07187 -0.588,0.191642 -0.84597,0.3509 l -0.52746,-0.527681 c -0.17323,-0.173233 -0.45426,-0.173233 -0.62727,0 l -0.31386,0.313637 c -0.17323,0.173231 -0.17323,0.454262 -2.9e-4,0.627495 l 0.52768,0.527682 c -0.15925,0.257962 -0.27881,0.54232 -0.35067,0.845753 h -0.74572 c -0.24488,0 -0.44362,0.19874 -0.44362,0.443617 v 0.443615 c 0,0.244877 0.19874,0.443617 0.44362,0.443617 h 0.74572 c 0.0718,0.303434 0.19164,0.587792 0.3509,0.845755 l -0.52769,0.527682 c -0.173,0.173009 -0.173,0.454262 2.9e-4,0.627495 l 0.31363,0.313635 c 0.17301,0.173011 0.45404,0.173011 0.62727,0 l 0.52768,-0.527681 c 0.25796,0.15948 0.54233,0.279035 0.84598,0.3509 v 0.745719 c 0,0.244877 0.19874,0.443616 0.44362,0.443616 h 0.44362 c 0.24487,0 0.44361,-0.198739 0.44361,-0.443616 v -0.745719 c 0.30343,-0.07187 0.58779,-0.191642 0.84575,-0.3509 l 0.52768,0.527681 c 0.17323,0.173233 0.45405,0.173233 0.62728,0 l 0.31364,-0.313635 c 0.17323,-0.173233 0.17323,-0.454263 0,-0.627495 l -0.52768,-0.527682 c 0.15947,-0.257963 0.27903,-0.542321 0.35089,-0.845977 h 0.74572 c 0.24488,0 0.44362,-0.198739 0.44362,-0.443615 v -0.443617 c 0,-0.244655 -0.19874,-0.443395 -0.44362,-0.443395 z m -3.54892,2.43989 c -0.97995,0 -1.77447,-0.794516 -1.77447,-1.774465 0,-0.979948 0.79452,-1.774466 1.77447,-1.774466 0.97994,0 1.77447,0.794518 1.77447,1.774466 0,0.979949 -0.79453,1.774465 -1.77447,1.774465 z"
     id="path938"
     style="display:inline;stroke-width:0.221808" /><path
     fill="#66757f"
     d="m 97.223497,62.651109 h -0.74572 c -0.0719,-0.30366 -0.19164,-0.58802 -0.3509,-0.84598 l 0.52768,-0.52768 c 0.17324,-0.17323 0.17324,-0.45426 0,-0.62749 l -0.31363,-0.31364 c -0.17323,-0.17323 -0.45404,-0.17323 -0.62728,0 l -0.52768,0.52768 c -0.25817,-0.15926 -0.54232,-0.27881 -0.84597,-0.35068 v -0.74572 c 0,-0.24487 -0.19874,-0.44361 -0.44362,-0.44361 h -0.44361 c -0.24488,0 -0.44363,0.19874 -0.44363,0.44361 v 0.74572 c -0.30364,0.0719 -0.588,0.19164 -0.84597,0.3509 l -0.52746,-0.52768 c -0.17323,-0.17323 -0.45426,-0.17323 -0.62727,0 l -0.31386,0.31364 c -0.17323,0.17323 -0.17323,0.45426 -2.9e-4,0.62749 l 0.52768,0.52768 c -0.15925,0.25797 -0.27881,0.54232 -0.35067,0.84576 h -0.74572 c -0.24488,0 -0.44362,0.19874 -0.44362,0.44361 v 0.44362 c 0,0.24488 0.19874,0.44362 0.44362,0.44362 h 0.74572 c 0.0718,0.30343 0.19164,0.58779 0.3509,0.84575 l -0.52769,0.52768 c -0.173,0.17301 -0.173,0.45427 2.9e-4,0.6275 l 0.31363,0.31363 c 0.17301,0.17301 0.45404,0.17301 0.62727,0 l 0.52768,-0.52768 c 0.25796,0.15948 0.54233,0.27904 0.84598,0.3509 v 0.74572 c 0,0.24488 0.19874,0.44362 0.44362,0.44362 h 0.44362 c 0.24487,0 0.44361,-0.19874 0.44361,-0.44362 v -0.74572 c 0.30343,-0.0719 0.58779,-0.19164 0.84575,-0.3509 l 0.52768,0.52768 c 0.17323,0.17324 0.45405,0.17324 0.62728,0 l 0.31364,-0.31363 c 0.17323,-0.17323 0.17323,-0.45427 0,-0.6275 l -0.52768,-0.52768 c 0.15947,-0.25796 0.27903,-0.54232 0.35089,-0.84598 h 0.74572 c 0.24488,0 0.44362,-0.19874 0.44362,-0.44361 v -0.44362 c 0,-0.24465 -0.19874,-0.44339 -0.44362,-0.44339 z m -3.54892,2.43989 c -0.97995,0 -1.77447,-0.79452 -1.77447,-1.77447 0,-0.97995 0.79452,-1.77446 1.77447,-1.77446 0.97994,0 1.77447,0.79451 1.77447,1.77446 0,0.97995 -0.79453,1.77447 -1.77447,1.77447 z"
     id="path940"
     style="display:inline;stroke-width:0.221808" /><path
     fill="#66757f"
     d="m 107.86948,31.847564 h -0.74572 c -0.0718,-0.303655 -0.19164,-0.588013 -0.3509,-0.845975 l 0.52769,-0.527682 c 0.17323,-0.173232 0.17323,-0.454263 0,-0.627495 l -0.31364,-0.313637 c -0.17323,-0.173233 -0.45404,-0.173233 -0.62728,0 l -0.52767,0.527682 c -0.25818,-0.159259 -0.54233,-0.278813 -0.84598,-0.350679 v -0.745719 c 0,-0.244876 -0.19874,-0.443617 -0.44362,-0.443617 h -0.44361 c -0.24488,0 -0.44362,0.198741 -0.44362,0.443617 v 0.745719 c -0.30365,0.07187 -0.58802,0.191642 -0.84598,0.3509 l -0.52746,-0.527681 c -0.17323,-0.173233 -0.45426,-0.173233 -0.62727,0 l -0.31386,0.313637 c -0.17323,0.173231 -0.17323,0.454262 -2.8e-4,0.627495 l 0.52768,0.527682 c -0.15926,0.257962 -0.27882,0.542319 -0.35068,0.845753 h -0.74572 c -0.24488,0 -0.44362,0.19874 -0.44362,0.443617 v 0.443615 c 0,0.244877 0.19874,0.443617 0.44362,0.443617 h 0.74572 c 0.0718,0.303434 0.19164,0.587792 0.3509,0.845755 l -0.52769,0.527682 c -0.173,0.173008 -0.173,0.454262 2.9e-4,0.627494 l 0.31364,0.313636 c 0.173,0.173011 0.45403,0.173011 0.62727,0 l 0.52767,-0.527681 c 0.25797,0.15948 0.54233,0.279035 0.84598,0.3509 v 0.745719 c 0,0.244877 0.19874,0.443616 0.44362,0.443616 h 0.44362 c 0.24487,0 0.44361,-0.198739 0.44361,-0.443616 v -0.745719 c 0.30343,-0.07187 0.58779,-0.191642 0.84576,-0.3509 l 0.52767,0.527681 c 0.17324,0.173233 0.45405,0.173233 0.62728,0 l 0.31364,-0.313636 c 0.17323,-0.173232 0.17323,-0.454262 0,-0.627494 l -0.52768,-0.527682 c 0.15948,-0.257963 0.27903,-0.542321 0.3509,-0.845977 h 0.74571 c 0.24488,0 0.44362,-0.198739 0.44362,-0.443615 v -0.443617 c 0,-0.244655 -0.19874,-0.443395 -0.44362,-0.443395 z m -3.54892,2.439889 c -0.97995,0 -1.77448,-0.794515 -1.77448,-1.774464 0,-0.979948 0.79453,-1.774466 1.77448,-1.774466 0.97994,0 1.77446,0.794518 1.77446,1.774466 0,0.979949 -0.79452,1.774464 -1.77446,1.774464 z"
     id="path942"
     style="display:inline;stroke-width:0.221808" /><path
     fill="#66757f"
     d="m 107.77201,44.428745 h -0.74571 c -0.0719,-0.303656 -0.19164,-0.588013 -0.3509,-0.845976 l 0.52768,-0.527681 c 0.17323,-0.173233 0.17323,-0.454263 0,-0.627495 l -0.31364,-0.313638 c -0.17323,-0.173232 -0.45404,-0.173232 -0.62728,0 l -0.52767,0.527682 c -0.25818,-0.159258 -0.54233,-0.278812 -0.84598,-0.350679 V 41.54524 c 0,-0.244876 -0.19874,-0.443617 -0.44362,-0.443617 h -0.44361 c -0.24488,0 -0.44362,0.198741 -0.44362,0.443617 v 0.745718 c -0.30365,0.07187 -0.58801,0.191643 -0.84597,0.350901 l -0.52746,-0.527682 c -0.17324,-0.173233 -0.45427,-0.173233 -0.62727,0 l -0.31387,0.313637 c -0.17323,0.173231 -0.17323,0.454263 -2.8e-4,0.627495 l 0.52768,0.527682 c -0.15926,0.257963 -0.27882,0.54232 -0.35068,0.845754 h -0.74572 c -0.24488,0 -0.44362,0.198739 -0.44362,0.443616 v 0.443616 c 0,0.244877 0.19874,0.443616 0.44362,0.443616 h 0.74572 c 0.0718,0.303434 0.19164,0.587792 0.3509,0.845755 l -0.52769,0.527682 c -0.173,0.173009 -0.173,0.454262 2.9e-4,0.627495 l 0.31364,0.313636 c 0.173,0.173011 0.45403,0.173011 0.62727,0 l 0.52767,-0.527682 c 0.25797,0.15948 0.54233,0.279036 0.84598,0.350901 v 0.745718 c 0,0.244877 0.19874,0.443617 0.44362,0.443617 h 0.44362 c 0.24487,0 0.44361,-0.19874 0.44361,-0.443617 V 47.89738 c 0.30343,-0.07187 0.58779,-0.191643 0.84576,-0.350901 l 0.52767,0.527682 c 0.17324,0.173233 0.45405,0.173233 0.62728,0 l 0.31364,-0.313636 c 0.17323,-0.173233 0.17323,-0.454263 0,-0.627495 l -0.52768,-0.527682 c 0.15948,-0.257963 0.27903,-0.542321 0.3509,-0.845977 h 0.74571 c 0.24488,0 0.44362,-0.198739 0.44362,-0.443615 v -0.443617 c 0,-0.244655 -0.19874,-0.443394 -0.44362,-0.443394 z m -3.54892,2.439889 c -0.97995,0 -1.77447,-0.794516 -1.77447,-1.774465 0,-0.979947 0.79452,-1.774465 1.77447,-1.774465 0.97995,0 1.77447,0.794518 1.77447,1.774465 0,0.979949 -0.79452,1.774465 -1.77447,1.774465 z"
     id="path944"
     style="display:inline;stroke-width:0.221808" /><path
     fill="#66757f"
     d="m 107.77201,56.843359 h -0.74571 c -0.0719,-0.30365 -0.19164,-0.58801 -0.3509,-0.84597 l 0.52768,-0.527683 c 0.17323,-0.173232 0.17323,-0.454262 0,-0.627495 l -0.31364,-0.313637 c -0.17323,-0.173232 -0.45404,-0.173232 -0.62728,0 l -0.52767,0.527682 c -0.25818,-0.159259 -0.54233,-0.278813 -0.84598,-0.350679 v -0.745718 c 0,-0.244876 -0.19874,-0.443617 -0.44362,-0.443617 h -0.44361 c -0.24488,0 -0.44362,0.198741 -0.44362,0.443617 v 0.745718 c -0.30365,0.07187 -0.58801,0.191642 -0.84597,0.3509 l -0.52746,-0.527681 c -0.17324,-0.173233 -0.45427,-0.173233 -0.62727,0 l -0.31387,0.313637 c -0.17323,0.173231 -0.17323,0.454263 -2.8e-4,0.627495 l 0.52768,0.527681 c -0.15926,0.25796 -0.27882,0.54232 -0.35068,0.84575 h -0.74572 c -0.24488,0 -0.44362,0.19874 -0.44362,0.44362 v 0.44362 c 0,0.24487 0.19874,0.44361 0.44362,0.44361 h 0.74572 c 0.0718,0.30344 0.19164,0.5878 0.3509,0.84576 l -0.52769,0.52768 c -0.173,0.17301 -0.173,0.45426 2.9e-4,0.62749 l 0.31364,0.31364 c 0.173,0.17301 0.45403,0.17301 0.62727,0 l 0.52767,-0.52768 c 0.25797,0.15948 0.54233,0.27903 0.84598,0.3509 v 0.74572 c 0,0.24488 0.19874,0.44361 0.44362,0.44361 h 0.44362 c 0.24487,0 0.44361,-0.19873 0.44361,-0.44361 v -0.74572 c 0.30343,-0.0719 0.58779,-0.19164 0.84576,-0.3509 l 0.52767,0.52768 c 0.17324,0.17323 0.45405,0.17323 0.62728,0 l 0.31364,-0.31364 c 0.17323,-0.17323 0.17323,-0.45426 0,-0.62749 l -0.52768,-0.52768 c 0.15948,-0.25796 0.27903,-0.54232 0.3509,-0.84598 h 0.74571 c 0.24488,0 0.44362,-0.19874 0.44362,-0.44361 v -0.44362 c 0,-0.24466 -0.19874,-0.4434 -0.44362,-0.4434 z m -3.54892,2.43989 c -0.97995,0 -1.77447,-0.79451 -1.77447,-1.77446 0,-0.97995 0.79452,-1.774466 1.77447,-1.774466 0.97995,0 1.77447,0.794516 1.77447,1.774466 0,0.97995 -0.79452,1.77446 -1.77447,1.77446 z"
     id="path946"
     style="display:inline;stroke-width:0.221808" /><path
     fill="#66757f"
     d="m 107.77201,69.138309 h -0.74571 c -0.0719,-0.30365 -0.19164,-0.58801 -0.3509,-0.84597 l 0.52768,-0.52768 c 0.17323,-0.17323 0.17323,-0.45426 0,-0.6275 l -0.31364,-0.31363 c -0.17323,-0.17324 -0.45404,-0.17324 -0.62728,0 l -0.52767,0.52768 c -0.25818,-0.15926 -0.54233,-0.27881 -0.84598,-0.35068 v -0.74572 c 0,-0.24487 -0.19874,-0.44362 -0.44362,-0.44362 h -0.44361 c -0.24488,0 -0.44362,0.19875 -0.44362,0.44362 v 0.74572 c -0.30365,0.0719 -0.58801,0.19164 -0.84597,0.3509 l -0.52746,-0.52768 c -0.17324,-0.17323 -0.45427,-0.17323 -0.62727,0 l -0.31387,0.31364 c -0.17323,0.17323 -0.17323,0.45426 -2.8e-4,0.62749 l 0.52768,0.52768 c -0.15926,0.25797 -0.27882,0.54232 -0.35068,0.84575 h -0.74572 c -0.24488,0 -0.44362,0.19875 -0.44362,0.44362 v 0.44362 c 0,0.24487 0.19874,0.44362 0.44362,0.44362 h 0.74572 c 0.0718,0.30343 0.19164,0.58779 0.3509,0.84575 l -0.52769,0.52768 c -0.173,0.17301 -0.173,0.45427 2.9e-4,0.6275 l 0.31364,0.31363 c 0.173,0.17301 0.45403,0.17301 0.62727,0 l 0.52767,-0.52768 c 0.25797,0.15948 0.54233,0.27904 0.84598,0.3509 v 0.74572 c 0,0.24488 0.19874,0.44362 0.44362,0.44362 h 0.44362 c 0.24487,0 0.44361,-0.19874 0.44361,-0.44362 v -0.74572 c 0.30343,-0.0719 0.58779,-0.19164 0.84576,-0.3509 l 0.52767,0.52768 c 0.17324,0.17324 0.45405,0.17324 0.62728,0 l 0.31364,-0.31363 c 0.17323,-0.17323 0.17323,-0.45427 0,-0.6275 l -0.52768,-0.52768 c 0.15948,-0.25796 0.27903,-0.54232 0.3509,-0.84598 h 0.74571 c 0.24488,0 0.44362,-0.19874 0.44362,-0.44361 v -0.44362 c 0,-0.24465 -0.19874,-0.4434 -0.44362,-0.4434 z m -3.54892,2.43989 c -0.97995,0 -1.77447,-0.79451 -1.77447,-1.77446 0,-0.97995 0.79452,-1.77446 1.77447,-1.77446 0.97995,0 1.77447,0.79451 1.77447,1.77446 0,0.97995 -0.79452,1.77446 -1.77447,1.77446 z"
     id="path948"
     style="display:inline;stroke-width:0.221808" /><path
     fill="#66757f"
     d="m 119.0054,25.477913 h -0.74572 c -0.0718,-0.303656 -0.19164,-0.588013 -0.35089,-0.845975 l 0.52768,-0.527682 c 0.17323,-0.173233 0.17323,-0.454263 0,-0.627495 l -0.31364,-0.313638 c -0.17323,-0.173232 -0.45405,-0.173232 -0.62728,0 l -0.52768,0.527682 c -0.25817,-0.159258 -0.54232,-0.278812 -0.84597,-0.350679 v -0.745718 c 0,-0.244876 -0.19874,-0.443617 -0.44362,-0.443617 h -0.44361 c -0.24488,0 -0.44362,0.198741 -0.44362,0.443617 v 0.745718 c -0.30365,0.07187 -0.58801,0.191643 -0.84597,0.350901 l -0.52747,-0.527682 c -0.17323,-0.173233 -0.45426,-0.173233 -0.62727,0 l -0.31386,0.313637 c -0.17323,0.173232 -0.17323,0.454263 -2.9e-4,0.627496 l 0.52768,0.527681 c -0.15925,0.257963 -0.27881,0.54232 -0.35067,0.845754 h -0.74572 c -0.24488,0 -0.44362,0.198739 -0.44362,0.443616 v 0.443616 c 0,0.244877 0.19874,0.443616 0.44362,0.443616 h 0.74572 c 0.0718,0.303434 0.19164,0.587792 0.35089,0.845756 l -0.52768,0.527681 c -0.173,0.17301 -0.173,0.454263 2.9e-4,0.627495 l 0.31363,0.313636 c 0.17301,0.173011 0.45405,0.173011 0.62727,0 l 0.52768,-0.527682 c 0.25796,0.15948 0.54233,0.279036 0.84598,0.350901 v 0.745718 c 0,0.244877 0.19874,0.443617 0.44362,0.443617 h 0.44362 c 0.24487,0 0.44361,-0.19874 0.44361,-0.443617 v -0.745718 c 0.30343,-0.07187 0.58779,-0.191643 0.84575,-0.350901 l 0.52768,0.527682 c 0.17324,0.173233 0.45405,0.173233 0.62728,0 l 0.31364,-0.313636 c 0.17323,-0.173232 0.17323,-0.454263 0,-0.627495 l -0.52769,-0.527681 c 0.15948,-0.257964 0.27904,-0.542322 0.3509,-0.845977 h 0.74572 c 0.24488,0 0.44362,-0.19874 0.44362,-0.443616 v -0.443616 c 0,-0.244656 -0.19874,-0.443395 -0.44362,-0.443395 z m -3.54892,2.439889 c -0.97996,0 -1.77447,-0.794516 -1.77447,-1.774464 0,-0.979948 0.79451,-1.774466 1.77447,-1.774466 0.97995,0 1.77447,0.794518 1.77447,1.774466 0,0.979948 -0.79452,1.774464 -1.77447,1.774464 z"
     id="path950"
     style="display:inline;stroke-width:0.221808" /><path
     fill="#66757f"
     d="m 118.90794,38.059093 h -0.74572 c -0.0719,-0.303655 -0.19164,-0.588012 -0.3509,-0.845975 l 0.52768,-0.527682 c 0.17324,-0.173232 0.17324,-0.454262 0,-0.627495 l -0.31363,-0.313637 c -0.17323,-0.173233 -0.45405,-0.173233 -0.62728,0 l -0.52768,0.527682 c -0.25818,-0.159259 -0.54233,-0.278813 -0.84597,-0.350679 v -0.745719 c 0,-0.244875 -0.19875,-0.443616 -0.44362,-0.443616 h -0.44361 c -0.24488,0 -0.44363,0.198741 -0.44363,0.443616 v 0.745719 c -0.30364,0.07187 -0.58801,0.191642 -0.84597,0.3509 l -0.52746,-0.527681 c -0.17323,-0.173233 -0.45426,-0.173233 -0.62727,0 l -0.31386,0.313637 c -0.17324,0.173231 -0.17324,0.454263 -2.9e-4,0.627495 l 0.52768,0.527682 c -0.15926,0.257963 -0.27882,0.542319 -0.35068,0.845753 h -0.74572 c -0.24488,0 -0.44362,0.19874 -0.44362,0.443617 v 0.443615 c 0,0.244877 0.19874,0.443617 0.44362,0.443617 h 0.74572 c 0.0719,0.303434 0.19165,0.587792 0.3509,0.845755 l -0.52768,0.527682 c -0.17301,0.173009 -0.17301,0.454262 2.8e-4,0.627495 l 0.31364,0.313635 c 0.173,0.173011 0.45404,0.173011 0.62727,0 l 0.52768,-0.527681 c 0.25796,0.15948 0.54232,0.279035 0.84598,0.3509 v 0.745719 c 0,0.244877 0.19874,0.443617 0.44361,0.443617 h 0.44362 c 0.24487,0 0.44361,-0.19874 0.44361,-0.443617 v -0.745719 c 0.30343,-0.07187 0.5878,-0.191642 0.84576,-0.3509 l 0.52768,0.527681 c 0.17323,0.173233 0.45404,0.173233 0.62728,0 l 0.31363,-0.313635 c 0.17324,-0.173233 0.17324,-0.454263 0,-0.627495 l -0.52768,-0.527682 c 0.15948,-0.257963 0.27904,-0.542321 0.3509,-0.845977 h 0.74572 c 0.24487,0 0.44362,-0.198739 0.44362,-0.443615 v -0.443617 c 0,-0.244655 -0.19875,-0.443395 -0.44362,-0.443395 z m -3.54893,2.43989 c -0.97995,0 -1.77447,-0.794517 -1.77447,-1.774465 0,-0.979948 0.79452,-1.774465 1.77447,-1.774465 0.97995,0 1.77447,0.794517 1.77447,1.774465 0,0.979948 -0.79452,1.774465 -1.77447,1.774465 z"
     id="path952"
     style="display:inline;stroke-width:0.221808" /><path
     fill="#66757f"
     d="m 118.90794,50.473712 h -0.74572 c -0.0719,-0.303655 -0.19164,-0.588012 -0.3509,-0.845975 l 0.52768,-0.527682 c 0.17324,-0.173232 0.17324,-0.454263 0,-0.627495 l -0.31363,-0.313638 c -0.17323,-0.173232 -0.45405,-0.173232 -0.62728,0 l -0.52768,0.527683 c -0.25818,-0.159259 -0.54233,-0.278813 -0.84597,-0.350679 v -0.745719 c 0,-0.244876 -0.19875,-0.443617 -0.44362,-0.443617 h -0.44361 c -0.24488,0 -0.44363,0.198741 -0.44363,0.443617 v 0.745719 c -0.30364,0.07187 -0.58801,0.191642 -0.84597,0.3509 l -0.52746,-0.527681 c -0.17323,-0.173233 -0.45426,-0.173233 -0.62727,0 l -0.31386,0.313637 c -0.17324,0.173231 -0.17324,0.454262 -2.9e-4,0.627495 l 0.52768,0.527682 c -0.15926,0.257962 -0.27882,0.542319 -0.35068,0.845753 h -0.74572 c -0.24488,0 -0.44362,0.19874 -0.44362,0.443617 v 0.443615 c 0,0.244877 0.19874,0.443617 0.44362,0.443617 h 0.74572 c 0.0719,0.303434 0.19165,0.587792 0.3509,0.845754 l -0.52768,0.527683 c -0.17301,0.173009 -0.17301,0.454262 2.8e-4,0.627494 l 0.31364,0.313636 c 0.173,0.173011 0.45404,0.173011 0.62727,0 l 0.52768,-0.527681 c 0.25796,0.15948 0.54232,0.279035 0.84598,0.3509 v 0.745719 c 0,0.244877 0.19874,0.443616 0.44361,0.443616 h 0.44362 c 0.24487,0 0.44361,-0.198739 0.44361,-0.443616 v -0.745719 c 0.30343,-0.07187 0.5878,-0.191642 0.84576,-0.3509 l 0.52768,0.527681 c 0.17323,0.173233 0.45404,0.173233 0.62728,0 l 0.31363,-0.313636 c 0.17324,-0.173232 0.17324,-0.454262 0,-0.627494 l -0.52768,-0.527683 c 0.15948,-0.257962 0.27904,-0.54232 0.3509,-0.845976 h 0.74572 c 0.24487,0 0.44362,-0.198739 0.44362,-0.443615 v -0.443617 c 0,-0.244655 -0.19875,-0.443395 -0.44362,-0.443395 z m -3.54893,2.439889 c -0.97995,0 -1.77447,-0.794515 -1.77447,-1.774464 0,-0.979948 0.79452,-1.774466 1.77447,-1.774466 0.97995,0 1.77447,0.794518 1.77447,1.774466 0,0.979949 -0.79452,1.774464 -1.77447,1.774464 z"
     id="path954"
     style="display:inline;stroke-width:0.221808" /><path
     fill="#66757f"
     d="m 118.90794,62.768659 h -0.74572 c -0.0719,-0.30365 -0.19164,-0.58801 -0.3509,-0.84597 l 0.52768,-0.52768 c 0.17324,-0.17323 0.17324,-0.45426 0,-0.6275 l -0.31363,-0.31363 c -0.17323,-0.17324 -0.45405,-0.17324 -0.62728,0 l -0.52768,0.52768 c -0.25818,-0.15926 -0.54233,-0.27882 -0.84597,-0.35068 v -0.74572 c 0,-0.24488 -0.19875,-0.44362 -0.44362,-0.44362 h -0.44361 c -0.24488,0 -0.44363,0.19874 -0.44363,0.44362 v 0.74572 c -0.30364,0.0719 -0.58801,0.19164 -0.84597,0.3509 l -0.52746,-0.52768 c -0.17323,-0.17324 -0.45426,-0.17324 -0.62727,0 l -0.31386,0.31363 c -0.17324,0.17324 -0.17324,0.45427 -2.9e-4,0.6275 l 0.52768,0.52768 c -0.15926,0.25796 -0.27882,0.54232 -0.35068,0.84575 h -0.74572 c -0.24488,0 -0.44362,0.19874 -0.44362,0.44362 v 0.44362 c 0,0.24487 0.19874,0.44361 0.44362,0.44361 h 0.74572 c 0.0719,0.30344 0.19165,0.5878 0.3509,0.84576 l -0.52768,0.52768 c -0.17301,0.17301 -0.17301,0.45426 2.8e-4,0.6275 l 0.31364,0.31363 c 0.173,0.17301 0.45404,0.17301 0.62727,0 l 0.52768,-0.52768 c 0.25796,0.15948 0.54232,0.27903 0.84598,0.3509 v 0.74572 c 0,0.24488 0.19874,0.44362 0.44361,0.44362 h 0.44362 c 0.24487,0 0.44361,-0.19874 0.44361,-0.44362 v -0.74572 c 0.30343,-0.0719 0.5878,-0.19164 0.84576,-0.3509 l 0.52768,0.52768 c 0.17323,0.17323 0.45404,0.17323 0.62728,0 l 0.31363,-0.31363 c 0.17324,-0.17324 0.17324,-0.45427 0,-0.6275 l -0.52768,-0.52768 c 0.15948,-0.25796 0.27904,-0.54232 0.3509,-0.84598 h 0.74572 c 0.24487,0 0.44362,-0.19874 0.44362,-0.44361 v -0.44362 c 0,-0.24466 -0.19875,-0.4434 -0.44362,-0.4434 z m -3.54893,2.43989 c -0.97995,0 -1.77447,-0.79451 -1.77447,-1.77446 0,-0.97995 0.79452,-1.77447 1.77447,-1.77447 0.97995,0 1.77447,0.79452 1.77447,1.77447 0,0.97995 -0.79452,1.77446 -1.77447,1.77446 z"
     id="path956"
     style="display:inline;stroke-width:0.221808" /><path
     fill="#66757f"
     d="m 129.4474,31.486966 h -0.74572 c -0.0718,-0.303655 -0.19164,-0.588012 -0.3509,-0.845975 l 0.52768,-0.527682 c 0.17324,-0.173232 0.17324,-0.454263 0,-0.627495 l -0.31363,-0.313637 c -0.17324,-0.173233 -0.45405,-0.173233 -0.62728,0 l -0.52768,0.527682 c -0.25818,-0.159259 -0.54233,-0.278813 -0.84598,-0.350679 v -0.745719 c 0,-0.244876 -0.19874,-0.443616 -0.44362,-0.443616 h -0.44361 c -0.24487,0 -0.44362,0.19874 -0.44362,0.443616 v 0.745719 c -0.30365,0.07187 -0.58801,0.191642 -0.84597,0.3509 l -0.52746,-0.527681 c -0.17323,-0.173233 -0.45427,-0.173233 -0.62727,0 l -0.31387,0.313637 c -0.17323,0.173231 -0.17323,0.454262 -2.8e-4,0.627495 l 0.52768,0.527682 c -0.15926,0.257962 -0.27882,0.54232 -0.35068,0.845753 h -0.74572 c -0.24488,0 -0.44362,0.19874 -0.44362,0.443617 v 0.443615 c 0,0.244877 0.19874,0.443617 0.44362,0.443617 h 0.74572 c 0.0719,0.303434 0.19165,0.587792 0.3509,0.845755 l -0.52769,0.527682 c -0.173,0.173009 -0.173,0.454262 2.9e-4,0.627495 l 0.31364,0.313635 c 0.173,0.173011 0.45403,0.173011 0.62727,0 l 0.52768,-0.527681 c 0.25796,0.15948 0.54232,0.279035 0.84597,0.3509 v 0.745719 c 0,0.244877 0.19875,0.443616 0.44362,0.443616 h 0.44362 c 0.24487,0 0.44361,-0.198739 0.44361,-0.443616 v -0.745719 c 0.30343,-0.07187 0.5878,-0.191642 0.84576,-0.3509 l 0.52768,0.527681 c 0.17323,0.173233 0.45404,0.173233 0.62728,0 l 0.31363,-0.313635 c 0.17323,-0.173233 0.17323,-0.454263 0,-0.627495 l -0.52768,-0.527682 c 0.15948,-0.257963 0.27903,-0.542321 0.3509,-0.845977 h 0.74571 c 0.24488,0 0.44363,-0.198739 0.44363,-0.443615 v -0.443617 c 0,-0.244655 -0.19875,-0.443395 -0.44363,-0.443395 z m -3.54893,2.43989 c -0.97995,0 -1.77447,-0.794516 -1.77447,-1.774465 0,-0.979948 0.79452,-1.774466 1.77447,-1.774466 0.97995,0 1.77447,0.794518 1.77447,1.774466 0,0.979949 -0.79452,1.774465 -1.77447,1.774465 z"
     id="path958"
     style="display:inline;stroke-width:0.221808" /><path
     fill="#66757f"
     d="m 129.34993,44.068147 h -0.74572 c -0.0719,-0.303656 -0.19164,-0.588013 -0.3509,-0.845976 l 0.52768,-0.527681 c 0.17324,-0.173233 0.17324,-0.454263 0,-0.627495 l -0.31363,-0.313638 c -0.17324,-0.173232 -0.45405,-0.173232 -0.62728,0 l -0.52768,0.527682 c -0.25818,-0.159258 -0.54233,-0.278812 -0.84598,-0.350679 v -0.745718 c 0,-0.244876 -0.19874,-0.443617 -0.44362,-0.443617 h -0.44361 c -0.24488,0 -0.44362,0.198741 -0.44362,0.443617 v 0.745718 c -0.30365,0.07187 -0.58801,0.191643 -0.84597,0.350901 l -0.52746,-0.527682 c -0.17323,-0.173233 -0.45427,-0.173233 -0.62727,0 l -0.31387,0.313637 c -0.17323,0.173232 -0.17323,0.454263 -2.8e-4,0.627496 l 0.52768,0.527681 c -0.15926,0.257963 -0.27882,0.54232 -0.35068,0.845754 H 122.252 c -0.24488,0 -0.44362,0.198739 -0.44362,0.443616 v 0.443616 c 0,0.244877 0.19874,0.443616 0.44362,0.443616 h 0.74572 c 0.0719,0.303434 0.19165,0.587792 0.3509,0.845755 l -0.52769,0.527682 c -0.173,0.173009 -0.173,0.454263 2.9e-4,0.627495 l 0.31364,0.313636 c 0.173,0.173011 0.45403,0.173011 0.62727,0 l 0.52768,-0.527682 c 0.25796,0.159481 0.54232,0.279036 0.84597,0.350901 V 48.2825 c 0,0.244877 0.19875,0.443617 0.44362,0.443617 h 0.44362 c 0.24487,0 0.44361,-0.19874 0.44361,-0.443617 v -0.745718 c 0.30343,-0.07187 0.5878,-0.191642 0.84576,-0.350901 l 0.52768,0.527682 c 0.17323,0.173233 0.45404,0.173233 0.62728,0 l 0.31363,-0.313636 c 0.17323,-0.173232 0.17323,-0.454263 0,-0.627495 L 128.2533,46.24475 c 0.15948,-0.257963 0.27903,-0.542321 0.3509,-0.845976 h 0.74571 c 0.24488,0 0.44363,-0.19874 0.44363,-0.443615 v -0.443617 c 0,-0.244656 -0.19875,-0.443395 -0.44363,-0.443395 z m -3.54893,2.439889 c -0.97995,0 -1.77447,-0.794516 -1.77447,-1.774464 0,-0.979948 0.79452,-1.774466 1.77447,-1.774466 0.97995,0 1.77447,0.794518 1.77447,1.774466 0,0.979948 -0.79452,1.774464 -1.77447,1.774464 z"
     id="path960"
     style="display:inline;stroke-width:0.221808" /><path
     fill="#66757f"
     d="m 129.34993,56.482769 h -0.74572 c -0.0719,-0.30366 -0.19164,-0.58802 -0.3509,-0.845978 l 0.52768,-0.527683 c 0.17324,-0.173232 0.17324,-0.454262 0,-0.627494 l -0.31363,-0.313638 c -0.17324,-0.173232 -0.45405,-0.173232 -0.62728,0 l -0.52768,0.527682 c -0.25818,-0.159259 -0.54233,-0.278812 -0.84598,-0.350679 v -0.745718 c 0,-0.244876 -0.19874,-0.443617 -0.44362,-0.443617 h -0.44361 c -0.24488,0 -0.44362,0.198741 -0.44362,0.443617 v 0.745718 c -0.30365,0.07187 -0.58801,0.191642 -0.84597,0.350901 l -0.52746,-0.527682 c -0.17323,-0.173232 -0.45427,-0.173232 -0.62727,0 l -0.31387,0.313637 c -0.17323,0.173232 -0.17323,0.454263 -2.8e-4,0.627496 l 0.52768,0.527681 c -0.15926,0.257967 -0.27882,0.542317 -0.35068,0.845757 H 122.252 c -0.24488,0 -0.44362,0.19874 -0.44362,0.44361 v 0.44362 c 0,0.24488 0.19874,0.44362 0.44362,0.44362 h 0.74572 c 0.0719,0.30343 0.19165,0.58779 0.3509,0.84575 l -0.52769,0.52768 c -0.173,0.17301 -0.173,0.45426 2.9e-4,0.6275 l 0.31364,0.31363 c 0.173,0.17301 0.45403,0.17301 0.62727,0 l 0.52768,-0.52768 c 0.25796,0.15948 0.54232,0.27904 0.84597,0.3509 v 0.74572 c 0,0.24488 0.19875,0.44362 0.44362,0.44362 h 0.44362 c 0.24487,0 0.44361,-0.19874 0.44361,-0.44362 v -0.74572 c 0.30343,-0.0719 0.5878,-0.19164 0.84576,-0.3509 l 0.52768,0.52768 c 0.17323,0.17324 0.45404,0.17324 0.62728,0 l 0.31363,-0.31363 c 0.17323,-0.17324 0.17323,-0.45427 0,-0.6275 l -0.52768,-0.52768 c 0.15948,-0.25796 0.27903,-0.54232 0.3509,-0.84598 h 0.74571 c 0.24488,0 0.44363,-0.19874 0.44363,-0.44361 v -0.44362 c 0,-0.24465 -0.19875,-0.44339 -0.44363,-0.44339 z m -3.54893,2.43989 c -0.97995,0 -1.77447,-0.79452 -1.77447,-1.77447 0,-0.97995 0.79452,-1.774464 1.77447,-1.774464 0.97995,0 1.77447,0.794514 1.77447,1.774464 0,0.97995 -0.79452,1.77447 -1.77447,1.77447 z"
     id="path962"
     style="display:inline;stroke-width:0.221808" /><path
     fill="#66757f"
     d="m 129.34993,68.777719 h -0.74572 c -0.0719,-0.30366 -0.19164,-0.58801 -0.3509,-0.84598 l 0.52768,-0.52768 c 0.17324,-0.17323 0.17324,-0.45426 0,-0.62749 l -0.31363,-0.31364 c -0.17324,-0.17323 -0.45405,-0.17323 -0.62728,0 l -0.52768,0.52768 c -0.25818,-0.15926 -0.54233,-0.27881 -0.84598,-0.35068 v -0.74572 c 0,-0.24487 -0.19874,-0.44361 -0.44362,-0.44361 h -0.44361 c -0.24488,0 -0.44362,0.19874 -0.44362,0.44361 v 0.74572 c -0.30365,0.0719 -0.58801,0.19164 -0.84597,0.3509 l -0.52746,-0.52768 c -0.17323,-0.17323 -0.45427,-0.17323 -0.62727,0 l -0.31387,0.31364 c -0.17323,0.17323 -0.17323,0.45426 -2.8e-4,0.62749 l 0.52768,0.52769 c -0.15926,0.25796 -0.27882,0.54231 -0.35068,0.84575 H 122.252 c -0.24488,0 -0.44362,0.19874 -0.44362,0.44361 v 0.44362 c 0,0.24488 0.19874,0.44361 0.44362,0.44361 h 0.74572 c 0.0719,0.30344 0.19165,0.5878 0.3509,0.84576 l -0.52769,0.52769 c -0.173,0.17301 -0.173,0.45425 2.9e-4,0.62749 l 0.31364,0.31363 c 0.173,0.17301 0.45403,0.17301 0.62727,0 l 0.52768,-0.52768 c 0.25796,0.15948 0.54232,0.27904 0.84597,0.3509 v 0.74572 c 0,0.24488 0.19875,0.44362 0.44362,0.44362 h 0.44362 c 0.24487,0 0.44361,-0.19874 0.44361,-0.44362 v -0.74572 c 0.30343,-0.0719 0.5878,-0.19164 0.84576,-0.3509 l 0.52768,0.52768 c 0.17323,0.17324 0.45404,0.17324 0.62728,0 l 0.31363,-0.31363 c 0.17323,-0.17324 0.17323,-0.45426 0,-0.62749 l -0.52768,-0.52769 c 0.15948,-0.25796 0.27903,-0.54232 0.3509,-0.84598 h 0.74571 c 0.24488,0 0.44363,-0.19873 0.44363,-0.44361 v -0.44362 c 0,-0.24465 -0.19875,-0.44339 -0.44363,-0.44339 z m -3.54893,2.43989 c -0.97995,0 -1.77447,-0.79452 -1.77447,-1.77447 0,-0.97994 0.79452,-1.77446 1.77447,-1.77446 0.97995,0 1.77447,0.79452 1.77447,1.77446 0,0.97995 -0.79452,1.77447 -1.77447,1.77447 z"
     id="path964"
     style="display:inline;stroke-width:0.221808" /><path
     fill="#66757f"
     d="m 97.352717,37.667944 h -0.74572 c -0.0718,-0.303655 -0.19164,-0.588013 -0.3509,-0.845975 l 0.52769,-0.527682 c 0.17323,-0.173232 0.17323,-0.454263 0,-0.627495 l -0.31364,-0.313637 c -0.17323,-0.173233 -0.45404,-0.173233 -0.62728,0 l -0.52767,0.527682 c -0.25818,-0.159259 -0.54233,-0.278813 -0.84598,-0.350679 v -0.745719 c 0,-0.244876 -0.19874,-0.443617 -0.44362,-0.443617 h -0.44361 c -0.24488,0 -0.44362,0.198741 -0.44362,0.443617 v 0.745719 c -0.30365,0.07187 -0.58802,0.191642 -0.84598,0.3509 l -0.52746,-0.527681 c -0.17323,-0.173233 -0.45426,-0.173233 -0.62727,0 l -0.31386,0.313637 c -0.17323,0.173231 -0.17323,0.454262 -2.8e-4,0.627495 l 0.52768,0.527682 c -0.15926,0.257962 -0.27882,0.542319 -0.35068,0.845753 h -0.74572 c -0.24488,0 -0.44362,0.19874 -0.44362,0.443617 v 0.443615 c 0,0.244877 0.19874,0.443617 0.44362,0.443617 h 0.74572 c 0.0718,0.303434 0.19164,0.587792 0.3509,0.845755 l -0.52769,0.527682 c -0.173,0.173008 -0.173,0.454262 2.9e-4,0.627494 l 0.31364,0.313636 c 0.173,0.173011 0.45403,0.173011 0.62727,0 l 0.52767,-0.527681 c 0.25797,0.15948 0.54233,0.279035 0.84598,0.3509 v 0.745719 c 0,0.244877 0.19874,0.443616 0.44362,0.443616 h 0.44362 c 0.24487,0 0.44361,-0.198739 0.44361,-0.443616 v -0.745719 c 0.30343,-0.07187 0.58779,-0.191642 0.84576,-0.3509 l 0.52767,0.527681 c 0.17324,0.173233 0.45405,0.173233 0.62728,0 l 0.31364,-0.313636 c 0.17323,-0.173232 0.17323,-0.454262 0,-0.627494 l -0.52768,-0.527682 c 0.15948,-0.257963 0.27903,-0.542321 0.3509,-0.845977 h 0.74571 c 0.24488,0 0.44362,-0.198739 0.44362,-0.443615 v -0.443617 c 0,-0.244655 -0.19874,-0.443395 -0.44362,-0.443395 z m -3.54892,2.439889 c -0.97995,0 -1.77448,-0.794515 -1.77448,-1.774464 0,-0.979948 0.79453,-1.774466 1.77448,-1.774466 0.97994,0 1.77446,0.794518 1.77446,1.774466 0,0.979949 -0.79452,1.774464 -1.77446,1.774464 z"
     id="path19987"
     style="display:inline;stroke-width:0.221808" /><text
     xml:space="preserve"
     style="font-style:normal;font-variant:normal;font-weight:normal;font-stretch:normal;font-size:7.40833px;line-height:125%;font-family:Raleway-v4020;-inkscape-font-specification:Raleway-v4020;letter-spacing:0px;word-spacing:0px;fill:#000000;fill-opacity:1;stroke:none;stroke-width:0.264583px;stroke-linecap:butt;stroke-linejoin:miter;stroke-opacity:1"
     x="53.104492"
     y="11.112495"
     id="text19991"><tspan
       sodipodi:role="line"
       id="tspan19989"
       style="stroke-width:0.264583px"
       x="53.104492"
       y="11.112495">mpirun -np 16 my_computation</tspan></text></svg>
