<?xml version="1.0" encoding="UTF-8" standalone="no"?>
<!-- Created with Inkscape (http://www.inkscape.org/) -->

<svg
   width="227.78442mm"
   height="189.1935mm"
   viewBox="0 0 227.78442 189.19351"
   version="1.1"
   id="svg138"
   inkscape:version="1.2 (1:1.2.1+202207142221+cd75a1ee6d)"
   sodipodi:docname="pbs.svg"
   xml:space="preserve"
   xmlns:inkscape="http://www.inkscape.org/namespaces/inkscape"
   xmlns:sodipodi="http://sodipodi.sourceforge.net/DTD/sodipodi-0.dtd"
   xmlns="http://www.w3.org/2000/svg"
   xmlns:svg="http://www.w3.org/2000/svg"><sodipodi:namedview
     id="namedview140"
     pagecolor="#ffffff"
     bordercolor="#666666"
     borderopacity="1.0"
     inkscape:showpageshadow="2"
     inkscape:pageopacity="0.0"
     inkscape:pagecheckerboard="0"
     inkscape:deskcolor="#d1d1d1"
     inkscape:document-units="mm"
     showgrid="false"
     inkscape:zoom="1.1893044"
     inkscape:cx="511.2232"
     inkscape:cy="341.37602"
     inkscape:window-width="1600"
     inkscape:window-height="1129"
     inkscape:window-x="0"
     inkscape:window-y="34"
     inkscape:window-maximized="1"
     inkscape:current-layer="layer9" /><defs
     id="defs135"><marker
       style="overflow:visible"
       id="marker2967"
       refX="0"
       refY="0"
       orient="auto-start-reverse"
       inkscape:stockid="TriangleStart"
       markerWidth="5.5385952"
       markerHeight="6.4029999"
       viewBox="0 0 5.3244081 6.1553851"
       inkscape:isstock="true"
       inkscape:collect="always"
       preserveAspectRatio="xMidYMid"><path
         transform="scale(0.5)"
         style="fill:context-stroke;fill-rule:evenodd;stroke:context-stroke;stroke-width:1pt"
         d="M 5.77,0 -2.88,5 V -5 Z"
         id="path2965" /></marker><marker
       style="overflow:visible"
       id="marker2967-1"
       refX="0"
       refY="0"
       orient="auto-start-reverse"
       inkscape:stockid="TriangleStart"
       markerWidth="5.5385952"
       markerHeight="6.4029999"
       viewBox="0 0 5.3244081 6.1553851"
       inkscape:isstock="true"
       inkscape:collect="always"
       preserveAspectRatio="xMidYMid"><path
         transform="scale(0.5)"
         style="fill:context-stroke;fill-rule:evenodd;stroke:context-stroke;stroke-width:1pt"
         d="M 5.77,0 -2.88,5 V -5 Z"
         id="path2965-8" /></marker><marker
       style="overflow:visible"
       id="marker2967-1-7"
       refX="0"
       refY="0"
       orient="auto-start-reverse"
       inkscape:stockid="TriangleStart"
       markerWidth="5.5385952"
       markerHeight="6.4029999"
       viewBox="0 0 5.3244081 6.1553851"
       inkscape:isstock="true"
       inkscape:collect="always"
       preserveAspectRatio="xMidYMid"><path
         transform="scale(0.5)"
         style="fill:context-stroke;fill-rule:evenodd;stroke:context-stroke;stroke-width:1pt"
         d="M 5.77,0 -2.88,5 V -5 Z"
         id="path2965-8-8" /></marker></defs><g
     inkscape:label="Layer 1"
     inkscape:groupmode="layer"
     id="layer1"
     transform="translate(4.6156328,12.183487)"
     style="display:inline"><path
       fill="#abdfff"
       d="m 17.177641,37.719252 c -4.118126,5.501377 -5.128232,11.451788 -2.256022,13.290399 2.872206,1.838611 8.538922,-1.131175 12.65614,-6.63255 4.11812,-5.501376 2.486416,-15.3856 2.256031,-15.026009 -1.605519,2.506291 -8.53802,2.866786 -12.656149,8.36816 z"
       id="path225"
       style="stroke-width:0.903493" /><path
       fill="#abdfff"
       d="m 12.195777,37.719252 c 4.118126,5.501377 5.128232,11.451788 2.256927,13.290399 -2.87221,1.838611 -8.5389223,-1.131175 -12.6570485,-6.63255 -4.1181271,-5.501376 -2.5659245,-15.33139 -2.2560266,-15.026009 3.3908151,3.342023 8.5389216,2.866786 12.6561481,8.36816 z"
       id="path227"
       style="stroke-width:0.903493" /><path
       fill="#55acee"
       d="m 2.5672391,35.511114 c 0.8673533,1.449204 1.4329404,2.843297 3.8407527,5.112873 0.9306005,0.877292 0.8501885,2.028343 -0.1617241,1.263085 C 3.8393599,40.066531 2.355826,37.169929 1.8661295,35.320476 1.5209976,34.018542 2.1299556,34.78109 2.5672413,35.511113 Z m 24.2172549,0 c -0.867359,1.449204 -1.432943,2.843297 -3.840751,5.112873 -0.930603,0.877292 -0.850187,2.028343 0.161722,1.263085 2.40691,-1.820541 3.890445,-4.717143 4.380136,-6.566596 0.345141,-1.301934 -0.263825,-0.539386 -0.701107,0.190638 z"
       id="path229"
       style="stroke-width:0.903493" /><path
       fill="#ffdc5d"
       d="m 26.421283,51.928503 v -3.162228 c 0,-2.994179 -3.329367,-4.969217 -6.324454,-4.969217 H 9.2549025 c -2.9932784,0 -6.3244585,1.975038 -6.3244585,4.969217 v 3.162228 z"
       id="path231"
       style="stroke-width:0.903493" /><path
       fill="#ffac33"
       d="m 14.626175,22.175542 c 3.708842,0 9.890547,3.661862 9.890547,11.697537 0,8.037483 0,9.891453 -1.854868,9.891453 -1.854875,0 -4.327739,-1.854873 -8.036584,-1.854873 -3.70884,0 -6.1302075,1.854873 -8.0365777,1.854873 -2.0662935,0 -1.8548745,-7.418589 -1.8548745,-9.891453 9.694e-4,-8.035675 6.1835132,-11.697537 9.8923572,-11.697537"
       id="path233"
       style="stroke-width:0.903493" /><path
       fill="#ffdc5d"
       d="m 11.358237,43.813321 c 1.324521,0.962221 2.677955,0.885424 3.317631,0.885424 0.639673,0 1.982266,0.0768 3.306788,-0.885424 v -2.893892 h -6.624419 z"
       id="path235"
       style="stroke-width:0.903493" /><path
       fill="#f9ca55"
       d="m 11.352814,42.151795 c 0.923374,1.043536 2.069003,1.326329 3.314018,1.326329 1.24592,0 2.391548,-0.281889 3.315824,-1.326329 v -2.652659 h -6.629842 z"
       id="path237"
       style="stroke-width:0.903493" /><path
       fill="#ffdc5d"
       d="m 7.2075833,33.603837 c 0,-5.270984 3.3212437,-11.351498 7.4185917,-11.351498 4.095541,0 7.41678,6.079611 7.41678,11.351498 0,5.270081 -3.321239,9.292437 -7.41678,9.292437 -4.097348,0 -7.4185917,-4.022356 -7.4185917,-9.292437"
       id="path239"
       style="stroke-width:0.903493" /><path
       fill="#df1f32"
       d="m 14.626175,40.67368 c -1.451012,0 -2.210852,-0.717375 -2.292164,-0.799592 -0.242143,-0.241235 -0.242143,-0.632447 0,-0.87368 0.240331,-0.239428 0.625219,-0.241234 0.868258,-0.0063 0.03176,0.02893 0.497824,0.443615 1.423906,0.443615 0.937825,0 1.404933,-0.427352 1.423906,-0.444519 0.24665,-0.231293 0.635155,-0.224067 0.870065,0.01806 0.234903,0.24304 0.234903,0.624315 -0.0037,0.862836 -0.08042,0.08222 -0.839346,0.799593 -2.290359,0.799593"
       id="path241"
       style="stroke-width:0.903493" /><path
       fill="#ffac33"
       d="M 5.392464,36.569106 C 5.373345,35.665612 5.352719,36.366721 5.352719,36.14898 c 0,-3.091757 1.8548713,0.446327 1.8548713,-1.755488 0,-2.203622 1.2359802,-2.424075 2.4719602,-3.660054 0.6188945,-0.618894 1.8548745,-1.830479 1.8548745,-1.830479 0,0 3.090852,1.867522 5.563716,1.867522 2.471959,0 4.945726,1.242304 4.945726,3.715166 0,2.471961 1.854876,-1.431133 1.854876,1.659721 0,0.22045 -0.02081,-0.479756 -0.03614,0.423738 h 0.649614 c 0.0054,-1.806988 0.0054,-1.738323 0.0054,-2.892989 0,-8.036579 -4.420793,-11.500575 -9.891447,-11.500575 -5.3712725,0 -9.8914523,3.414303 -9.8914523,11.450883 0,0.716471 -0.018098,1.135693 0.00723,2.942681 z"
       id="path243"
       style="stroke-width:0.903493" /><path
       fill="#ffdc5d"
       d="m 21.903818,32.95513 -0.42464,0.116549 c 0,0 -1.076968,3.072783 0,3.611266 2.406909,1.20255 3.135124,-3.427857 3.135124,-4.63131 0,-0.903494 -2.710484,0.903494 -2.710484,0.903495 z m -14.4559047,0 0.4246422,0.116549 c 0,0 1.076966,3.072783 0,3.611266 -2.4069091,1.20255 -3.1351249,-3.427857 -3.1351249,-4.63131 0,-0.903494 2.7104827,0.903494 2.7104827,0.903495 z"
       id="path245"
       style="stroke-width:0.903493" /><path
       fill="#662113"
       d="m 11.611213,35.563517 c -0.420123,0 -0.764353,-0.344231 -0.764353,-0.76526 v -0.763453 c 0,-0.420124 0.34423,-0.764356 0.764353,-0.764356 0.42103,0 0.76526,0.344232 0.76526,0.764356 v 0.763453 c 0,0.421029 -0.34423,0.76526 -0.76526,0.76526 m 6.112141,0 c -0.420127,0 -0.764358,-0.344231 -0.764358,-0.76526 v -0.763453 c 0,-0.420124 0.344231,-0.764356 0.764358,-0.764356 0.420123,0 0.764354,0.344232 0.764354,0.764356 v 0.763453 c 0,0.421029 -0.344231,0.76526 -0.764354,0.76526"
       id="path247"
       style="stroke-width:0.903493" /><path
       fill="#c1694f"
       d="m 15.431189,37.924347 h -1.526905 c -0.210522,0 -0.382179,-0.171665 -0.382179,-0.382178 v -0.138235 c 0,-0.210514 0.170773,-0.383082 0.382179,-0.383082 h 1.526905 c 0.210521,0 0.38308,0.171665 0.38308,0.383082 v 0.138235 c 0,0.210514 -0.172548,0.382178 -0.38308,0.382178"
       id="path249"
       style="stroke-width:0.903493" /><path
       fill="#77b255"
       d="M 6.5444193,51.928503 H 22.807313 v -4.517469 l -2.258737,1.806989 -1.806989,-1.806989 -2.004849,1.806989 -2.06087,-1.806989 -2.018407,1.806989 -2.032862,-1.806989 -1.8214455,1.806989 -2.2587342,-1.806989 z"
       id="path251"
       style="stroke-width:0.903493" /></g><g
     inkscape:groupmode="layer"
     id="layer4"
     inkscape:label="Layer 2"
     transform="translate(39.844179,32.549404)"
     style="display:inline" /><g
     inkscape:groupmode="layer"
     id="layer2"
     inkscape:label="Layer 2"
     transform="translate(4.6156328,12.183487)"><path
       fill="#ccd6dd"
       d="M 63.660328,45.661392 C 63.306123,44.843413 62.899259,43.95578 61.961509,43.95578 H 61.1121 c 0.937742,0 1.698811,-0.763615 1.698811,-1.70561 V 27.749084 c 0,-0.941994 -0.761069,-1.705609 -1.698811,-1.705609 H 39.027502 c -0.937742,0 -1.698819,0.763615 -1.698819,1.705609 V 42.25017 c 0,0.941995 0.761077,1.70561 1.698819,1.70561 h -0.849409 c -0.937743,0 -1.415968,0.852807 -1.698819,1.705612 l -1.698804,4.157849 c 0,0.94284 0.761062,1.70646 1.698804,1.70646 h 27.181054 c 0.937742,0 1.698811,-0.76362 1.698811,-1.705609 z"
       id="path2"
       style="stroke-width:0.849402" /><path
       fill="#9aaab4"
       d="m 34.787256,49.890591 0.0045,0.04841 0.144401,0.58779 c 0.268414,0.587792 0.856202,0.998904 1.542524,0.998904 h 27.181047 c 0.913955,0 1.653794,-0.726244 1.692018,-1.635109 z"
       id="path4"
       style="stroke-width:0.849402" /><path
       fill="#5dadec"
       d="m 61.1121,41.396517 c 0,0.471419 -0.379684,0.852803 -0.849402,0.852803 H 39.876911 c -0.468874,0 -0.849409,-0.381384 -0.849409,-0.852803 V 28.60274 c 0,-0.471421 0.380535,-0.852806 0.849409,-0.852806 h 20.385787 c 0.469718,0 0.849402,0.382232 0.849402,0.852806 z"
       id="path6"
       style="fill:#808080;stroke-width:0.849402" /><path
       fill="#aebbc1"
       d="M 62.731071,47.31434 62.085515,45.466877 C 61.882512,45.07615 61.546144,44.755923 61.076427,44.755923 H 39.120943 c -0.468875,0 -0.76957,0.346559 -0.981924,0.879985 l -0.584388,1.679279 c -0.186002,0.506248 0.380527,0.852806 0.849402,0.852806 h 6.43682 c 0,0 0.795892,-0.03994 0.936892,-0.516441 0.163087,-0.550417 0.352505,-1.379437 0.393271,-1.525534 0.06286,-0.224244 0.329575,-0.451036 0.727088,-0.451036 h 7.286229 c 0.424701,0 0.633648,0.214902 0.688865,0.480764 0.03564,0.173295 0.265021,0.969175 0.372041,1.513646 0.09429,0.485011 1.037127,0.497751 1.037127,0.497751 h 5.600989 c 0.468032,0 1.033741,-0.40007 0.847716,-0.852803 z"
       id="path8"
       style="stroke-width:0.849402" /><path
       fill="#9aaab4"
       d="m 53.785955,49.073462 h -6.609236 c -0.318538,0 -0.456981,-0.291341 -0.411114,-0.573351 0.04593,-0.281163 0.304915,-1.522989 0.325331,-1.667387 0.01954,-0.145237 0.232742,-0.318532 0.445081,-0.318532 h 5.958594 c 0.25227,0 0.416215,0.138463 0.467175,0.41536 0.05004,0.27776 0.256505,1.39388 0.272649,1.648702 0.01603,0.255673 -0.143565,0.495204 -0.44848,0.495204 z"
       id="path10"
       style="stroke-width:0.849402"
       inkscape:label="path10" /></g><g
     inkscape:groupmode="layer"
     id="layer3"
     inkscape:label="Layer 3"
     transform="translate(4.6156328,12.183487)"><path
       fill="#5dadec"
       d="m 221.90649,171.41625 c 0,3.09214 -2.49047,5.59376 -5.57153,5.59376 l -215.37905377,0 c -3.07548403,0 -5.57153903,-2.50162 -5.57153903,-5.59376 V 87.497959 c 0,-3.0922 2.496055,-5.593811 5.57153903,-5.593811 l 215.37905377,0 c 3.08106,0 5.57153,2.507168 5.57153,5.593811 z"
       id="path6-3"
       style="fill:#333333;stroke-width:5.57152"
       sodipodi:nodetypes="sssssssss" /><path
       sodipodi:type="star"
       style="color:#000000;display:inline;overflow:visible;fill:none;stroke:#038bb4;stroke-width:8.91546;stroke-dasharray:none;stroke-opacity:1;stop-color:#000000"
       id="path16762"
       inkscape:flatsided="true"
       sodipodi:sides="6"
       sodipodi:cx="595.31805"
       sodipodi:cy="301.539"
       sodipodi:r1="52.589668"
       sodipodi:r2="45.543991"
       sodipodi:arg1="1.0471976"
       sodipodi:arg2="1.5707963"
       inkscape:rounded="0"
       inkscape:randomized="0"
       d="m 621.61289,347.08299 -52.58967,0 -26.29483,-45.54399 26.29483,-45.54399 52.58967,0 26.29483,45.54399 z"
       transform="matrix(0.08951848,0,0,0.08951848,64.615298,-2.8972678)" /><path
       sodipodi:type="star"
       style="color:#000000;display:inline;overflow:visible;fill:none;stroke:#038bb4;stroke-width:8.91546;stroke-dasharray:none;stroke-opacity:1;stop-color:#000000"
       id="path16762-3"
       inkscape:flatsided="true"
       sodipodi:sides="6"
       sodipodi:cx="595.31805"
       sodipodi:cy="301.539"
       sodipodi:r1="52.589668"
       sodipodi:r2="45.543991"
       sodipodi:arg1="1.0471976"
       sodipodi:arg2="1.5707963"
       inkscape:rounded="0"
       inkscape:randomized="0"
       d="m 621.61289,347.08299 -52.58967,0 -26.29483,-45.54399 26.29483,-45.54399 52.58967,0 26.29483,45.54399 z"
       transform="matrix(0.08951848,0,0,0.08951848,64.634516,6.3669915)" /><path
       sodipodi:type="star"
       style="color:#000000;display:inline;overflow:visible;fill:none;stroke:#038bb4;stroke-width:8.91546;stroke-dasharray:none;stroke-opacity:1;stop-color:#000000"
       id="path16762-2"
       inkscape:flatsided="true"
       sodipodi:sides="6"
       sodipodi:cx="595.31805"
       sodipodi:cy="301.539"
       sodipodi:r1="52.589668"
       sodipodi:r2="45.543991"
       sodipodi:arg1="1.0471976"
       sodipodi:arg2="1.5707963"
       inkscape:rounded="0"
       inkscape:randomized="0"
       d="m 621.61289,347.08299 -52.58967,0 -26.29483,-45.54399 26.29483,-45.54399 52.58967,0 26.29483,45.54399 z"
       transform="matrix(0.08951848,0,0,0.08951848,72.51206,1.7641913)" /><path
       sodipodi:type="star"
       style="color:#000000;display:inline;overflow:visible;fill:none;stroke:#038bb4;stroke-width:8.91546;stroke-dasharray:none;stroke-opacity:1;stop-color:#000000"
       id="path16762-3-8"
       inkscape:flatsided="true"
       sodipodi:sides="6"
       sodipodi:cx="595.31805"
       sodipodi:cy="301.539"
       sodipodi:r1="52.589668"
       sodipodi:r2="45.543991"
       sodipodi:arg1="1.0471976"
       sodipodi:arg2="1.5707963"
       inkscape:rounded="0"
       inkscape:randomized="0"
       d="m 621.61289,347.08299 -52.58967,0 -26.29483,-45.54399 26.29483,-45.54399 52.58967,0 26.29483,45.54399 z"
       transform="matrix(0.08951848,0,0,0.08951848,72.531279,11.02845)" /><path
       sodipodi:type="star"
       style="color:#000000;display:inline;overflow:visible;fill:#000000;fill-opacity:0;stroke:#000000;stroke-width:8.91546;stroke-dasharray:none;stroke-opacity:1;stop-color:#000000"
       id="path16762-36"
       inkscape:flatsided="true"
       sodipodi:sides="6"
       sodipodi:cx="595.31805"
       sodipodi:cy="301.539"
       sodipodi:r1="52.589668"
       sodipodi:r2="45.543991"
       sodipodi:arg1="1.0471976"
       sodipodi:arg2="1.5707963"
       inkscape:rounded="0"
       inkscape:randomized="0"
       d="m 621.61289,347.08299 -52.58967,0 -26.29483,-45.54399 26.29483,-45.54399 52.58967,0 26.29483,45.54399 z"
       transform="matrix(0.08951848,0,0,0.08951848,138.23871,-7.8990489)" /><path
       sodipodi:type="star"
       style="color:#000000;display:inline;overflow:visible;fill:#000000;fill-opacity:0;stroke:#000000;stroke-width:8.91546;stroke-dasharray:none;stroke-opacity:1;stop-color:#000000"
       id="path16762-3-1"
       inkscape:flatsided="true"
       sodipodi:sides="6"
       sodipodi:cx="595.31805"
       sodipodi:cy="301.539"
       sodipodi:r1="52.589668"
       sodipodi:r2="45.543991"
       sodipodi:arg1="1.0471976"
       sodipodi:arg2="1.5707963"
       inkscape:rounded="0"
       inkscape:randomized="0"
       d="m 621.61289,347.08299 -52.58967,0 -26.29483,-45.54399 26.29483,-45.54399 52.58967,0 26.29483,45.54399 z"
       transform="matrix(0.08951848,0,0,0.08951848,138.25793,1.3652076)" /><path
       sodipodi:type="star"
       style="color:#000000;display:inline;overflow:visible;fill:#000000;fill-opacity:0;stroke:#000000;stroke-width:8.91546;stroke-dasharray:none;stroke-opacity:1;stop-color:#000000"
       id="path16762-2-2"
       inkscape:flatsided="true"
       sodipodi:sides="6"
       sodipodi:cx="595.31805"
       sodipodi:cy="301.539"
       sodipodi:r1="52.589668"
       sodipodi:r2="45.543991"
       sodipodi:arg1="1.0471976"
       sodipodi:arg2="1.5707963"
       inkscape:rounded="0"
       inkscape:randomized="0"
       d="m 621.61289,347.08299 -52.58967,0 -26.29483,-45.54399 26.29483,-45.54399 52.58967,0 26.29483,45.54399 z"
       transform="matrix(0.08951848,0,0,0.08951848,146.13548,-3.2375926)" /><path
       sodipodi:type="star"
       style="color:#000000;display:inline;overflow:visible;fill:#000000;fill-opacity:0;stroke:#000000;stroke-width:8.91546;stroke-dasharray:none;stroke-opacity:1;stop-color:#000000"
       id="path16762-3-8-9"
       inkscape:flatsided="true"
       sodipodi:sides="6"
       sodipodi:cx="595.31805"
       sodipodi:cy="301.539"
       sodipodi:r1="52.589668"
       sodipodi:r2="45.543991"
       sodipodi:arg1="1.0471976"
       sodipodi:arg2="1.5707963"
       inkscape:rounded="0"
       inkscape:randomized="0"
       d="m 621.61289,347.08299 -52.58967,0 -26.29483,-45.54399 26.29483,-45.54399 52.58967,0 26.29483,45.54399 z"
       transform="matrix(0.08951848,0,0,0.08951848,146.15469,6.0266656)" /><text
       xml:space="preserve"
       style="font-style:normal;font-variant:normal;font-weight:normal;font-stretch:normal;font-size:5.92909px;line-height:125%;font-family:Raleway-v4020;-inkscape-font-specification:Raleway-v4020;letter-spacing:0px;word-spacing:0px;display:inline;fill:#038bb4;fill-opacity:1;stroke:none;stroke-width:0.211753px;stroke-linecap:butt;stroke-linejoin:miter;stroke-opacity:1"
       x="103.43661"
       y="52.556973"
       id="text22159"><tspan
         sodipodi:role="line"
         id="tspan22157"
         x="103.43661"
         y="52.556973"
         style="fill:#038bb4;fill-opacity:1;stroke-width:0.211753px">Login nodes</tspan></text><text
       xml:space="preserve"
       style="font-style:normal;font-variant:normal;font-weight:normal;font-stretch:normal;font-size:5.92909px;line-height:125%;font-family:Raleway-v4020;-inkscape-font-specification:Raleway-v4020;letter-spacing:0px;word-spacing:0px;display:inline;fill:#000000;fill-opacity:1;stroke:none;stroke-width:0.211753px;stroke-linecap:butt;stroke-linejoin:miter;stroke-opacity:1"
       x="179.22243"
       y="71.418121"
       id="text22159-3"><tspan
         sodipodi:role="line"
         id="tspan22157-1"
         x="179.22243"
         y="71.418121"
         style="stroke-width:0.211753px">Compute nodes</tspan></text><text
       xml:space="preserve"
       style="font-style:normal;font-variant:normal;font-weight:normal;font-stretch:normal;font-size:5.92909px;line-height:125%;font-family:Raleway-v4020;-inkscape-font-specification:Raleway-v4020;letter-spacing:0px;word-spacing:0px;display:inline;fill:#3e721d;fill-opacity:1;stroke:none;stroke-width:0.211753px;stroke-linecap:butt;stroke-linejoin:miter;stroke-opacity:1"
       x="138.72821"
       y="61.631687"
       id="text22159-9"><tspan
         sodipodi:role="line"
         id="tspan22157-7"
         x="138.72821"
         y="61.631687"
         style="fill:#3e721d;fill-opacity:1;stroke-width:0.211753px">System scheduler</tspan></text><path
       fill="#3e721d"
       d="m 155.84289,42.931315 c 0.57591,-6.171352 -4.06364,-6.938631 -5.90364,-5.596353 -1.00923,0.735999 -1.24475,2.137159 -0.44067,1.399319 1.41863,-1.302717 1.91635,-0.344999 0.84363,0.344999 -1.07272,0.689999 -1.26499,1.973398 -0.0764,1.092958 1.18864,-0.881358 1.51432,-0.30728 0.59432,0.823402 -0.55659,0.684477 0.0386,1.322953 1.07364,-0.05704 0.86296,-1.150919 2.94399,-1.19048 2.44904,2.750795 -0.20423,1.615519 1.33676,0.55936 1.46004,-0.758078 z m 7.30571,-19.340212 c -0.53636,-3.219997 -1.035,-4.828155 -4.25499,-5.365432 -3.22,-0.53728 -5.90364,1.609997 -5.90364,1.609997 0,0 0.53636,-3.219997 2.14636,-4.293636 0.63112,-0.421358 1.07363,1.609998 1.61,1.609998 0.53636,0 1.07364,-1.609998 2.68364,-1.609998 0.53636,0 0.53636,1.609998 1.07364,1.609998 0.53635,0 2.06354,-0.530838 2.14635,0 0.11592,0.74704 -0.15364,1.590678 0.26863,1.93568 0.42228,0.344997 1.42876,-0.136161 1.74893,0.449876 0.32108,0.585119 -0.5612,1.428759 -0.48392,1.812399 0.0773,0.383639 0.66147,0.536358 0.48392,1.264997 -0.17757,0.728639 -0.598,0.766361 -0.63665,1.303638 -0.0386,0.53728 0.8142,0.994519 0.63665,1.551119 -0.17664,0.557518 -0.59892,0.632962 -0.79029,1.342279 -0.19135,0.709318 0.49772,0.597079 0.30637,1.323879 -0.19137,0.726796 -0.88136,0.911716 -1.11137,1.624716 -0.22999,0.71208 0.61272,0.865718 0.19137,1.555718 -0.42136,0.69 -1.18772,0.804999 -1.22636,1.226356 -0.0386,0.421362 0.19228,0.75256 0.0386,1.430599 -0.15365,0.677122 -1.03593,0.333038 -1.11229,0.869399 -0.0764,0.536359 0.19229,0.804999 0.19229,1.456357 0,0.651362 -0.65228,0.76728 -0.575,1.418638 0.0773,0.651362 0.68999,0.153641 1.07363,0.920001 0.38365,0.766359 -0.22908,1.456358 0.19228,1.916357 0.42136,0.459999 0.99636,-0.613639 1.57136,-0.23 0.575,0.38364 0.62284,1.149998 1.25028,1.265001 0.62745,0.114997 0.81972,-1.188644 1.27972,-1.150001 0.45999,0.03864 1.49499,0.65228 2.03136,0.38364 0.53636,-0.26864 0.49771,-1.342276 0.91999,-1.802277 0.42228,-0.46 0.95864,-0.03773 1.34136,-0.536362 0.38273,-0.498637 -0.1334,-1.080997 -0.057,-1.809635 0.0764,-0.728643 0.78568,-1.141719 0.74703,-1.716718 -0.0386,-0.575003 -0.61364,-0.575003 -0.84363,-1.188639 -0.23001,-0.613639 0.42136,-1.149998 0.19136,-1.724997 -0.23001,-0.574999 -1.22545,-0.76636 -1.18773,-1.341361 0.0377,-0.574998 0.42229,-1.226356 0.23,-1.878636 -0.19227,-0.652277 -0.99728,-1.072717 -0.95864,-1.570436 0.0386,-0.497718 0.45909,-1.150001 0.53636,-1.514319 0.0773,-0.364321 -0.68907,-0.747039 -0.61271,-1.360679 0.0764,-0.613639 0.57407,-0.571319 0.76544,-1.125157 0.19136,-0.553838 -0.68909,-0.82892 -0.22908,-1.538238 0.45999,-0.709318 0.69092,-0.248401 1.07364,-0.632958 0.38272,-0.383639 -6.9e-4,-1.227282 0.38272,-1.418641 0.38364,-0.191357 1.14999,-0.03864 1.53363,-0.306359 0.38364,-0.267719 0.38364,-0.651356 0.805,-0.804996 0.42136,-0.153643 0.95864,0.498639 1.30363,0.498639 0.34501,0 0.95773,-0.651361 1.41773,-0.498639 0.46,0.15364 1.45727,1.226355 0.84364,1.552959 -0.61365,0.326597 -5.29092,0.556599 -5.32864,2.702952 -0.0377,2.146359 2.56956,11.883625 1.80228,14.33634 -0.76728,2.45272 -3.94771,7.667271 -7.58999,6.669994 -3.64227,-0.997282 -7.97363,-3.220916 -6.93862,-6.632272 1.03499,-3.412275 4.36907,-10.392307 5.02135,-13.59114 z"
       id="path23266"
       style="display:inline;stroke-width:0.920002" /><path
       fill="#77b255"
       d="m 163.7236,22.750222 c 0,3.659756 -2.19144,7.492468 -5.36635,6.960712 -4.89717,-0.818801 -5.15752,-2.380039 -5.90364,-1.422321 -2.68363,3.443555 -4.27247,-0.446197 -4.88243,-1.091115 -0.15364,-0.161919 -3.16756,-1.049722 -3.16756,-2.748037 0,-1.101237 1.61001,-2.224558 2.68364,-1.132517 1.58424,-0.03956 7.51363,-5.663514 11.26999,-5.663514 3.75635,-7.93e-4 5.36635,2.831754 5.36635,5.096792 z"
       id="path23268"
       style="display:inline;stroke-width:0.920002" /><path
       fill="#292f33"
       d="m 157.81997,21.982024 c 0,0.592481 -0.48117,1.073639 -1.07364,1.073639 -0.59248,0 -1.07364,-0.481158 -1.07364,-1.073639 0,-0.592481 0.48116,-1.073641 1.07364,-1.073641 0.5934,7.59e-4 1.07364,0.48116 1.07364,1.073641 z"
       id="path23270"
       style="display:inline;stroke-width:0.920002" /><path
       fill="#3e721d"
       d="m 147.08726,24.9343 c 0,0.444359 -0.36064,0.268639 -0.80499,0.268639 -0.44437,0 -0.80501,0.17572 -0.80501,-0.268639 0,-0.444359 0.36064,-0.804998 0.80501,-0.804998 0.44435,0 0.80499,0.360639 0.80499,0.804998 z"
       id="path23272"
       style="display:inline;stroke-width:0.920002" /><path
       fill="#ffffff"
       d="m 154.59997,25.737458 c 0,0.5934 -0.36064,0.536359 -0.80501,0.536359 -0.44435,0 -0.80499,0.05612 -0.80499,-0.536359 0,-0.592478 0.36064,-2.146355 0.80499,-2.146355 0.44437,0 0.80501,1.553877 0.80501,2.146355 z m -2.14636,0.536359 c 0,0.5934 -0.36063,0.536359 -0.805,0.536359 -0.44436,7.58e-4 -0.805,0.05704 -0.805,-0.536359 0,-0.592478 0.36064,-2.146357 0.805,-2.146357 0.44437,0 0.805,1.553879 0.805,2.146357 z"
       id="path23274"
       style="display:inline;stroke-width:0.920002" /><path
       fill="#3e721d"
       d="m 154.52453,25.744816 c -2.8474,0.406644 -5.7178,1.126083 -6.95335,1.452682 0.15365,0.162837 0.37076,0.53268 0.65228,0.939317 1.35424,-0.349597 3.91274,-0.966921 6.45379,-1.328476 0.29348,-0.04231 0.4968,-0.314643 0.4554,-0.608124 -0.0432,-0.294398 -0.31648,-0.498636 -0.60812,-0.455399 z"
       id="path23276"
       style="display:inline;stroke-width:0.920002" /><path
       fill="#77b255"
       d="m 163.67392,23.707021 c 0,4.024992 -1.57688,7.54491 -2.71032,10.276386 -1.22635,2.955036 -0.92,8.279991 3.67999,8.279991 4.59999,0 5.99011,-2.935717 6.43999,-4.599994 1.24936,-4.619318 -1.84,-7.359991 -1.84,-11.959988 0,-8.279986 7.36,-6.439986 7.36,-5.51999 0,0.92 -6.37927,1.264079 -2.76,8.279988 3.61928,7.015911 3.68001,20.141534 -9.19999,20.141534 -12.87998,0 -12.87998,-8.181547 -11.03998,-11.861546 1.30272,-2.605437 3.67999,-6.53843 0.46001,-8.321389 -2.09945,-1.161957 9.6103,-4.714992 9.6103,-4.714992 z"
       id="path23278"
       style="display:inline;stroke-width:0.920002" /><path
       fill="#3e721d"
       d="m 154.8318,22.634303 c -0.23551,0 -0.47103,-0.09016 -0.65043,-0.26956 -0.35972,-0.359718 -0.35972,-0.941157 0,-1.300875 0.0764,-0.07636 1.91451,-1.879561 4.94408,-1.879561 0.50783,0 0.91999,0.412161 0.91999,0.919998 0,0.50784 -0.41216,0.919999 -0.91999,0.919999 -2.24021,0 -3.6294,1.326641 -3.6432,1.340439 -0.1794,0.179398 -0.41492,0.26956 -0.65045,0.26956 z"
       id="path23280"
       style="display:inline;stroke-width:0.920002" /><path
       fill="#5c913b"
       d="m 154.25497,38.791322 c 0.57683,-6.171352 -4.98363,-6.938634 -6.82362,-5.596353 -1.00924,0.735997 -1.24477,2.137156 -0.44069,1.399317 1.41864,-1.30272 1.91636,-0.345 0.84364,0.344999 -1.07364,0.689998 -1.265,1.974318 -0.0764,1.092961 1.18863,-0.881361 1.51432,-0.307279 0.59431,0.823396 -0.5566,0.684479 0.0386,1.322958 1.07364,-0.05704 0.86296,-1.150919 3.864,-1.190477 3.36904,2.750798 -0.20424,1.615518 1.33768,0.559357 1.46004,-0.758079 z"
       id="path23282"
       style="display:inline;stroke-width:0.920002" /><path
       sodipodi:type="star"
       style="color:#000000;display:inline;overflow:visible;fill:#000000;fill-opacity:0;stroke:#000000;stroke-width:8.91546;stroke-dasharray:none;stroke-opacity:1;stop-color:#000000"
       id="path24518"
       inkscape:flatsided="true"
       sodipodi:sides="6"
       sodipodi:cx="595.31805"
       sodipodi:cy="301.539"
       sodipodi:r1="52.589668"
       sodipodi:r2="45.543991"
       sodipodi:arg1="1.0471976"
       sodipodi:arg2="1.5707963"
       inkscape:rounded="0"
       inkscape:randomized="0"
       d="m 621.61289,347.08299 -52.58967,0 -26.29483,-45.54399 26.29483,-45.54399 52.58967,0 26.29483,45.54399 z"
       transform="matrix(0.08951848,0,0,0.08951848,138.23871,10.674071)" /><path
       sodipodi:type="star"
       style="color:#000000;display:inline;overflow:visible;fill:#000000;fill-opacity:0;stroke:#000000;stroke-width:8.91546;stroke-dasharray:none;stroke-opacity:1;stop-color:#000000"
       id="path24520"
       inkscape:flatsided="true"
       sodipodi:sides="6"
       sodipodi:cx="595.31805"
       sodipodi:cy="301.539"
       sodipodi:r1="52.589668"
       sodipodi:r2="45.543991"
       sodipodi:arg1="1.0471976"
       sodipodi:arg2="1.5707963"
       inkscape:rounded="0"
       inkscape:randomized="0"
       d="m 621.61289,347.08299 -52.58967,0 -26.29483,-45.54399 26.29483,-45.54399 52.58967,0 26.29483,45.54399 z"
       transform="matrix(0.08951848,0,0,0.08951848,138.25793,19.93833)" /><path
       sodipodi:type="star"
       style="color:#000000;display:inline;overflow:visible;fill:#000000;fill-opacity:0;stroke:#000000;stroke-width:8.91546;stroke-dasharray:none;stroke-opacity:1;stop-color:#000000"
       id="path24522"
       inkscape:flatsided="true"
       sodipodi:sides="6"
       sodipodi:cx="595.31805"
       sodipodi:cy="301.539"
       sodipodi:r1="52.589668"
       sodipodi:r2="45.543991"
       sodipodi:arg1="1.0471976"
       sodipodi:arg2="1.5707963"
       inkscape:rounded="0"
       inkscape:randomized="0"
       d="m 621.61289,347.08299 -52.58967,0 -26.29483,-45.54399 26.29483,-45.54399 52.58967,0 26.29483,45.54399 z"
       transform="matrix(0.08951848,0,0,0.08951848,146.13548,15.33553)" /><path
       sodipodi:type="star"
       style="color:#000000;display:inline;overflow:visible;fill:#000000;fill-opacity:0;stroke:#000000;stroke-width:8.91546;stroke-dasharray:none;stroke-opacity:1;stop-color:#000000"
       id="path24524"
       inkscape:flatsided="true"
       sodipodi:sides="6"
       sodipodi:cx="595.31805"
       sodipodi:cy="301.539"
       sodipodi:r1="52.589668"
       sodipodi:r2="45.543991"
       sodipodi:arg1="1.0471976"
       sodipodi:arg2="1.5707963"
       inkscape:rounded="0"
       inkscape:randomized="0"
       d="m 621.61289,347.08299 -52.58967,0 -26.29483,-45.54399 26.29483,-45.54399 52.58967,0 26.29483,45.54399 z"
       transform="matrix(0.08951848,0,0,0.08951848,146.15469,24.599788)" /><path
       sodipodi:type="star"
       style="color:#000000;display:inline;overflow:visible;fill:#000000;fill-opacity:0;stroke:#000000;stroke-width:8.91546;stroke-dasharray:none;stroke-opacity:1;stop-color:#000000"
       id="path24526"
       inkscape:flatsided="true"
       sodipodi:sides="6"
       sodipodi:cx="595.31805"
       sodipodi:cy="301.539"
       sodipodi:r1="52.589668"
       sodipodi:r2="45.543991"
       sodipodi:arg1="1.0471976"
       sodipodi:arg2="1.5707963"
       inkscape:rounded="0"
       inkscape:randomized="0"
       d="m 621.61289,347.08299 -52.58967,0 -26.29483,-45.54399 26.29483,-45.54399 52.58967,0 26.29483,45.54399 z"
       transform="matrix(0.08951848,0,0,0.08951848,154.23586,-7.91296)" /><path
       sodipodi:type="star"
       style="color:#000000;display:inline;overflow:visible;fill:#000000;fill-opacity:0;stroke:#000000;stroke-width:8.91546;stroke-dasharray:none;stroke-opacity:1;stop-color:#000000"
       id="path24528"
       inkscape:flatsided="true"
       sodipodi:sides="6"
       sodipodi:cx="595.31805"
       sodipodi:cy="301.539"
       sodipodi:r1="52.589668"
       sodipodi:r2="45.543991"
       sodipodi:arg1="1.0471976"
       sodipodi:arg2="1.5707963"
       inkscape:rounded="0"
       inkscape:randomized="0"
       d="m 621.61289,347.08299 -52.58967,0 -26.29483,-45.54399 26.29483,-45.54399 52.58967,0 26.29483,45.54399 z"
       transform="matrix(0.08951848,0,0,0.08951848,154.25508,1.3512986)" /><path
       sodipodi:type="star"
       style="color:#000000;display:inline;overflow:visible;fill:#000000;fill-opacity:0;stroke:#000000;stroke-width:8.91546;stroke-dasharray:none;stroke-opacity:1;stop-color:#000000"
       id="path24530"
       inkscape:flatsided="true"
       sodipodi:sides="6"
       sodipodi:cx="595.31805"
       sodipodi:cy="301.539"
       sodipodi:r1="52.589668"
       sodipodi:r2="45.543991"
       sodipodi:arg1="1.0471976"
       sodipodi:arg2="1.5707963"
       inkscape:rounded="0"
       inkscape:randomized="0"
       d="m 621.61289,347.08299 -52.58967,0 -26.29483,-45.54399 26.29483,-45.54399 52.58967,0 26.29483,45.54399 z"
       transform="matrix(0.08951848,0,0,0.08951848,162.13262,-3.2515016)" /><path
       sodipodi:type="star"
       style="color:#000000;display:inline;overflow:visible;fill:#000000;fill-opacity:0;stroke:#000000;stroke-width:8.91546;stroke-dasharray:none;stroke-opacity:1;stop-color:#000000"
       id="path24532"
       inkscape:flatsided="true"
       sodipodi:sides="6"
       sodipodi:cx="595.31805"
       sodipodi:cy="301.539"
       sodipodi:r1="52.589668"
       sodipodi:r2="45.543991"
       sodipodi:arg1="1.0471976"
       sodipodi:arg2="1.5707963"
       inkscape:rounded="0"
       inkscape:randomized="0"
       d="m 621.61289,347.08299 -52.58967,0 -26.29483,-45.54399 26.29483,-45.54399 52.58967,0 26.29483,45.54399 z"
       transform="matrix(0.08951848,0,0,0.08951848,162.15184,6.0127546)" /><path
       sodipodi:type="star"
       style="color:#000000;display:inline;overflow:visible;fill:#000000;fill-opacity:0;stroke:#000000;stroke-width:8.91546;stroke-dasharray:none;stroke-opacity:1;stop-color:#000000"
       id="path24534"
       inkscape:flatsided="true"
       sodipodi:sides="6"
       sodipodi:cx="595.31805"
       sodipodi:cy="301.539"
       sodipodi:r1="52.589668"
       sodipodi:r2="45.543991"
       sodipodi:arg1="1.0471976"
       sodipodi:arg2="1.5707963"
       inkscape:rounded="0"
       inkscape:randomized="0"
       d="m 621.61289,347.08299 -52.58967,0 -26.29483,-45.54399 26.29483,-45.54399 52.58967,0 26.29483,45.54399 z"
       transform="matrix(0.08951848,0,0,0.08951848,154.23586,10.660163)" /><path
       sodipodi:type="star"
       style="color:#000000;display:inline;overflow:visible;fill:#000000;fill-opacity:0;stroke:#000000;stroke-width:8.91546;stroke-dasharray:none;stroke-opacity:1;stop-color:#000000"
       id="path24536"
       inkscape:flatsided="true"
       sodipodi:sides="6"
       sodipodi:cx="595.31805"
       sodipodi:cy="301.539"
       sodipodi:r1="52.589668"
       sodipodi:r2="45.543991"
       sodipodi:arg1="1.0471976"
       sodipodi:arg2="1.5707963"
       inkscape:rounded="0"
       inkscape:randomized="0"
       d="m 621.61289,347.08299 -52.58967,0 -26.29483,-45.54399 26.29483,-45.54399 52.58967,0 26.29483,45.54399 z"
       transform="matrix(0.08951848,0,0,0.08951848,154.25508,19.924419)" /><path
       sodipodi:type="star"
       style="color:#000000;display:inline;overflow:visible;fill:#000000;fill-opacity:0;stroke:#000000;stroke-width:8.91546;stroke-dasharray:none;stroke-opacity:1;stop-color:#000000"
       id="path24538"
       inkscape:flatsided="true"
       sodipodi:sides="6"
       sodipodi:cx="595.31805"
       sodipodi:cy="301.539"
       sodipodi:r1="52.589668"
       sodipodi:r2="45.543991"
       sodipodi:arg1="1.0471976"
       sodipodi:arg2="1.5707963"
       inkscape:rounded="0"
       inkscape:randomized="0"
       d="m 621.61289,347.08299 -52.58967,0 -26.29483,-45.54399 26.29483,-45.54399 52.58967,0 26.29483,45.54399 z"
       transform="matrix(0.08951848,0,0,0.08951848,162.13262,15.321618)" /><path
       sodipodi:type="star"
       style="color:#000000;display:inline;overflow:visible;fill:#000000;fill-opacity:0;stroke:#000000;stroke-width:8.91546;stroke-dasharray:none;stroke-opacity:1;stop-color:#000000"
       id="path24540"
       inkscape:flatsided="true"
       sodipodi:sides="6"
       sodipodi:cx="595.31805"
       sodipodi:cy="301.539"
       sodipodi:r1="52.589668"
       sodipodi:r2="45.543991"
       sodipodi:arg1="1.0471976"
       sodipodi:arg2="1.5707963"
       inkscape:rounded="0"
       inkscape:randomized="0"
       d="m 621.61289,347.08299 -52.58967,0 -26.29483,-45.54399 26.29483,-45.54399 52.58967,0 26.29483,45.54399 z"
       transform="matrix(0.08951848,0,0,0.08951848,162.15184,24.585877)" /></g><g
     inkscape:groupmode="layer"
     id="layer5"
     inkscape:label="Connect **3-9"
     style="display:inline"><path
       style="display:inline;fill:none;fill-rule:evenodd;stroke:#000000;stroke-width:0.865;stroke-linecap:butt;stroke-linejoin:miter;stroke-dasharray:none;stroke-opacity:1;marker-end:url(#marker2967)"
       d="M 63.802412,36.657964 H 96.314336 L 110.18905,28.120948"
       id="path2746"
       sodipodi:nodetypes="ccc"
       transform="translate(4.6156327,12.183487)" /><path
       sodipodi:type="star"
       style="color:#000000;display:inline;overflow:visible;fill:#038bb4;fill-opacity:1;stroke:#038bb4;stroke-width:8.91546;stroke-dasharray:none;stroke-opacity:1;stop-color:#000000"
       id="path3377"
       inkscape:flatsided="true"
       sodipodi:sides="6"
       sodipodi:cx="595.31805"
       sodipodi:cy="301.539"
       sodipodi:r1="52.589668"
       sodipodi:r2="45.543991"
       sodipodi:arg1="1.0471976"
       sodipodi:arg2="1.5707963"
       inkscape:rounded="0"
       inkscape:randomized="0"
       d="m 621.61289,347.08299 -52.58967,0 -26.29483,-45.54399 26.29483,-45.54399 52.58967,0 26.29483,45.54399 z"
       transform="matrix(0.08951848,0,0,0.08951848,69.230931,9.2862191)" /><text
       xml:space="preserve"
       style="font-style:normal;font-variant:normal;font-weight:normal;font-stretch:normal;font-size:5.92909px;line-height:125%;font-family:Raleway-v4020;-inkscape-font-specification:Raleway-v4020;letter-spacing:0px;word-spacing:0px;display:inline;fill:#038bb4;fill-opacity:1;stroke:none;stroke-width:0.211753px;stroke-linecap:butt;stroke-linejoin:miter;stroke-opacity:1"
       x="76.673759"
       y="34.554157"
       id="text22159-92"
       transform="translate(4.6156327,12.183487)"><tspan
         sodipodi:role="line"
         id="tspan22157-0"
         x="76.673759"
         y="34.554157"
         style="fill:#000000;fill-opacity:1;stroke-width:0.211753px">ssh</tspan></text></g><g
     inkscape:groupmode="layer"
     id="layer6"
     inkscape:label="qsub **8+"
     style="display:inline"><rect
       style="color:#000000;overflow:visible;fill:#d9e9cf;fill-opacity:1;stroke:#3e721d;stroke-width:1.5875;stroke-opacity:1;stop-color:#000000"
       id="rect2581"
       width="56.940674"
       height="20.32954"
       x="143.00819"
       y="-11.429807"
       transform="translate(4.6156327,12.183487)" /><path
       fill="#66757f"
       d="m 163.76682,9.8174764 h -1.37889 c -0.13285,-0.5614826 -0.35436,-1.0872831 -0.64884,-1.5642765 l 0.97573,-0.9757248 c 0.32032,-0.3203199 0.32032,-0.8399681 0,-1.160288 l -0.57994,-0.579939 c -0.32032,-0.3203199 -0.83957,-0.3203199 -1.15989,0 l -0.97572,0.9757248 c -0.47739,-0.294481 -1.0028,-0.515547 -1.56427,-0.6484325 v -1.378893 c 0,-0.4527953 -0.36749,-0.8202814 -0.82029,-0.8202814 h -0.82027 c -0.4528,0 -0.82029,0.3674861 -0.82029,0.8202814 v 1.378893 c -0.56147,0.1328855 -1.08728,0.3543615 -1.56427,0.6488426 l -0.97532,-0.9757248 c -0.32032,-0.3203199 -0.83997,-0.3203199 -1.15987,0 l -0.58036,0.5799391 c -0.32032,0.3203197 -0.32032,0.839968 -4e-4,1.1602879 l 0.97572,0.9757247 c -0.29448,0.4769936 -0.51555,1.002794 -0.64843,1.5638665 h -1.37889 c -0.4528,0 -0.82029,0.3674856 -0.82029,0.8202816 v 0.820281 c 0,0.452795 0.36749,0.820281 0.82029,0.820281 h 1.37889 c 0.13285,0.561073 0.35437,1.086873 0.64884,1.563867 l -0.97573,0.975725 c -0.3199,0.319909 -0.3199,0.839968 4.2e-4,1.160288 l 0.57994,0.579939 c 0.3199,0.319909 0.83955,0.319909 1.15987,0 l 0.97572,-0.975725 c 0.47699,0.294891 1.0028,0.515957 1.56428,0.648843 v 1.378892 c 0,0.452796 0.36749,0.820282 0.82028,0.820282 h 0.82029 c 0.45279,0 0.82027,-0.367486 0.82027,-0.820282 v -1.378892 c 0.56107,-0.132886 1.08688,-0.354362 1.56387,-0.648843 l 0.97572,0.975725 c 0.32032,0.32032 0.83957,0.32032 1.15989,0 l 0.57994,-0.579939 c 0.32032,-0.32032 0.32032,-0.839968 0,-1.160288 l -0.97573,-0.975725 c 0.29489,-0.476994 0.51596,-1.002794 0.64884,-1.564277 h 1.37889 c 0.4528,0 0.82029,-0.367486 0.82029,-0.820281 v -0.820281 c 0,-0.452386 -0.36749,-0.8198716 -0.82029,-0.8198716 z m -6.56224,4.5115476 c -1.81201,0 -3.28114,-1.469124 -3.28114,-3.281126 0,-1.8120011 1.46913,-3.2811251 3.28114,-3.2811251 1.812,0 3.28113,1.469124 3.28113,3.2811251 0,1.812002 -1.46913,3.281126 -3.28113,3.281126 z"
       id="path4456"
       style="stroke-width:0.41014" /><path
       fill="#abdfff"
       d="m 154.24507,6.9611377 c -1.18821,1.5873032 -1.47964,3.3041663 -0.65093,3.8346563 0.82871,0.530492 2.46371,-0.326377 3.65166,-1.9136798 1.18818,-1.5873015 0.7174,-4.4391808 0.65092,-4.3354274 -0.46323,0.7231347 -2.46346,0.8271477 -3.65165,2.4144509 z"
       id="path225-9"
       style="display:inline;stroke-width:0.260684" /><path
       fill="#abdfff"
       d="m 152.80766,6.9611377 c 1.18819,1.5873032 1.47963,3.3041663 0.65119,3.8346563 -0.82873,0.530492 -2.46373,-0.326377 -3.65193,-1.9136798 -1.1882,-1.5873015 -0.74034,-4.4235384 -0.65092,-4.3354274 0.97835,0.9642673 2.46372,0.8271477 3.65166,2.4144509 z"
       id="path227-2"
       style="display:inline;stroke-width:0.260684" /><path
       fill="#55acee"
       d="m 150.02956,6.3240272 c 0.25024,0.4181367 0.41344,0.8203716 1.10816,1.4752078 0.26849,0.2531239 0.2453,0.5852347 -0.0468,0.3644354 -0.69447,-0.5252764 -1.12252,-1.3610273 -1.2638,-1.8946475 -0.0995,-0.3756446 0.0761,-0.1556239 0.20228,0.055015 z m 6.98736,0 c -0.25028,0.4181367 -0.41345,0.8203716 -1.10817,1.4752078 -0.26852,0.2531239 -0.2453,0.5852347 0.0468,0.3644354 0.69445,-0.5252764 1.1225,-1.3610273 1.2638,-1.8946475 0.0995,-0.3756446 -0.0761,-0.1556239 -0.20231,0.055015 z"
       id="path229-2"
       style="display:inline;stroke-width:0.260684" /><path
       fill="#ffdc5d"
       d="m 156.91212,11.060909 v -0.912393 c 0,-0.8639057 -0.96062,-1.4337593 -1.82479,-1.4337593 h -3.12821 c -0.86364,0 -1.82477,0.5698536 -1.82477,1.4337593 v 0.912393 z"
       id="path231-8"
       style="display:inline;stroke-width:0.260684" /><path
       fill="#ffac33"
       d="m 153.50889,2.4763363 c 1.07011,0 2.8537,1.0565502 2.8537,3.3750706 0,2.3190431 0,2.8539662 -0.53516,2.8539662 -0.5352,0 -1.24869,-0.5351844 -2.31881,-0.5351844 -1.0701,0 -1.76873,0.5351844 -2.31877,0.5351844 -0.59619,0 -0.53518,-2.1404746 -0.53518,-2.8539662 2.8e-4,-2.3185204 1.78412,-3.3750706 2.85422,-3.3750706"
       id="path233-9"
       style="display:inline;stroke-width:0.260684" /><path
       fill="#ffdc5d"
       d="m 152.56599,8.7194477 c 0.38217,0.2776291 0.77268,0.255472 0.95724,0.255472 0.18456,0 0.57194,0.022166 0.9541,-0.255472 V 7.8844788 h -1.91134 z"
       id="path235-7"
       style="display:inline;stroke-width:0.260684" /><path
       fill="#f9ca55"
       d="m 152.56443,8.2400514 c 0.26641,0.3010892 0.59697,0.3826837 0.95619,0.3826837 0.35949,0 0.69002,-0.08134 0.95671,-0.3826837 V 7.4746841 h -1.9129 z"
       id="path237-3"
       style="display:inline;stroke-width:0.260684" /><path
       fill="#ffdc5d"
       d="m 151.36842,5.773723 c 0,-1.5208285 0.95828,-3.2752296 2.14047,-3.2752296 1.18169,0 2.13995,1.7541416 2.13995,3.2752296 0,1.5205689 -0.95826,2.6811321 -2.13995,2.6811321 -1.18219,0 -2.14047,-1.1605632 -2.14047,-2.6811321"
       id="path239-6"
       style="display:inline;stroke-width:0.260684" /><path
       fill="#df1f32"
       d="m 153.50889,7.8135744 c -0.41865,0 -0.63789,-0.2069842 -0.66135,-0.2307055 -0.0699,-0.069609 -0.0699,-0.182479 0,-0.2520805 0.0693,-0.069093 0.1804,-0.069609 0.25052,-0.00178 0.009,0.00835 0.14363,0.1280008 0.41083,0.1280008 0.27059,0 0.40537,-0.1233081 0.41084,-0.1282497 0.0711,-0.066729 0.18327,-0.064649 0.25104,0.00515 0.0679,0.070124 0.0679,0.1801326 -0.001,0.2489538 -0.0231,0.02373 -0.24218,0.2307055 -0.66084,0.2307055"
       id="path241-1"
       style="display:inline;stroke-width:0.260684" /><path
       fill="#ffac33"
       d="m 150.84471,6.6292882 c -0.005,-0.2606838 -0.0107,-0.058392 -0.0107,-0.1212107 0,-0.8920581 0.53518,0.128783 0.53518,-0.5065073 0,-0.6358076 0.35663,-0.6994152 0.71324,-1.0560294 0.17856,-0.1785684 0.53519,-0.5281453 0.53519,-0.5281453 0,0 0.89179,0.5388337 1.60528,0.5388337 0.71324,0 1.42699,0.3584397 1.42699,1.0719313 0,0.7132302 0.53517,-0.4129233 0.53517,0.4788754 0,0.0636 -0.005,-0.1384173 -0.0107,0.1222594 h 0.18742 c 10e-4,-0.5213676 10e-4,-0.5015569 10e-4,-0.8347093 0,-2.3187817 -1.27551,-3.3182426 -2.85395,-3.3182426 -1.54977,0 -2.85397,0.9851232 -2.85397,3.3039049 0,0.206723 -0.005,0.3276794 0.002,0.849047 z"
       id="path243-2"
       style="display:inline;stroke-width:0.260684" /><path
       fill="#ffdc5d"
       d="m 155.6087,5.586553 -0.12247,0.033631 c 0,0 -0.31075,0.8865834 0,1.0419513 0.69445,0.3469693 0.90455,-0.9890338 0.90455,-1.3362644 0,-0.2606838 -0.78205,0.2606838 -0.78205,0.2606838 z m -4.17093,0 0.12247,0.033631 c 0,0 0.31075,0.8865834 0,1.0419513 -0.69445,0.3469693 -0.90458,-0.9890338 -0.90458,-1.3362644 0,-0.2606838 0.78207,0.2606838 0.78207,0.2606838 z"
       id="path245-9"
       style="display:inline;stroke-width:0.260684" /><path
       fill="#662113"
       d="m 152.63899,6.339147 c -0.12122,0 -0.22054,-0.099329 -0.22054,-0.2207993 V 5.8980692 c 0,-0.1212106 0.0994,-0.220538 0.22054,-0.220538 0.12141,0 0.22081,0.099329 0.22081,0.220538 v 0.2202785 c 0,0.1214773 -0.0994,0.2207993 -0.22081,0.2207993 m 1.76354,0 c -0.12123,0 -0.22054,-0.099329 -0.22054,-0.2207993 V 5.8980692 c 0,-0.1212106 0.0994,-0.220538 0.22054,-0.220538 0.12123,0 0.22052,0.099329 0.22052,0.220538 v 0.2202785 c 0,0.1214773 -0.0994,0.2207993 -0.22052,0.2207993"
       id="path247-3"
       style="display:inline;stroke-width:0.260684" /><path
       fill="#c1694f"
       d="m 153.74116,7.0203139 h -0.44055 c -0.0608,0 -0.1102,-0.049522 -0.1102,-0.110261 v -0.039888 c 0,-0.060739 0.0492,-0.1105276 0.1102,-0.1105276 h 0.44055 c 0.0606,0 0.11056,0.04954 0.11056,0.1105276 v 0.039888 c 0,0.060739 -0.0498,0.110261 -0.11056,0.110261"
       id="path249-1"
       style="display:inline;stroke-width:0.260684" /><path
       fill="#77b255"
       d="m 151.17707,11.060909 h 4.69231 V 9.7574919 l -0.6517,0.5213671 -0.52138,-0.5213671 -0.57844,0.5213671 -0.59463,-0.5213671 -0.58236,0.5213671 -0.58655,-0.5213671 -0.52553,0.5213671 -0.65172,-0.5213671 z"
       id="path251-9"
       style="display:inline;stroke-width:0.260684" /></g><g
     inkscape:groupmode="layer"
     id="layer9"
     inkscape:label="qsub-arrow **8-9"
     style="display:inline"><text
       xml:space="preserve"
       style="font-style:normal;font-variant:normal;font-weight:normal;font-stretch:normal;font-size:5.92909px;line-height:125%;font-family:Raleway-v4020;-inkscape-font-specification:Raleway-v4020;letter-spacing:0px;word-spacing:0px;display:inline;fill:#038bb4;fill-opacity:1;stroke:none;stroke-width:0.211753px;stroke-linecap:butt;stroke-linejoin:miter;stroke-opacity:1"
       x="85.708687"
       y="6.4675221"
       id="text22159-92-2"
       transform="translate(4.6156327,12.183487)"><tspan
         sodipodi:role="line"
         id="tspan22157-0-3"
         x="85.708687"
         y="6.4675221"
         style="fill:#000000;fill-opacity:1;stroke-width:0.211753px">qsub / sbatch</tspan></text><path
       style="display:inline;fill:none;fill-rule:evenodd;stroke:#000000;stroke-width:0.865;stroke-linecap:butt;stroke-linejoin:miter;stroke-dasharray:none;stroke-opacity:1;marker-end:url(#marker2967-1)"
       d="M 127.11834,31.15064 137.60952,8.2747285 145.986,8.5461479"
       id="path2746-7"
       sodipodi:nodetypes="ccc" /></g><g
     inkscape:groupmode="layer"
     id="layer7"
     inkscape:label="others **9+"><path
       fill="#66757f"
       d="m 180.4717,9.9233504 h -1.37889 c -0.13285,-0.561483 -0.35436,-1.087283 -0.64884,-1.564277 L 179.4197,7.383349 c 0.32032,-0.3203199 0.32032,-0.8399681 0,-1.160288 l -0.57994,-0.579939 c -0.32032,-0.3203199 -0.83957,-0.3203199 -1.15989,0 l -0.97572,0.9757248 c -0.47739,-0.294481 -1.0028,-0.515547 -1.56427,-0.6484325 v -1.378893 c 0,-0.4527953 -0.36749,-0.8202814 -0.82029,-0.8202814 h -0.82027 c -0.4528,0 -0.82029,0.3674861 -0.82029,0.8202814 v 1.378893 c -0.56147,0.1328855 -1.08728,0.3543615 -1.56427,0.6488426 l -0.97532,-0.9757248 c -0.32032,-0.3203199 -0.83997,-0.3203199 -1.15987,0 l -0.58036,0.5799391 c -0.32032,0.3203197 -0.32032,0.839968 -4e-4,1.1602879 l 0.97572,0.9757243 c -0.29448,0.476994 -0.51555,1.002794 -0.64843,1.563867 h -1.37889 c -0.4528,0 -0.82029,0.3674856 -0.82029,0.8202816 v 0.820281 c 0,0.452795 0.36749,0.82028 0.82029,0.82028 h 1.37889 c 0.13285,0.561074 0.35437,1.086874 0.64884,1.563867 l -0.97573,0.975725 c -0.3199,0.319909 -0.3199,0.839969 4.2e-4,1.160288 l 0.57994,0.579939 c 0.3199,0.319909 0.83955,0.319909 1.15987,0 l 0.97572,-0.975725 c 0.47699,0.294891 1.0028,0.515957 1.56428,0.648843 v 1.378892 c 0,0.452796 0.36749,0.820282 0.82028,0.820282 h 0.82029 c 0.45279,0 0.82027,-0.367486 0.82027,-0.820282 V 16.33713 c 0.56107,-0.132886 1.08688,-0.354361 1.56387,-0.648843 l 0.97572,0.975725 c 0.32032,0.32032 0.83957,0.32032 1.15989,0 l 0.57994,-0.579939 c 0.32032,-0.320319 0.32032,-0.839968 0,-1.160287 l -0.97573,-0.975726 c 0.29489,-0.476993 0.51596,-1.002793 0.64884,-1.564276 h 1.37889 c 0.4528,0 0.82029,-0.367486 0.82029,-0.820281 v -0.820281 c 0,-0.452386 -0.36749,-0.8198716 -0.82029,-0.8198716 z m -6.56224,4.5115466 c -1.81201,0 -3.28114,-1.469123 -3.28114,-3.281125 0,-1.8120016 1.46913,-3.2811252 3.28114,-3.2811252 1.812,0 3.28113,1.4691236 3.28113,3.2811252 0,1.812002 -1.46913,3.281125 -3.28113,3.281125 z"
       id="path4456-4"
       style="stroke-width:0.41014" /><path
       fill="#66757f"
       d="m 197.83714,9.9233504 h -1.37889 c -0.13285,-0.561483 -0.35436,-1.087283 -0.64884,-1.564277 l 0.97573,-0.9757244 c 0.32032,-0.3203199 0.32032,-0.8399681 0,-1.160288 L 196.2052,5.643122 c -0.32032,-0.3203199 -0.83957,-0.3203199 -1.15989,0 l -0.97572,0.9757248 c -0.47739,-0.294481 -1.0028,-0.515547 -1.56427,-0.6484325 v -1.378893 c 0,-0.4527953 -0.36749,-0.8202814 -0.82029,-0.8202814 h -0.82027 c -0.4528,0 -0.82029,0.3674861 -0.82029,0.8202814 v 1.378893 c -0.56147,0.1328855 -1.08728,0.3543615 -1.56427,0.6488426 l -0.97532,-0.9757248 c -0.32032,-0.3203199 -0.83997,-0.3203199 -1.15987,0 l -0.58036,0.5799391 c -0.32032,0.3203197 -0.32032,0.839968 -4e-4,1.1602879 l 0.97572,0.9757243 c -0.29448,0.476994 -0.51555,1.002794 -0.64843,1.563867 h -1.37889 c -0.4528,0 -0.82029,0.3674856 -0.82029,0.8202816 v 0.820281 c 0,0.452795 0.36749,0.82028 0.82029,0.82028 h 1.37889 c 0.13285,0.561074 0.35437,1.086874 0.64884,1.563867 l -0.97573,0.975725 c -0.3199,0.319909 -0.3199,0.839969 4.2e-4,1.160288 l 0.57994,0.579939 c 0.3199,0.319909 0.83955,0.319909 1.15987,0 l 0.97572,-0.975725 c 0.47699,0.294891 1.0028,0.515957 1.56428,0.648843 v 1.378892 c 0,0.452796 0.36749,0.820282 0.82028,0.820282 h 0.82029 c 0.45279,0 0.82027,-0.367486 0.82027,-0.820282 V 16.33713 c 0.56107,-0.132886 1.08688,-0.354361 1.56387,-0.648843 l 0.97572,0.975725 c 0.32032,0.32032 0.83957,0.32032 1.15989,0 l 0.57994,-0.579939 c 0.32032,-0.320319 0.32032,-0.839968 0,-1.160287 l -0.97573,-0.975726 c 0.29489,-0.476993 0.51596,-1.002793 0.64884,-1.564276 h 1.37889 c 0.4528,0 0.82029,-0.367486 0.82029,-0.820281 v -0.820281 c 0,-0.452386 -0.36749,-0.8198716 -0.82029,-0.8198716 z m -6.56224,4.5115466 c -1.81201,0 -3.28114,-1.469123 -3.28114,-3.281125 0,-1.8120016 1.46913,-3.2811252 3.28114,-3.2811252 1.812,0 3.28113,1.4691236 3.28113,3.2811252 0,1.812002 -1.46913,3.281125 -3.28113,3.281125 z"
       id="path5960"
       style="stroke-width:0.41014" /><path
       fill="#ffac33"
       d="m 172.53953,10.4575 c -0.55976,0 -2.12655,0.197135 -2.52835,0.460066 -0.40205,-0.262931 -1.96885,-0.460066 -2.5286,-0.460066 -0.6439,0 -0.29157,0.260922 -0.29157,0.583119 0,0.322196 -0.35233,0.58337 0.29157,0.58337 0.55975,0 2.12655,-0.197135 2.5286,-0.460066 0.40205,0.262931 1.96884,0.460066 2.52835,0.460066 0.64414,0 0.29157,-0.261174 0.29157,-0.583119 0,-0.322198 0.35282,-0.58337 -0.29157,-0.58337 z"
       id="path16146"
       style="display:inline;stroke-width:0.251127" /><path
       fill="#292f33"
       d="M 173.45917,6.5677816 C 173.14526,5.9402131 172.6676,5.3133982 172.21809,4.8794493 171.60257,3.5153231 170.70403,2.583388 170.01118,2.583388 c -0.69287,0 -1.5914,0.9316843 -2.20691,2.2960613 -0.44977,0.4342007 -0.92742,1.0607638 -1.24133,1.6885832 -0.61224,1.2244994 -0.78251,2.8693869 -0.52185,2.999471 0.21923,0.1097422 0.58362,-0.3897501 1.05675,-1.2762317 0.0673,2.7310152 1.7697,2.7495982 2.91334,2.7495982 1.14338,0 2.84603,-0.01833 2.91333,-2.7490955 0.47312,0.8859789 0.8375,1.3854712 1.0565,1.275729 0.26066,-0.130336 0.0907,-1.7752225 -0.52184,-2.9997219 z"
       id="path16148"
       style="display:inline;stroke-width:0.251127" /><path
       fill="#f5f8fa"
       d="m 170.93407,4.3269684 c -0.21346,0.1524347 -0.54545,0.2978378 -0.92289,0.2978378 -0.37746,0 -0.70943,-0.1451523 -0.9229,-0.297587 -0.82921,0.53666 -1.41008,1.7729629 -1.41008,3.2139345 0,1.9324277 1.04445,3.4997163 2.33298,3.4997163 1.28878,0 2.33323,-1.5670375 2.33323,-3.4997163 0,-1.4409716 -0.58086,-2.6775254 -1.41034,-3.2141853 z"
       id="path16150"
       style="display:inline;stroke-width:0.251127" /><path
       fill="#ffac33"
       d="m 172.63597,4.090155 h -1.45857 c -0.96607,0 -1.16622,-0.1958803 -1.16622,-0.4377155 0,-0.2415854 -0.0914,-0.4374657 0.87468,-0.4374657 1.45855,2.896e-4 2.04166,0.8751812 1.75011,0.8751812 z"
       id="path16152"
       style="display:inline;stroke-width:0.251127" /><path
       fill="#f5f8fa"
       d="m 169.71962,3.4580663 c 0,0.1612242 -0.1306,0.2918107 -0.29157,0.2918107 -0.16121,0 -0.29155,-0.1308383 -0.29155,-0.2918107 0,-0.1609731 0.13058,-0.2915597 0.29155,-0.2915597 0.16097,0 0.29157,0.1305866 0.29157,0.2915597 z"
       id="path16154"
       style="display:inline;stroke-width:0.251127" /><path
       fill="#d99e82"
       d="m 183.78953,4.8712202 c 0,-1.8511386 2.5861,-3.87916587 4.65499,-2.0688889 0.70187,0.6142015 1.29305,1.0344444 1.29305,1.810277 3.10334,-0.5172214 3.54376,2.2995705 3.10334,3.6205556 -0.25861,0.7758334 -1.51753,2.8599811 -6.20666,0.7758334 -2.3275,-1.0344445 -2.84472,-3.0040262 -2.84472,-4.1377771 z"
       id="path15082"
       style="display:inline;stroke-width:0.258611" /><path
       fill="#c1694f"
       d="m 188.30487,5.3424092 c 0.47248,-0.449207 0.93825,-0.64601 1.4609,-0.7339378 l -0.0282,0.00381 c 0,-0.221888 -0.0527,-0.4130021 -0.13809,-0.5896329 -0.53636,0.1996482 -1.10893,0.5898916 -1.29461,1.3196909 z"
       id="path15084"
       style="display:inline;stroke-width:0.258611" /><circle
       fill="#c1694f"
       cx="186.37566"
       cy="5.6470547"
       r="0.25861105"
       id="circle15086"
       style="display:inline;stroke-width:0.258611" /><circle
       fill="#c1694f"
       cx="191.54787"
       cy="8.2331667"
       r="0.25861105"
       id="circle15088"
       style="display:inline;stroke-width:0.258611" /><circle
       fill="#c1694f"
       cx="187.53938"
       cy="8.1038618"
       r="0.38791662"
       id="circle15090"
       style="display:inline;stroke-width:0.258611" /><circle
       fill="#c1694f"
       cx="185.2119"
       cy="6.5521913"
       r="0.38791662"
       id="circle15092"
       style="display:inline;stroke-width:0.258611" /></g><g
     inkscape:groupmode="layer"
     id="layer8"
     inkscape:label="alloc **11+"><path
       sodipodi:type="star"
       style="color:#000000;display:inline;overflow:visible;fill:#ffac33;fill-opacity:1;stroke:#000000;stroke-width:8.91546;stroke-dasharray:none;stroke-opacity:1;stop-color:#000000"
       id="path6878"
       inkscape:flatsided="true"
       sodipodi:sides="6"
       sodipodi:cx="595.31805"
       sodipodi:cy="301.539"
       sodipodi:r1="52.589668"
       sodipodi:r2="45.543991"
       sodipodi:arg1="1.0471976"
       sodipodi:arg2="1.5707963"
       inkscape:rounded="0"
       inkscape:randomized="0"
       d="m 621.61289,347.08299 -52.58967,0 -26.29483,-45.54399 26.29483,-45.54399 52.58967,0 26.29483,45.54399 z"
       transform="matrix(0.08951848,0,0,0.08951848,142.87356,13.548695)" /><path
       sodipodi:type="star"
       style="color:#000000;display:inline;overflow:visible;fill:#ffac33;fill-opacity:1;stroke:#000000;stroke-width:8.91546;stroke-dasharray:none;stroke-opacity:1;stop-color:#000000"
       id="path6880"
       inkscape:flatsided="true"
       sodipodi:sides="6"
       sodipodi:cx="595.31805"
       sodipodi:cy="301.539"
       sodipodi:r1="52.589668"
       sodipodi:r2="45.543991"
       sodipodi:arg1="1.0471976"
       sodipodi:arg2="1.5707963"
       inkscape:rounded="0"
       inkscape:randomized="0"
       d="m 621.61289,347.08299 -52.58967,0 -26.29483,-45.54399 26.29483,-45.54399 52.58967,0 26.29483,45.54399 z"
       transform="matrix(0.08951848,0,0,0.08951848,150.77032,18.210153)" /><path
       sodipodi:type="star"
       style="color:#000000;display:inline;overflow:visible;fill:#ffac33;fill-opacity:1;stroke:#000000;stroke-width:8.91546;stroke-dasharray:none;stroke-opacity:1;stop-color:#000000"
       id="path6882"
       inkscape:flatsided="true"
       sodipodi:sides="6"
       sodipodi:cx="595.31805"
       sodipodi:cy="301.539"
       sodipodi:r1="52.589668"
       sodipodi:r2="45.543991"
       sodipodi:arg1="1.0471976"
       sodipodi:arg2="1.5707963"
       inkscape:rounded="0"
       inkscape:randomized="0"
       d="m 621.61289,347.08299 -52.58967,0 -26.29483,-45.54399 26.29483,-45.54399 52.58967,0 26.29483,45.54399 z"
       transform="matrix(0.08951848,0,0,0.08951848,142.85434,22.857558)" /><path
       style="display:inline;fill:none;fill-rule:evenodd;stroke:#000000;stroke-width:0.865;stroke-linecap:butt;stroke-linejoin:miter;stroke-dasharray:none;stroke-opacity:1;marker-end:url(#marker2967-1-7)"
       d="m 161.7954,16.849707 22.2644,13.084696 4.70531,4.836936"
       id="path2746-7-4"
       sodipodi:nodetypes="ccc" /><path
       fill="#66757f"
       d="m 198.31271,40.067352 h -0.43269 c -0.0417,-0.176192 -0.11119,-0.341187 -0.2036,-0.490866 l 0.30618,-0.30618 c 0.10052,-0.100516 0.10052,-0.26358 0,-0.364096 l -0.18198,-0.181983 c -0.10052,-0.100516 -0.26346,-0.100516 -0.36397,0 l -0.30618,0.30618 c -0.14981,-0.09241 -0.31468,-0.161778 -0.49087,-0.203477 v -0.432693 c 0,-0.142086 -0.11531,-0.257402 -0.2574,-0.257402 h -0.2574 c -0.14209,0 -0.25741,0.115316 -0.25741,0.257402 v 0.432693 c -0.17618,0.0417 -0.34118,0.111198 -0.49086,0.203605 l -0.30605,-0.30618 c -0.10052,-0.100515 -0.26358,-0.100515 -0.36397,0 l -0.18211,0.181984 c -0.10052,0.100515 -0.10052,0.26358 -1.3e-4,0.364095 l 0.30618,0.30618 c -0.0924,0.14968 -0.16178,0.314675 -0.20348,0.490738 h -0.43269 c -0.14209,0 -0.2574,0.115316 -0.2574,0.257402 v 0.257402 c 0,0.142086 0.11531,0.257403 0.2574,0.257403 h 0.43269 c 0.0417,0.176063 0.1112,0.341058 0.20361,0.490737 l -0.30618,0.30618 c -0.10039,0.100387 -0.10039,0.26358 1.3e-4,0.364096 l 0.18198,0.181983 c 0.10039,0.100387 0.26345,0.100387 0.36397,0 l 0.30618,-0.30618 c 0.14967,0.09254 0.31467,0.161906 0.49086,0.203606 v 0.432693 c 0,0.142086 0.11532,0.257402 0.2574,0.257402 h 0.25741 c 0.14208,0 0.2574,-0.115316 0.2574,-0.257402 v -0.432693 c 0.17606,-0.0417 0.34106,-0.111198 0.49074,-0.203606 l 0.30618,0.30618 c 0.10051,0.100516 0.26345,0.100516 0.36397,0 l 0.18198,-0.181983 c 0.10052,-0.100516 0.10052,-0.26358 0,-0.364096 l -0.30618,-0.30618 c 0.0925,-0.149679 0.16191,-0.314674 0.2036,-0.490866 h 0.43269 c 0.14209,0 0.25741,-0.115316 0.25741,-0.257402 v -0.257402 c 0,-0.141958 -0.11532,-0.257274 -0.25741,-0.257274 z m -2.05921,1.415712 c -0.5686,0 -1.02961,-0.461007 -1.02961,-1.029609 0,-0.568601 0.46101,-1.029609 1.02961,-1.029609 0.5686,0 1.02961,0.461008 1.02961,1.029609 0,0.568602 -0.46101,1.029609 -1.02961,1.029609 z"
       id="path8312"
       style="stroke-width:0.128701" /><path
       fill="#66757f"
       d="m 198.31271,49.382442 h -0.43269 c -0.0417,-0.176192 -0.11119,-0.341187 -0.2036,-0.490866 l 0.30618,-0.30618 c 0.10052,-0.100516 0.10052,-0.26358 0,-0.364096 l -0.18198,-0.181983 c -0.10052,-0.100516 -0.26346,-0.100516 -0.36397,0 l -0.30618,0.30618 c -0.14981,-0.09241 -0.31468,-0.161778 -0.49087,-0.203477 v -0.432693 c 0,-0.142086 -0.11531,-0.257402 -0.2574,-0.257402 h -0.2574 c -0.14209,0 -0.25741,0.115316 -0.25741,0.257402 v 0.432693 c -0.17618,0.0417 -0.34118,0.111198 -0.49086,0.203605 l -0.30605,-0.30618 c -0.10052,-0.100515 -0.26358,-0.100515 -0.36397,0 l -0.18211,0.181984 c -0.10052,0.100515 -0.10052,0.26358 -1.3e-4,0.364095 l 0.30618,0.30618 c -0.0924,0.14968 -0.16178,0.314675 -0.20348,0.490738 h -0.43269 c -0.14209,0 -0.2574,0.115316 -0.2574,0.257402 v 0.257402 c 0,0.142086 0.11531,0.257403 0.2574,0.257403 h 0.43269 c 0.0417,0.176063 0.1112,0.341058 0.20361,0.490737 l -0.30618,0.30618 c -0.10039,0.100387 -0.10039,0.26358 1.3e-4,0.364096 l 0.18198,0.181983 c 0.10039,0.100387 0.26345,0.100387 0.36397,0 l 0.30618,-0.30618 c 0.14967,0.09254 0.31467,0.161906 0.49086,0.203606 v 0.432693 c 0,0.142086 0.11532,0.257402 0.2574,0.257402 h 0.25741 c 0.14208,0 0.2574,-0.115316 0.2574,-0.257402 v -0.432693 c 0.17606,-0.0417 0.34106,-0.111198 0.49074,-0.203606 l 0.30618,0.30618 c 0.10051,0.100516 0.26345,0.100516 0.36397,0 l 0.18198,-0.181983 c 0.10052,-0.100516 0.10052,-0.26358 0,-0.364096 l -0.30618,-0.30618 c 0.0925,-0.149679 0.16191,-0.314674 0.2036,-0.490866 h 0.43269 c 0.14209,0 0.25741,-0.115316 0.25741,-0.257402 v -0.257402 c 0,-0.141958 -0.11532,-0.257274 -0.25741,-0.257274 z m -2.05921,1.415712 c -0.5686,0 -1.02961,-0.461007 -1.02961,-1.029609 0,-0.568601 0.46101,-1.029609 1.02961,-1.029609 0.5686,0 1.02961,0.461008 1.02961,1.029609 0,0.568602 -0.46101,1.029609 -1.02961,1.029609 z"
       id="path8315"
       style="stroke-width:0.128701" /><path
       fill="#66757f"
       d="m 206.21068,44.729954 h -0.43269 c -0.0417,-0.176192 -0.11119,-0.341187 -0.2036,-0.490866 l 0.30618,-0.30618 c 0.10052,-0.100516 0.10052,-0.26358 0,-0.364096 l -0.18198,-0.181983 c -0.10052,-0.100516 -0.26346,-0.100516 -0.36397,0 l -0.30618,0.30618 c -0.14981,-0.09241 -0.31468,-0.161778 -0.49087,-0.203477 v -0.432693 c 0,-0.142086 -0.11531,-0.257402 -0.2574,-0.257402 h -0.2574 c -0.14209,0 -0.25741,0.115316 -0.25741,0.257402 v 0.432693 c -0.17618,0.0417 -0.34118,0.111198 -0.49086,0.203605 l -0.30605,-0.30618 c -0.10052,-0.100515 -0.26358,-0.100515 -0.36397,0 l -0.18211,0.181984 c -0.10052,0.100515 -0.10052,0.26358 -1.3e-4,0.364095 l 0.30618,0.30618 c -0.0924,0.14968 -0.16178,0.314675 -0.20348,0.490738 h -0.43269 c -0.14209,0 -0.2574,0.115316 -0.2574,0.257402 v 0.257402 c 0,0.142086 0.11531,0.257403 0.2574,0.257403 h 0.43269 c 0.0417,0.176063 0.1112,0.341058 0.20361,0.490737 l -0.30618,0.30618 c -0.10039,0.100387 -0.10039,0.26358 1.3e-4,0.364096 l 0.18198,0.181983 c 0.10039,0.100387 0.26345,0.100387 0.36397,0 l 0.30618,-0.30618 c 0.14967,0.09254 0.31467,0.161906 0.49086,0.203606 v 0.432693 c 0,0.142086 0.11532,0.257402 0.2574,0.257402 h 0.25741 c 0.14208,0 0.2574,-0.115316 0.2574,-0.257402 v -0.432693 c 0.17606,-0.0417 0.34106,-0.111198 0.49074,-0.203606 l 0.30618,0.30618 c 0.10051,0.100516 0.26345,0.100516 0.36397,0 l 0.18198,-0.181983 c 0.10052,-0.100516 0.10052,-0.26358 0,-0.364096 l -0.30618,-0.30618 c 0.0925,-0.149679 0.16191,-0.314674 0.2036,-0.490866 h 0.43269 c 0.14209,0 0.25741,-0.115316 0.25741,-0.257402 v -0.257402 c 0,-0.141958 -0.11532,-0.257274 -0.25741,-0.257274 z m -2.05921,1.415712 c -0.5686,0 -1.02961,-0.461007 -1.02961,-1.029609 0,-0.568601 0.46101,-1.029609 1.02961,-1.029609 0.5686,0 1.02961,0.461008 1.02961,1.029609 0,0.568602 -0.46101,1.029609 -1.02961,1.029609 z"
       id="path8317"
       style="stroke-width:0.128701" /></g></svg>
