<?xml version="1.0" encoding="UTF-8" standalone="no"?>
<!-- Created with Inkscape (http://www.inkscape.org/) -->

<svg
   width="46.703812mm"
   height="48.038914mm"
   viewBox="0 0 46.703812 48.038914"
   version="1.1"
   id="svg1"
   inkscape:version="1.3.2 (1:1.3.2+202311252150+091e20ef0f)"
   sodipodi:docname="slurm.svg"
   xmlns:inkscape="http://www.inkscape.org/namespaces/inkscape"
   xmlns:sodipodi="http://sodipodi.sourceforge.net/DTD/sodipodi-0.dtd"
   xmlns="http://www.w3.org/2000/svg"
   xmlns:svg="http://www.w3.org/2000/svg">
  <sodipodi:namedview
     id="namedview1"
     pagecolor="#ffffff"
     bordercolor="#666666"
     borderopacity="1.0"
     inkscape:showpageshadow="2"
     inkscape:pageopacity="0.0"
     inkscape:pagecheckerboard="0"
     inkscape:deskcolor="#d1d1d1"
     inkscape:document-units="mm"
     inkscape:zoom="2.3055275"
     inkscape:cx="102.79643"
     inkscape:cy="68.530955"
     inkscape:window-width="2560"
     inkscape:window-height="1529"
     inkscape:window-x="0"
     inkscape:window-y="0"
     inkscape:window-maximized="1"
     inkscape:current-layer="layer1" />
  <defs
     id="defs1" />
  <g
     inkscape:label="Layer 1"
     inkscape:groupmode="layer"
     id="layer1"
     transform="translate(-81.49167,-124.35417)">
    <g
       id="g1">
      <path
         fill="#3e721d"
         d="m 98.083533,164.16387 c 0.835329,-8.95112 -5.894022,-10.06401 -8.56281,-8.11713 -1.463833,1.06752 -1.805435,3.0998 -0.639177,2.02962 2.057636,-1.8895 2.779543,-0.5004 1.223644,0.5004 -1.55591,1.00079 -1.834796,2.86227 -0.110758,1.58526 1.724038,-1.27835 2.196411,-0.44569 0.862021,1.19428 -0.807308,0.99279 0.05604,1.91886 1.557238,-0.0827 1.25166,-1.66933 4.270059,-1.72671 3.552157,3.98984 -0.296234,2.34319 1.938878,0.81131 2.117685,-1.09954 z m 10.596427,-28.05164 c -0.77796,-4.67039 -1.50119,-7.00291 -6.17158,-7.78219 -4.670375,-0.77929 -8.562807,2.33519 -8.562807,2.33519 0,0 0.777955,-4.67038 3.113144,-6.22762 0.915398,-0.61115 1.557235,2.33519 2.33519,2.33519 0.777953,0 1.557243,-2.33519 3.892423,-2.33519 0.77796,0 0.77796,2.33519 1.55724,2.33519 0.77795,0 2.99305,-0.76995 3.11315,0 0.16813,1.08353 -0.22285,2.30717 0.38964,2.80757 0.61249,0.50039 2.07231,-0.19749 2.53669,0.65251 0.46569,0.84868 -0.81398,2.07232 -0.7019,2.62876 0.11209,0.55644 0.95943,0.77795 0.7019,1.83479 -0.25754,1.05684 -0.86736,1.11156 -0.92341,1.89084 -0.056,0.77929 1.18094,1.44248 0.92341,2.24979 -0.25621,0.80864 -0.8687,0.91807 -1.14625,1.94688 -0.27756,1.02882 0.7219,0.86602 0.44435,1.9202 -0.27755,1.05416 -1.27835,1.32238 -1.61195,2.35653 -0.3336,1.03283 0.88871,1.25567 0.27756,2.25647 -0.61116,1.00079 -1.72271,1.16759 -1.77875,1.77874 -0.056,0.61116 0.27889,1.09154 0.056,2.07499 -0.22284,0.98211 -1.50253,0.48304 -1.61328,1.261 -0.11076,0.77795 0.27889,1.16759 0.27889,2.11234 0,0.94476 -0.94609,1.11289 -0.834,2.05764 0.11209,0.94476 1.0008,0.22285 1.55724,1.3344 0.55644,1.11155 -0.33226,2.11234 0.27889,2.77954 0.61115,0.6672 1.44515,-0.89004 2.27915,-0.3336 0.83399,0.55645 0.90338,1.66799 1.81344,1.8348 0.91006,0.16679 1.18895,-1.72405 1.85614,-1.668 0.6672,0.056 2.16839,0.94609 2.94634,0.55644 0.77796,-0.38964 0.72191,-1.94687 1.3344,-2.61407 0.61249,-0.6672 1.39044,-0.0547 1.94554,-0.77796 0.55511,-0.72324 -0.19348,-1.56791 -0.0827,-2.62475 0.11075,-1.05685 1.13957,-1.65598 1.08353,-2.48998 -0.056,-0.834 -0.89004,-0.834 -1.22364,-1.72404 -0.3336,-0.89004 0.61116,-1.66799 0.27756,-2.50199 -0.33361,-0.83399 -1.77742,-1.11155 -1.72271,-1.94555 0.0547,-0.83399 0.61249,-1.77874 0.3336,-2.72483 -0.27889,-0.94608 -1.44648,-1.5559 -1.39044,-2.27781 0.056,-0.7219 0.66587,-1.668 0.77795,-2.19641 0.11209,-0.52843 -0.99946,-1.08353 -0.8887,-1.97357 0.11075,-0.89005 0.83266,-0.82866 1.11021,-1.63197 0.27755,-0.8033 -0.99946,-1.20229 -0.33226,-2.23111 0.6672,-1.02881 1.00213,-0.36028 1.55724,-0.91806 0.55511,-0.55644 -10e-4,-1.78008 0.55511,-2.05764 0.55644,-0.27755 1.66799,-0.056 2.22443,-0.44435 0.55645,-0.38831 0.55645,-0.94475 1.1676,-1.16759 0.61115,-0.22285 1.39043,0.72324 1.89083,0.72324 0.5004,0 1.38911,-0.94475 2.05631,-0.72324 0.66719,0.22284 2.11368,1.77874 1.22363,2.25246 -0.89004,0.4737 -7.6741,0.80731 -7.72881,3.92044 -0.0547,3.11315 3.72696,17.23638 2.61408,20.79387 -1.11288,3.5575 -5.72589,11.12085 -11.00875,9.67437 -5.28287,-1.44649 -11.565199,-4.67172 -10.06401,-9.61965 1.5012,-4.94927 6.33704,-15.07333 7.28313,-19.71301 z"
         id="path23266"
         style="display:inline;stroke-width:1.3344" />
      <path
         fill="#77b255"
         d="m 109.51396,134.89259 c 0,5.30822 -3.17853,10.86731 -7.78352,10.09603 -7.10299,-1.18761 -7.480625,-3.45208 -8.562818,-2.06298 -3.892424,4.99464 -6.196925,-0.64718 -7.08163,-1.58259 -0.222844,-0.23485 -4.594322,-1.52255 -4.594322,-3.98583 0,-1.59727 2.335194,-3.22657 3.892432,-1.64264 2.297829,-0.0574 10.898,-8.21454 16.346338,-8.21454 5.44833,-0.001 7.78352,4.10727 7.78352,7.39255 z"
         id="path23268"
         style="display:inline;stroke-width:1.3344" />
      <path
         fill="#292f33"
         d="m 100.95115,133.77837 c 0,0.85935 -0.69789,1.55724 -1.557243,1.55724 -0.859349,0 -1.557238,-0.69789 -1.557238,-1.55724 0,-0.85935 0.697889,-1.55724 1.557238,-1.55724 0.860683,0.001 1.557243,0.69789 1.557243,1.55724 z"
         id="path23270"
         style="display:inline;stroke-width:1.3344" />
      <path
         fill="#3e721d"
         d="m 85.384102,138.06044 c 0,0.64451 -0.523086,0.38965 -1.167595,0.38965 -0.644516,0 -1.167598,0.25486 -1.167598,-0.38965 0,-0.64451 0.523082,-1.16759 1.167598,-1.16759 0.644509,0 1.167595,0.52308 1.167595,1.16759 z"
         id="path23272"
         style="display:inline;stroke-width:1.3344" />
      <path
         fill="#ffffff"
         d="m 96.280766,139.22537 c 0,0.86068 -0.523086,0.77795 -1.167594,0.77795 -0.644517,0 -1.167599,0.0814 -1.167599,-0.77795 0,-0.85935 0.523082,-3.11314 1.167599,-3.11314 0.644508,0 1.167594,2.25379 1.167594,3.11314 z m -3.113144,0.77795 c 0,0.86068 -0.523082,0.77795 -1.167595,0.77795 -0.644509,0.001 -1.167595,0.0827 -1.167595,-0.77795 0,-0.85935 0.523086,-3.11314 1.167595,-3.11314 0.644513,0 1.167595,2.25379 1.167595,3.11314 z"
         id="path23274"
         style="display:inline;stroke-width:1.3344" />
      <path
         fill="#3e721d"
         d="m 96.171344,139.23604 c -4.129948,0.58981 -8.293261,1.6333 -10.085352,2.10701 0.222844,0.23619 0.537762,0.77262 0.946082,1.36242 1.964234,-0.50707 5.675179,-1.40245 9.360782,-1.92686 0.425669,-0.0614 0.720574,-0.45637 0.660525,-0.88204 -0.06272,-0.42701 -0.459033,-0.72324 -0.882037,-0.66053 z"
         id="path23276"
         style="display:inline;stroke-width:1.3344" />
      <path
         fill="#77b255"
         d="m 109.44189,136.28036 c 0,5.83797 -2.28714,10.94337 -3.93112,14.90519 -1.77875,4.28607 -1.33439,12.00955 5.33758,12.00955 6.67197,0 8.68824,-4.25806 9.34076,-6.67197 1.81211,-6.7 -2.66879,-10.67516 -2.66879,-17.34714 0,-12.00954 10.67516,-9.34075 10.67516,-8.00636 0,1.3344 -9.2527,1.83346 -4.00318,12.00955 5.2495,10.17609 5.33757,29.2139 -13.34395,29.2139 -18.681524,0 -18.681524,-11.86677 -16.012736,-17.20435 1.889501,-3.77901 5.337576,-9.48354 0.667201,-12.0696 -3.045091,-1.68534 13.939075,-6.83877 13.939075,-6.83877 z"
         id="path23278"
         style="display:inline;stroke-width:1.3344" />
      <path
         fill="#3e721d"
         d="m 96.617033,134.72446 c -0.341603,0 -0.683213,-0.13078 -0.943418,-0.39098 -0.521747,-0.52175 -0.521747,-1.36509 0,-1.88683 0.110754,-0.11076 2.776878,-2.72617 7.171035,-2.72617 0.73659,0 1.33439,0.59781 1.33439,1.33439 0,0.73659 -0.5978,1.33439 -1.33439,1.33439 -3.249247,0 -5.264186,1.9242 -5.284199,1.94422 -0.260213,0.2602 -0.601812,0.39098 -0.943418,0.39098 z"
         id="path23280"
         style="display:inline;stroke-width:1.3344" />
      <path
         fill="#5c913b"
         d="m 95.780365,158.15909 c 0.836668,-8.95112 -7.228413,-10.064 -9.897201,-8.11712 -1.463829,1.06751 -1.805439,3.0998 -0.639176,2.02961 2.057636,-1.8895 2.779546,-0.5004 1.223639,0.5004 -1.557238,1.0008 -1.834791,2.86361 -0.110758,1.58526 1.724042,-1.27835 2.196419,-0.44568 0.862021,1.19428 -0.807308,0.99279 0.05605,1.91886 1.557238,-0.0827 1.251665,-1.66933 5.604461,-1.7267 4.886555,3.98984 -0.296237,2.3432 1.940206,0.81131 2.117682,-1.09954 z"
         id="path23282"
         style="display:inline;stroke-width:1.3344" />
    </g>
  </g>
</svg>
