<?xml version="1.0" encoding="UTF-8" standalone="no"?>
<!-- Created with Inkscape (http://www.inkscape.org/) -->

<svg
   width="218.23222mm"
   height="174.78374mm"
   viewBox="0 0 218.23222 174.78374"
   version="1.1"
   id="svg138"
   inkscape:version="1.2 (1:1.2.1+202207142221+cd75a1ee6d)"
   sodipodi:docname="streaming.svg"
   xml:space="preserve"
   xmlns:inkscape="http://www.inkscape.org/namespaces/inkscape"
   xmlns:sodipodi="http://sodipodi.sourceforge.net/DTD/sodipodi-0.dtd"
   xmlns="http://www.w3.org/2000/svg"
   xmlns:svg="http://www.w3.org/2000/svg"><sodipodi:namedview
     id="namedview140"
     pagecolor="#ffffff"
     bordercolor="#666666"
     borderopacity="1.0"
     inkscape:showpageshadow="2"
     inkscape:pageopacity="0.0"
     inkscape:pagecheckerboard="0"
     inkscape:deskcolor="#d1d1d1"
     inkscape:document-units="mm"
     showgrid="false"
     inkscape:zoom="0.8409652"
     inkscape:cx="176.58281"
     inkscape:cy="279.44081"
     inkscape:window-width="1600"
     inkscape:window-height="1129"
     inkscape:window-x="0"
     inkscape:window-y="34"
     inkscape:window-maximized="1"
     inkscape:current-layer="layer5" /><defs
     id="defs135"><marker
       style="overflow:visible"
       id="Arrow4"
       refX="0"
       refY="0"
       orient="auto-start-reverse"
       inkscape:stockid="Arrow4"
       markerWidth="5"
       markerHeight="6"
       viewBox="0 0 5 6"
       inkscape:isstock="true"
       inkscape:collect="always"
       preserveAspectRatio="xMidYMid"><path
         style="fill:context-stroke;fill-rule:evenodd;stroke:none"
         d="m 1,0 -3,3 h -2 l 3,-3 -3,-3 h 2 z"
         id="path1741" /></marker><marker
       style="overflow:visible"
       id="marker2967"
       refX="0"
       refY="0"
       orient="auto-start-reverse"
       inkscape:stockid="TriangleStart"
       markerWidth="5.5385952"
       markerHeight="6.4029999"
       viewBox="0 0 5.3244081 6.1553851"
       inkscape:isstock="true"
       inkscape:collect="always"
       preserveAspectRatio="xMidYMid"><path
         transform="scale(0.5)"
         style="fill:context-stroke;fill-rule:evenodd;stroke:context-stroke;stroke-width:1pt"
         d="M 5.77,0 -2.88,5 V -5 Z"
         id="path2965" /></marker></defs><g
     inkscape:groupmode="layer"
     id="layer3"
     inkscape:label="Layer 3"
     transform="translate(18.751408,-20.835328)"
     style="display:inline"><path
       fill="#5dadec"
       d="m 199.48081,190.0253 c 0,3.09214 -2.49047,5.59376 -5.57153,5.59376 H -13.179869 c -3.075484,0 -5.571539,-2.50162 -5.571539,-5.59376 v -75.24606 c 0,-3.0922 2.496055,-5.59381 5.571539,-5.59381 H 193.90928 c 3.08106,0 5.57153,2.50716 5.57153,5.59381 z"
       id="path6-3"
       style="fill:#333333;stroke-width:5.57152"
       sodipodi:nodetypes="sssssssss" /><text
       xml:space="preserve"
       style="font-style:normal;font-variant:normal;font-weight:normal;font-stretch:normal;font-size:7.40833px;line-height:125%;font-family:Raleway-v4020;-inkscape-font-specification:Raleway-v4020;letter-spacing:0px;word-spacing:0px;fill:#000000;fill-opacity:1;stroke:none;stroke-width:0.264583px;stroke-linecap:butt;stroke-linejoin:miter;stroke-opacity:1"
       x="4.3386126"
       y="66.02182"
       id="text1372"><tspan
         sodipodi:role="line"
         id="tspan1370"
         style="stroke-width:0.264583px"
         x="4.3386126"
         y="66.02182" /></text></g><g
     inkscape:groupmode="layer"
     id="layer1"
     inkscape:label="Layer 4 **8+"><rect
       style="color:#000000;display:inline;overflow:visible;fill:#ffffff;stroke:#000000;stroke-width:1.5875;stroke-opacity:1;stop-color:#000000"
       id="rect4601"
       width="21.61273"
       height="19.081617"
       x="47.824356"
       y="21.7775"
       rx="0"
       ry="0" /><text
       xml:space="preserve"
       style="font-style:normal;font-variant:normal;font-weight:normal;font-stretch:normal;font-size:5.92909px;line-height:125%;font-family:Raleway-v4020;-inkscape-font-specification:Raleway-v4020;letter-spacing:0px;word-spacing:0px;display:inline;fill:#038bb4;fill-opacity:1;stroke:none;stroke-width:0.211753px;stroke-linecap:butt;stroke-linejoin:miter;stroke-opacity:1"
       x="50.35965"
       y="38.208599"
       id="text22159-92-3"><tspan
         sodipodi:role="line"
         id="tspan22157-0-6"
         x="50.35965"
         y="38.208599"
         style="fill:#000000;fill-opacity:1;stroke-width:0.211753px">server</tspan></text><text
       xml:space="preserve"
       style="font-style:normal;font-variant:normal;font-weight:normal;font-stretch:normal;font-size:11.2194px;line-height:125%;font-family:Raleway-v4020;-inkscape-font-specification:Raleway-v4020;letter-spacing:0px;word-spacing:0px;display:inline;fill:#4d4d4d;fill-opacity:1;stroke:none;stroke-width:0.400691px;stroke-linecap:butt;stroke-linejoin:miter;stroke-opacity:1"
       x="50.329414"
       y="32.543121"
       id="text2050"><tspan
         sodipodi:role="line"
         id="tspan2048"
         x="50.329414"
         y="32.543121"
         style="display:inline;fill:#4d4d4d;fill-opacity:1;stroke-width:0.400691px">HQ</tspan><tspan
         sodipodi:role="line"
         x="50.329414"
         y="46.567371"
         style="display:inline;fill:#4d4d4d;fill-opacity:1;stroke-width:0.400691px"
         id="tspan4520" /></text><rect
       style="color:#000000;display:inline;overflow:visible;fill:#ffffff;stroke:#000000;stroke-width:1.5875;stroke-opacity:1;stop-color:#000000"
       id="rect4601-7"
       width="25.716311"
       height="19.081617"
       x="127.59615"
       y="11.652805"
       rx="0"
       ry="0" /><text
       xml:space="preserve"
       style="font-style:normal;font-variant:normal;font-weight:normal;font-stretch:normal;font-size:5.92909px;line-height:125%;font-family:Raleway-v4020;-inkscape-font-specification:Raleway-v4020;letter-spacing:0px;word-spacing:0px;display:inline;fill:#038bb4;fill-opacity:1;stroke:none;stroke-width:0.211753px;stroke-linecap:butt;stroke-linejoin:miter;stroke-opacity:1"
       x="132.15666"
       y="28.083904"
       id="text22159-92-3-5"><tspan
         sodipodi:role="line"
         id="tspan22157-0-6-3"
         x="132.15666"
         y="28.083904"
         style="fill:#000000;fill-opacity:1;stroke-width:0.211753px">worker</tspan></text><text
       xml:space="preserve"
       style="font-style:normal;font-variant:normal;font-weight:normal;font-stretch:normal;font-size:11.2194px;line-height:125%;font-family:Raleway-v4020;-inkscape-font-specification:Raleway-v4020;letter-spacing:0px;word-spacing:0px;display:inline;fill:#4d4d4d;fill-opacity:1;stroke:none;stroke-width:0.400691px;stroke-linecap:butt;stroke-linejoin:miter;stroke-opacity:1"
       x="132.12642"
       y="22.418427"
       id="text2050-5"><tspan
         sodipodi:role="line"
         id="tspan2048-6"
         x="132.12642"
         y="22.418427"
         style="fill:#4d4d4d;fill-opacity:1;stroke-width:0.400691px">HQ</tspan><tspan
         sodipodi:role="line"
         x="132.12642"
         y="36.442677"
         style="fill:#4d4d4d;fill-opacity:1;stroke-width:0.400691px"
         id="tspan4520-2" /></text><path
       style="display:inline;fill:none;fill-rule:evenodd;stroke:#000000;stroke-width:0.865;stroke-linecap:butt;stroke-linejoin:miter;stroke-dasharray:none;stroke-opacity:1;marker-end:url(#marker2967)"
       d="M 128.17472,20.315824 H 79.299684 l -7.426485,8.431917"
       id="path12604"
       sodipodi:nodetypes="ccc" /><path
       fill="#66757f"
       d="m 183.39272,14.26035 h -1.2147 c -0.11703,-0.494622 -0.31216,-0.95781 -0.57157,-1.378003 l 0.85955,-0.859535 c 0.28217,-0.282176 0.28217,-0.739945 0,-1.022121 l -0.5109,-0.51088 c -0.28217,-0.282176 -0.73958,-0.282176 -1.02177,0 l -0.85953,0.859536 c -0.42054,-0.259415 -0.88338,-0.454156 -1.37799,-0.571216 V 9.5634353 c 0,-0.398876 -0.32373,-0.722601 -0.7226,-0.722601 h -0.7226 c -0.39887,0 -0.7226,0.323725 -0.7226,0.722601 v 1.2146957 c -0.49462,0.117059 -0.95781,0.312162 -1.378,0.571577 l -0.85919,-0.859536 c -0.28217,-0.282175 -0.73994,-0.282175 -1.02175,0 l -0.51124,0.510882 c -0.28219,0.282175 -0.28219,0.739943 -3.6e-4,1.022118 l 0.85954,0.859536 c -0.25942,0.420194 -0.45417,0.883381 -0.57122,1.377642 h -1.2147 c -0.39887,0 -0.7226,0.323724 -0.7226,0.722602 v 0.722601 c 0,0.398877 0.32373,0.722602 0.7226,0.722602 h 1.2147 c 0.11703,0.49426 0.31216,0.957448 0.57158,1.377642 l -0.85954,0.859534 c -0.28181,0.281815 -0.28181,0.739945 3.6e-4,1.022122 l 0.51088,0.510879 c 0.28181,0.281814 0.73958,0.281814 1.02175,0 l 0.85953,-0.859535 c 0.42019,0.259775 0.8834,0.454516 1.37802,0.571578 v 1.214693 c 0,0.398878 0.32373,0.722603 0.7226,0.722603 h 0.7226 c 0.39887,0 0.7226,-0.323725 0.7226,-0.722603 v -1.214693 c 0.49425,-0.117059 0.95744,-0.312165 1.37763,-0.571578 l 0.85953,0.859535 c 0.28219,0.282177 0.7396,0.282177 1.02177,0 l 0.5109,-0.510879 c 0.28217,-0.282177 0.28217,-0.739945 0,-1.022122 l -0.85955,-0.859534 c 0.25977,-0.420194 0.45452,-0.883382 0.57157,-1.378004 h 1.2147 c 0.39888,0 0.7226,-0.323725 0.7226,-0.722601 V 14.98259 c 0,-0.398516 -0.32372,-0.72224 -0.7226,-0.72224 z m -5.7808,3.974311 c -1.59625,0 -2.89044,-1.294181 -2.89044,-2.890409 0,-1.596227 1.29419,-2.890408 2.89044,-2.890408 1.59621,0 2.8904,1.294181 2.8904,2.890408 0,1.596228 -1.29418,2.890409 -2.8904,2.890409 z"
       id="path20373"
       style="display:inline;stroke-width:0.3613" /><path
       fill="#66757f"
       d="m 183.16474,28.647948 h -1.2147 c -0.11703,-0.494622 -0.31216,-0.95781 -0.57157,-1.378003 l 0.85955,-0.859535 c 0.28217,-0.282176 0.28217,-0.739945 0,-1.022121 l -0.5109,-0.51088 c -0.28217,-0.282176 -0.73958,-0.282176 -1.02177,0 l -0.85953,0.859536 c -0.42054,-0.259415 -0.88338,-0.454156 -1.37799,-0.571216 v -1.214696 c 0,-0.398876 -0.32373,-0.722601 -0.7226,-0.722601 h -0.7226 c -0.39887,0 -0.7226,0.323725 -0.7226,0.722601 v 1.214696 c -0.49462,0.117059 -0.95781,0.312162 -1.378,0.571577 l -0.85919,-0.859536 c -0.28217,-0.282175 -0.73994,-0.282175 -1.02175,0 l -0.51124,0.510882 c -0.28219,0.282175 -0.28219,0.739943 -3.6e-4,1.022118 l 0.85954,0.859536 c -0.25942,0.420194 -0.45417,0.883381 -0.57122,1.377642 h -1.2147 c -0.39887,0 -0.7226,0.323724 -0.7226,0.722602 v 0.722601 c 0,0.398877 0.32373,0.722602 0.7226,0.722602 h 1.2147 c 0.11703,0.49426 0.31216,0.957448 0.57158,1.377642 l -0.85954,0.859534 c -0.28181,0.281815 -0.28181,0.739945 3.6e-4,1.022122 l 0.51088,0.510879 c 0.28181,0.281814 0.73958,0.281814 1.02175,0 l 0.85953,-0.859535 c 0.42019,0.259775 0.8834,0.454516 1.37802,0.571578 v 1.214693 c 0,0.398878 0.32373,0.722603 0.7226,0.722603 h 0.7226 c 0.39887,0 0.7226,-0.323725 0.7226,-0.722603 v -1.214693 c 0.49425,-0.117059 0.95744,-0.312165 1.37763,-0.571578 l 0.85953,0.859535 c 0.28219,0.282177 0.7396,0.282177 1.02177,0 l 0.5109,-0.510879 c 0.28217,-0.282177 0.28217,-0.739945 0,-1.022122 l -0.85955,-0.859534 c 0.25977,-0.420194 0.45452,-0.883382 0.57157,-1.378004 h 1.2147 c 0.39888,0 0.7226,-0.323725 0.7226,-0.722601 v -0.722602 c 0,-0.398516 -0.32372,-0.72224 -0.7226,-0.72224 z m -5.7808,3.974311 c -1.59625,0 -2.89044,-1.294181 -2.89044,-2.890409 0,-1.596227 1.29419,-2.890408 2.89044,-2.890408 1.59621,0 2.8904,1.294181 2.8904,2.890408 0,1.596228 -1.29418,2.890409 -2.8904,2.890409 z"
       id="path1321"
       style="display:inline;stroke-width:0.3613" /><rect
       style="color:#000000;display:inline;overflow:visible;fill:#ffffff;stroke:#000000;stroke-width:1.5875;stroke-opacity:1;stop-color:#000000"
       id="rect1325"
       width="25.716311"
       height="19.081617"
       x="127.59615"
       y="47.045837"
       rx="0"
       ry="0" /><text
       xml:space="preserve"
       style="font-style:normal;font-variant:normal;font-weight:normal;font-stretch:normal;font-size:5.92909px;line-height:125%;font-family:Raleway-v4020;-inkscape-font-specification:Raleway-v4020;letter-spacing:0px;word-spacing:0px;display:inline;fill:#038bb4;fill-opacity:1;stroke:none;stroke-width:0.211753px;stroke-linecap:butt;stroke-linejoin:miter;stroke-opacity:1"
       x="132.15666"
       y="63.476936"
       id="text1329"><tspan
         sodipodi:role="line"
         id="tspan1327"
         x="132.15666"
         y="63.476936"
         style="fill:#000000;fill-opacity:1;stroke-width:0.211753px">worker</tspan></text><text
       xml:space="preserve"
       style="font-style:normal;font-variant:normal;font-weight:normal;font-stretch:normal;font-size:11.2194px;line-height:125%;font-family:Raleway-v4020;-inkscape-font-specification:Raleway-v4020;letter-spacing:0px;word-spacing:0px;display:inline;fill:#4d4d4d;fill-opacity:1;stroke:none;stroke-width:0.400691px;stroke-linecap:butt;stroke-linejoin:miter;stroke-opacity:1"
       x="132.12642"
       y="57.811459"
       id="text1335"><tspan
         sodipodi:role="line"
         id="tspan1331"
         x="132.12642"
         y="57.811459"
         style="fill:#4d4d4d;fill-opacity:1;stroke-width:0.400691px">HQ</tspan><tspan
         sodipodi:role="line"
         x="132.12642"
         y="71.835709"
         style="fill:#4d4d4d;fill-opacity:1;stroke-width:0.400691px"
         id="tspan1333" /></text><path
       style="display:inline;fill:none;fill-rule:evenodd;stroke:#000000;stroke-width:0.865;stroke-linecap:butt;stroke-linejoin:miter;stroke-dasharray:none;stroke-opacity:1;marker-end:url(#marker2967)"
       d="M 128.17472,56.899513 H 79.299684 L 71.420223,43.803496"
       id="path1337"
       sodipodi:nodetypes="ccc" /><path
       fill="#66757f"
       d="m 183.39272,49.837674 h -1.2147 c -0.11703,-0.494622 -0.31216,-0.95781 -0.57157,-1.378003 l 0.85955,-0.859535 c 0.28217,-0.282176 0.28217,-0.739945 0,-1.022121 l -0.5109,-0.51088 c -0.28217,-0.282176 -0.73958,-0.282176 -1.02177,0 l -0.85953,0.859536 c -0.42054,-0.259415 -0.88338,-0.454156 -1.37799,-0.571216 v -1.214696 c 0,-0.398876 -0.32373,-0.722601 -0.7226,-0.722601 h -0.7226 c -0.39887,0 -0.7226,0.323725 -0.7226,0.722601 v 1.214696 c -0.49462,0.117059 -0.95781,0.312162 -1.378,0.571577 l -0.85919,-0.859536 c -0.28217,-0.282175 -0.73994,-0.282175 -1.02175,0 l -0.51124,0.510882 c -0.28219,0.282175 -0.28219,0.739943 -3.6e-4,1.022118 l 0.85954,0.859536 c -0.25942,0.420194 -0.45417,0.883381 -0.57122,1.377642 h -1.2147 c -0.39887,0 -0.7226,0.323724 -0.7226,0.722602 v 0.722601 c 0,0.398877 0.32373,0.722602 0.7226,0.722602 h 1.2147 c 0.11703,0.49426 0.31216,0.957448 0.57158,1.377642 l -0.85954,0.859534 c -0.28181,0.281815 -0.28181,0.739945 3.6e-4,1.022122 l 0.51088,0.510879 c 0.28181,0.281814 0.73958,0.281814 1.02175,0 l 0.85953,-0.859535 c 0.42019,0.259775 0.8834,0.454516 1.37802,0.571578 v 1.214693 c 0,0.398878 0.32373,0.722603 0.7226,0.722603 h 0.7226 c 0.39887,0 0.7226,-0.323725 0.7226,-0.722603 v -1.214693 c 0.49425,-0.117059 0.95744,-0.312165 1.37763,-0.571578 l 0.85953,0.859535 c 0.28219,0.282177 0.7396,0.282177 1.02177,0 l 0.5109,-0.510879 c 0.28217,-0.282177 0.28217,-0.739945 0,-1.022122 l -0.85955,-0.859534 c 0.25977,-0.420194 0.45452,-0.883382 0.57157,-1.378004 h 1.2147 c 0.39888,0 0.7226,-0.323725 0.7226,-0.722601 v -0.722602 c 0,-0.398516 -0.32372,-0.72224 -0.7226,-0.72224 z m -5.7808,3.974311 c -1.59625,0 -2.89044,-1.294181 -2.89044,-2.890409 0,-1.596227 1.29419,-2.890408 2.89044,-2.890408 1.59621,0 2.8904,1.294181 2.8904,2.890408 0,1.596228 -1.29418,2.890409 -2.8904,2.890409 z"
       id="path1439"
       style="display:inline;stroke-width:0.3613" /><path
       fill="#66757f"
       d="m 183.16474,64.225272 h -1.2147 c -0.11703,-0.494622 -0.31216,-0.95781 -0.57157,-1.378003 l 0.85955,-0.859535 c 0.28217,-0.282176 0.28217,-0.739945 0,-1.022121 l -0.5109,-0.51088 c -0.28217,-0.282176 -0.73958,-0.282176 -1.02177,0 l -0.85953,0.859536 c -0.42054,-0.259415 -0.88338,-0.454156 -1.37799,-0.571216 v -1.214696 c 0,-0.398876 -0.32373,-0.722601 -0.7226,-0.722601 h -0.7226 c -0.39887,0 -0.7226,0.323725 -0.7226,0.722601 v 1.214696 c -0.49462,0.117059 -0.95781,0.312162 -1.378,0.571577 l -0.85919,-0.859536 c -0.28217,-0.282175 -0.73994,-0.282175 -1.02175,0 l -0.51124,0.510882 c -0.28219,0.282175 -0.28219,0.739943 -3.6e-4,1.022118 l 0.85954,0.859536 c -0.25942,0.420194 -0.45417,0.883381 -0.57122,1.377642 h -1.2147 c -0.39887,0 -0.7226,0.323724 -0.7226,0.722602 v 0.722601 c 0,0.398877 0.32373,0.722602 0.7226,0.722602 h 1.2147 c 0.11703,0.49426 0.31216,0.957448 0.57158,1.377642 l -0.85954,0.859534 c -0.28181,0.281815 -0.28181,0.739945 3.6e-4,1.022122 l 0.51088,0.510879 c 0.28181,0.281814 0.73958,0.281814 1.02175,0 l 0.85953,-0.859535 c 0.42019,0.259775 0.8834,0.454516 1.37802,0.571578 v 1.214693 c 0,0.398878 0.32373,0.722603 0.7226,0.722603 h 0.7226 c 0.39887,0 0.7226,-0.323725 0.7226,-0.722603 v -1.214693 c 0.49425,-0.117059 0.95744,-0.312165 1.37763,-0.571578 l 0.85953,0.859535 c 0.28219,0.282177 0.7396,0.282177 1.02177,0 l 0.5109,-0.510879 c 0.28217,-0.282177 0.28217,-0.739945 0,-1.022122 l -0.85955,-0.859534 c 0.25977,-0.420194 0.45452,-0.883382 0.57157,-1.378004 h 1.2147 c 0.39888,0 0.7226,-0.323725 0.7226,-0.722601 v -0.722602 c 0,-0.398516 -0.32372,-0.72224 -0.7226,-0.72224 z m -5.7808,3.974311 c -1.59625,0 -2.89044,-1.294181 -2.89044,-2.890409 0,-1.596227 1.29419,-2.890408 2.89044,-2.890408 1.59621,0 2.8904,1.294181 2.8904,2.890408 0,1.596228 -1.29418,2.890409 -2.8904,2.890409 z"
       id="path1441"
       style="display:inline;stroke-width:0.3613" /></g><g
     inkscape:groupmode="layer"
     id="layer2"
     inkscape:label="Layer 4 **9+"><path
       style="fill:none;fill-rule:evenodd;stroke:#ff6600;stroke-width:1;stroke-linecap:butt;stroke-linejoin:miter;stroke-dasharray:3, 1;stroke-dashoffset:0;stroke-opacity:1;marker-end:url(#Arrow4)"
       d="M 167.91879,14.791933 H 158.1433"
       id="path1565" /><path
       style="fill:none;fill-rule:evenodd;stroke:#ff6600;stroke-width:1;stroke-linecap:butt;stroke-linejoin:miter;stroke-dasharray:3, 1;stroke-dashoffset:0;stroke-opacity:1;marker-end:url(#Arrow4)"
       d="M 167.91879,28.990326 H 158.1433"
       id="path2499" /><path
       style="fill:none;fill-rule:evenodd;stroke:#ff6600;stroke-width:1;stroke-linecap:butt;stroke-linejoin:miter;stroke-dasharray:3, 1;stroke-dashoffset:0;stroke-opacity:1;marker-end:url(#Arrow4)"
       d="M 167.91879,50.298472 H 158.1433"
       id="path2505" /><path
       style="fill:none;fill-rule:evenodd;stroke:#ff6600;stroke-width:1;stroke-linecap:butt;stroke-linejoin:miter;stroke-dasharray:3, 1;stroke-dashoffset:0;stroke-opacity:1;marker-end:url(#Arrow4)"
       d="M 167.91879,64.496865 H 158.1433"
       id="path2507" /></g><g
     inkscape:groupmode="layer"
     id="layer4"
     inkscape:label="Layer 4 **10+"><path
       style="fill:none;fill-rule:evenodd;stroke:#ff6600;stroke-width:1;stroke-linecap:butt;stroke-linejoin:miter;stroke-dasharray:3, 1;stroke-dashoffset:0;stroke-opacity:1;marker-end:url(#Arrow4)"
       d="m 127.44345,14.279327 -45.958078,0 -9.912063,4.583127"
       id="path2513"
       sodipodi:nodetypes="ccc" /><path
       style="fill:none;fill-rule:evenodd;stroke:#ff6600;stroke-width:1;stroke-linecap:butt;stroke-linejoin:miter;stroke-dasharray:3, 1;stroke-dashoffset:0;stroke-opacity:1;marker-end:url(#Arrow4)"
       d="M 127.44345,62.653288 74.522858,62.110734 63.861766,45.132899"
       id="path2578"
       sodipodi:nodetypes="ccc" /></g><g
     inkscape:groupmode="layer"
     id="layer5"
     inkscape:label="Layer 4 **11+"><path
       style="fill:none;fill-rule:evenodd;stroke:#ff6600;stroke-width:1;stroke-linecap:butt;stroke-linejoin:miter;stroke-dasharray:3, 1;stroke-dashoffset:0;stroke-opacity:1;marker-end:url(#Arrow4)"
       d="m 52.465154,43.594017 v 9.77549"
       id="path2632" /><rect
       style="color:#000000;overflow:visible;fill:#000000;fill-opacity:1;stroke:none;stroke-width:1;stroke-dasharray:3, 1;stroke-dashoffset:0;stroke-opacity:1;stop-color:#000000"
       id="rect2731"
       width="31.9881"
       height="11.895192"
       x="28.192238"
       y="55.691586" /><text
       xml:space="preserve"
       style="font-style:normal;font-variant:normal;font-weight:normal;font-stretch:normal;font-size:7.40833px;line-height:125%;font-family:Raleway-v4020;-inkscape-font-specification:Raleway-v4020;letter-spacing:0px;word-spacing:0px;fill:#ececec;fill-opacity:1;stroke:none;stroke-width:0.264583px;stroke-linecap:butt;stroke-linejoin:miter;stroke-opacity:1"
       x="33.636333"
       y="63.564178"
       id="text2831"><tspan
         sodipodi:role="line"
         id="tspan2829"
         style="fill:#ececec;stroke-width:0.264583px"
         x="33.636333"
         y="63.564178">my.log</tspan></text></g></svg>
