<?xml version="1.0" encoding="UTF-8" standalone="no"?>
<!-- Created with Inkscape (http://www.inkscape.org/) -->

<svg
   width="7.7799201mm"
   height="7.7799602mm"
   viewBox="0 0 7.7799201 7.7799602"
   version="1.1"
   id="svg1"
   inkscape:version="1.3.2 (1:1.3.2+202311252150+091e20ef0f)"
   sodipodi:docname="task.svg"
   xmlns:inkscape="http://www.inkscape.org/namespaces/inkscape"
   xmlns:sodipodi="http://sodipodi.sourceforge.net/DTD/sodipodi-0.dtd"
   xmlns="http://www.w3.org/2000/svg"
   xmlns:svg="http://www.w3.org/2000/svg">
  <sodipodi:namedview
     id="namedview1"
     pagecolor="#ffffff"
     bordercolor="#666666"
     borderopacity="1.0"
     inkscape:showpageshadow="2"
     inkscape:pageopacity="0.0"
     inkscape:pagecheckerboard="0"
     inkscape:deskcolor="#d1d1d1"
     inkscape:document-units="mm"
     inkscape:zoom="13.042033"
     inkscape:cx="1.6868536"
     inkscape:cy="19.245466"
     inkscape:window-width="2560"
     inkscape:window-height="1529"
     inkscape:window-x="0"
     inkscape:window-y="0"
     inkscape:window-maximized="1"
     inkscape:current-layer="layer1" />
  <defs
     id="defs1" />
  <g
     inkscape:label="Layer 1"
     inkscape:groupmode="layer"
     id="layer1"
     transform="translate(-101.07083,-144.72708)"
     style="display:inline">
    <path
       fill="#66757f"
       d="m 108.41854,147.96873 h -0.72656 c -0.07,-0.29586 -0.18672,-0.57291 -0.34188,-0.82424 l 0.51412,-0.51413 c 0.16879,-0.16878 0.16879,-0.44259 0,-0.61137 l -0.30557,-0.30558 c -0.16878,-0.16879 -0.44239,-0.16879 -0.61117,0 l -0.51412,0.51412 c -0.25155,-0.15517 -0.52839,-0.27165 -0.82424,-0.34167 v -0.72656 c 0,-0.23859 -0.19364,-0.43222 -0.43223,-0.43222 h -0.43221 c -0.23859,0 -0.43223,0.19363 -0.43223,0.43222 v 0.72656 c -0.29584,0.07 -0.5729,0.18672 -0.82423,0.34189 l -0.51391,-0.51413 c -0.16878,-0.16878 -0.4426,-0.16878 -0.61116,0 l -0.3058,0.30558 c -0.16878,0.16878 -0.16878,0.44259 -1.9e-4,0.61138 l 0.51412,0.51412 c -0.15516,0.25134 -0.27165,0.52839 -0.34167,0.82403 h -0.72655 c -0.23859,0 -0.43223,0.19363 -0.43223,0.43222 v 0.43222 c 0,0.23858 0.19364,0.43222 0.43223,0.43222 h 0.72655 c 0.07,0.29563 0.18673,0.57269 0.34189,0.82402 l -0.51413,0.51413 c -0.16856,0.16856 -0.16856,0.44259 1.9e-4,0.61137 l 0.30558,0.30558 c 0.16856,0.16857 0.44237,0.16857 0.61116,0 l 0.51412,-0.51412 c 0.25133,0.15538 0.52839,0.27186 0.82424,0.34188 v 0.72656 c 0,0.23859 0.19364,0.43223 0.43222,0.43223 h 0.43222 c 0.23859,0 0.43222,-0.19364 0.43222,-0.43223 v -0.72656 c 0.29563,-0.07 0.57269,-0.18672 0.82403,-0.34188 l 0.51412,0.51412 c 0.16878,0.16878 0.44238,0.16878 0.61116,0 l 0.30559,-0.30558 c 0.16878,-0.16878 0.16878,-0.44259 0,-0.61137 l -0.51414,-0.51413 c 0.15539,-0.25133 0.27187,-0.52839 0.34189,-0.82424 h 0.72656 c 0.23859,0 0.43222,-0.19363 0.43222,-0.43222 v -0.43222 c 0,-0.23837 -0.19363,-0.432 -0.43222,-0.432 z m -3.45775,2.37721 c -0.95478,0 -1.72888,-0.77411 -1.72888,-1.72888 0,-0.95478 0.7741,-1.72888 1.72888,-1.72888 0.95477,0 1.72888,0.77411 1.72888,1.72888 0,0.95477 -0.77411,1.72888 -1.72888,1.72888 z"
       id="path46652"
       style="display:inline;fill:#66757f;fill-opacity:1;stroke-width:0.216109" />
  </g>
</svg>
