<?xml version="1.0" encoding="UTF-8" standalone="no"?>
<!-- Created with Inkscape (http://www.inkscape.org/) -->

<svg
   width="109.63673mm"
   height="79.681374mm"
   viewBox="0 0 109.63673 79.681374"
   version="1.1"
   id="svg11062"
   inkscape:version="1.2 (1:1.2.1+202207142221+cd75a1ee6d)"
   sodipodi:docname="taskgraph.svg"
   xmlns:inkscape="http://www.inkscape.org/namespaces/inkscape"
   xmlns:sodipodi="http://sodipodi.sourceforge.net/DTD/sodipodi-0.dtd"
   xmlns="http://www.w3.org/2000/svg"
   xmlns:svg="http://www.w3.org/2000/svg">
  <sodipodi:namedview
     id="namedview11064"
     pagecolor="#ffffff"
     bordercolor="#666666"
     borderopacity="1.0"
     inkscape:showpageshadow="2"
     inkscape:pageopacity="0.0"
     inkscape:pagecheckerboard="0"
     inkscape:deskcolor="#d1d1d1"
     inkscape:document-units="mm"
     showgrid="false"
     inkscape:zoom="1.1893044"
     inkscape:cx="173.21049"
     inkscape:cy="126.96497"
     inkscape:window-width="1600"
     inkscape:window-height="1129"
     inkscape:window-x="0"
     inkscape:window-y="34"
     inkscape:window-maximized="1"
     inkscape:current-layer="layer1" />
  <defs
     id="defs11059">
    <marker
       style="overflow:visible"
       id="TriangleStart"
       refX="0"
       refY="0"
       orient="auto-start-reverse"
       inkscape:stockid="TriangleStart"
       markerWidth="5.3244081"
       markerHeight="6.155385"
       viewBox="0 0 5.3244081 6.1553851"
       inkscape:isstock="true"
       inkscape:collect="always"
       preserveAspectRatio="xMidYMid">
      <path
         transform="scale(0.5)"
         style="fill:context-stroke;fill-rule:evenodd;stroke:context-stroke;stroke-width:1pt"
         d="M 5.77,0 -2.88,5 V -5 Z"
         id="path135" />
    </marker>
  </defs>
  <g
     inkscape:label="Layer 1"
     inkscape:groupmode="layer"
     id="layer1"
     transform="translate(-50.102993,-86.358247)">
    <path
       fill="#66757f"
       d="m 97.748713,91.090995 h -1.06076 c -0.10223,-0.43194 -0.27259,-0.83644 -0.49914,-1.20338 L 96.939433,89.137 c 0.24643,-0.246419 0.24643,-0.646177 0,-0.892597 l -0.44614,-0.446139 c -0.24642,-0.246419 -0.64588,-0.246419 -0.89228,0 l -0.75062,0.750614 c -0.36726,-0.226547 -0.77145,-0.396606 -1.20339,-0.498833 V 86.98928 c 0,-0.34833 -0.28268,-0.631033 -0.63102,-0.631033 h -0.63103 c -0.34834,0 -0.63105,0.282703 -0.63105,0.631033 v 1.060765 c -0.43191,0.102229 -0.83642,0.272607 -1.20337,0.499146 l -0.75029,-0.750613 c -0.24643,-0.246417 -0.64618,-0.246417 -0.89229,0 l -0.44645,0.446142 c -0.24643,0.246416 -0.24643,0.646177 -3.2e-4,0.892594 l 0.75062,0.750611 c -0.22653,0.36695 -0.39662,0.77144 -0.49884,1.20307 h -1.06076 c -0.34834,0 -0.63103,0.2827 -0.63103,0.63103 v 0.63103 c 0,0.34833 0.28269,0.63104 0.63103,0.63104 h 1.06076 c 0.10222,0.43162 0.27261,0.83611 0.49915,1.20306 l -0.75061,0.75061 c -0.24611,0.24611 -0.24611,0.64618 3.2e-4,0.8926 l 0.44613,0.44614 c 0.24611,0.2461 0.64586,0.2461 0.89229,0 l 0.75061,-0.75061 c 0.36693,0.22686 0.77143,0.39691 1.20337,0.49914 v 1.06077 c 0,0.34833 0.28271,0.63103 0.63102,0.63103 h 0.63106 c 0.34831,0 0.63102,-0.2827 0.63102,-0.63103 v -1.06077 c 0.43162,-0.10222 0.83613,-0.2726 1.20307,-0.49914 l 0.75062,0.75061 c 0.2464,0.24642 0.64586,0.24642 0.89228,0 l 0.44614,-0.44614 c 0.24643,-0.24642 0.24643,-0.64618 0,-0.8926 l -0.75062,-0.75061 c 0.22677,-0.36695 0.39693,-0.77144 0.49914,-1.20338 h 1.06076 c 0.34834,0 0.63105,-0.2827 0.63105,-0.63103 v -0.63103 c 0,-0.34802 -0.28271,-0.63072 -0.63105,-0.63072 z m -5.04825,3.47068 c -1.39394,0 -2.52413,-1.13018 -2.52413,-2.52413 0,-1.39395 1.13019,-2.52413 2.52413,-2.52413 1.39395,0 2.52414,1.13018 2.52414,2.52413 0,1.39395 -1.13019,2.52413 -2.52414,2.52413 z"
       id="path8312"
       style="stroke-width:0.315516" />
    <text
       xml:space="preserve"
       style="font-style:normal;font-variant:normal;font-weight:normal;font-stretch:normal;font-size:4.8617px;line-height:125%;font-family:Raleway-v4020;-inkscape-font-specification:Raleway-v4020;letter-spacing:0px;word-spacing:0px;fill:#000000;fill-opacity:1;stroke:none;stroke-width:0.173632px;stroke-linecap:butt;stroke-linejoin:miter;stroke-opacity:1"
       x="49.738365"
       y="92.746407"
       id="text11081"><tspan
         sodipodi:role="line"
         id="tspan11079"
         style="stroke-width:0.173632px"
         x="49.738365"
         y="92.746407">preprocessing1</tspan></text>
    <path
       fill="#66757f"
       d="m 159.10867,91.090995 h -1.06076 c -0.10223,-0.43194 -0.27259,-0.83644 -0.49914,-1.20338 L 158.29939,89.137 c 0.24643,-0.246419 0.24643,-0.646177 0,-0.892597 l -0.44614,-0.446139 c -0.24642,-0.246419 -0.64588,-0.246419 -0.89228,0 l -0.75062,0.750614 c -0.36726,-0.226547 -0.77145,-0.396606 -1.20339,-0.498833 V 86.98928 c 0,-0.34833 -0.28268,-0.631033 -0.63102,-0.631033 h -0.63103 c -0.34834,0 -0.63105,0.282703 -0.63105,0.631033 v 1.060765 c -0.43191,0.102229 -0.83642,0.272607 -1.20337,0.499146 l -0.75029,-0.750613 c -0.24643,-0.246417 -0.64618,-0.246417 -0.89229,0 l -0.44645,0.446142 c -0.24643,0.246416 -0.24643,0.646177 -3.2e-4,0.892594 l 0.75062,0.750611 c -0.22653,0.36695 -0.39662,0.77144 -0.49884,1.20307 h -1.06076 c -0.34834,0 -0.63103,0.2827 -0.63103,0.63103 v 0.63103 c 0,0.34833 0.28269,0.63104 0.63103,0.63104 h 1.06076 c 0.10222,0.43162 0.27261,0.83611 0.49915,1.20306 l -0.75061,0.75061 c -0.24611,0.24611 -0.24611,0.64618 3.2e-4,0.8926 l 0.44613,0.44614 c 0.24611,0.2461 0.64586,0.2461 0.89229,0 l 0.75061,-0.75061 c 0.36693,0.22686 0.77143,0.39691 1.20337,0.49914 v 1.06077 c 0,0.34833 0.28271,0.63103 0.63102,0.63103 h 0.63106 c 0.34831,0 0.63102,-0.2827 0.63102,-0.63103 v -1.06077 c 0.43162,-0.10222 0.83613,-0.2726 1.20307,-0.49914 l 0.75062,0.75061 c 0.2464,0.24642 0.64586,0.24642 0.89228,0 l 0.44614,-0.44614 c 0.24643,-0.24642 0.24643,-0.64618 0,-0.8926 l -0.75062,-0.75061 c 0.22677,-0.36695 0.39693,-0.77144 0.49914,-1.20338 h 1.06076 c 0.34834,0 0.63105,-0.2827 0.63105,-0.63103 v -0.63103 c 0,-0.34802 -0.28271,-0.63072 -0.63105,-0.63072 z m -5.04825,3.47068 c -1.39394,0 -2.52413,-1.13018 -2.52413,-2.52413 0,-1.39395 1.13019,-2.52413 2.52413,-2.52413 1.39395,0 2.52414,1.13018 2.52414,2.52413 0,1.39395 -1.13019,2.52413 -2.52414,2.52413 z"
       id="path11083"
       style="stroke-width:0.315516" />
    <text
       xml:space="preserve"
       style="font-style:normal;font-variant:normal;font-weight:normal;font-stretch:normal;font-size:4.8617px;line-height:125%;font-family:Raleway-v4020;-inkscape-font-specification:Raleway-v4020;letter-spacing:0px;word-spacing:0px;fill:#000000;fill-opacity:1;stroke:none;stroke-width:0.173632px;stroke-linecap:butt;stroke-linejoin:miter;stroke-opacity:1"
       x="111.15273"
       y="93.271004"
       id="text11087"><tspan
         sodipodi:role="line"
         id="tspan11085"
         style="stroke-width:0.173632px"
         x="111.15273"
         y="93.271004">preprocessing2</tspan></text>
    <path
       fill="#66757f"
       d="m 126.07668,122.04142 h -1.06076 c -0.10223,-0.43194 -0.27259,-0.83644 -0.49914,-1.20338 l 0.75062,-0.75061 c 0.24643,-0.24642 0.24643,-0.64618 0,-0.8926 l -0.44614,-0.44614 c -0.24642,-0.24642 -0.64588,-0.24642 -0.89228,0 l -0.75062,0.75061 c -0.36726,-0.22654 -0.77145,-0.3966 -1.20339,-0.49883 v -1.06076 c 0,-0.34833 -0.28268,-0.63104 -0.63102,-0.63104 h -0.63103 c -0.34834,0 -0.63105,0.28271 -0.63105,0.63104 v 1.06076 c -0.43191,0.10223 -0.83642,0.27261 -1.20337,0.49915 l -0.75029,-0.75062 c -0.24643,-0.24641 -0.64618,-0.24641 -0.89229,0 l -0.44645,0.44615 c -0.24643,0.24641 -0.24643,0.64617 -3.2e-4,0.89259 l 0.75062,0.75061 c -0.22653,0.36695 -0.39662,0.77144 -0.49884,1.20307 h -1.06076 c -0.34834,0 -0.63103,0.2827 -0.63103,0.63103 v 0.63103 c 0,0.34833 0.28269,0.63104 0.63103,0.63104 h 1.06076 c 0.10222,0.43162 0.27261,0.83611 0.49915,1.20306 l -0.75061,0.75061 c -0.24611,0.24611 -0.24611,0.64618 3.2e-4,0.8926 l 0.44613,0.44614 c 0.24611,0.2461 0.64586,0.2461 0.89229,0 l 0.75061,-0.75061 c 0.36693,0.22686 0.77143,0.39691 1.20337,0.49914 v 1.06077 c 0,0.34833 0.28271,0.63103 0.63102,0.63103 h 0.63106 c 0.34831,0 0.63102,-0.2827 0.63102,-0.63103 v -1.06077 c 0.43162,-0.10222 0.83613,-0.2726 1.20307,-0.49914 l 0.75062,0.75061 c 0.2464,0.24642 0.64586,0.24642 0.89228,0 l 0.44614,-0.44614 c 0.24643,-0.24642 0.24643,-0.64618 0,-0.8926 l -0.75062,-0.75061 c 0.22677,-0.36695 0.39693,-0.77144 0.49914,-1.20338 h 1.06076 c 0.34834,0 0.63105,-0.2827 0.63105,-0.63103 v -0.63103 c 0,-0.34802 -0.28271,-0.63072 -0.63105,-0.63072 z m -5.04825,3.47068 c -1.39394,0 -2.52413,-1.13018 -2.52413,-2.52413 0,-1.39395 1.13019,-2.52413 2.52413,-2.52413 1.39395,0 2.52414,1.13018 2.52414,2.52413 0,1.39395 -1.13019,2.52413 -2.52414,2.52413 z"
       id="path11089"
       style="stroke-width:0.315516" />
    <text
       xml:space="preserve"
       style="font-style:normal;font-variant:normal;font-weight:normal;font-stretch:normal;font-size:4.8617px;line-height:125%;font-family:Raleway-v4020;-inkscape-font-specification:Raleway-v4020;letter-spacing:0px;word-spacing:0px;fill:#000000;fill-opacity:1;stroke:none;stroke-width:0.173632px;stroke-linecap:butt;stroke-linejoin:miter;stroke-opacity:1"
       x="99.666473"
       y="123.39104"
       id="text11093"><tspan
         sodipodi:role="line"
         id="tspan11091"
         style="stroke-width:0.173632px"
         x="99.666473"
         y="123.39104">main</tspan></text>
    <text
       xml:space="preserve"
       style="font-style:normal;font-variant:normal;font-weight:normal;font-stretch:normal;font-size:4.8617px;line-height:125%;font-family:Raleway-v4020;-inkscape-font-specification:Raleway-v4020;letter-spacing:0px;word-spacing:0px;fill:#000000;fill-opacity:1;stroke:none;stroke-width:0.173632px;stroke-linecap:butt;stroke-linejoin:miter;stroke-opacity:1"
       x="78.88176"
       y="160.88029"
       id="text11093-3"><tspan
         sodipodi:role="line"
         id="tspan11091-6"
         style="stroke-width:0.173632px"
         x="78.88176"
         y="160.88029">postprocessing</tspan></text>
    <path
       fill="#66757f"
       d="m 126.07668,159.41378 h -1.06076 c -0.10223,-0.43194 -0.27259,-0.83644 -0.49914,-1.20338 l 0.75062,-0.75061 c 0.24643,-0.24642 0.24643,-0.64618 0,-0.8926 l -0.44614,-0.44614 c -0.24642,-0.24642 -0.64588,-0.24642 -0.89228,0 l -0.75062,0.75061 c -0.36726,-0.22654 -0.77145,-0.3966 -1.20339,-0.49883 v -1.06076 c 0,-0.34833 -0.28268,-0.63104 -0.63102,-0.63104 h -0.63103 c -0.34834,0 -0.63105,0.28271 -0.63105,0.63104 v 1.06076 c -0.43191,0.10223 -0.83642,0.27261 -1.20337,0.49915 l -0.75029,-0.75062 c -0.24643,-0.24641 -0.64618,-0.24641 -0.89229,0 l -0.44645,0.44615 c -0.24643,0.24641 -0.24643,0.64617 -3.2e-4,0.89259 l 0.75062,0.75061 c -0.22653,0.36695 -0.39662,0.77144 -0.49884,1.20307 h -1.06076 c -0.34834,0 -0.63103,0.2827 -0.63103,0.63103 v 0.63103 c 0,0.34833 0.28269,0.63104 0.63103,0.63104 h 1.06076 c 0.10222,0.43162 0.27261,0.83611 0.49915,1.20306 l -0.75061,0.75061 c -0.24611,0.24611 -0.24611,0.64618 3.2e-4,0.8926 l 0.44613,0.44614 c 0.24611,0.2461 0.64586,0.2461 0.89229,0 l 0.75061,-0.75061 c 0.36693,0.22686 0.77143,0.39691 1.20337,0.49914 v 1.06077 c 0,0.34833 0.28271,0.63103 0.63102,0.63103 h 0.63106 c 0.34831,0 0.63102,-0.2827 0.63102,-0.63103 v -1.06077 c 0.43162,-0.10222 0.83613,-0.2726 1.20307,-0.49914 l 0.75062,0.75061 c 0.2464,0.24642 0.64586,0.24642 0.89228,0 l 0.44614,-0.44614 c 0.24643,-0.24642 0.24643,-0.64618 0,-0.8926 l -0.75062,-0.75061 c 0.22677,-0.36695 0.39693,-0.77144 0.49914,-1.20338 h 1.06076 c 0.34834,0 0.63105,-0.2827 0.63105,-0.63103 v -0.63103 c 0,-0.34802 -0.28271,-0.63072 -0.63105,-0.63072 z m -5.04825,3.47068 c -1.39394,0 -2.52413,-1.13018 -2.52413,-2.52413 0,-1.39395 1.13019,-2.52413 2.52413,-2.52413 1.39395,0 2.52414,1.13018 2.52414,2.52413 0,1.39395 -1.13019,2.52413 -2.52414,2.52413 z"
       id="path11124"
       style="stroke-width:0.315516" />
    <path
       style="fill:none;fill-rule:evenodd;stroke:#000000;stroke-width:1;stroke-linecap:butt;stroke-linejoin:miter;stroke-dasharray:none;stroke-opacity:1;marker-end:url(#TriangleStart)"
       d="m 120.81647,131.72577 v 16.73399"
       id="path11126" />
    <path
       style="fill:none;fill-rule:evenodd;stroke:#000000;stroke-width:1;stroke-linecap:butt;stroke-linejoin:miter;stroke-dasharray:none;stroke-opacity:1;marker-end:url(#TriangleStart)"
       d="M 98.290851,98.093265 115.74034,114.82725"
       id="path11665"
       sodipodi:nodetypes="cc" />
    <path
       style="fill:none;fill-rule:evenodd;stroke:#000000;stroke-width:1;stroke-linecap:butt;stroke-linejoin:miter;stroke-dasharray:none;stroke-opacity:1;marker-end:url(#TriangleStart)"
       d="M 144.07073,98.093265 126.62124,114.82725"
       id="path11673"
       sodipodi:nodetypes="cc" />
  </g>
</svg>
