<?xml version="1.0" encoding="UTF-8" standalone="no"?>
<!-- Created with Inkscape (http://www.inkscape.org/) -->

<svg
   width="80.017189mm"
   height="61.372364mm"
   viewBox="0 0 80.017189 61.372364"
   version="1.1"
   id="svg8482"
   inkscape:version="1.2 (1:1.2.1+202207142221+cd75a1ee6d)"
   sodipodi:docname="wrong.svg"
   xmlns:inkscape="http://www.inkscape.org/namespaces/inkscape"
   xmlns:sodipodi="http://sodipodi.sourceforge.net/DTD/sodipodi-0.dtd"
   xmlns="http://www.w3.org/2000/svg"
   xmlns:svg="http://www.w3.org/2000/svg">
  <sodipodi:namedview
     id="namedview8484"
     pagecolor="#ffffff"
     bordercolor="#666666"
     borderopacity="1.0"
     inkscape:showpageshadow="2"
     inkscape:pageopacity="0.0"
     inkscape:pagecheckerboard="0"
     inkscape:deskcolor="#d1d1d1"
     inkscape:document-units="mm"
     showgrid="false"
     inkscape:zoom="2.3786088"
     inkscape:cx="80.719452"
     inkscape:cy="94.172695"
     inkscape:window-width="1600"
     inkscape:window-height="1129"
     inkscape:window-x="0"
     inkscape:window-y="34"
     inkscape:window-maximized="1"
     inkscape:current-layer="layer1" />
  <defs
     id="defs8479" />
  <g
     inkscape:label="Layer 1"
     inkscape:groupmode="layer"
     id="layer1"
     transform="translate(-70.622681,-62.772644)">
    <path
       fill="#abdfff"
       d="m 116.4185,104.41948 c -5.52266,7.37769 -6.87727,15.35755 -3.02546,17.82324 3.8518,2.46569 11.45121,-1.51697 16.97265,-8.89465 5.52266,-7.37769 3.33444,-20.633039 3.02548,-20.150806 -2.1531,3.361091 -11.45001,3.844536 -16.97267,11.222216 z"
       id="path225-6"
       style="stroke-width:1.21164" />
    <path
       fill="#abdfff"
       d="m 108.12179,104.41948 c 5.52266,7.37769 6.87728,15.35755 3.02668,17.82324 -3.85181,2.46569 -11.451224,-1.51697 -16.973883,-8.89465 -5.522661,-7.37769 -3.441062,-20.56034 -3.02547,-20.150806 4.547291,4.481859 11.451223,3.844536 16.972673,11.222216 z"
       id="path227-7"
       style="stroke-width:1.21164" />
    <path
       fill="#55acee"
       d="m 96.825052,101.45823 c 1.163174,1.94348 1.921661,3.81304 5.150688,6.85668 1.24799,1.1765 1.14015,2.72013 -0.21688,1.69387 -3.227816,-2.44145 -5.217326,-6.32597 -5.874039,-8.8062 -0.462843,-1.745982 0.353807,-0.72335 0.940234,0.25565 z m 32.476828,0 c -1.16318,1.94348 -1.92167,3.81304 -5.15068,6.85668 -1.248,1.1765 -1.14016,2.72013 0.21688,1.69387 3.22781,-2.44145 5.21732,-6.32597 5.87403,-8.8062 0.46285,-1.745982 -0.35381,-0.72335 -0.94023,0.25565 z"
       id="path229"
       style="stroke-width:1.21164" />
    <path
       fill="#ffac33"
       d="m 113.11104,78.236587 c -2.19464,0 -4.2631,0.517746 -6.11216,1.416784 -0.50121,-0.08671 -1.01384,-0.141557 -1.53924,-0.141557 -4.93006,0 -8.926629,3.996583 -8.926629,8.926641 v 15.302805 h 0.0241 c 0.23328,8.24694 6.976829,14.86413 15.279869,14.86413 8.30304,0 15.04649,-6.61719 15.27986,-14.86413 h 0.0241 V 92.264157 c 0,-7.747047 -6.28051,-14.027575 -14.02759,-14.027575 z"
       id="path8423"
       style="stroke-width:1.27523" />
    <path
       fill="#9268ca"
       d="m 123.31293,105.0165 h -22.95421 c -2.816969,0 -5.100919,2.28394 -5.100919,5.10093 v 14.02758 h 33.156049 v -14.02758 c 0,-2.81699 -2.28395,-5.10093 -5.10092,-5.10093 z"
       id="path8425"
       style="stroke-width:1.27523" />
    <path
       fill="#ffdc5d"
       d="m 106.7349,84.612758 c 0,0 -0.004,6.76894 -6.37618,7.569786 v 7.733017 c 0,6.339189 5.13793,11.477109 11.4771,11.477109 6.33917,0 11.47711,-5.13792 11.47711,-11.477109 V 93.515165 C 109.14508,93.035693 106.7349,84.612758 106.7349,84.612758 Z"
       id="path8427"
       style="stroke-width:1.27523" />
    <path
       fill="#7450a8"
       d="m 101.63393,112.6679 h 1.27527 v 11.47711 h -1.27527 z"
       id="path8429"
       style="stroke-width:1.27523" />
    <path
       fill="#fcab40"
       d="m 94.877761,112.02391 -0.36101,-0.0752 h -0.65163 c 0,-0.074 0.0289,-0.14281 0.0434,-0.21549 -0.4439,-0.2742 -0.69627,-0.79702 -0.58406,-1.33645 0.14266,-0.69117 0.81999,-1.13495 1.51244,-0.9934 l 2.6665,0.55217 h 2.13728 c 1.100549,0 1.991919,0.89267 1.991919,1.99447 v 1.99319 h -4.778279 c 0,0 -1.88863,-0.85313 -1.97789,-1.91923 z"
       id="path8431"
       style="stroke-width:1.27523" />
    <path
       fill="#ffdc5d"
       d="m 88.881611,110.95271 c 0,-0.5509 0.44631,-0.99723 0.99596,-0.99723 l 5.98087,0.99723 h 4.778279 c 0.5509,0 0.99596,0.44761 0.99596,0.99596 v 1.99447 h -6.374879 l -5.38023,-1.9932 c 0,0 -0.99596,-0.44631 -0.99596,-0.99723 z"
       id="path8433"
       style="stroke-width:1.27523" />
    <path
       fill="#9268ca"
       d="m 93.982531,124.14501 h 7.651399 v -10.20187 h -6.376129 z"
       id="path8435"
       style="stroke-width:1.27523" />
    <path
       fill="#7450a8"
       d="m 120.76244,112.6679 h 1.27527 v 11.47711 h -1.27527 z"
       id="path8437"
       style="stroke-width:1.27523" />
    <path
       fill="#fcab40"
       d="m 128.79389,112.02391 0.361,-0.0752 h 0.65163 c 0,-0.074 -0.0289,-0.14281 -0.0434,-0.21549 0.44391,-0.2742 0.69627,-0.79702 0.58407,-1.33645 -0.14267,-0.69117 -0.81874,-1.13495 -1.51115,-0.9934 l -2.66654,0.55217 h -2.13729 c -1.10055,0 -1.99192,0.89267 -1.99192,1.99447 v 1.99319 h 4.77829 c -10e-4,0 1.88737,-0.85313 1.97664,-1.91923 z"
       id="path8439"
       style="stroke-width:1.27523" />
    <path
       fill="#ffdc5d"
       d="m 134.79003,110.95271 c 0,-0.5509 -0.44631,-0.99723 -0.99596,-0.99723 l -5.98212,0.99723 h -4.77828 c -0.5509,0 -0.99596,0.44761 -0.99596,0.99596 v 1.99447 h 6.37614 l 5.38022,-1.9932 c 0,0 0.99596,-0.44631 0.99596,-0.99723 z"
       id="path8441"
       style="stroke-width:1.27523" />
    <path
       fill="#9268ca"
       d="m 129.68911,124.14501 h -7.6514 v -10.20187 h 6.37614 z"
       id="path8443"
       style="stroke-width:1.27523" />
    <path
       fill="#bf6952"
       d="m 113.11104,103.10365 h -2.55044 c -0.35184,0 -0.63765,-0.28567 -0.63765,-0.63762 0,-0.35194 0.28581,-0.63761 0.63765,-0.63761 h 2.55044 c 0.35184,0 0.63761,0.28566 0.63761,0.63761 0,0.35199 -0.28581,0.63762 -0.63761,0.63762 z"
       id="path8445"
       style="stroke-width:1.27523" />
    <path
       fill="#df1f32"
       d="m 115.02391,107.56697 h -0.6376 c -0.35185,0 -0.63766,-0.28567 -0.63766,-0.63762 0,-0.35199 0.28581,-0.63762 0.63766,-0.63762 h 0.6376 c 0.35185,0 0.63761,0.28567 0.63761,0.63762 0,0.35199 -0.28581,0.63762 -0.63761,0.63762 z"
       id="path8447"
       style="stroke-width:1.27523" />
    <path
       fill="#662113"
       d="m 106.7349,98.640329 c -0.70393,0 -1.27526,-0.571304 -1.27526,-1.275233 v -1.275232 c 0,-0.703929 0.57133,-1.275237 1.27526,-1.275237 0.70393,0 1.27522,0.571308 1.27522,1.275237 v 1.275232 c 0,0.703929 -0.57129,1.275233 -1.27522,1.275233 z m 10.20184,0 c -0.70518,0 -1.27522,-0.571304 -1.27522,-1.275233 v -1.275232 c 0,-0.703929 0.57004,-1.275237 1.27522,-1.275237 0.70523,0 1.27527,0.571308 1.27527,1.275237 v 1.275232 c 0,0.703929 -0.57004,1.275233 -1.27527,1.275233 z"
       id="path8449"
       style="stroke-width:1.27523" />
    <text
       xml:space="preserve"
       style="font-style:normal;font-variant:normal;font-weight:bold;font-stretch:normal;font-size:7.40833px;line-height:125%;font-family:Raleway-v4020;-inkscape-font-specification:'Raleway-v4020 Bold';letter-spacing:0px;word-spacing:0px;fill:#000000;fill-opacity:1;stroke:none;stroke-width:0.264583px;stroke-linecap:butt;stroke-linejoin:miter;stroke-opacity:1"
       x="75.622681"
       y="68.180725"
       id="text8553"><tspan
         sodipodi:role="line"
         id="tspan8551"
         style="font-style:normal;font-variant:normal;font-weight:bold;font-stretch:normal;font-family:Raleway-v4020;-inkscape-font-specification:'Raleway-v4020 Bold';fill:#000000;fill-opacity:1;stroke:none;stroke-width:0.264583px;stroke-opacity:1"
         x="76.622681"
         y="68.180725">What's the problem?</tspan></text>
  </g>
</svg>
