<?xml version="1.0" encoding="UTF-8" standalone="no"?>
<!-- Created with Inkscape (http://www.inkscape.org/) -->

<svg
   width="149.55589mm"
   height="128.19061mm"
   viewBox="0 0 149.55589 128.19061"
   version="1.1"
   id="svg1"
   inkscape:version="1.3.2 (1:1.3.2+202311252150+091e20ef0f)"
   sodipodi:docname="survey-which-statements-are-true.svg"
   xmlns:inkscape="http://www.inkscape.org/namespaces/inkscape"
   xmlns:sodipodi="http://sodipodi.sourceforge.net/DTD/sodipodi-0.dtd"
   xmlns="http://www.w3.org/2000/svg"
   xmlns:svg="http://www.w3.org/2000/svg">
  <sodipodi:namedview
     id="namedview1"
     pagecolor="#ffffff"
     bordercolor="#666666"
     borderopacity="1.0"
     inkscape:showpageshadow="2"
     inkscape:pageopacity="0.0"
     inkscape:pagecheckerboard="0"
     inkscape:deskcolor="#d1d1d1"
     inkscape:document-units="mm"
     inkscape:zoom="1.3826038"
     inkscape:cx="259.655"
     inkscape:cy="243.743"
     inkscape:window-width="1920"
     inkscape:window-height="1015"
     inkscape:window-x="0"
     inkscape:window-y="0"
     inkscape:window-maximized="1"
     inkscape:current-layer="layer1" />
  <defs
     id="defs1">
    <clipPath
       clipPathUnits="userSpaceOnUse"
       id="clipPath150">
      <path
         d="M 11.156,134.062 H 435.094 V 497.437 H 11.156 Z"
         id="path150" />
    </clipPath>
    <clipPath
       clipPathUnits="userSpaceOnUse"
       id="clipPath152">
      <path
         d="M 11.156,134.062 H 435.094 V 497.437 H 11.156 Z"
         id="path152" />
    </clipPath>
    <clipPath
       clipPathUnits="userSpaceOnUse"
       id="clipPath154">
      <path
         d="M 11.156,134.062 H 435.094 V 497.437 H 11.156 Z"
         id="path154" />
    </clipPath>
    <clipPath
       clipPathUnits="userSpaceOnUse"
       id="clipPath156">
      <path
         d="M 11.156,134.062 H 435.094 V 497.437 H 11.156 Z"
         id="path156" />
    </clipPath>
    <clipPath
       clipPathUnits="userSpaceOnUse"
       id="clipPath158">
      <path
         d="M 11.156,134.062 H 435.094 V 497.437 H 11.156 Z"
         id="path158" />
    </clipPath>
    <clipPath
       clipPathUnits="userSpaceOnUse"
       id="clipPath160">
      <path
         d="M 11.156,134.062 H 435.094 V 497.437 H 11.156 Z"
         id="path160" />
    </clipPath>
    <clipPath
       clipPathUnits="userSpaceOnUse"
       id="clipPath162">
      <path
         d="M 11.156,134.062 H 435.094 V 497.437 H 11.156 Z"
         id="path162" />
    </clipPath>
    <clipPath
       clipPathUnits="userSpaceOnUse"
       id="clipPath164">
      <path
         d="M 11.156,134.062 H 435.094 V 497.437 H 11.156 Z"
         id="path164" />
    </clipPath>
    <clipPath
       clipPathUnits="userSpaceOnUse"
       id="clipPath166">
      <path
         d="m 73,263 h 84 v 92.113 H 73 Z"
         id="path166" />
    </clipPath>
    <clipPath
       clipPathUnits="userSpaceOnUse"
       id="clipPath168">
      <path
         d="m 176,301 h 84 v 54.113 h -84 z"
         id="path168" />
    </clipPath>
    <clipPath
       clipPathUnits="userSpaceOnUse"
       id="clipPath170">
      <path
         d="m 280,269 h 83 v 86.113 h -83 z"
         id="path170" />
    </clipPath>
  </defs>
  <g
     inkscape:label="Layer 1"
     inkscape:groupmode="layer"
     id="layer1"
     transform="translate(-30.162481,-84.402082)">
    <g
       id="g186"
       transform="matrix(0.26458333,0,0,0.26458333,-624.6481,37.107989)">
      <path
         id="path149"
         d="M 11.156,134.062 H 435.094 V 497.437 H 11.156 Z"
         style="fill:#ffffff;fill-opacity:1;fill-rule:nonzero;stroke:none"
         transform="matrix(1.3333333,0,0,1.3333333,2460,0)"
         clip-path="url(#clipPath150)" />
      <path
         id="path151"
         d="M 57.184,164.344 H 379.375 V 361.172 H 57.184 Z"
         style="fill:#ffffff;fill-opacity:1;fill-rule:nonzero;stroke:none"
         transform="matrix(1.3333333,0,0,1.3333333,2460,0)"
         clip-path="url(#clipPath152)" />
      <path
         id="path153"
         d="M 63.238,324.07 H 373.316"
         style="fill:none;stroke:#e5ecf6;stroke-width:0.605625;stroke-linecap:butt;stroke-linejoin:miter;stroke-miterlimit:4;stroke-dasharray:none;stroke-opacity:1"
         transform="matrix(1.3333333,0,0,1.3333333,2460,0)"
         clip-path="url(#clipPath154)" />
      <path
         id="path155"
         d="M 63.238,293.027 H 373.316"
         style="fill:none;stroke:#e5ecf6;stroke-width:0.605625;stroke-linecap:butt;stroke-linejoin:miter;stroke-miterlimit:4;stroke-dasharray:none;stroke-opacity:1"
         transform="matrix(1.3333333,0,0,1.3333333,2460,0)"
         clip-path="url(#clipPath156)" />
      <path
         id="path157"
         d="M 63.238,261.984 H 373.316"
         style="fill:none;stroke:#e5ecf6;stroke-width:0.605625;stroke-linecap:butt;stroke-linejoin:miter;stroke-miterlimit:4;stroke-dasharray:none;stroke-opacity:1"
         transform="matrix(1.3333333,0,0,1.3333333,2460,0)"
         clip-path="url(#clipPath158)" />
      <path
         id="path159"
         d="M 63.238,230.938 H 373.316"
         style="fill:none;stroke:#e5ecf6;stroke-width:0.605625;stroke-linecap:butt;stroke-linejoin:miter;stroke-miterlimit:4;stroke-dasharray:none;stroke-opacity:1"
         transform="matrix(1.3333333,0,0,1.3333333,2460,0)"
         clip-path="url(#clipPath160)" />
      <path
         id="path161"
         d="M 63.238,199.895 H 373.316"
         style="fill:none;stroke:#e5ecf6;stroke-width:0.605625;stroke-linecap:butt;stroke-linejoin:miter;stroke-miterlimit:4;stroke-dasharray:none;stroke-opacity:1"
         transform="matrix(1.3333333,0,0,1.3333333,2460,0)"
         clip-path="url(#clipPath162)" />
      <path
         id="path163"
         d="M 63.238,355.117 H 373.316"
         style="fill:none;stroke:#ffffff;stroke-width:1.21125;stroke-linecap:butt;stroke-linejoin:miter;stroke-miterlimit:4;stroke-dasharray:none;stroke-opacity:1"
         transform="matrix(1.3333333,0,0,1.3333333,2460,0)"
         clip-path="url(#clipPath164)" />
      <path
         id="path165"
         d="m 73.578,263.496 h 82.688 v 91.621 H 73.578 Z"
         style="fill:#636efa;fill-opacity:1;fill-rule:nonzero;stroke:#e5ecf6;stroke-width:0.302812;stroke-linecap:butt;stroke-linejoin:miter;stroke-miterlimit:4;stroke-dasharray:none;stroke-opacity:1"
         transform="matrix(1.3333333,0,0,1.3333333,2460,0)"
         clip-path="url(#clipPath166)" />
      <text
         id="text166"
         xml:space="preserve"
         transform="matrix(1.3333333,0,0,1.3333333,2599.5208,345.67708)"><tspan
           style="font-variant:normal;font-weight:normal;font-size:7.2675px;font-family:'Open Sans';writing-mode:lr-tb;fill:#2a3f5f;fill-opacity:1;fill-rule:nonzero;stroke:none"
           x="0 4.1497426 8.2994852 10.23264 14.382382"
           y="0"
           sodipodi:role="line"
           id="tspan166">59.0%</tspan></text>
      <path
         id="path167"
         d="m 176.934,301.391 h 82.691 v 53.727 h -82.691 z"
         style="fill:#636efa;fill-opacity:1;fill-rule:nonzero;stroke:#e5ecf6;stroke-width:0.302812;stroke-linecap:butt;stroke-linejoin:miter;stroke-miterlimit:4;stroke-dasharray:none;stroke-opacity:1"
         transform="matrix(1.3333333,0,0,1.3333333,2460,0)"
         clip-path="url(#clipPath168)" />
      <text
         id="text168"
         xml:space="preserve"
         transform="matrix(1.3333333,0,0,1.3333333,2737.4271,396.20313)"><tspan
           style="font-variant:normal;font-weight:normal;font-size:7.2675px;font-family:'Open Sans';writing-mode:lr-tb;fill:#2a3f5f;fill-opacity:1;fill-rule:nonzero;stroke:none"
           x="0 4.1497426 8.2994852 10.23264 14.382382"
           y="0"
           sodipodi:role="line"
           id="tspan168">34.6%</tspan></text>
      <path
         id="path169"
         d="m 280.297,269.613 h 82.684 v 85.504 h -82.684 z"
         style="fill:#636efa;fill-opacity:1;fill-rule:nonzero;stroke:#e5ecf6;stroke-width:0.302812;stroke-linecap:butt;stroke-linejoin:miter;stroke-miterlimit:4;stroke-dasharray:none;stroke-opacity:1"
         transform="matrix(1.3333333,0,0,1.3333333,2460,0)"
         clip-path="url(#clipPath170)" />
      <text
         id="text170"
         xml:space="preserve"
         transform="matrix(1.3333333,0,0,1.3333333,2875.1458,353.83333)"><tspan
           style="font-variant:normal;font-weight:normal;font-size:7.2675px;font-family:'Open Sans';writing-mode:lr-tb;fill:#2a3f5f;fill-opacity:1;fill-rule:nonzero;stroke:none"
           x="0 4.1497426 8.2994852 10.23264 14.382382"
           y="0"
           sodipodi:role="line"
           id="tspan170">55.1%</tspan></text>
      <text
         id="text171"
         xml:space="preserve"
         transform="matrix(0.94280904,0.94280904,-0.94280904,0.94280904,2608.6563,493.39583)"><tspan
           style="font-variant:normal;font-weight:normal;font-size:9.69px;font-family:'Open Sans';writing-mode:lr-tb;fill:#2a3f5f;fill-opacity:1;fill-rule:nonzero;stroke:none"
           x="0 5.9884205 11.928391 16.55052 22.490492 26.444012 31.880102 37.810383 43.750351 46.19223 50.145752 55.581841 62.723373 67.345505 69.787384 75.087814 81.027786 83.469666 86.744881 89.186768 93.799202 99.186844 105.12682 108.54739 110.98927"
           y="0"
           sodipodi:role="line"
           id="tspan171">Rustrequiressignificantly</tspan><tspan
           style="font-variant:normal;font-weight:normal;font-size:9.69px;font-family:'Open Sans';writing-mode:lr-tb;fill:#2a3f5f;fill-opacity:1;fill-rule:nonzero;stroke:none"
           x="0 9.0117006 14.864461 18.817982 26.773472 32.20956 35.484783 38.760002 44.612762 48.56628 54.506252 57.926823 66.289291 68.731171 74.167267 79.554901 83.508423 91.967796 95.388367 101.32833 106.71597"
           y="12.595344"
           sodipodi:role="line"
           id="tspan172">moreefforttolearnthan</tspan><tspan
           style="font-variant:normal;font-weight:normal;font-size:9.69px;font-family:'Open Sans';writing-mode:lr-tb;fill:#2a3f5f;fill-opacity:1;fill-rule:nonzero;stroke:none"
           x="0 5.8527603 9.2733307 15.213301 20.649391 27.122311 33.052593 37.006111 42.858871 48.159302 52.112823 57.500462 66.512161 75.523865 77.965744 83.905716 91.715851 94.157738 99.545372 105.48534 110.78577 116.72575 122.11339 127.41382 132.8499"
           y="25.196211"
           sodipodi:role="line"
           id="tspan173">otherprogramminglanguages</tspan><tspan
           style="font-variant:normal;font-weight:normal;font-size:9.69px;font-family:'Open Sans';writing-mode:lr-tb;fill:#2a3f5f;fill-opacity:1;fill-rule:nonzero;stroke:none"
           x="73.088882 79.077301 85.017273 89.639404 95.579376 98.021255 105.15309 109.77522 112.2171 117.51753 123.4575 125.89938 129.17461 131.61649 136.22893 141.61656 147.55653 150.97711 153.41899 160.81245 169.82416 175.67691 179.63043"
           y="-73.088875"
           sodipodi:role="line"
           id="tspan174">Rustissignificantlymore</tspan><tspan
           style="font-variant:normal;font-weight:normal;font-size:9.69px;font-family:'Open Sans';writing-mode:lr-tb;fill:#2a3f5f;fill-opacity:1;fill-rule:nonzero;stroke:none"
           x="73.088882 77.701324 83.554085 92.565781 98.496063 100.93794 103.37982 107.99226 113.37991 116.80048 122.23656 130.68625 134.10681 142.47897 148.40926 152.36278 158.21553 163.51596 167.46948 172.85713 184.37854 186.82042 195.27979 198.70036 204.64034 210.02797"
           y="-60.49353"
           sodipodi:role="line"
           id="tspan175">complicatedtoprograminthan</tspan><tspan
           style="font-variant:normal;font-weight:normal;font-size:9.69px;font-family:'Open Sans';writing-mode:lr-tb;fill:#2a3f5f;fill-opacity:1;fill-rule:nonzero;stroke:none"
           x="73.088882 78.941643 82.362213 88.302185 93.738274 100.2112 106.14147 110.09499 115.94775 121.24818 125.20171 130.58934 139.60104 148.61275 151.05463 156.9946 164.80473 167.24661 172.63426 178.57423 183.87466 189.81462 195.20227 200.5027 205.93878"
           y="-47.892662"
           sodipodi:role="line"
           id="tspan176">otherprogramminglanguages</tspan><tspan
           style="font-variant:normal;font-weight:normal;font-size:9.69px;font-family:'Open Sans';writing-mode:lr-tb;fill:#2a3f5f;fill-opacity:1;fill-rule:nonzero;stroke:none"
           x="146.175 152.16342 158.10339 162.72552 168.6655 177.6772 183.06483 188.1424 193.57849 200.72002 209.73172 217.68721 226.69891 232.55167 236.50519 244.45099 250.38127 254.33479 260.18756 266.11783 272.0578 276.67023 280.09082 282.53268 287.37769"
           y="-146.17497"
           sodipodi:role="line"
           id="tspan177">Rustmakesmemoreproductive</tspan></text>
      <text
         id="text177"
         xml:space="preserve"
         transform="matrix(1.3333333,0,0,1.3333333,2522.4167,476.88021)"><tspan
           style="font-variant:normal;font-weight:normal;font-size:7.2675px;font-family:'Open Sans';writing-mode:lr-tb;fill:#2a3f5f;fill-opacity:1;fill-rule:nonzero;stroke:none"
           x="0 4.1497426"
           y="0"
           sodipodi:role="line"
           id="tspan178">0%</tspan><tspan
           style="font-variant:normal;font-weight:normal;font-size:7.2675px;font-family:'Open Sans';writing-mode:lr-tb;fill:#2a3f5f;fill-opacity:1;fill-rule:nonzero;stroke:none"
           x="-4.1562471 -0.0065044099 4.1432381"
           y="-31.046877"
           sodipodi:role="line"
           id="tspan179">20%</tspan><tspan
           style="font-variant:normal;font-weight:normal;font-size:7.2675px;font-family:'Open Sans';writing-mode:lr-tb;fill:#2a3f5f;fill-opacity:1;fill-rule:nonzero;stroke:none"
           x="-4.1562471 -0.0065044099 4.1432381"
           y="-62.089844"
           sodipodi:role="line"
           id="tspan180">40%</tspan><tspan
           style="font-variant:normal;font-weight:normal;font-size:7.2675px;font-family:'Open Sans';writing-mode:lr-tb;fill:#2a3f5f;fill-opacity:1;fill-rule:nonzero;stroke:none"
           x="-4.1562471 -0.0065044099 4.1432381"
           y="-93.132812"
           sodipodi:role="line"
           id="tspan181">60%</tspan><tspan
           style="font-variant:normal;font-weight:normal;font-size:7.2675px;font-family:'Open Sans';writing-mode:lr-tb;fill:#2a3f5f;fill-opacity:1;fill-rule:nonzero;stroke:none"
           x="-4.1562471 -0.0065044099 4.1432381"
           y="-124.17969"
           sodipodi:role="line"
           id="tspan182">80%</tspan><tspan
           style="font-variant:normal;font-weight:normal;font-size:7.2675px;font-family:'Open Sans';writing-mode:lr-tb;fill:#2a3f5f;fill-opacity:1;fill-rule:nonzero;stroke:none"
           x="-8.3124943 -4.1627512 -0.01300883 4.1367335"
           y="-155.22266"
           sodipodi:role="line"
           id="tspan183">100%</tspan></text>
      <text
         id="text183"
         xml:space="preserve"
         transform="matrix(1.3333333,0,0,1.3333333,2503.1354,202.97396)"><tspan
           style="font-variant:normal;font-weight:700;font-size:10.2956px;font-family:'Open Sans';writing-mode:lr-tb;fill:#2a3f5f;fill-opacity:1;fill-rule:nonzero;stroke:none"
           x="0 9.9455738 16.709799 19.849964 25.141916 34.583004 40.955997 47.617264 52.085567 58.849792 67.590775 71.575188 77.948174 81.088341 84.228508 90.601501 99.404259 102.54443 109.30865 117.79224 122.90917 127.37747 133.59602 138.06433 144.13875 154.23875 160.31317 167.07741 171.5457 179.33949 185.55804 192.06488 198.43788 205.2021 212.34726 219.14238 225.9066 231.02353 238.1584 244.66524 253.71509 259.56299 265.936 275.37708 279.36148 285.43591 291.51031 297.32736 303.5459 308.22012 316.97141 321.4397 326.11392 332.87814 338.95258"
           y="0"
           sodipodi:role="line"
           id="tspan184">WhichofthefollowingstatementsaboutRustdoyoufeelaretrue?</tspan></text>
      <text
         id="text184"
         xml:space="preserve"
         transform="matrix(1.3333333,0,0,1.3333333,2503.1354,220.82292)"><tspan
           style="font-variant:normal;font-weight:normal;font-size:8.2365px;font-family:'Open Sans';writing-mode:lr-tb;fill:#2a3f5f;fill-opacity:1;fill-rule:nonzero;stroke:none"
           x="0 2.4297676 5.3372521 10.312098 13.219583 17.799076 22.016165 25.376656 29.997334 33.926144 38.966881 43.941727 48.990704 52.919514 57.540188 63.610489 70.455025 75.158066 79.861107 84.564148 89.267189 93.418381 101.07833 106.1273 108.2029 111.11038 113.18598 118.22672 120.30232 127.06448 131.64398 136.69295 140.62177 147.02153 151.6422 155.0027 158.9315"
           y="0"
           sodipodi:role="line"
           id="tspan185">(totalresponses=9413,multipleanswers)</tspan></text>
      <text
         id="text185"
         xml:space="preserve"
         transform="matrix(0,-1.3333333,1.3333333,0,2491.2135,433.52083)"><tspan
           style="font-variant:normal;font-weight:normal;font-size:8.47875px;font-family:'Open Sans';writing-mode:lr-tb;fill:#2a3f5f;fill-opacity:1;fill-rule:nonzero;stroke:none"
           x="0 5.1042075 9.8607864 13.320116 17.356001 22.112579 27.310053 32.507526 37.628693 42.826168 48.01516 53.136326 58.206619 62.920803 65.057449 69.398567 72.857903 77.614479 81.658844 86.847839 91.969002 97.166473 101.21084 105.96741 112.21626 114.71749 121.6955"
           y="0"
           sodipodi:role="line"
           id="tspan186">Percentoutofallresponses(%)</tspan></text>
    </g>
  </g>
</svg>
