<?xml version="1.0" encoding="UTF-8" standalone="no"?>
<!-- Created with Inkscape (http://www.inkscape.org/) -->

<svg
   width="144.41156mm"
   height="118.39626mm"
   viewBox="0 0 144.41156 118.39626"
   version="1.1"
   id="svg1"
   inkscape:version="1.3.2 (1:1.3.2+202311252150+091e20ef0f)"
   sodipodi:docname="survey-areas.svg"
   xmlns:inkscape="http://www.inkscape.org/namespaces/inkscape"
   xmlns:sodipodi="http://sodipodi.sourceforge.net/DTD/sodipodi-0.dtd"
   xmlns="http://www.w3.org/2000/svg"
   xmlns:svg="http://www.w3.org/2000/svg">
  <sodipodi:namedview
     id="namedview1"
     pagecolor="#ffffff"
     bordercolor="#666666"
     borderopacity="1.0"
     inkscape:showpageshadow="2"
     inkscape:pageopacity="0.0"
     inkscape:pagecheckerboard="0"
     inkscape:deskcolor="#d1d1d1"
     inkscape:document-units="mm"
     inkscape:zoom="1.9552971"
     inkscape:cx="267.98997"
     inkscape:cy="260.06278"
     inkscape:window-width="2560"
     inkscape:window-height="1529"
     inkscape:window-x="0"
     inkscape:window-y="0"
     inkscape:window-maximized="1"
     inkscape:current-layer="layer1" />
  <defs
     id="defs1">
    <clipPath
       clipPathUnits="userSpaceOnUse"
       id="clipPath854">
      <path
         d="M 11.156,134.062 H 435.094 V 497.437 H 11.156 Z"
         id="path854" />
    </clipPath>
    <clipPath
       clipPathUnits="userSpaceOnUse"
       id="clipPath856">
      <path
         d="M 11.156,134.062 H 435.094 V 497.437 H 11.156 Z"
         id="path856" />
    </clipPath>
    <clipPath
       clipPathUnits="userSpaceOnUse"
       id="clipPath858">
      <path
         d="M 11.156,134.062 H 435.094 V 497.437 H 11.156 Z"
         id="path858" />
    </clipPath>
    <clipPath
       clipPathUnits="userSpaceOnUse"
       id="clipPath860">
      <path
         d="M 11.156,134.062 H 435.094 V 497.437 H 11.156 Z"
         id="path860" />
    </clipPath>
    <clipPath
       clipPathUnits="userSpaceOnUse"
       id="clipPath862">
      <path
         d="M 11.156,134.062 H 435.094 V 497.437 H 11.156 Z"
         id="path862" />
    </clipPath>
    <clipPath
       clipPathUnits="userSpaceOnUse"
       id="clipPath864">
      <path
         d="M 11.156,134.062 H 435.094 V 497.437 H 11.156 Z"
         id="path864" />
    </clipPath>
    <clipPath
       clipPathUnits="userSpaceOnUse"
       id="clipPath866">
      <path
         d="M 11.156,134.062 H 435.094 V 497.437 H 11.156 Z"
         id="path866" />
    </clipPath>
    <clipPath
       clipPathUnits="userSpaceOnUse"
       id="clipPath868">
      <path
         d="m 112,336 h 36 v 49.395 h -36 z"
         id="path868" />
    </clipPath>
    <clipPath
       clipPathUnits="userSpaceOnUse"
       id="clipPath870">
      <path
         d="m 245,363 h 37 v 22.395 h -37 z"
         id="path870" />
    </clipPath>
    <clipPath
       clipPathUnits="userSpaceOnUse"
       id="clipPath872">
      <path
         d="m 156,353 h 37 v 32.395 h -37 z"
         id="path872" />
    </clipPath>
    <clipPath
       clipPathUnits="userSpaceOnUse"
       id="clipPath874">
      <path
         d="m 201,362 h 37 v 23.395 h -37 z"
         id="path874" />
    </clipPath>
    <clipPath
       clipPathUnits="userSpaceOnUse"
       id="clipPath876">
      <path
         d="m 335,368 h 36 v 17.395 h -36 z"
         id="path876" />
    </clipPath>
    <clipPath
       clipPathUnits="userSpaceOnUse"
       id="clipPath878">
      <path
         d="m 290,366 h 37 v 19.395 h -37 z"
         id="path878" />
    </clipPath>
    <clipPath
       clipPathUnits="userSpaceOnUse"
       id="clipPath880">
      <path
         d="m 67,290 h 37 v 95.395 H 67 Z"
         id="path880" />
    </clipPath>
  </defs>
  <g
     inkscape:label="Layer 1"
     inkscape:groupmode="layer"
     id="layer1"
     transform="translate(-32.543748,-89.429167)"
     style="display:inline">
    <path
       id="path853"
       d="M 57.184,164.344 H 381.192 V 391.453 H 57.184 Z"
       style="fill:#ffffff;fill-opacity:1;fill-rule:nonzero;stroke:none"
       transform="matrix(0.35277776,0,0,0.35277776,26.573788,38.485154)"
       clip-path="url(#clipPath854)" />
    <path
       id="path855"
       d="M 63.238,349.266 H 375.137"
       style="fill:none;stroke:#e5ecf6;stroke-width:0.605625;stroke-linecap:butt;stroke-linejoin:miter;stroke-miterlimit:4;stroke-dasharray:none;stroke-opacity:1"
       transform="matrix(0.35277776,0,0,0.35277776,26.573788,38.485154)"
       clip-path="url(#clipPath856)" />
    <path
       id="path857"
       d="M 63.238,313.129 H 375.137"
       style="fill:none;stroke:#e5ecf6;stroke-width:0.605625;stroke-linecap:butt;stroke-linejoin:miter;stroke-miterlimit:4;stroke-dasharray:none;stroke-opacity:1"
       transform="matrix(0.35277776,0,0,0.35277776,26.573788,38.485154)"
       clip-path="url(#clipPath858)" />
    <path
       id="path859"
       d="M 63.238,276.996 H 375.137"
       style="fill:none;stroke:#e5ecf6;stroke-width:0.605625;stroke-linecap:butt;stroke-linejoin:miter;stroke-miterlimit:4;stroke-dasharray:none;stroke-opacity:1"
       transform="matrix(0.35277776,0,0,0.35277776,26.573788,38.485154)"
       clip-path="url(#clipPath860)" />
    <path
       id="path861"
       d="M 63.238,240.859 H 375.137"
       style="fill:none;stroke:#e5ecf6;stroke-width:0.605625;stroke-linecap:butt;stroke-linejoin:miter;stroke-miterlimit:4;stroke-dasharray:none;stroke-opacity:1"
       transform="matrix(0.35277776,0,0,0.35277776,26.573788,38.485154)"
       clip-path="url(#clipPath862)" />
    <path
       id="path863"
       d="M 63.238,204.727 H 375.137"
       style="fill:none;stroke:#e5ecf6;stroke-width:0.605625;stroke-linecap:butt;stroke-linejoin:miter;stroke-miterlimit:4;stroke-dasharray:none;stroke-opacity:1"
       transform="matrix(0.35277776,0,0,0.35277776,26.573788,38.485154)"
       clip-path="url(#clipPath864)" />
    <path
       id="path865"
       d="M 63.238,385.398 H 375.137"
       style="fill:none;stroke:#ffffff;stroke-width:1.21125;stroke-linecap:butt;stroke-linejoin:miter;stroke-miterlimit:4;stroke-dasharray:none;stroke-opacity:1"
       transform="matrix(0.35277776,0,0,0.35277776,26.573788,38.485154)"
       clip-path="url(#clipPath866)" />
    <text
       id="text893"
       xml:space="preserve"
       x="43.088207"
       y="175.34225"
       style="font-size:4.23333px;stroke-width:0.352778"><tspan
         style="font-variant:normal;font-weight:normal;font-size:2.56381px;font-family:'Open Sans';writing-mode:lr-tb;fill:#2a3f5f;fill-opacity:1;fill-rule:nonzero;stroke:none;stroke-width:0.352778"
         x="43.088207 44.552143"
         y="175.34225"
         sodipodi:role="line"
         id="tspan894">0%</tspan><tspan
         style="font-variant:normal;font-weight:normal;font-size:2.56381px;font-family:'Open Sans';writing-mode:lr-tb;fill:#2a3f5f;fill-opacity:1;fill-rule:nonzero;stroke:none;stroke-width:0.352778"
         x="41.621975 43.085911 44.549847"
         y="162.59541"
         sodipodi:role="line"
         id="tspan895">20%</tspan><tspan
         style="font-variant:normal;font-weight:normal;font-size:2.56381px;font-family:'Open Sans';writing-mode:lr-tb;fill:#2a3f5f;fill-opacity:1;fill-rule:nonzero;stroke:none;stroke-width:0.352778"
         x="41.621975 43.085911 44.549847"
         y="149.84718"
         sodipodi:role="line"
         id="tspan896">40%</tspan><tspan
         style="font-variant:normal;font-weight:normal;font-size:2.56381px;font-family:'Open Sans';writing-mode:lr-tb;fill:#2a3f5f;fill-opacity:1;fill-rule:nonzero;stroke:none;stroke-width:0.352778"
         x="41.621975 43.085911 44.549847"
         y="137.10033"
         sodipodi:role="line"
         id="tspan897">60%</tspan><tspan
         style="font-variant:normal;font-weight:normal;font-size:2.56381px;font-family:'Open Sans';writing-mode:lr-tb;fill:#2a3f5f;fill-opacity:1;fill-rule:nonzero;stroke:none;stroke-width:0.352778"
         x="41.621975 43.085911 44.549847"
         y="124.3521"
         sodipodi:role="line"
         id="tspan898">80%</tspan><tspan
         style="font-variant:normal;font-weight:normal;font-size:2.56381px;font-family:'Open Sans';writing-mode:lr-tb;fill:#2a3f5f;fill-opacity:1;fill-rule:nonzero;stroke:none;stroke-width:0.352778"
         x="40.155743 41.619678 43.083618 44.547554"
         y="111.60524"
         sodipodi:role="line"
         id="tspan899">100%</tspan></text>
    <text
       id="text899"
       xml:space="preserve"
       x="37.986694"
       y="92.188683"
       style="font-size:4.23333px;stroke-width:0.352778"><tspan
         style="font-variant:normal;font-weight:700;font-size:3.63206px;font-family:'Open Sans';writing-mode:lr-tb;fill:#2a3f5f;fill-opacity:1;fill-rule:nonzero;stroke:none;stroke-width:0.352778"
         x="37.986694 39.188908 42.519516 45.624931 48.0112 50.204971 52.725624 54.301941 56.444862 58.311745 60.698013 63.084282 65.332535 66.440315 68.68856 70.737045 73.7444 76.039864 78.288116 81.851173 84.044945 85.152725 87.538994 88.766632 90.57177 92.740112 93.847893 96.597366 98.99453 101.38081 103.18594 105.7066 108.09286 109.898 112.04092 115.28072 117.47449 119.99152 122.05453 124.30278 126.68905 129.28235 131.53059 133.17955 135.22804 137.4218 139.80807 140.91586 142.72099 144.91476 146.49107 147.59886 149.84711 152.23338"
         y="92.188683"
         sodipodi:role="line"
         id="tspan900">Inwhattechnologydomain(s)isRustusedatyourorganisation?</tspan></text>
    <text
       id="text900"
       xml:space="preserve"
       x="37.986694"
       y="96.911217"
       style="font-size:4.23333px;stroke-width:0.352778"><tspan
         style="font-variant:normal;font-weight:normal;font-size:2.90565px;font-family:'Open Sans';writing-mode:lr-tb;fill:#2a3f5f;fill-opacity:1;fill-rule:nonzero;stroke:none;stroke-width:0.352778"
         x="37.986694 38.843864 39.86956 41.624573 42.650269 44.265812 45.75351 46.939014 48.569088 49.955086 51.733345 53.488358 55.269527 56.655521 58.285595 60.427059 62.84166 64.500786 66.15992 67.819046 69.478172 70.942619 73.644882 75.426048 76.158272 77.183968 77.916191 79.69445 80.426682 82.812218 84.427765 86.208923 87.594925 89.852623 91.482689 92.668198 94.054192"
         y="96.911217"
         sodipodi:role="line"
         id="tspan901">(totalresponses=4139,multipleanswers)</tspan></text>
    <text
       id="text901"
       xml:space="preserve"
       transform="rotate(-90)"
       x="-158.52881"
       y="34.832359"
       style="font-size:4.23333px;stroke-width:0.352778"><tspan
         style="font-variant:normal;font-weight:normal;font-size:2.99111px;font-family:'Open Sans';writing-mode:lr-tb;fill:#2a3f5f;fill-opacity:1;fill-rule:nonzero;stroke:none;stroke-width:0.352778"
         x="-158.52881 -156.72816 -155.05014 -153.82977 -152.40601 -150.72798 -148.89442 -147.06088 -145.25424 -143.42068 -141.59013 -139.78349 -137.99481 -136.33176 -135.57799 -134.04654 -132.82616 -131.14815 -129.72139 -127.89082 -126.08419 -124.25064 -122.82388 -121.14587 -118.94141 -118.05903 -115.59734"
         y="34.832359"
         sodipodi:role="line"
         id="tspan902">Percentoutofallresponses(%)</tspan></text>
  </g>
  <g
     inkscape:groupmode="layer"
     id="layer2"
     inkscape:label="L**2+"
     transform="translate(-32.543747,-89.429167)"
     style="display:inline">
    <g
       id="g1"
       transform="matrix(0.26458333,0,0,0.26458333,-949.73871,38.485154)">
      <path
         id="path879"
         d="m 67.699,290.242 h 35.641 v 95.156 H 67.699 Z"
         style="fill:#636efa;fill-opacity:1;fill-rule:nonzero;stroke:#e5ecf6;stroke-width:0.302812;stroke-linecap:butt;stroke-linejoin:miter;stroke-miterlimit:4;stroke-dasharray:none;stroke-opacity:1"
         transform="matrix(1.3333333,0,0,1.3333333,3690,0)"
         clip-path="url(#clipPath880)" />
      <text
         id="text880"
         xml:space="preserve"
         transform="matrix(1.3333333,0,0,1.3333333,3790.3177,381.33333)"><tspan
           style="font-variant:normal;font-weight:normal;font-size:7.2675px;font-family:'Open Sans';writing-mode:lr-tb;fill:#2a3f5f;fill-opacity:1;fill-rule:nonzero;stroke:none"
           x="0 4.1497426 8.2994852 10.23264 14.382382"
           y="0"
           sodipodi:role="line"
           id="tspan880">52.7%</tspan></text>
    </g>
    <text
       id="text881-3"
       xml:space="preserve"
       transform="rotate(45)"
       x="166.3445"
       y="87.806671"
       style="font-size:4.23333px;stroke-width:0.352778"><tspan
         style="font-variant:normal;font-weight:normal;font-size:3.41842px;font-family:'Open Sans';writing-mode:lr-tb;fill:#2a3f5f;fill-opacity:1;fill-rule:nonzero;stroke:none;stroke-width:0.352778"
         x="166.3445 168.21779 170.13553 171.53024 173.23944 175.15718 176.5519 177.6492 179.27979 180.14124 182.23331 185.03983 187.10455 189.38805 190.75542 192.84749 194.74812 196.37529 198.16655 200.08427 202.17976 204.27184"
         y="87.806671"
         sodipodi:role="line"
         id="tspan881-5">Server-sideor&quot;backend&quot;</tspan><tspan
         style="font-variant:normal;font-weight:normal;font-size:3.41842px;font-family:'Open Sans';writing-mode:lr-tb;fill:#2a3f5f;fill-opacity:1;fill-rule:nonzero;stroke:none;stroke-width:0.352778"
         x="166.3445 168.24515 170.33722 172.42928 173.29073 174.15216 175.77933 177.67998 178.88667 179.74811 181.81284"
         y="92.250031"
         sodipodi:role="line"
         id="tspan882-6">application</tspan><tspan
         style="font-variant:normal;font-weight:normal;font-size:3.41842px;font-family:'Open Sans';writing-mode:lr-tb;fill:#2a3f5f;fill-opacity:1;fill-rule:nonzero;stroke:none;stroke-width:0.352778"
         sodipodi:role="line"
         id="tspan893-6"
         x="166.3445"
         y="97.541695" /></text>
  </g>
  <g
     inkscape:groupmode="layer"
     id="layer3"
     inkscape:label="L**3+"
     transform="translate(-32.543747,-89.429167)"
     style="display:inline">
    <g
       id="g2"
       transform="matrix(0.26458333,0,0,0.26458333,-949.73871,38.485154)">
      <path
         id="path867"
         d="m 112.254,336.336 h 35.645 v 49.062 h -35.645 z"
         style="fill:#636efa;fill-opacity:1;fill-rule:nonzero;stroke:#e5ecf6;stroke-width:0.302812;stroke-linecap:butt;stroke-linejoin:miter;stroke-miterlimit:4;stroke-dasharray:none;stroke-opacity:1"
         transform="matrix(1.3333333,0,0,1.3333333,3690,0)"
         clip-path="url(#clipPath868)" />
      <text
         id="text868"
         xml:space="preserve"
         transform="matrix(1.3333333,0,0,1.3333333,3849.8073,442.79687)"><tspan
           style="font-variant:normal;font-weight:normal;font-size:7.2675px;font-family:'Open Sans';writing-mode:lr-tb;fill:#2a3f5f;fill-opacity:1;fill-rule:nonzero;stroke:none"
           x="0 4.1497426 8.2994852 10.23264 14.382382"
           y="0"
           sodipodi:role="line"
           id="tspan868">27.2%</tspan></text>
    </g>
    <text
       id="text881-37"
       xml:space="preserve"
       transform="rotate(45)"
       x="166.36792"
       y="87.751541"
       style="font-size:4.23333px;display:inline;stroke-width:0.352778"><tspan
         style="font-variant:normal;font-weight:normal;font-size:3.41842px;font-family:'Open Sans';writing-mode:lr-tb;fill:#2a3f5f;fill-opacity:1;fill-rule:nonzero;stroke:none;stroke-width:0.352778"
         x="177.48314 179.63673 180.49818 182.5629 184.65839 187.63925 189.26642 191.33115 194.51027 196.60234 198.69783 199.90453 200.76598 202.86147"
         y="76.63633"
         sodipodi:role="line"
         id="tspan883-2">Cloudcomputing</tspan><tspan
         style="font-variant:normal;font-weight:normal;font-size:3.41842px;font-family:'Open Sans';writing-mode:lr-tb;fill:#2a3f5f;fill-opacity:1;fill-rule:nonzero;stroke:none;stroke-width:0.352778"
         x="177.48314 179.38377 181.47585 183.56792 184.42935 185.2908 186.91797 188.8186 190.0253 190.88675 192.95148 195.04697"
         y="81.079681"
         sodipodi:role="line"
         id="tspan884-8">applications</tspan><tspan
         style="font-variant:normal;font-weight:normal;font-size:3.41842px;font-family:'Open Sans';writing-mode:lr-tb;fill:#2a3f5f;fill-opacity:1;fill-rule:nonzero;stroke:none;stroke-width:0.352778"
         sodipodi:role="line"
         id="tspan893-1"
         x="177.48314"
         y="86.371346" /></text>
  </g>
  <g
     inkscape:groupmode="layer"
     id="layer4"
     inkscape:label="L**4+"
     style="display:inline">
    <g
       id="g3"
       transform="translate(-32.543747,-89.429167)">
      <path
         id="path871"
         d="m 156.809,353.797 h 35.648 v 31.602 h -35.648 z"
         style="fill:#636efa;fill-opacity:1;fill-rule:nonzero;stroke:#e5ecf6;stroke-width:0.302812;stroke-linecap:butt;stroke-linejoin:miter;stroke-miterlimit:4;stroke-dasharray:none;stroke-opacity:1"
         transform="matrix(0.35277776,0,0,0.35277776,26.573788,38.485154)"
         clip-path="url(#clipPath872)" />
      <text
         id="text872"
         xml:space="preserve"
         x="84.518913"
         y="161.80028"
         style="font-size:4.23333px;stroke-width:0.352778"><tspan
           style="font-variant:normal;font-weight:normal;font-size:2.56381px;font-family:'Open Sans';writing-mode:lr-tb;fill:#2a3f5f;fill-opacity:1;fill-rule:nonzero;stroke:none;stroke-width:0.352778"
           x="84.518913 85.982849 87.446785 88.128761 89.592697"
           y="161.80028"
           sodipodi:role="line"
           id="tspan872">17.5%</tspan></text>
      <path
         id="path873"
         d="m 201.363,362.566 h 35.648 v 22.832 h -35.648 z"
         style="fill:#636efa;fill-opacity:1;fill-rule:nonzero;stroke:#e5ecf6;stroke-width:0.302812;stroke-linecap:butt;stroke-linejoin:miter;stroke-miterlimit:4;stroke-dasharray:none;stroke-opacity:1"
         transform="matrix(0.35277776,0,0,0.35277776,26.573788,38.485154)"
         clip-path="url(#clipPath874)" />
      <text
         id="text874"
         xml:space="preserve"
         x="100.23821"
         y="164.89398"
         style="font-size:4.23333px;stroke-width:0.352778"><tspan
           style="font-variant:normal;font-weight:normal;font-size:2.56381px;font-family:'Open Sans';writing-mode:lr-tb;fill:#2a3f5f;fill-opacity:1;fill-rule:nonzero;stroke:none;stroke-width:0.352778"
           x="100.23821 101.70215 103.16608 103.84806 105.312"
           y="164.89398"
           sodipodi:role="line"
           id="tspan874">12.6%</tspan></text>
    </g>
    <text
       id="text881-4"
       xml:space="preserve"
       transform="rotate(45,91.678681,-83.99836)"
       x="166.15558"
       y="87.801979"
       style="font-size:4.23333px;display:inline;stroke-width:0.352778"><tspan
         style="font-variant:normal;font-weight:normal;font-size:3.41842px;font-family:'Open Sans';writing-mode:lr-tb;fill:#2a3f5f;fill-opacity:1;fill-rule:nonzero;stroke:none;stroke-width:0.352778"
         x="188.38503 190.28568 193.4648 195.55687 197.47459 199.56667 201.65874 203.57648 206.55733 208.6494 210.56714 212.27635 213.13779 214.76495 216.68269 219.20206 220.21049 222.86661 223.72804 224.93474"
         y="65.572525"
         sodipodi:role="line"
         id="tspan885-0">Embeddeddevices(with</tspan><tspan
         style="font-variant:normal;font-weight:normal;font-size:3.41842px;font-family:'Open Sans';writing-mode:lr-tb;fill:#2a3f5f;fill-opacity:1;fill-rule:nonzero;stroke:none;stroke-width:0.352778"
         x="188.38503 190.44975 192.54182 194.45956 195.85426 197.75491 198.96161 199.82306 201.91855 204.6772 206.30779 208.02725 209.65784 210.86453 212.78227 215.9614 217.59198"
         y="70.015884"
         sodipodi:role="line"
         id="tspan886-6">operatingsystems)</tspan><tspan
         style="font-variant:normal;font-weight:normal;font-size:3.41842px;font-family:'Open Sans';writing-mode:lr-tb;fill:#2a3f5f;fill-opacity:1;fill-rule:nonzero;stroke:none;stroke-width:0.352778"
         x="199.49927 201.3999 204.57904 206.67111 208.58884 210.68091 212.77298 214.6907 217.67157 219.76364 221.68138 223.39058 224.25203 225.8792 227.79692 230.3163 231.32472 233.41679 235.31743 236.71214"
         y="54.45829"
         sodipodi:role="line"
         id="tspan887-3">Embeddeddevices(bare</tspan><tspan
         style="font-variant:normal;font-weight:normal;font-size:3.41842px;font-family:'Open Sans';writing-mode:lr-tb;fill:#2a3f5f;fill-opacity:1;fill-rule:nonzero;stroke:none;stroke-width:0.352778"
         x="199.49927 202.67841 204.59613 205.80283 207.70348 208.56491"
         y="58.901649"
         sodipodi:role="line"
         id="tspan888-2">metal)</tspan><tspan
         style="font-variant:normal;font-weight:normal;font-size:3.41842px;font-family:'Open Sans';writing-mode:lr-tb;fill:#2a3f5f;fill-opacity:1;fill-rule:nonzero;stroke:none;stroke-width:0.352778"
         sodipodi:role="line"
         id="tspan893-5"
         x="188.38503"
         y="64.193314" /></text>
  </g>
  <g
     inkscape:groupmode="layer"
     id="layer5"
     inkscape:label="L**5+"
     style="display:inline">
    <g
       id="g4"
       transform="translate(-32.543747,-89.429167)">
      <path
         id="path869"
         d="m 245.922,363.703 h 35.645 v 21.695 h -35.645 z"
         style="fill:#636efa;fill-opacity:1;fill-rule:nonzero;stroke:#e5ecf6;stroke-width:0.302812;stroke-linecap:butt;stroke-linejoin:miter;stroke-miterlimit:4;stroke-dasharray:none;stroke-opacity:1"
         transform="matrix(0.35277776,0,0,0.35277776,26.573788,38.485154)"
         clip-path="url(#clipPath870)" />
      <text
         id="text870"
         xml:space="preserve"
         x="115.9561"
         y="165.29636"
         style="font-size:4.23333px;stroke-width:0.352778"><tspan
           style="font-variant:normal;font-weight:normal;font-size:2.56381px;font-family:'Open Sans';writing-mode:lr-tb;fill:#2a3f5f;fill-opacity:1;fill-rule:nonzero;stroke:none;stroke-width:0.352778"
           x="115.9561 117.42004 118.88397 119.56595 121.02988"
           y="165.29636"
           sodipodi:role="line"
           id="tspan870">12.0%</tspan></text>
    </g>
    <g
       id="g5"
       transform="translate(-32.543747,-89.429167)">
      <path
         id="path875"
         d="m 335.039,368.195 h 35.641 v 17.203 h -35.641 z"
         style="fill:#636efa;fill-opacity:1;fill-rule:nonzero;stroke:#e5ecf6;stroke-width:0.302812;stroke-linecap:butt;stroke-linejoin:miter;stroke-miterlimit:4;stroke-dasharray:none;stroke-opacity:1"
         transform="matrix(0.35277776,0,0,0.35277776,26.573788,38.485154)"
         clip-path="url(#clipPath876)" />
      <text
         id="text876"
         xml:space="preserve"
         x="148.1774"
         y="166.8811"
         style="font-size:4.23333px;stroke-width:0.352778"><tspan
           style="font-variant:normal;font-weight:normal;font-size:2.56381px;font-family:'Open Sans';writing-mode:lr-tb;fill:#2a3f5f;fill-opacity:1;fill-rule:nonzero;stroke:none;stroke-width:0.352778"
           x="148.1774 149.64134 150.32332 151.78725"
           y="166.8811"
           sodipodi:role="line"
           id="tspan876">9.5%</tspan></text>
      <path
         id="path877"
         d="m 290.477,366.586 h 35.648 v 18.812 h -35.648 z"
         style="fill:#636efa;fill-opacity:1;fill-rule:nonzero;stroke:#e5ecf6;stroke-width:0.302812;stroke-linecap:butt;stroke-linejoin:miter;stroke-miterlimit:4;stroke-dasharray:none;stroke-opacity:1"
         transform="matrix(0.35277776,0,0,0.35277776,26.573788,38.485154)"
         clip-path="url(#clipPath878)" />
      <text
         id="text878"
         xml:space="preserve"
         x="131.67401"
         y="166.31335"
         style="font-size:4.23333px;stroke-width:0.352778"><tspan
           style="font-variant:normal;font-weight:normal;font-size:2.56381px;font-family:'Open Sans';writing-mode:lr-tb;fill:#2a3f5f;fill-opacity:1;fill-rule:nonzero;stroke:none;stroke-width:0.352778"
           x="131.67401 133.13794 134.60188 135.28386 136.74779"
           y="166.31335"
           sodipodi:role="line"
           id="tspan878">10.4%</tspan></text>
    </g>
    <text
       id="text881-6"
       xml:space="preserve"
       transform="rotate(45,91.678681,-83.99836)"
       x="166.29884"
       y="87.852348"
       style="font-size:4.23333px;display:inline;stroke-width:0.352778"><tspan
         style="font-variant:normal;font-weight:normal;font-size:3.41842px;font-family:'Open Sans';writing-mode:lr-tb;fill:#2a3f5f;fill-opacity:1;fill-rule:nonzero;stroke:none;stroke-width:0.352778"
         x="210.75677 213.24879 215.16652 216.7971 218.58836 219.79506 221.85979 224.84062 226.46779 228.53252 231.71164 233.80371 235.8992 237.1059 239.02362"
         y="43.394409"
         sodipodi:role="line"
         id="tspan889-7">Desktopcomputer</tspan><tspan
         style="font-variant:normal;font-weight:normal;font-size:3.41842px;font-family:'Open Sans';writing-mode:lr-tb;fill:#2a3f5f;fill-opacity:1;fill-rule:nonzero;stroke:none;stroke-width:0.352778"
         x="210.75677 212.65741 214.74948 216.84155 217.70299 218.56444 220.1916 222.09224 223.29893 224.16039 226.22508 229.20937 230.36478 231.75949 233.82422 235.91971 237.1264 239.04416 241.13965"
         y="47.837769"
         sodipodi:role="line"
         id="tspan890-4">applicationfrontend</tspan><tspan
         style="font-variant:normal;font-weight:normal;font-size:3.41842px;font-family:'Open Sans';writing-mode:lr-tb;fill:#2a3f5f;fill-opacity:1;fill-rule:nonzero;stroke:none;stroke-width:0.352778"
         x="221.87198 223.74525 225.37242 226.23387 228.1516 230.24707 231.45377 232.31522 233.47064 234.33209 236.84805 238.74869 240.84418 242.93625 244.1908 246.25552 248.53903 250.63452 252.73001 255.90912 257.82684 259.22156 260.08301"
         y="32.279213"
         sodipodi:role="line"
         id="tspan891-4">Scientificand/ornumeric</tspan><tspan
         style="font-variant:normal;font-weight:normal;font-size:3.41842px;font-family:'Open Sans';writing-mode:lr-tb;fill:#2a3f5f;fill-opacity:1;fill-rule:nonzero;stroke:none;stroke-width:0.352778"
         x="221.87198 223.49913 225.56386 228.743 230.83505 232.93054 234.13724 234.99869 237.09418"
         y="36.722557"
         sodipodi:role="line"
         id="tspan892-3">computing</tspan><tspan
         style="font-variant:normal;font-weight:normal;font-size:3.41842px;font-family:'Open Sans';writing-mode:lr-tb;fill:#2a3f5f;fill-opacity:1;fill-rule:nonzero;stroke:none;stroke-width:0.352778"
         x="232.98621 233.93652 236.00125 238.7804 239.78885 240.73917 242.83466 244.04135 245.95908 247.35379 249.44928 251.36703 253.46252 255.52722 257.56802 259.4584 261.55389 262.41534 264.51083 266.38071 268.01129"
         y="21.164976"
         sodipodi:role="line"
         id="tspan893-0">IoT(InternetofThings)</tspan></text>
  </g>
</svg>
